<?xml version="1.0" encoding="utf-8" standalone="no"?>
<!DOCTYPE svg PUBLIC "-//W3C//DTD SVG 1.1//EN"
  "http://www.w3.org/Graphics/SVG/1.1/DTD/svg11.dtd">
<svg xmlns:xlink="http://www.w3.org/1999/xlink" width="504pt" height="158.4pt" viewBox="0 0 504 158.4" xmlns="http://www.w3.org/2000/svg" version="1.1">
 <metadata>
  <rdf:RDF xmlns:dc="http://purl.org/dc/elements/1.1/" xmlns:cc="http://creativecommons.org/ns#" xmlns:rdf="http://www.w3.org/1999/02/22-rdf-syntax-ns#">
   <cc:Work>
    <dc:type rdf:resource="http://purl.org/dc/dcmitype/StillImage"/>
    <dc:date>2025-12-16T10:53:44.422753</dc:date>
    <dc:format>image/svg+xml</dc:format>
    <dc:creator>
     <cc:Agent>
      <dc:title>Matplotlib v3.10.8, https://matplotlib.org/</dc:title>
     </cc:Agent>
    </dc:creator>
   </cc:Work>
  </rdf:RDF>
 </metadata>
 <defs>
  <style type="text/css">*{stroke-linejoin: round; stroke-linecap: butt}</style>
 </defs>
 <g id="figure_1">
  <g id="patch_1">
   <path d="M 0 158.4 
L 504 158.4 
L 504 0 
L 0 0 
z
" style="fill: #ffffff"/>
  </g>
  <g id="axes_1">
   <g id="patch_2">
    <path d="M 41.698012 98.139617 
L 383.27 98.139617 
L 383.27 8.64 
L 41.698012 8.64 
z
" style="fill: #ffffff"/>
   </g>
   <g id="matplotlib.axis_1">
    <g id="xtick_1">
     <g id="line2d_1">
      <defs>
       <path id="ma6e89acf08" d="M 0 0 
L 0 3.5 
" style="stroke: #000000; stroke-width: 0.8"/>
      </defs>
      <g>
       <use xlink:href="#ma6e89acf08" x="61.309801" y="98.139617" style="stroke: #000000; stroke-width: 0.8"/>
      </g>
     </g>
     <g id="text_1">
      <!-- Ackermann -->
      <g transform="translate(25.395353 132.893969) rotate(-30) scale(0.08 -0.08)">
       <defs>
        <path id="DejaVuSans-41" d="M 2188 4044 
L 1331 1722 
L 3047 1722 
L 2188 4044 
z
M 1831 4666 
L 2547 4666 
L 4325 0 
L 3669 0 
L 3244 1197 
L 1141 1197 
L 716 0 
L 50 0 
L 1831 4666 
z
" transform="scale(0.015625)"/>
        <path id="DejaVuSans-63" d="M 3122 3366 
L 3122 2828 
Q 2878 2963 2633 3030 
Q 2388 3097 2138 3097 
Q 1578 3097 1268 2742 
Q 959 2388 959 1747 
Q 959 1106 1268 751 
Q 1578 397 2138 397 
Q 2388 397 2633 464 
Q 2878 531 3122 666 
L 3122 134 
Q 2881 22 2623 -34 
Q 2366 -91 2075 -91 
Q 1284 -91 818 406 
Q 353 903 353 1747 
Q 353 2603 823 3093 
Q 1294 3584 2113 3584 
Q 2378 3584 2631 3529 
Q 2884 3475 3122 3366 
z
" transform="scale(0.015625)"/>
        <path id="DejaVuSans-6b" d="M 581 4863 
L 1159 4863 
L 1159 1991 
L 2875 3500 
L 3609 3500 
L 1753 1863 
L 3688 0 
L 2938 0 
L 1159 1709 
L 1159 0 
L 581 0 
L 581 4863 
z
" transform="scale(0.015625)"/>
        <path id="DejaVuSans-65" d="M 3597 1894 
L 3597 1613 
L 953 1613 
Q 991 1019 1311 708 
Q 1631 397 2203 397 
Q 2534 397 2845 478 
Q 3156 559 3463 722 
L 3463 178 
Q 3153 47 2828 -22 
Q 2503 -91 2169 -91 
Q 1331 -91 842 396 
Q 353 884 353 1716 
Q 353 2575 817 3079 
Q 1281 3584 2069 3584 
Q 2775 3584 3186 3129 
Q 3597 2675 3597 1894 
z
M 3022 2063 
Q 3016 2534 2758 2815 
Q 2500 3097 2075 3097 
Q 1594 3097 1305 2825 
Q 1016 2553 972 2059 
L 3022 2063 
z
" transform="scale(0.015625)"/>
        <path id="DejaVuSans-72" d="M 2631 2963 
Q 2534 3019 2420 3045 
Q 2306 3072 2169 3072 
Q 1681 3072 1420 2755 
Q 1159 2438 1159 1844 
L 1159 0 
L 581 0 
L 581 3500 
L 1159 3500 
L 1159 2956 
Q 1341 3275 1631 3429 
Q 1922 3584 2338 3584 
Q 2397 3584 2469 3576 
Q 2541 3569 2628 3553 
L 2631 2963 
z
" transform="scale(0.015625)"/>
        <path id="DejaVuSans-6d" d="M 3328 2828 
Q 3544 3216 3844 3400 
Q 4144 3584 4550 3584 
Q 5097 3584 5394 3201 
Q 5691 2819 5691 2113 
L 5691 0 
L 5113 0 
L 5113 2094 
Q 5113 2597 4934 2840 
Q 4756 3084 4391 3084 
Q 3944 3084 3684 2787 
Q 3425 2491 3425 1978 
L 3425 0 
L 2847 0 
L 2847 2094 
Q 2847 2600 2669 2842 
Q 2491 3084 2119 3084 
Q 1678 3084 1418 2786 
Q 1159 2488 1159 1978 
L 1159 0 
L 581 0 
L 581 3500 
L 1159 3500 
L 1159 2956 
Q 1356 3278 1631 3431 
Q 1906 3584 2284 3584 
Q 2666 3584 2933 3390 
Q 3200 3197 3328 2828 
z
" transform="scale(0.015625)"/>
        <path id="DejaVuSans-61" d="M 2194 1759 
Q 1497 1759 1228 1600 
Q 959 1441 959 1056 
Q 959 750 1161 570 
Q 1363 391 1709 391 
Q 2188 391 2477 730 
Q 2766 1069 2766 1631 
L 2766 1759 
L 2194 1759 
z
M 3341 1997 
L 3341 0 
L 2766 0 
L 2766 531 
Q 2569 213 2275 61 
Q 1981 -91 1556 -91 
Q 1019 -91 701 211 
Q 384 513 384 1019 
Q 384 1609 779 1909 
Q 1175 2209 1959 2209 
L 2766 2209 
L 2766 2266 
Q 2766 2663 2505 2880 
Q 2244 3097 1772 3097 
Q 1472 3097 1187 3025 
Q 903 2953 641 2809 
L 641 3341 
Q 956 3463 1253 3523 
Q 1550 3584 1831 3584 
Q 2591 3584 2966 3190 
Q 3341 2797 3341 1997 
z
" transform="scale(0.015625)"/>
        <path id="DejaVuSans-6e" d="M 3513 2113 
L 3513 0 
L 2938 0 
L 2938 2094 
Q 2938 2591 2744 2837 
Q 2550 3084 2163 3084 
Q 1697 3084 1428 2787 
Q 1159 2491 1159 1978 
L 1159 0 
L 581 0 
L 581 3500 
L 1159 3500 
L 1159 2956 
Q 1366 3272 1645 3428 
Q 1925 3584 2291 3584 
Q 2894 3584 3203 3211 
Q 3513 2838 3513 2113 
z
" transform="scale(0.015625)"/>
       </defs>
       <use xlink:href="#DejaVuSans-41"/>
       <use xlink:href="#DejaVuSans-63" transform="translate(66.658203 0)"/>
       <use xlink:href="#DejaVuSans-6b" transform="translate(121.638672 0)"/>
       <use xlink:href="#DejaVuSans-65" transform="translate(175.923828 0)"/>
       <use xlink:href="#DejaVuSans-72" transform="translate(237.447266 0)"/>
       <use xlink:href="#DejaVuSans-6d" transform="translate(276.810547 0)"/>
       <use xlink:href="#DejaVuSans-61" transform="translate(374.222656 0)"/>
       <use xlink:href="#DejaVuSans-6e" transform="translate(435.501953 0)"/>
       <use xlink:href="#DejaVuSans-6e" transform="translate(498.880859 0)"/>
      </g>
     </g>
    </g>
    <g id="xtick_2">
     <g id="line2d_2">
      <g>
       <use xlink:href="#ma6e89acf08" x="85.824537" y="98.139617" style="stroke: #000000; stroke-width: 0.8"/>
      </g>
     </g>
     <g id="text_2">
      <!-- Bellman Ford -->
      <g transform="translate(43.313141 136.702719) rotate(-30) scale(0.08 -0.08)">
       <defs>
        <path id="DejaVuSans-42" d="M 1259 2228 
L 1259 519 
L 2272 519 
Q 2781 519 3026 730 
Q 3272 941 3272 1375 
Q 3272 1813 3026 2020 
Q 2781 2228 2272 2228 
L 1259 2228 
z
M 1259 4147 
L 1259 2741 
L 2194 2741 
Q 2656 2741 2882 2914 
Q 3109 3088 3109 3444 
Q 3109 3797 2882 3972 
Q 2656 4147 2194 4147 
L 1259 4147 
z
M 628 4666 
L 2241 4666 
Q 2963 4666 3353 4366 
Q 3744 4066 3744 3513 
Q 3744 3084 3544 2831 
Q 3344 2578 2956 2516 
Q 3422 2416 3680 2098 
Q 3938 1781 3938 1306 
Q 3938 681 3513 340 
Q 3088 0 2303 0 
L 628 0 
L 628 4666 
z
" transform="scale(0.015625)"/>
        <path id="DejaVuSans-6c" d="M 603 4863 
L 1178 4863 
L 1178 0 
L 603 0 
L 603 4863 
z
" transform="scale(0.015625)"/>
        <path id="DejaVuSans-20" transform="scale(0.015625)"/>
        <path id="DejaVuSans-46" d="M 628 4666 
L 3309 4666 
L 3309 4134 
L 1259 4134 
L 1259 2759 
L 3109 2759 
L 3109 2228 
L 1259 2228 
L 1259 0 
L 628 0 
L 628 4666 
z
" transform="scale(0.015625)"/>
        <path id="DejaVuSans-6f" d="M 1959 3097 
Q 1497 3097 1228 2736 
Q 959 2375 959 1747 
Q 959 1119 1226 758 
Q 1494 397 1959 397 
Q 2419 397 2687 759 
Q 2956 1122 2956 1747 
Q 2956 2369 2687 2733 
Q 2419 3097 1959 3097 
z
M 1959 3584 
Q 2709 3584 3137 3096 
Q 3566 2609 3566 1747 
Q 3566 888 3137 398 
Q 2709 -91 1959 -91 
Q 1206 -91 779 398 
Q 353 888 353 1747 
Q 353 2609 779 3096 
Q 1206 3584 1959 3584 
z
" transform="scale(0.015625)"/>
        <path id="DejaVuSans-64" d="M 2906 2969 
L 2906 4863 
L 3481 4863 
L 3481 0 
L 2906 0 
L 2906 525 
Q 2725 213 2448 61 
Q 2172 -91 1784 -91 
Q 1150 -91 751 415 
Q 353 922 353 1747 
Q 353 2572 751 3078 
Q 1150 3584 1784 3584 
Q 2172 3584 2448 3432 
Q 2725 3281 2906 2969 
z
M 947 1747 
Q 947 1113 1208 752 
Q 1469 391 1925 391 
Q 2381 391 2643 752 
Q 2906 1113 2906 1747 
Q 2906 2381 2643 2742 
Q 2381 3103 1925 3103 
Q 1469 3103 1208 2742 
Q 947 2381 947 1747 
z
" transform="scale(0.015625)"/>
       </defs>
       <use xlink:href="#DejaVuSans-42"/>
       <use xlink:href="#DejaVuSans-65" transform="translate(68.603516 0)"/>
       <use xlink:href="#DejaVuSans-6c" transform="translate(130.126953 0)"/>
       <use xlink:href="#DejaVuSans-6c" transform="translate(157.910156 0)"/>
       <use xlink:href="#DejaVuSans-6d" transform="translate(185.693359 0)"/>
       <use xlink:href="#DejaVuSans-61" transform="translate(283.105469 0)"/>
       <use xlink:href="#DejaVuSans-6e" transform="translate(344.384766 0)"/>
       <use xlink:href="#DejaVuSans-20" transform="translate(407.763672 0)"/>
       <use xlink:href="#DejaVuSans-46" transform="translate(439.550781 0)"/>
       <use xlink:href="#DejaVuSans-6f" transform="translate(493.445312 0)"/>
       <use xlink:href="#DejaVuSans-72" transform="translate(554.626953 0)"/>
       <use xlink:href="#DejaVuSans-64" transform="translate(593.990234 0)"/>
      </g>
     </g>
    </g>
    <g id="xtick_3">
     <g id="line2d_3">
      <g>
       <use xlink:href="#ma6e89acf08" x="110.339273" y="98.139617" style="stroke: #000000; stroke-width: 0.8"/>
      </g>
     </g>
     <g id="text_3">
      <!-- Dijkstra -->
      <g transform="translate(86.763522 125.770219) rotate(-30) scale(0.08 -0.08)">
       <defs>
        <path id="DejaVuSans-44" d="M 1259 4147 
L 1259 519 
L 2022 519 
Q 2988 519 3436 956 
Q 3884 1394 3884 2338 
Q 3884 3275 3436 3711 
Q 2988 4147 2022 4147 
L 1259 4147 
z
M 628 4666 
L 1925 4666 
Q 3281 4666 3915 4102 
Q 4550 3538 4550 2338 
Q 4550 1131 3912 565 
Q 3275 0 1925 0 
L 628 0 
L 628 4666 
z
" transform="scale(0.015625)"/>
        <path id="DejaVuSans-69" d="M 603 3500 
L 1178 3500 
L 1178 0 
L 603 0 
L 603 3500 
z
M 603 4863 
L 1178 4863 
L 1178 4134 
L 603 4134 
L 603 4863 
z
" transform="scale(0.015625)"/>
        <path id="DejaVuSans-6a" d="M 603 3500 
L 1178 3500 
L 1178 -63 
Q 1178 -731 923 -1031 
Q 669 -1331 103 -1331 
L -116 -1331 
L -116 -844 
L 38 -844 
Q 366 -844 484 -692 
Q 603 -541 603 -63 
L 603 3500 
z
M 603 4863 
L 1178 4863 
L 1178 4134 
L 603 4134 
L 603 4863 
z
" transform="scale(0.015625)"/>
        <path id="DejaVuSans-73" d="M 2834 3397 
L 2834 2853 
Q 2591 2978 2328 3040 
Q 2066 3103 1784 3103 
Q 1356 3103 1142 2972 
Q 928 2841 928 2578 
Q 928 2378 1081 2264 
Q 1234 2150 1697 2047 
L 1894 2003 
Q 2506 1872 2764 1633 
Q 3022 1394 3022 966 
Q 3022 478 2636 193 
Q 2250 -91 1575 -91 
Q 1294 -91 989 -36 
Q 684 19 347 128 
L 347 722 
Q 666 556 975 473 
Q 1284 391 1588 391 
Q 1994 391 2212 530 
Q 2431 669 2431 922 
Q 2431 1156 2273 1281 
Q 2116 1406 1581 1522 
L 1381 1569 
Q 847 1681 609 1914 
Q 372 2147 372 2553 
Q 372 3047 722 3315 
Q 1072 3584 1716 3584 
Q 2034 3584 2315 3537 
Q 2597 3491 2834 3397 
z
" transform="scale(0.015625)"/>
        <path id="DejaVuSans-74" d="M 1172 4494 
L 1172 3500 
L 2356 3500 
L 2356 3053 
L 1172 3053 
L 1172 1153 
Q 1172 725 1289 603 
Q 1406 481 1766 481 
L 2356 481 
L 2356 0 
L 1766 0 
Q 1100 0 847 248 
Q 594 497 594 1153 
L 594 3053 
L 172 3053 
L 172 3500 
L 594 3500 
L 594 4494 
L 1172 4494 
z
" transform="scale(0.015625)"/>
       </defs>
       <use xlink:href="#DejaVuSans-44"/>
       <use xlink:href="#DejaVuSans-69" transform="translate(77.001953 0)"/>
       <use xlink:href="#DejaVuSans-6a" transform="translate(104.785156 0)"/>
       <use xlink:href="#DejaVuSans-6b" transform="translate(132.568359 0)"/>
       <use xlink:href="#DejaVuSans-73" transform="translate(190.478516 0)"/>
       <use xlink:href="#DejaVuSans-74" transform="translate(242.578125 0)"/>
       <use xlink:href="#DejaVuSans-72" transform="translate(281.787109 0)"/>
       <use xlink:href="#DejaVuSans-61" transform="translate(322.900391 0)"/>
      </g>
     </g>
    </g>
    <g id="xtick_4">
     <g id="line2d_4">
      <g>
       <use xlink:href="#ma6e89acf08" x="134.854009" y="98.139617" style="stroke: #000000; stroke-width: 0.8"/>
      </g>
     </g>
     <g id="text_4">
      <!-- Euler -->
      <g transform="translate(120.088984 120.683344) rotate(-30) scale(0.08 -0.08)">
       <defs>
        <path id="DejaVuSans-45" d="M 628 4666 
L 3578 4666 
L 3578 4134 
L 1259 4134 
L 1259 2753 
L 3481 2753 
L 3481 2222 
L 1259 2222 
L 1259 531 
L 3634 531 
L 3634 0 
L 628 0 
L 628 4666 
z
" transform="scale(0.015625)"/>
        <path id="DejaVuSans-75" d="M 544 1381 
L 544 3500 
L 1119 3500 
L 1119 1403 
Q 1119 906 1312 657 
Q 1506 409 1894 409 
Q 2359 409 2629 706 
Q 2900 1003 2900 1516 
L 2900 3500 
L 3475 3500 
L 3475 0 
L 2900 0 
L 2900 538 
Q 2691 219 2414 64 
Q 2138 -91 1772 -91 
Q 1169 -91 856 284 
Q 544 659 544 1381 
z
M 1991 3584 
L 1991 3584 
z
" transform="scale(0.015625)"/>
       </defs>
       <use xlink:href="#DejaVuSans-45"/>
       <use xlink:href="#DejaVuSans-75" transform="translate(63.183594 0)"/>
       <use xlink:href="#DejaVuSans-6c" transform="translate(126.5625 0)"/>
       <use xlink:href="#DejaVuSans-65" transform="translate(154.345703 0)"/>
       <use xlink:href="#DejaVuSans-72" transform="translate(215.869141 0)"/>
      </g>
     </g>
    </g>
    <g id="xtick_5">
     <g id="line2d_5">
      <g>
       <use xlink:href="#ma6e89acf08" x="159.368745" y="98.139617" style="stroke: #000000; stroke-width: 0.8"/>
      </g>
     </g>
     <g id="text_5">
      <!-- Midpoint Explicit -->
      <g transform="translate(105.059918 143.513969) rotate(-30) scale(0.08 -0.08)">
       <defs>
        <path id="DejaVuSans-4d" d="M 628 4666 
L 1569 4666 
L 2759 1491 
L 3956 4666 
L 4897 4666 
L 4897 0 
L 4281 0 
L 4281 4097 
L 3078 897 
L 2444 897 
L 1241 4097 
L 1241 0 
L 628 0 
L 628 4666 
z
" transform="scale(0.015625)"/>
        <path id="DejaVuSans-70" d="M 1159 525 
L 1159 -1331 
L 581 -1331 
L 581 3500 
L 1159 3500 
L 1159 2969 
Q 1341 3281 1617 3432 
Q 1894 3584 2278 3584 
Q 2916 3584 3314 3078 
Q 3713 2572 3713 1747 
Q 3713 922 3314 415 
Q 2916 -91 2278 -91 
Q 1894 -91 1617 61 
Q 1341 213 1159 525 
z
M 3116 1747 
Q 3116 2381 2855 2742 
Q 2594 3103 2138 3103 
Q 1681 3103 1420 2742 
Q 1159 2381 1159 1747 
Q 1159 1113 1420 752 
Q 1681 391 2138 391 
Q 2594 391 2855 752 
Q 3116 1113 3116 1747 
z
" transform="scale(0.015625)"/>
        <path id="DejaVuSans-78" d="M 3513 3500 
L 2247 1797 
L 3578 0 
L 2900 0 
L 1881 1375 
L 863 0 
L 184 0 
L 1544 1831 
L 300 3500 
L 978 3500 
L 1906 2253 
L 2834 3500 
L 3513 3500 
z
" transform="scale(0.015625)"/>
       </defs>
       <use xlink:href="#DejaVuSans-4d"/>
       <use xlink:href="#DejaVuSans-69" transform="translate(86.279297 0)"/>
       <use xlink:href="#DejaVuSans-64" transform="translate(114.0625 0)"/>
       <use xlink:href="#DejaVuSans-70" transform="translate(177.539062 0)"/>
       <use xlink:href="#DejaVuSans-6f" transform="translate(241.015625 0)"/>
       <use xlink:href="#DejaVuSans-69" transform="translate(302.197266 0)"/>
       <use xlink:href="#DejaVuSans-6e" transform="translate(329.980469 0)"/>
       <use xlink:href="#DejaVuSans-74" transform="translate(393.359375 0)"/>
       <use xlink:href="#DejaVuSans-20" transform="translate(432.568359 0)"/>
       <use xlink:href="#DejaVuSans-45" transform="translate(464.355469 0)"/>
       <use xlink:href="#DejaVuSans-78" transform="translate(527.539062 0)"/>
       <use xlink:href="#DejaVuSans-70" transform="translate(586.71875 0)"/>
       <use xlink:href="#DejaVuSans-6c" transform="translate(650.195312 0)"/>
       <use xlink:href="#DejaVuSans-69" transform="translate(677.978516 0)"/>
       <use xlink:href="#DejaVuSans-63" transform="translate(705.761719 0)"/>
       <use xlink:href="#DejaVuSans-69" transform="translate(760.742188 0)"/>
       <use xlink:href="#DejaVuSans-74" transform="translate(788.525391 0)"/>
      </g>
     </g>
    </g>
    <g id="xtick_6">
     <g id="line2d_6">
      <g>
       <use xlink:href="#ma6e89acf08" x="183.883481" y="98.139617" style="stroke: #000000; stroke-width: 0.8"/>
      </g>
     </g>
     <g id="text_6">
      <!-- Midpoint Fixed -->
      <g transform="translate(136.798388 139.343344) rotate(-30) scale(0.08 -0.08)">
       <use xlink:href="#DejaVuSans-4d"/>
       <use xlink:href="#DejaVuSans-69" transform="translate(86.279297 0)"/>
       <use xlink:href="#DejaVuSans-64" transform="translate(114.0625 0)"/>
       <use xlink:href="#DejaVuSans-70" transform="translate(177.539062 0)"/>
       <use xlink:href="#DejaVuSans-6f" transform="translate(241.015625 0)"/>
       <use xlink:href="#DejaVuSans-69" transform="translate(302.197266 0)"/>
       <use xlink:href="#DejaVuSans-6e" transform="translate(329.980469 0)"/>
       <use xlink:href="#DejaVuSans-74" transform="translate(393.359375 0)"/>
       <use xlink:href="#DejaVuSans-20" transform="translate(432.568359 0)"/>
       <use xlink:href="#DejaVuSans-46" transform="translate(464.355469 0)"/>
       <use xlink:href="#DejaVuSans-69" transform="translate(514.625 0)"/>
       <use xlink:href="#DejaVuSans-78" transform="translate(542.408203 0)"/>
       <use xlink:href="#DejaVuSans-65" transform="translate(598.462891 0)"/>
       <use xlink:href="#DejaVuSans-64" transform="translate(659.986328 0)"/>
      </g>
     </g>
    </g>
    <g id="xtick_7">
     <g id="line2d_7">
      <g>
       <use xlink:href="#ma6e89acf08" x="208.398217" y="98.139617" style="stroke: #000000; stroke-width: 0.8"/>
      </g>
     </g>
     <g id="text_7">
      <!-- RK4 -->
      <g transform="translate(197.672118 118.351469) rotate(-30) scale(0.08 -0.08)">
       <defs>
        <path id="DejaVuSans-52" d="M 2841 2188 
Q 3044 2119 3236 1894 
Q 3428 1669 3622 1275 
L 4263 0 
L 3584 0 
L 2988 1197 
Q 2756 1666 2539 1819 
Q 2322 1972 1947 1972 
L 1259 1972 
L 1259 0 
L 628 0 
L 628 4666 
L 2053 4666 
Q 2853 4666 3247 4331 
Q 3641 3997 3641 3322 
Q 3641 2881 3436 2590 
Q 3231 2300 2841 2188 
z
M 1259 4147 
L 1259 2491 
L 2053 2491 
Q 2509 2491 2742 2702 
Q 2975 2913 2975 3322 
Q 2975 3731 2742 3939 
Q 2509 4147 2053 4147 
L 1259 4147 
z
" transform="scale(0.015625)"/>
        <path id="DejaVuSans-4b" d="M 628 4666 
L 1259 4666 
L 1259 2694 
L 3353 4666 
L 4166 4666 
L 1850 2491 
L 4331 0 
L 3500 0 
L 1259 2247 
L 1259 0 
L 628 0 
L 628 4666 
z
" transform="scale(0.015625)"/>
        <path id="DejaVuSans-34" d="M 2419 4116 
L 825 1625 
L 2419 1625 
L 2419 4116 
z
M 2253 4666 
L 3047 4666 
L 3047 1625 
L 3713 1625 
L 3713 1100 
L 3047 1100 
L 3047 0 
L 2419 0 
L 2419 1100 
L 313 1100 
L 313 1709 
L 2253 4666 
z
" transform="scale(0.015625)"/>
       </defs>
       <use xlink:href="#DejaVuSans-52"/>
       <use xlink:href="#DejaVuSans-4b" transform="translate(69.482422 0)"/>
       <use xlink:href="#DejaVuSans-34" transform="translate(135.058594 0)"/>
      </g>
     </g>
    </g>
    <g id="xtick_8">
     <g id="line2d_8">
      <g>
       <use xlink:href="#ma6e89acf08" x="232.912953" y="98.139617" style="stroke: #000000; stroke-width: 0.8"/>
      </g>
     </g>
     <g id="text_8">
      <!-- FD - L Convection -->
      <g transform="translate(174.755725 145.735844) rotate(-30) scale(0.08 -0.08)">
       <defs>
        <path id="DejaVuSans-2d" d="M 313 2009 
L 1997 2009 
L 1997 1497 
L 313 1497 
L 313 2009 
z
" transform="scale(0.015625)"/>
        <path id="DejaVuSans-4c" d="M 628 4666 
L 1259 4666 
L 1259 531 
L 3531 531 
L 3531 0 
L 628 0 
L 628 4666 
z
" transform="scale(0.015625)"/>
        <path id="DejaVuSans-43" d="M 4122 4306 
L 4122 3641 
Q 3803 3938 3442 4084 
Q 3081 4231 2675 4231 
Q 1875 4231 1450 3742 
Q 1025 3253 1025 2328 
Q 1025 1406 1450 917 
Q 1875 428 2675 428 
Q 3081 428 3442 575 
Q 3803 722 4122 1019 
L 4122 359 
Q 3791 134 3420 21 
Q 3050 -91 2638 -91 
Q 1578 -91 968 557 
Q 359 1206 359 2328 
Q 359 3453 968 4101 
Q 1578 4750 2638 4750 
Q 3056 4750 3426 4639 
Q 3797 4528 4122 4306 
z
" transform="scale(0.015625)"/>
        <path id="DejaVuSans-76" d="M 191 3500 
L 800 3500 
L 1894 563 
L 2988 3500 
L 3597 3500 
L 2284 0 
L 1503 0 
L 191 3500 
z
" transform="scale(0.015625)"/>
       </defs>
       <use xlink:href="#DejaVuSans-46"/>
       <use xlink:href="#DejaVuSans-44" transform="translate(57.519531 0)"/>
       <use xlink:href="#DejaVuSans-20" transform="translate(134.521484 0)"/>
       <use xlink:href="#DejaVuSans-2d" transform="translate(166.308594 0)"/>
       <use xlink:href="#DejaVuSans-20" transform="translate(202.392578 0)"/>
       <use xlink:href="#DejaVuSans-4c" transform="translate(234.179688 0)"/>
       <use xlink:href="#DejaVuSans-20" transform="translate(289.892578 0)"/>
       <use xlink:href="#DejaVuSans-43" transform="translate(321.679688 0)"/>
       <use xlink:href="#DejaVuSans-6f" transform="translate(391.503906 0)"/>
       <use xlink:href="#DejaVuSans-6e" transform="translate(452.685547 0)"/>
       <use xlink:href="#DejaVuSans-76" transform="translate(516.064453 0)"/>
       <use xlink:href="#DejaVuSans-65" transform="translate(575.244141 0)"/>
       <use xlink:href="#DejaVuSans-63" transform="translate(636.767578 0)"/>
       <use xlink:href="#DejaVuSans-74" transform="translate(691.748047 0)"/>
       <use xlink:href="#DejaVuSans-69" transform="translate(730.957031 0)"/>
       <use xlink:href="#DejaVuSans-6f" transform="translate(758.740234 0)"/>
       <use xlink:href="#DejaVuSans-6e" transform="translate(819.921875 0)"/>
      </g>
     </g>
    </g>
    <g id="xtick_9">
     <g id="line2d_9">
      <g>
       <use xlink:href="#ma6e89acf08" x="257.427689" y="98.139617" style="stroke: #000000; stroke-width: 0.8"/>
      </g>
     </g>
     <g id="text_9">
      <!-- FD - NL Convection -->
      <g transform="translate(194.087299 148.728344) rotate(-30) scale(0.08 -0.08)">
       <defs>
        <path id="DejaVuSans-4e" d="M 628 4666 
L 1478 4666 
L 3547 763 
L 3547 4666 
L 4159 4666 
L 4159 0 
L 3309 0 
L 1241 3903 
L 1241 0 
L 628 0 
L 628 4666 
z
" transform="scale(0.015625)"/>
       </defs>
       <use xlink:href="#DejaVuSans-46"/>
       <use xlink:href="#DejaVuSans-44" transform="translate(57.519531 0)"/>
       <use xlink:href="#DejaVuSans-20" transform="translate(134.521484 0)"/>
       <use xlink:href="#DejaVuSans-2d" transform="translate(166.308594 0)"/>
       <use xlink:href="#DejaVuSans-20" transform="translate(202.392578 0)"/>
       <use xlink:href="#DejaVuSans-4e" transform="translate(234.179688 0)"/>
       <use xlink:href="#DejaVuSans-4c" transform="translate(308.984375 0)"/>
       <use xlink:href="#DejaVuSans-20" transform="translate(364.697266 0)"/>
       <use xlink:href="#DejaVuSans-43" transform="translate(396.484375 0)"/>
       <use xlink:href="#DejaVuSans-6f" transform="translate(466.308594 0)"/>
       <use xlink:href="#DejaVuSans-6e" transform="translate(527.490234 0)"/>
       <use xlink:href="#DejaVuSans-76" transform="translate(590.869141 0)"/>
       <use xlink:href="#DejaVuSans-65" transform="translate(650.048828 0)"/>
       <use xlink:href="#DejaVuSans-63" transform="translate(711.572266 0)"/>
       <use xlink:href="#DejaVuSans-74" transform="translate(766.552734 0)"/>
       <use xlink:href="#DejaVuSans-69" transform="translate(805.761719 0)"/>
       <use xlink:href="#DejaVuSans-6f" transform="translate(833.544922 0)"/>
       <use xlink:href="#DejaVuSans-6e" transform="translate(894.726562 0)"/>
      </g>
     </g>
    </g>
    <g id="xtick_10">
     <g id="line2d_10">
      <g>
       <use xlink:href="#ma6e89acf08" x="281.942425" y="98.139617" style="stroke: #000000; stroke-width: 0.8"/>
      </g>
     </g>
     <g id="text_10">
      <!-- FD - Poisson -->
      <g transform="translate(242.820435 134.745844) rotate(-30) scale(0.08 -0.08)">
       <defs>
        <path id="DejaVuSans-50" d="M 1259 4147 
L 1259 2394 
L 2053 2394 
Q 2494 2394 2734 2622 
Q 2975 2850 2975 3272 
Q 2975 3691 2734 3919 
Q 2494 4147 2053 4147 
L 1259 4147 
z
M 628 4666 
L 2053 4666 
Q 2838 4666 3239 4311 
Q 3641 3956 3641 3272 
Q 3641 2581 3239 2228 
Q 2838 1875 2053 1875 
L 1259 1875 
L 1259 0 
L 628 0 
L 628 4666 
z
" transform="scale(0.015625)"/>
       </defs>
       <use xlink:href="#DejaVuSans-46"/>
       <use xlink:href="#DejaVuSans-44" transform="translate(57.519531 0)"/>
       <use xlink:href="#DejaVuSans-20" transform="translate(134.521484 0)"/>
       <use xlink:href="#DejaVuSans-2d" transform="translate(166.308594 0)"/>
       <use xlink:href="#DejaVuSans-20" transform="translate(202.392578 0)"/>
       <use xlink:href="#DejaVuSans-50" transform="translate(234.179688 0)"/>
       <use xlink:href="#DejaVuSans-6f" transform="translate(290.857422 0)"/>
       <use xlink:href="#DejaVuSans-69" transform="translate(352.039062 0)"/>
       <use xlink:href="#DejaVuSans-73" transform="translate(379.822266 0)"/>
       <use xlink:href="#DejaVuSans-73" transform="translate(431.921875 0)"/>
       <use xlink:href="#DejaVuSans-6f" transform="translate(484.021484 0)"/>
       <use xlink:href="#DejaVuSans-6e" transform="translate(545.203125 0)"/>
      </g>
     </g>
    </g>
    <g id="xtick_11">
     <g id="line2d_11">
      <g>
       <use xlink:href="#ma6e89acf08" x="306.457161" y="98.139617" style="stroke: #000000; stroke-width: 0.8"/>
      </g>
     </g>
     <g id="text_11">
      <!-- FD - Laplace -->
      <g transform="translate(266.52652 135.212719) rotate(-30) scale(0.08 -0.08)">
       <use xlink:href="#DejaVuSans-46"/>
       <use xlink:href="#DejaVuSans-44" transform="translate(57.519531 0)"/>
       <use xlink:href="#DejaVuSans-20" transform="translate(134.521484 0)"/>
       <use xlink:href="#DejaVuSans-2d" transform="translate(166.308594 0)"/>
       <use xlink:href="#DejaVuSans-20" transform="translate(202.392578 0)"/>
       <use xlink:href="#DejaVuSans-4c" transform="translate(234.179688 0)"/>
       <use xlink:href="#DejaVuSans-61" transform="translate(289.892578 0)"/>
       <use xlink:href="#DejaVuSans-70" transform="translate(351.171875 0)"/>
       <use xlink:href="#DejaVuSans-6c" transform="translate(414.648438 0)"/>
       <use xlink:href="#DejaVuSans-61" transform="translate(442.431641 0)"/>
       <use xlink:href="#DejaVuSans-63" transform="translate(503.710938 0)"/>
       <use xlink:href="#DejaVuSans-65" transform="translate(558.691406 0)"/>
      </g>
     </g>
    </g>
    <g id="xtick_12">
     <g id="line2d_12">
      <g>
       <use xlink:href="#ma6e89acf08" x="330.971897" y="98.139617" style="stroke: #000000; stroke-width: 0.8"/>
      </g>
     </g>
     <g id="text_12">
      <!-- M-D -->
      <g transform="translate(320.199249 118.378344) rotate(-30) scale(0.08 -0.08)">
       <use xlink:href="#DejaVuSans-4d"/>
       <use xlink:href="#DejaVuSans-2d" transform="translate(86.279297 0)"/>
       <use xlink:href="#DejaVuSans-44" transform="translate(122.363281 0)"/>
      </g>
     </g>
    </g>
    <g id="xtick_13">
     <g id="line2d_13">
      <g>
       <use xlink:href="#ma6e89acf08" x="355.486633" y="98.139617" style="stroke: #000000; stroke-width: 0.8"/>
      </g>
     </g>
     <g id="text_13">
      <!-- Splines -->
      <g transform="translate(333.616952 124.785219) rotate(-30) scale(0.08 -0.08)">
       <defs>
        <path id="DejaVuSans-53" d="M 3425 4513 
L 3425 3897 
Q 3066 4069 2747 4153 
Q 2428 4238 2131 4238 
Q 1616 4238 1336 4038 
Q 1056 3838 1056 3469 
Q 1056 3159 1242 3001 
Q 1428 2844 1947 2747 
L 2328 2669 
Q 3034 2534 3370 2195 
Q 3706 1856 3706 1288 
Q 3706 609 3251 259 
Q 2797 -91 1919 -91 
Q 1588 -91 1214 -16 
Q 841 59 441 206 
L 441 856 
Q 825 641 1194 531 
Q 1563 422 1919 422 
Q 2459 422 2753 634 
Q 3047 847 3047 1241 
Q 3047 1584 2836 1778 
Q 2625 1972 2144 2069 
L 1759 2144 
Q 1053 2284 737 2584 
Q 422 2884 422 3419 
Q 422 4038 858 4394 
Q 1294 4750 2059 4750 
Q 2388 4750 2728 4690 
Q 3069 4631 3425 4513 
z
" transform="scale(0.015625)"/>
       </defs>
       <use xlink:href="#DejaVuSans-53"/>
       <use xlink:href="#DejaVuSans-70" transform="translate(63.476562 0)"/>
       <use xlink:href="#DejaVuSans-6c" transform="translate(126.953125 0)"/>
       <use xlink:href="#DejaVuSans-69" transform="translate(154.736328 0)"/>
       <use xlink:href="#DejaVuSans-6e" transform="translate(182.519531 0)"/>
       <use xlink:href="#DejaVuSans-65" transform="translate(245.898438 0)"/>
       <use xlink:href="#DejaVuSans-73" transform="translate(307.421875 0)"/>
      </g>
     </g>
    </g>
   </g>
   <g id="matplotlib.axis_2">
    <g id="ytick_1">
     <g id="line2d_14">
      <path d="M 41.698012 98.139617 
L 383.27 98.139617 
" clip-path="url(#p2c151bac85)" style="fill: none; stroke: #b0b0b0; stroke-opacity: 0.5; stroke-width: 0.5; stroke-linecap: square"/>
     </g>
     <g id="line2d_15">
      <defs>
       <path id="mf3e2b42f4e" d="M 0 0 
L -3.5 0 
" style="stroke: #000000; stroke-width: 0.8"/>
      </defs>
      <g>
       <use xlink:href="#mf3e2b42f4e" x="41.698012" y="98.139617" style="stroke: #000000; stroke-width: 0.8"/>
      </g>
     </g>
     <g id="text_14">
      <!-- $\mathdefault{10^{0}}$ -->
      <g transform="translate(20.618012 101.178992) scale(0.08 -0.08)">
       <defs>
        <path id="DejaVuSans-31" d="M 794 531 
L 1825 531 
L 1825 4091 
L 703 3866 
L 703 4441 
L 1819 4666 
L 2450 4666 
L 2450 531 
L 3481 531 
L 3481 0 
L 794 0 
L 794 531 
z
" transform="scale(0.015625)"/>
        <path id="DejaVuSans-30" d="M 2034 4250 
Q 1547 4250 1301 3770 
Q 1056 3291 1056 2328 
Q 1056 1369 1301 889 
Q 1547 409 2034 409 
Q 2525 409 2770 889 
Q 3016 1369 3016 2328 
Q 3016 3291 2770 3770 
Q 2525 4250 2034 4250 
z
M 2034 4750 
Q 2819 4750 3233 4129 
Q 3647 3509 3647 2328 
Q 3647 1150 3233 529 
Q 2819 -91 2034 -91 
Q 1250 -91 836 529 
Q 422 1150 422 2328 
Q 422 3509 836 4129 
Q 1250 4750 2034 4750 
z
" transform="scale(0.015625)"/>
       </defs>
       <use xlink:href="#DejaVuSans-31" transform="translate(0 0.765625)"/>
       <use xlink:href="#DejaVuSans-30" transform="translate(63.623047 0.765625)"/>
       <use xlink:href="#DejaVuSans-30" transform="translate(128.203125 39.046875) scale(0.7)"/>
      </g>
     </g>
    </g>
    <g id="ytick_2">
     <g id="line2d_16">
      <path d="M 41.698012 72.622894 
L 383.27 72.622894 
" clip-path="url(#p2c151bac85)" style="fill: none; stroke: #b0b0b0; stroke-opacity: 0.5; stroke-width: 0.5; stroke-linecap: square"/>
     </g>
     <g id="line2d_17">
      <g>
       <use xlink:href="#mf3e2b42f4e" x="41.698012" y="72.622894" style="stroke: #000000; stroke-width: 0.8"/>
      </g>
     </g>
     <g id="text_15">
      <!-- $\mathdefault{10^{1}}$ -->
      <g transform="translate(20.618012 75.662269) scale(0.08 -0.08)">
       <use xlink:href="#DejaVuSans-31" transform="translate(0 0.684375)"/>
       <use xlink:href="#DejaVuSans-30" transform="translate(63.623047 0.684375)"/>
       <use xlink:href="#DejaVuSans-31" transform="translate(128.203125 38.965625) scale(0.7)"/>
      </g>
     </g>
    </g>
    <g id="ytick_3">
     <g id="line2d_18">
      <path d="M 41.698012 47.106171 
L 383.27 47.106171 
" clip-path="url(#p2c151bac85)" style="fill: none; stroke: #b0b0b0; stroke-opacity: 0.5; stroke-width: 0.5; stroke-linecap: square"/>
     </g>
     <g id="line2d_19">
      <g>
       <use xlink:href="#mf3e2b42f4e" x="41.698012" y="47.106171" style="stroke: #000000; stroke-width: 0.8"/>
      </g>
     </g>
     <g id="text_16">
      <!-- $\mathdefault{10^{2}}$ -->
      <g transform="translate(20.618012 50.145546) scale(0.08 -0.08)">
       <defs>
        <path id="DejaVuSans-32" d="M 1228 531 
L 3431 531 
L 3431 0 
L 469 0 
L 469 531 
Q 828 903 1448 1529 
Q 2069 2156 2228 2338 
Q 2531 2678 2651 2914 
Q 2772 3150 2772 3378 
Q 2772 3750 2511 3984 
Q 2250 4219 1831 4219 
Q 1534 4219 1204 4116 
Q 875 4013 500 3803 
L 500 4441 
Q 881 4594 1212 4672 
Q 1544 4750 1819 4750 
Q 2544 4750 2975 4387 
Q 3406 4025 3406 3419 
Q 3406 3131 3298 2873 
Q 3191 2616 2906 2266 
Q 2828 2175 2409 1742 
Q 1991 1309 1228 531 
z
" transform="scale(0.015625)"/>
       </defs>
       <use xlink:href="#DejaVuSans-31" transform="translate(0 0.765625)"/>
       <use xlink:href="#DejaVuSans-30" transform="translate(63.623047 0.765625)"/>
       <use xlink:href="#DejaVuSans-32" transform="translate(128.203125 39.046875) scale(0.7)"/>
      </g>
     </g>
    </g>
    <g id="ytick_4">
     <g id="line2d_20">
      <path d="M 41.698012 21.589448 
L 383.27 21.589448 
" clip-path="url(#p2c151bac85)" style="fill: none; stroke: #b0b0b0; stroke-opacity: 0.5; stroke-width: 0.5; stroke-linecap: square"/>
     </g>
     <g id="line2d_21">
      <g>
       <use xlink:href="#mf3e2b42f4e" x="41.698012" y="21.589448" style="stroke: #000000; stroke-width: 0.8"/>
      </g>
     </g>
     <g id="text_17">
      <!-- $\mathdefault{10^{3}}$ -->
      <g transform="translate(20.618012 24.628823) scale(0.08 -0.08)">
       <defs>
        <path id="DejaVuSans-33" d="M 2597 2516 
Q 3050 2419 3304 2112 
Q 3559 1806 3559 1356 
Q 3559 666 3084 287 
Q 2609 -91 1734 -91 
Q 1441 -91 1130 -33 
Q 819 25 488 141 
L 488 750 
Q 750 597 1062 519 
Q 1375 441 1716 441 
Q 2309 441 2620 675 
Q 2931 909 2931 1356 
Q 2931 1769 2642 2001 
Q 2353 2234 1838 2234 
L 1294 2234 
L 1294 2753 
L 1863 2753 
Q 2328 2753 2575 2939 
Q 2822 3125 2822 3475 
Q 2822 3834 2567 4026 
Q 2313 4219 1838 4219 
Q 1578 4219 1281 4162 
Q 984 4106 628 3988 
L 628 4550 
Q 988 4650 1302 4700 
Q 1616 4750 1894 4750 
Q 2613 4750 3031 4423 
Q 3450 4097 3450 3541 
Q 3450 3153 3228 2886 
Q 3006 2619 2597 2516 
z
" transform="scale(0.015625)"/>
       </defs>
       <use xlink:href="#DejaVuSans-31" transform="translate(0 0.765625)"/>
       <use xlink:href="#DejaVuSans-30" transform="translate(63.623047 0.765625)"/>
       <use xlink:href="#DejaVuSans-33" transform="translate(128.203125 39.046875) scale(0.7)"/>
      </g>
     </g>
    </g>
    <g id="ytick_5">
     <g id="line2d_22">
      <path d="M 41.698012 90.458318 
L 383.27 90.458318 
" clip-path="url(#p2c151bac85)" style="fill: none; stroke: #b0b0b0; stroke-opacity: 0.5; stroke-width: 0.25; stroke-linecap: square"/>
     </g>
     <g id="line2d_23">
      <defs>
       <path id="m0e2c6719b5" d="M 0 0 
L -2 0 
" style="stroke: #000000; stroke-width: 0.6"/>
      </defs>
      <g>
       <use xlink:href="#m0e2c6719b5" x="41.698012" y="90.458318" style="stroke: #000000; stroke-width: 0.6"/>
      </g>
     </g>
    </g>
    <g id="ytick_6">
     <g id="line2d_24">
      <path d="M 41.698012 85.965046 
L 383.27 85.965046 
" clip-path="url(#p2c151bac85)" style="fill: none; stroke: #b0b0b0; stroke-opacity: 0.5; stroke-width: 0.25; stroke-linecap: square"/>
     </g>
     <g id="line2d_25">
      <g>
       <use xlink:href="#m0e2c6719b5" x="41.698012" y="85.965046" style="stroke: #000000; stroke-width: 0.6"/>
      </g>
     </g>
    </g>
    <g id="ytick_7">
     <g id="line2d_26">
      <path d="M 41.698012 82.777019 
L 383.27 82.777019 
" clip-path="url(#p2c151bac85)" style="fill: none; stroke: #b0b0b0; stroke-opacity: 0.5; stroke-width: 0.25; stroke-linecap: square"/>
     </g>
     <g id="line2d_27">
      <g>
       <use xlink:href="#m0e2c6719b5" x="41.698012" y="82.777019" style="stroke: #000000; stroke-width: 0.6"/>
      </g>
     </g>
    </g>
    <g id="ytick_8">
     <g id="line2d_28">
      <path d="M 41.698012 80.304193 
L 383.27 80.304193 
" clip-path="url(#p2c151bac85)" style="fill: none; stroke: #b0b0b0; stroke-opacity: 0.5; stroke-width: 0.25; stroke-linecap: square"/>
     </g>
     <g id="line2d_29">
      <g>
       <use xlink:href="#m0e2c6719b5" x="41.698012" y="80.304193" style="stroke: #000000; stroke-width: 0.6"/>
      </g>
     </g>
    </g>
    <g id="ytick_9">
     <g id="line2d_30">
      <path d="M 41.698012 78.283747 
L 383.27 78.283747 
" clip-path="url(#p2c151bac85)" style="fill: none; stroke: #b0b0b0; stroke-opacity: 0.5; stroke-width: 0.25; stroke-linecap: square"/>
     </g>
     <g id="line2d_31">
      <g>
       <use xlink:href="#m0e2c6719b5" x="41.698012" y="78.283747" style="stroke: #000000; stroke-width: 0.6"/>
      </g>
     </g>
    </g>
    <g id="ytick_10">
     <g id="line2d_32">
      <path d="M 41.698012 76.575485 
L 383.27 76.575485 
" clip-path="url(#p2c151bac85)" style="fill: none; stroke: #b0b0b0; stroke-opacity: 0.5; stroke-width: 0.25; stroke-linecap: square"/>
     </g>
     <g id="line2d_33">
      <g>
       <use xlink:href="#m0e2c6719b5" x="41.698012" y="76.575485" style="stroke: #000000; stroke-width: 0.6"/>
      </g>
     </g>
    </g>
    <g id="ytick_11">
     <g id="line2d_34">
      <path d="M 41.698012 75.09572 
L 383.27 75.09572 
" clip-path="url(#p2c151bac85)" style="fill: none; stroke: #b0b0b0; stroke-opacity: 0.5; stroke-width: 0.25; stroke-linecap: square"/>
     </g>
     <g id="line2d_35">
      <g>
       <use xlink:href="#m0e2c6719b5" x="41.698012" y="75.09572" style="stroke: #000000; stroke-width: 0.6"/>
      </g>
     </g>
    </g>
    <g id="ytick_12">
     <g id="line2d_36">
      <path d="M 41.698012 73.790475 
L 383.27 73.790475 
" clip-path="url(#p2c151bac85)" style="fill: none; stroke: #b0b0b0; stroke-opacity: 0.5; stroke-width: 0.25; stroke-linecap: square"/>
     </g>
     <g id="line2d_37">
      <g>
       <use xlink:href="#m0e2c6719b5" x="41.698012" y="73.790475" style="stroke: #000000; stroke-width: 0.6"/>
      </g>
     </g>
    </g>
    <g id="ytick_13">
     <g id="line2d_38">
      <path d="M 41.698012 64.941595 
L 383.27 64.941595 
" clip-path="url(#p2c151bac85)" style="fill: none; stroke: #b0b0b0; stroke-opacity: 0.5; stroke-width: 0.25; stroke-linecap: square"/>
     </g>
     <g id="line2d_39">
      <g>
       <use xlink:href="#m0e2c6719b5" x="41.698012" y="64.941595" style="stroke: #000000; stroke-width: 0.6"/>
      </g>
     </g>
    </g>
    <g id="ytick_14">
     <g id="line2d_40">
      <path d="M 41.698012 60.448323 
L 383.27 60.448323 
" clip-path="url(#p2c151bac85)" style="fill: none; stroke: #b0b0b0; stroke-opacity: 0.5; stroke-width: 0.25; stroke-linecap: square"/>
     </g>
     <g id="line2d_41">
      <g>
       <use xlink:href="#m0e2c6719b5" x="41.698012" y="60.448323" style="stroke: #000000; stroke-width: 0.6"/>
      </g>
     </g>
    </g>
    <g id="ytick_15">
     <g id="line2d_42">
      <path d="M 41.698012 57.260296 
L 383.27 57.260296 
" clip-path="url(#p2c151bac85)" style="fill: none; stroke: #b0b0b0; stroke-opacity: 0.5; stroke-width: 0.25; stroke-linecap: square"/>
     </g>
     <g id="line2d_43">
      <g>
       <use xlink:href="#m0e2c6719b5" x="41.698012" y="57.260296" style="stroke: #000000; stroke-width: 0.6"/>
      </g>
     </g>
    </g>
    <g id="ytick_16">
     <g id="line2d_44">
      <path d="M 41.698012 54.78747 
L 383.27 54.78747 
" clip-path="url(#p2c151bac85)" style="fill: none; stroke: #b0b0b0; stroke-opacity: 0.5; stroke-width: 0.25; stroke-linecap: square"/>
     </g>
     <g id="line2d_45">
      <g>
       <use xlink:href="#m0e2c6719b5" x="41.698012" y="54.78747" style="stroke: #000000; stroke-width: 0.6"/>
      </g>
     </g>
    </g>
    <g id="ytick_17">
     <g id="line2d_46">
      <path d="M 41.698012 52.767024 
L 383.27 52.767024 
" clip-path="url(#p2c151bac85)" style="fill: none; stroke: #b0b0b0; stroke-opacity: 0.5; stroke-width: 0.25; stroke-linecap: square"/>
     </g>
     <g id="line2d_47">
      <g>
       <use xlink:href="#m0e2c6719b5" x="41.698012" y="52.767024" style="stroke: #000000; stroke-width: 0.6"/>
      </g>
     </g>
    </g>
    <g id="ytick_18">
     <g id="line2d_48">
      <path d="M 41.698012 51.058762 
L 383.27 51.058762 
" clip-path="url(#p2c151bac85)" style="fill: none; stroke: #b0b0b0; stroke-opacity: 0.5; stroke-width: 0.25; stroke-linecap: square"/>
     </g>
     <g id="line2d_49">
      <g>
       <use xlink:href="#m0e2c6719b5" x="41.698012" y="51.058762" style="stroke: #000000; stroke-width: 0.6"/>
      </g>
     </g>
    </g>
    <g id="ytick_19">
     <g id="line2d_50">
      <path d="M 41.698012 49.578997 
L 383.27 49.578997 
" clip-path="url(#p2c151bac85)" style="fill: none; stroke: #b0b0b0; stroke-opacity: 0.5; stroke-width: 0.25; stroke-linecap: square"/>
     </g>
     <g id="line2d_51">
      <g>
       <use xlink:href="#m0e2c6719b5" x="41.698012" y="49.578997" style="stroke: #000000; stroke-width: 0.6"/>
      </g>
     </g>
    </g>
    <g id="ytick_20">
     <g id="line2d_52">
      <path d="M 41.698012 48.273752 
L 383.27 48.273752 
" clip-path="url(#p2c151bac85)" style="fill: none; stroke: #b0b0b0; stroke-opacity: 0.5; stroke-width: 0.25; stroke-linecap: square"/>
     </g>
     <g id="line2d_53">
      <g>
       <use xlink:href="#m0e2c6719b5" x="41.698012" y="48.273752" style="stroke: #000000; stroke-width: 0.6"/>
      </g>
     </g>
    </g>
    <g id="ytick_21">
     <g id="line2d_54">
      <path d="M 41.698012 39.424872 
L 383.27 39.424872 
" clip-path="url(#p2c151bac85)" style="fill: none; stroke: #b0b0b0; stroke-opacity: 0.5; stroke-width: 0.25; stroke-linecap: square"/>
     </g>
     <g id="line2d_55">
      <g>
       <use xlink:href="#m0e2c6719b5" x="41.698012" y="39.424872" style="stroke: #000000; stroke-width: 0.6"/>
      </g>
     </g>
    </g>
    <g id="ytick_22">
     <g id="line2d_56">
      <path d="M 41.698012 34.9316 
L 383.27 34.9316 
" clip-path="url(#p2c151bac85)" style="fill: none; stroke: #b0b0b0; stroke-opacity: 0.5; stroke-width: 0.25; stroke-linecap: square"/>
     </g>
     <g id="line2d_57">
      <g>
       <use xlink:href="#m0e2c6719b5" x="41.698012" y="34.9316" style="stroke: #000000; stroke-width: 0.6"/>
      </g>
     </g>
    </g>
    <g id="ytick_23">
     <g id="line2d_58">
      <path d="M 41.698012 31.743573 
L 383.27 31.743573 
" clip-path="url(#p2c151bac85)" style="fill: none; stroke: #b0b0b0; stroke-opacity: 0.5; stroke-width: 0.25; stroke-linecap: square"/>
     </g>
     <g id="line2d_59">
      <g>
       <use xlink:href="#m0e2c6719b5" x="41.698012" y="31.743573" style="stroke: #000000; stroke-width: 0.6"/>
      </g>
     </g>
    </g>
    <g id="ytick_24">
     <g id="line2d_60">
      <path d="M 41.698012 29.270747 
L 383.27 29.270747 
" clip-path="url(#p2c151bac85)" style="fill: none; stroke: #b0b0b0; stroke-opacity: 0.5; stroke-width: 0.25; stroke-linecap: square"/>
     </g>
     <g id="line2d_61">
      <g>
       <use xlink:href="#m0e2c6719b5" x="41.698012" y="29.270747" style="stroke: #000000; stroke-width: 0.6"/>
      </g>
     </g>
    </g>
    <g id="ytick_25">
     <g id="line2d_62">
      <path d="M 41.698012 27.250301 
L 383.27 27.250301 
" clip-path="url(#p2c151bac85)" style="fill: none; stroke: #b0b0b0; stroke-opacity: 0.5; stroke-width: 0.25; stroke-linecap: square"/>
     </g>
     <g id="line2d_63">
      <g>
       <use xlink:href="#m0e2c6719b5" x="41.698012" y="27.250301" style="stroke: #000000; stroke-width: 0.6"/>
      </g>
     </g>
    </g>
    <g id="ytick_26">
     <g id="line2d_64">
      <path d="M 41.698012 25.542039 
L 383.27 25.542039 
" clip-path="url(#p2c151bac85)" style="fill: none; stroke: #b0b0b0; stroke-opacity: 0.5; stroke-width: 0.25; stroke-linecap: square"/>
     </g>
     <g id="line2d_65">
      <g>
       <use xlink:href="#m0e2c6719b5" x="41.698012" y="25.542039" style="stroke: #000000; stroke-width: 0.6"/>
      </g>
     </g>
    </g>
    <g id="ytick_27">
     <g id="line2d_66">
      <path d="M 41.698012 24.062274 
L 383.27 24.062274 
" clip-path="url(#p2c151bac85)" style="fill: none; stroke: #b0b0b0; stroke-opacity: 0.5; stroke-width: 0.25; stroke-linecap: square"/>
     </g>
     <g id="line2d_67">
      <g>
       <use xlink:href="#m0e2c6719b5" x="41.698012" y="24.062274" style="stroke: #000000; stroke-width: 0.6"/>
      </g>
     </g>
    </g>
    <g id="ytick_28">
     <g id="line2d_68">
      <path d="M 41.698012 22.75703 
L 383.27 22.75703 
" clip-path="url(#p2c151bac85)" style="fill: none; stroke: #b0b0b0; stroke-opacity: 0.5; stroke-width: 0.25; stroke-linecap: square"/>
     </g>
     <g id="line2d_69">
      <g>
       <use xlink:href="#m0e2c6719b5" x="41.698012" y="22.75703" style="stroke: #000000; stroke-width: 0.6"/>
      </g>
     </g>
    </g>
    <g id="ytick_29">
     <g id="line2d_70">
      <path d="M 41.698012 13.908149 
L 383.27 13.908149 
" clip-path="url(#p2c151bac85)" style="fill: none; stroke: #b0b0b0; stroke-opacity: 0.5; stroke-width: 0.25; stroke-linecap: square"/>
     </g>
     <g id="line2d_71">
      <g>
       <use xlink:href="#m0e2c6719b5" x="41.698012" y="13.908149" style="stroke: #000000; stroke-width: 0.6"/>
      </g>
     </g>
    </g>
    <g id="ytick_30">
     <g id="line2d_72">
      <path d="M 41.698012 9.414878 
L 383.27 9.414878 
" clip-path="url(#p2c151bac85)" style="fill: none; stroke: #b0b0b0; stroke-opacity: 0.5; stroke-width: 0.25; stroke-linecap: square"/>
     </g>
     <g id="line2d_73">
      <g>
       <use xlink:href="#m0e2c6719b5" x="41.698012" y="9.414878" style="stroke: #000000; stroke-width: 0.6"/>
      </g>
     </g>
    </g>
    <g id="text_18">
     <!-- Speedup -->
     <g transform="translate(14.954262 71.004809) rotate(-90) scale(0.08 -0.08)">
      <use xlink:href="#DejaVuSans-53"/>
      <use xlink:href="#DejaVuSans-70" transform="translate(63.476562 0)"/>
      <use xlink:href="#DejaVuSans-65" transform="translate(126.953125 0)"/>
      <use xlink:href="#DejaVuSans-65" transform="translate(188.476562 0)"/>
      <use xlink:href="#DejaVuSans-64" transform="translate(250 0)"/>
      <use xlink:href="#DejaVuSans-75" transform="translate(313.476562 0)"/>
      <use xlink:href="#DejaVuSans-70" transform="translate(376.855469 0)"/>
     </g>
    </g>
   </g>
   <g id="patch_3">
    <path d="M 57.224012 25614.862522 
L 59.266906 25614.862522 
L 59.266906 42.961047 
L 57.224012 42.961047 
z
" clip-path="url(#p2c151bac85)" style="fill: #ff7f0e"/>
   </g>
   <g id="patch_4">
    <path d="M 81.738748 25614.862522 
L 83.781642 25614.862522 
L 83.781642 32.183135 
L 81.738748 32.183135 
z
" clip-path="url(#p2c151bac85)" style="fill: #ff7f0e"/>
   </g>
   <g id="patch_5">
    <path d="M 106.253484 25614.862522 
L 108.296378 25614.862522 
L 108.296378 37.363559 
L 106.253484 37.363559 
z
" clip-path="url(#p2c151bac85)" style="fill: #ff7f0e"/>
   </g>
   <g id="patch_6">
    <path d="M 130.768219 25614.862522 
L 132.811114 25614.862522 
L 132.811114 44.128179 
L 130.768219 44.128179 
z
" clip-path="url(#p2c151bac85)" style="fill: #ff7f0e"/>
   </g>
   <g id="patch_7">
    <path d="M 155.282955 25614.862522 
L 157.32585 25614.862522 
L 157.32585 44.278865 
L 155.282955 44.278865 
z
" clip-path="url(#p2c151bac85)" style="fill: #ff7f0e"/>
   </g>
   <g id="patch_8">
    <path d="M 179.797691 25614.862522 
L 181.840586 25614.862522 
L 181.840586 44.454209 
L 179.797691 44.454209 
z
" clip-path="url(#p2c151bac85)" style="fill: #ff7f0e"/>
   </g>
   <g id="patch_9">
    <path d="M 204.312427 25614.862522 
L 206.355322 25614.862522 
L 206.355322 45.93859 
L 204.312427 45.93859 
z
" clip-path="url(#p2c151bac85)" style="fill: #ff7f0e"/>
   </g>
   <g id="patch_10">
    <path d="M 228.827163 25614.862522 
L 230.870058 25614.862522 
L 230.870058 17.922997 
L 228.827163 17.922997 
z
" clip-path="url(#p2c151bac85)" style="fill: #ff7f0e"/>
   </g>
   <g id="patch_11">
    <path d="M 253.341899 25614.862522 
L 255.384794 25614.862522 
L 255.384794 18.29224 
L 253.341899 18.29224 
z
" clip-path="url(#p2c151bac85)" style="fill: #ff7f0e"/>
   </g>
   <g id="patch_12">
    <path d="M 277.856635 25614.862522 
L 279.89953 25614.862522 
L 279.89953 13.965223 
L 277.856635 13.965223 
z
" clip-path="url(#p2c151bac85)" style="fill: #ff7f0e"/>
   </g>
   <g id="patch_13">
    <path d="M 302.371371 25614.862522 
L 304.414266 25614.862522 
L 304.414266 72.553088 
L 302.371371 72.553088 
z
" clip-path="url(#p2c151bac85)" style="fill: #ff7f0e"/>
   </g>
   <g id="patch_14">
    <path d="M 326.886107 25614.862522 
L 328.929002 25614.862522 
L 328.929002 31.265149 
L 326.886107 31.265149 
z
" clip-path="url(#p2c151bac85)" style="fill: #ff7f0e"/>
   </g>
   <g id="patch_15">
    <path clip-path="url(#p2c151bac85)" style="fill: #ff7f0e"/>
   </g>
   <g id="patch_16">
    <path d="M 59.266906 25614.862522 
L 61.309801 25614.862522 
L 61.309801 45.5626 
L 59.266906 45.5626 
z
" clip-path="url(#p2c151bac85)" style="fill: #2ca02c"/>
   </g>
   <g id="patch_17">
    <path d="M 83.781642 25614.862522 
L 85.824537 25614.862522 
L 85.824537 29.524056 
L 83.781642 29.524056 
z
" clip-path="url(#p2c151bac85)" style="fill: #2ca02c"/>
   </g>
   <g id="patch_18">
    <path d="M 108.296378 25614.862522 
L 110.339273 25614.862522 
L 110.339273 35.33219 
L 108.296378 35.33219 
z
" clip-path="url(#p2c151bac85)" style="fill: #2ca02c"/>
   </g>
   <g id="patch_19">
    <path d="M 132.811114 25614.862522 
L 134.854009 25614.862522 
L 134.854009 44.34505 
L 132.811114 44.34505 
z
" clip-path="url(#p2c151bac85)" style="fill: #2ca02c"/>
   </g>
   <g id="patch_20">
    <path d="M 157.32585 25614.862522 
L 159.368745 25614.862522 
L 159.368745 43.868782 
L 157.32585 43.868782 
z
" clip-path="url(#p2c151bac85)" style="fill: #2ca02c"/>
   </g>
   <g id="patch_21">
    <path d="M 181.840586 25614.862522 
L 183.883481 25614.862522 
L 183.883481 32.785084 
L 181.840586 32.785084 
z
" clip-path="url(#p2c151bac85)" style="fill: #2ca02c"/>
   </g>
   <g id="patch_22">
    <path d="M 206.355322 25614.862522 
L 208.398217 25614.862522 
L 208.398217 29.780344 
L 206.355322 29.780344 
z
" clip-path="url(#p2c151bac85)" style="fill: #2ca02c"/>
   </g>
   <g id="patch_23">
    <path d="M 230.870058 25614.862522 
L 232.912953 25614.862522 
L 232.912953 18.349272 
L 230.870058 18.349272 
z
" clip-path="url(#p2c151bac85)" style="fill: #2ca02c"/>
   </g>
   <g id="patch_24">
    <path d="M 255.384794 25614.862522 
L 257.427689 25614.862522 
L 257.427689 16.890572 
L 255.384794 16.890572 
z
" clip-path="url(#p2c151bac85)" style="fill: #2ca02c"/>
   </g>
   <g id="patch_25">
    <path d="M 279.89953 25614.862522 
L 281.942425 25614.862522 
L 281.942425 21.06211 
L 279.89953 21.06211 
z
" clip-path="url(#p2c151bac85)" style="fill: #2ca02c"/>
   </g>
   <g id="patch_26">
    <path d="M 304.414266 25614.862522 
L 306.457161 25614.862522 
L 306.457161 78.055249 
L 304.414266 78.055249 
z
" clip-path="url(#p2c151bac85)" style="fill: #2ca02c"/>
   </g>
   <g id="patch_27">
    <path d="M 328.929002 25614.862522 
L 330.971897 25614.862522 
L 330.971897 35.583211 
L 328.929002 35.583211 
z
" clip-path="url(#p2c151bac85)" style="fill: #2ca02c"/>
   </g>
   <g id="patch_28">
    <path clip-path="url(#p2c151bac85)" style="fill: #2ca02c"/>
   </g>
   <g id="patch_29">
    <path d="M 61.309801 25614.862522 
L 63.352696 25614.862522 
L 63.352696 54.995097 
L 61.309801 54.995097 
z
" clip-path="url(#p2c151bac85)" style="fill: #d62728"/>
   </g>
   <g id="patch_30">
    <path d="M 85.824537 25614.862522 
L 87.867432 25614.862522 
L 87.867432 30.988157 
L 85.824537 30.988157 
z
" clip-path="url(#p2c151bac85)" style="fill: #d62728"/>
   </g>
   <g id="patch_31">
    <path d="M 110.339273 25614.862522 
L 112.382167 25614.862522 
L 112.382167 37.948345 
L 110.339273 37.948345 
z
" clip-path="url(#p2c151bac85)" style="fill: #d62728"/>
   </g>
   <g id="patch_32">
    <path d="M 134.854009 25614.862522 
L 136.896903 25614.862522 
L 136.896903 47.756315 
L 134.854009 47.756315 
z
" clip-path="url(#p2c151bac85)" style="fill: #d62728"/>
   </g>
   <g id="patch_33">
    <path d="M 159.368745 25614.862522 
L 161.411639 25614.862522 
L 161.411639 47.023779 
L 159.368745 47.023779 
z
" clip-path="url(#p2c151bac85)" style="fill: #d62728"/>
   </g>
   <g id="patch_34">
    <path d="M 183.883481 25614.862522 
L 185.926375 25614.862522 
L 185.926375 45.877394 
L 183.883481 45.877394 
z
" clip-path="url(#p2c151bac85)" style="fill: #d62728"/>
   </g>
   <g id="patch_35">
    <path d="M 208.398217 25614.862522 
L 210.441111 25614.862522 
L 210.441111 43.42949 
L 208.398217 43.42949 
z
" clip-path="url(#p2c151bac85)" style="fill: #d62728"/>
   </g>
   <g id="patch_36">
    <path d="M 232.912953 25614.862522 
L 234.955847 25614.862522 
L 234.955847 24.699159 
L 232.912953 24.699159 
z
" clip-path="url(#p2c151bac85)" style="fill: #d62728"/>
   </g>
   <g id="patch_37">
    <path d="M 257.427689 25614.862522 
L 259.470583 25614.862522 
L 259.470583 22.222865 
L 257.427689 22.222865 
z
" clip-path="url(#p2c151bac85)" style="fill: #d62728"/>
   </g>
   <g id="patch_38">
    <path d="M 281.942425 25614.862522 
L 283.985319 25614.862522 
L 283.985319 23.185427 
L 281.942425 23.185427 
z
" clip-path="url(#p2c151bac85)" style="fill: #d62728"/>
   </g>
   <g id="patch_39">
    <path d="M 306.457161 25614.862522 
L 308.500055 25614.862522 
L 308.500055 84.791665 
L 306.457161 84.791665 
z
" clip-path="url(#p2c151bac85)" style="fill: #d62728"/>
   </g>
   <g id="patch_40">
    <path d="M 330.971897 25614.862522 
L 333.014791 25614.862522 
L 333.014791 36.952046 
L 330.971897 36.952046 
z
" clip-path="url(#p2c151bac85)" style="fill: #d62728"/>
   </g>
   <g id="patch_41">
    <path d="M 355.486633 25614.862522 
L 357.529527 25614.862522 
L 357.529527 47.86204 
L 355.486633 47.86204 
z
" clip-path="url(#p2c151bac85)" style="fill: #d62728"/>
   </g>
   <g id="patch_42">
    <path d="M 63.352696 25614.862522 
L 65.39559 25614.862522 
L 65.39559 54.78747 
L 63.352696 54.78747 
z
" clip-path="url(#p2c151bac85)" style="fill: #9467bd"/>
   </g>
   <g id="patch_43">
    <path d="M 87.867432 25614.862522 
L 89.910326 25614.862522 
L 89.910326 31.124466 
L 87.867432 31.124466 
z
" clip-path="url(#p2c151bac85)" style="fill: #9467bd"/>
   </g>
   <g id="patch_44">
    <path d="M 112.382167 25614.862522 
L 114.425062 25614.862522 
L 114.425062 37.84429 
L 112.382167 37.84429 
z
" clip-path="url(#p2c151bac85)" style="fill: #9467bd"/>
   </g>
   <g id="patch_45">
    <path d="M 136.896903 25614.862522 
L 138.939798 25614.862522 
L 138.939798 47.881889 
L 136.896903 47.881889 
z
" clip-path="url(#p2c151bac85)" style="fill: #9467bd"/>
   </g>
   <g id="patch_46">
    <path d="M 161.411639 25614.862522 
L 163.454534 25614.862522 
L 163.454534 46.940769 
L 161.411639 46.940769 
z
" clip-path="url(#p2c151bac85)" style="fill: #9467bd"/>
   </g>
   <g id="patch_47">
    <path d="M 185.926375 25614.862522 
L 187.96927 25614.862522 
L 187.96927 56.463377 
L 185.926375 56.463377 
z
" clip-path="url(#p2c151bac85)" style="fill: #9467bd"/>
   </g>
   <g id="patch_48">
    <path d="M 210.441111 25614.862522 
L 212.484006 25614.862522 
L 212.484006 43.519954 
L 210.441111 43.519954 
z
" clip-path="url(#p2c151bac85)" style="fill: #9467bd"/>
   </g>
   <g id="patch_49">
    <path d="M 234.955847 25614.862522 
L 236.998742 25614.862522 
L 236.998742 24.659792 
L 234.955847 24.659792 
z
" clip-path="url(#p2c151bac85)" style="fill: #9467bd"/>
   </g>
   <g id="patch_50">
    <path d="M 259.470583 25614.862522 
L 261.513478 25614.862522 
L 261.513478 22.14564 
L 259.470583 22.14564 
z
" clip-path="url(#p2c151bac85)" style="fill: #9467bd"/>
   </g>
   <g id="patch_51">
    <path d="M 283.985319 25614.862522 
L 286.028214 25614.862522 
L 286.028214 22.678551 
L 283.985319 22.678551 
z
" clip-path="url(#p2c151bac85)" style="fill: #9467bd"/>
   </g>
   <g id="patch_52">
    <path d="M 308.500055 25614.862522 
L 310.54295 25614.862522 
L 310.54295 84.733492 
L 308.500055 84.733492 
z
" clip-path="url(#p2c151bac85)" style="fill: #9467bd"/>
   </g>
   <g id="patch_53">
    <path d="M 333.014791 25614.862522 
L 335.057686 25614.862522 
L 335.057686 37.010423 
L 333.014791 37.010423 
z
" clip-path="url(#p2c151bac85)" style="fill: #9467bd"/>
   </g>
   <g id="patch_54">
    <path d="M 357.529527 25614.862522 
L 359.572422 25614.862522 
L 359.572422 47.983153 
L 357.529527 47.983153 
z
" clip-path="url(#p2c151bac85)" style="fill: #9467bd"/>
   </g>
   <g id="patch_55">
    <path d="M 65.39559 25614.862522 
L 67.438485 25614.862522 
L 67.438485 33.418101 
L 65.39559 33.418101 
z
" clip-path="url(#p2c151bac85)" style="fill: #8c564b"/>
   </g>
   <g id="patch_56">
    <path d="M 89.910326 25614.862522 
L 91.953221 25614.862522 
L 91.953221 31.124466 
L 89.910326 31.124466 
z
" clip-path="url(#p2c151bac85)" style="fill: #8c564b"/>
   </g>
   <g id="patch_57">
    <path d="M 114.425062 25614.862522 
L 116.467957 25614.862522 
L 116.467957 44.627678 
L 114.425062 44.627678 
z
" clip-path="url(#p2c151bac85)" style="fill: #8c564b"/>
   </g>
   <g id="patch_58">
    <path d="M 138.939798 25614.862522 
L 140.982693 25614.862522 
L 140.982693 42.629627 
L 138.939798 42.629627 
z
" clip-path="url(#p2c151bac85)" style="fill: #8c564b"/>
   </g>
   <g id="patch_59">
    <path d="M 163.454534 25614.862522 
L 165.497429 25614.862522 
L 165.497429 41.417922 
L 163.454534 41.417922 
z
" clip-path="url(#p2c151bac85)" style="fill: #8c564b"/>
   </g>
   <g id="patch_60">
    <path d="M 187.96927 25614.862522 
L 190.012165 25614.862522 
L 190.012165 40.144111 
L 187.96927 40.144111 
z
" clip-path="url(#p2c151bac85)" style="fill: #8c564b"/>
   </g>
   <g id="patch_61">
    <path d="M 212.484006 25614.862522 
L 214.526901 25614.862522 
L 214.526901 40.058289 
L 212.484006 40.058289 
z
" clip-path="url(#p2c151bac85)" style="fill: #8c564b"/>
   </g>
   <g id="patch_62">
    <path d="M 236.998742 25614.862522 
L 239.041637 25614.862522 
L 239.041637 32.652179 
L 236.998742 32.652179 
z
" clip-path="url(#p2c151bac85)" style="fill: #8c564b"/>
   </g>
   <g id="patch_63">
    <path d="M 261.513478 25614.862522 
L 263.556373 25614.862522 
L 263.556373 28.533796 
L 261.513478 28.533796 
z
" clip-path="url(#p2c151bac85)" style="fill: #8c564b"/>
   </g>
   <g id="patch_64">
    <path d="M 286.028214 25614.862522 
L 288.071109 25614.862522 
L 288.071109 28.041536 
L 286.028214 28.041536 
z
" clip-path="url(#p2c151bac85)" style="fill: #8c564b"/>
   </g>
   <g id="patch_65">
    <path d="M 310.54295 25614.862522 
L 312.585845 25614.862522 
L 312.585845 85.521361 
L 310.54295 85.521361 
z
" clip-path="url(#p2c151bac85)" style="fill: #8c564b"/>
   </g>
   <g id="patch_66">
    <path d="M 335.057686 25614.862522 
L 337.100581 25614.862522 
L 337.100581 43.760953 
L 335.057686 43.760953 
z
" clip-path="url(#p2c151bac85)" style="fill: #8c564b"/>
   </g>
   <g id="patch_67">
    <path d="M 359.572422 25614.862522 
L 361.615317 25614.862522 
L 361.615317 44.954579 
L 359.572422 44.954579 
z
" clip-path="url(#p2c151bac85)" style="fill: #8c564b"/>
   </g>
   <g id="patch_68">
    <path d="M 67.438485 25614.862522 
L 69.48138 25614.862522 
L 69.48138 34.200669 
L 67.438485 34.200669 
z
" clip-path="url(#p2c151bac85)" style="fill: #e377c2"/>
   </g>
   <g id="patch_69">
    <path d="M 91.953221 25614.862522 
L 93.996116 25614.862522 
L 93.996116 28.576878 
L 91.953221 28.576878 
z
" clip-path="url(#p2c151bac85)" style="fill: #e377c2"/>
   </g>
   <g id="patch_70">
    <path d="M 116.467957 25614.862522 
L 118.510851 25614.862522 
L 118.510851 36.453775 
L 116.467957 36.453775 
z
" clip-path="url(#p2c151bac85)" style="fill: #e377c2"/>
   </g>
   <g id="patch_71">
    <path d="M 140.982693 25614.862522 
L 143.025587 25614.862522 
L 143.025587 34.796866 
L 140.982693 34.796866 
z
" clip-path="url(#p2c151bac85)" style="fill: #e377c2"/>
   </g>
   <g id="patch_72">
    <path d="M 165.497429 25614.862522 
L 167.540323 25614.862522 
L 167.540323 33.45887 
L 165.497429 33.45887 
z
" clip-path="url(#p2c151bac85)" style="fill: #e377c2"/>
   </g>
   <g id="patch_73">
    <path d="M 190.012165 25614.862522 
L 192.055059 25614.862522 
L 192.055059 29.898778 
L 190.012165 29.898778 
z
" clip-path="url(#p2c151bac85)" style="fill: #e377c2"/>
   </g>
   <g id="patch_74">
    <path d="M 214.526901 25614.862522 
L 216.569795 25614.862522 
L 216.569795 28.564234 
L 214.526901 28.564234 
z
" clip-path="url(#p2c151bac85)" style="fill: #e377c2"/>
   </g>
   <g id="patch_75">
    <path d="M 239.041637 25614.862522 
L 241.084531 25614.862522 
L 241.084531 19.662258 
L 239.041637 19.662258 
z
" clip-path="url(#p2c151bac85)" style="fill: #e377c2"/>
   </g>
   <g id="patch_76">
    <path d="M 263.556373 25614.862522 
L 265.599267 25614.862522 
L 265.599267 15.846811 
L 263.556373 15.846811 
z
" clip-path="url(#p2c151bac85)" style="fill: #e377c2"/>
   </g>
   <g id="patch_77">
    <path d="M 288.071109 25614.862522 
L 290.114003 25614.862522 
L 290.114003 12.806072 
L 288.071109 12.806072 
z
" clip-path="url(#p2c151bac85)" style="fill: #e377c2"/>
   </g>
   <g id="patch_78">
    <path d="M 312.585845 25614.862522 
L 314.628739 25614.862522 
L 314.628739 72.34099 
L 312.585845 72.34099 
z
" clip-path="url(#p2c151bac85)" style="fill: #e377c2"/>
   </g>
   <g id="patch_79">
    <path d="M 337.100581 25614.862522 
L 339.143475 25614.862522 
L 339.143475 37.958478 
L 337.100581 37.958478 
z
" clip-path="url(#p2c151bac85)" style="fill: #e377c2"/>
   </g>
   <g id="patch_80">
    <path d="M 361.615317 25614.862522 
L 363.658211 25614.862522 
L 363.658211 47.490549 
L 361.615317 47.490549 
z
" clip-path="url(#p2c151bac85)" style="fill: #e377c2"/>
   </g>
   <g id="patch_81">
    <path d="M 69.48138 25614.862522 
L 71.524274 25614.862522 
L 71.524274 47.441617 
L 69.48138 47.441617 
z
" clip-path="url(#p2c151bac85)" style="fill: #7f7f7f"/>
   </g>
   <g id="patch_82">
    <path d="M 93.996116 25614.862522 
L 96.03901 25614.862522 
L 96.03901 33.721232 
L 93.996116 33.721232 
z
" clip-path="url(#p2c151bac85)" style="fill: #7f7f7f"/>
   </g>
   <g id="patch_83">
    <path d="M 118.510851 25614.862522 
L 120.553746 25614.862522 
L 120.553746 47.723209 
L 118.510851 47.723209 
z
" clip-path="url(#p2c151bac85)" style="fill: #7f7f7f"/>
   </g>
   <g id="patch_84">
    <path d="M 143.025587 25614.862522 
L 145.068482 25614.862522 
L 145.068482 43.772108 
L 143.025587 43.772108 
z
" clip-path="url(#p2c151bac85)" style="fill: #7f7f7f"/>
   </g>
   <g id="patch_85">
    <path d="M 167.540323 25614.862522 
L 169.583218 25614.862522 
L 169.583218 42.389018 
L 167.540323 42.389018 
z
" clip-path="url(#p2c151bac85)" style="fill: #7f7f7f"/>
   </g>
   <g id="patch_86">
    <path d="M 192.055059 25614.862522 
L 194.097954 25614.862522 
L 194.097954 40.847952 
L 192.055059 40.847952 
z
" clip-path="url(#p2c151bac85)" style="fill: #7f7f7f"/>
   </g>
   <g id="patch_87">
    <path d="M 216.569795 25614.862522 
L 218.61269 25614.862522 
L 218.61269 40.504757 
L 216.569795 40.504757 
z
" clip-path="url(#p2c151bac85)" style="fill: #7f7f7f"/>
   </g>
   <g id="patch_88">
    <path d="M 241.084531 25614.862522 
L 243.127426 25614.862522 
L 243.127426 36.268018 
L 241.084531 36.268018 
z
" clip-path="url(#p2c151bac85)" style="fill: #7f7f7f"/>
   </g>
   <g id="patch_89">
    <path d="M 265.599267 25614.862522 
L 267.642162 25614.862522 
L 267.642162 33.912408 
L 265.599267 33.912408 
z
" clip-path="url(#p2c151bac85)" style="fill: #7f7f7f"/>
   </g>
   <g id="patch_90">
    <path d="M 290.114003 25614.862522 
L 292.156898 25614.862522 
L 292.156898 34.6613 
L 290.114003 34.6613 
z
" clip-path="url(#p2c151bac85)" style="fill: #7f7f7f"/>
   </g>
   <g id="patch_91">
    <path d="M 314.628739 25614.862522 
L 316.671634 25614.862522 
L 316.671634 91.660638 
L 314.628739 91.660638 
z
" clip-path="url(#p2c151bac85)" style="fill: #7f7f7f"/>
   </g>
   <g id="patch_92">
    <path d="M 339.143475 25614.862522 
L 341.18637 25614.862522 
L 341.18637 42.175142 
L 339.143475 42.175142 
z
" clip-path="url(#p2c151bac85)" style="fill: #7f7f7f"/>
   </g>
   <g id="patch_93">
    <path d="M 363.658211 25614.862522 
L 365.701106 25614.862522 
L 365.701106 45.792775 
L 363.658211 45.792775 
z
" clip-path="url(#p2c151bac85)" style="fill: #7f7f7f"/>
   </g>
   <g id="patch_94">
    <path d="M 71.524274 25614.862522 
L 73.567169 25614.862522 
L 73.567169 54.60255 
L 71.524274 54.60255 
z
" clip-path="url(#p2c151bac85)" style="fill: #bcbd22"/>
   </g>
   <g id="patch_95">
    <path d="M 96.03901 25614.862522 
L 98.081905 25614.862522 
L 98.081905 30.338594 
L 96.03901 30.338594 
z
" clip-path="url(#p2c151bac85)" style="fill: #bcbd22"/>
   </g>
   <g id="patch_96">
    <path d="M 120.553746 25614.862522 
L 122.596641 25614.862522 
L 122.596641 37.84429 
L 120.553746 37.84429 
z
" clip-path="url(#p2c151bac85)" style="fill: #bcbd22"/>
   </g>
   <g id="patch_97">
    <path d="M 145.068482 25614.862522 
L 147.111377 25614.862522 
L 147.111377 38.481917 
L 145.068482 38.481917 
z
" clip-path="url(#p2c151bac85)" style="fill: #bcbd22"/>
   </g>
   <g id="patch_98">
    <path d="M 169.583218 25614.862522 
L 171.626113 25614.862522 
L 171.626113 31.291193 
L 169.583218 31.291193 
z
" clip-path="url(#p2c151bac85)" style="fill: #bcbd22"/>
   </g>
   <g id="patch_99">
    <path d="M 194.097954 25614.862522 
L 196.140849 25614.862522 
L 196.140849 26.136437 
L 194.097954 26.136437 
z
" clip-path="url(#p2c151bac85)" style="fill: #bcbd22"/>
   </g>
   <g id="patch_100">
    <path d="M 218.61269 25614.862522 
L 220.655585 25614.862522 
L 220.655585 27.198029 
L 218.61269 27.198029 
z
" clip-path="url(#p2c151bac85)" style="fill: #bcbd22"/>
   </g>
   <g id="patch_101">
    <path d="M 243.127426 25614.862522 
L 245.170321 25614.862522 
L 245.170321 16.117738 
L 243.127426 16.117738 
z
" clip-path="url(#p2c151bac85)" style="fill: #bcbd22"/>
   </g>
   <g id="patch_102">
    <path d="M 267.642162 25614.862522 
L 269.685057 25614.862522 
L 269.685057 14.993946 
L 267.642162 14.993946 
z
" clip-path="url(#p2c151bac85)" style="fill: #bcbd22"/>
   </g>
   <g id="patch_103">
    <path d="M 292.156898 25614.862522 
L 294.199793 25614.862522 
L 294.199793 12.593364 
L 292.156898 12.593364 
z
" clip-path="url(#p2c151bac85)" style="fill: #bcbd22"/>
   </g>
   <g id="patch_104">
    <path d="M 316.671634 25614.862522 
L 318.714529 25614.862522 
L 318.714529 72.051726 
L 316.671634 72.051726 
z
" clip-path="url(#p2c151bac85)" style="fill: #bcbd22"/>
   </g>
   <g id="patch_105">
    <path d="M 341.18637 25614.862522 
L 343.229265 25614.862522 
L 343.229265 42.077289 
L 341.18637 42.077289 
z
" clip-path="url(#p2c151bac85)" style="fill: #bcbd22"/>
   </g>
   <g id="patch_106">
    <path d="M 365.701106 25614.862522 
L 367.744001 25614.862522 
L 367.744001 52.516504 
L 365.701106 52.516504 
z
" clip-path="url(#p2c151bac85)" style="fill: #bcbd22"/>
   </g>
   <g id="patch_107">
    <path d="M 41.698012 98.139617 
L 41.698012 8.64 
" style="fill: none; stroke: #000000; stroke-width: 0.8; stroke-linejoin: miter; stroke-linecap: square"/>
   </g>
   <g id="patch_108">
    <path d="M 383.27 98.139617 
L 383.27 8.64 
" style="fill: none; stroke: #000000; stroke-width: 0.8; stroke-linejoin: miter; stroke-linecap: square"/>
   </g>
   <g id="patch_109">
    <path d="M 41.698012 98.139617 
L 383.27 98.139617 
" style="fill: none; stroke: #000000; stroke-width: 0.8; stroke-linejoin: miter; stroke-linecap: square"/>
   </g>
   <g id="patch_110">
    <path d="M 41.698012 8.64 
L 383.27 8.64 
" style="fill: none; stroke: #000000; stroke-width: 0.8; stroke-linejoin: miter; stroke-linecap: square"/>
   </g>
   <g id="legend_1">
    <g id="patch_111">
     <path d="M 388.87 102.004809 
L 493.1975 102.004809 
Q 494.7975 102.004809 494.7975 100.404809 
L 494.7975 6.374809 
Q 494.7975 4.774809 493.1975 4.774809 
L 388.87 4.774809 
Q 387.27 4.774809 387.27 6.374809 
L 387.27 100.404809 
Q 387.27 102.004809 388.87 102.004809 
z
" style="fill: #ffffff; opacity: 0.8; stroke: #cccccc; stroke-linejoin: miter"/>
    </g>
    <g id="patch_112">
     <path d="M 390.47 14.053559 
L 406.47 14.053559 
L 406.47 8.453559 
L 390.47 8.453559 
z
" style="fill: #ff7f0e"/>
    </g>
    <g id="text_19">
     <!-- Pythran (g++) -->
     <g transform="translate(412.87 14.053559) scale(0.08 -0.08)">
      <defs>
       <path id="DejaVuSans-79" d="M 2059 -325 
Q 1816 -950 1584 -1140 
Q 1353 -1331 966 -1331 
L 506 -1331 
L 506 -850 
L 844 -850 
Q 1081 -850 1212 -737 
Q 1344 -625 1503 -206 
L 1606 56 
L 191 3500 
L 800 3500 
L 1894 763 
L 2988 3500 
L 3597 3500 
L 2059 -325 
z
" transform="scale(0.015625)"/>
       <path id="DejaVuSans-68" d="M 3513 2113 
L 3513 0 
L 2938 0 
L 2938 2094 
Q 2938 2591 2744 2837 
Q 2550 3084 2163 3084 
Q 1697 3084 1428 2787 
Q 1159 2491 1159 1978 
L 1159 0 
L 581 0 
L 581 4863 
L 1159 4863 
L 1159 2956 
Q 1366 3272 1645 3428 
Q 1925 3584 2291 3584 
Q 2894 3584 3203 3211 
Q 3513 2838 3513 2113 
z
" transform="scale(0.015625)"/>
       <path id="DejaVuSans-28" d="M 1984 4856 
Q 1566 4138 1362 3434 
Q 1159 2731 1159 2009 
Q 1159 1288 1364 580 
Q 1569 -128 1984 -844 
L 1484 -844 
Q 1016 -109 783 600 
Q 550 1309 550 2009 
Q 550 2706 781 3412 
Q 1013 4119 1484 4856 
L 1984 4856 
z
" transform="scale(0.015625)"/>
       <path id="DejaVuSans-67" d="M 2906 1791 
Q 2906 2416 2648 2759 
Q 2391 3103 1925 3103 
Q 1463 3103 1205 2759 
Q 947 2416 947 1791 
Q 947 1169 1205 825 
Q 1463 481 1925 481 
Q 2391 481 2648 825 
Q 2906 1169 2906 1791 
z
M 3481 434 
Q 3481 -459 3084 -895 
Q 2688 -1331 1869 -1331 
Q 1566 -1331 1297 -1286 
Q 1028 -1241 775 -1147 
L 775 -588 
Q 1028 -725 1275 -790 
Q 1522 -856 1778 -856 
Q 2344 -856 2625 -561 
Q 2906 -266 2906 331 
L 2906 616 
Q 2728 306 2450 153 
Q 2172 0 1784 0 
Q 1141 0 747 490 
Q 353 981 353 1791 
Q 353 2603 747 3093 
Q 1141 3584 1784 3584 
Q 2172 3584 2450 3431 
Q 2728 3278 2906 2969 
L 2906 3500 
L 3481 3500 
L 3481 434 
z
" transform="scale(0.015625)"/>
       <path id="DejaVuSans-2b" d="M 2944 4013 
L 2944 2272 
L 4684 2272 
L 4684 1741 
L 2944 1741 
L 2944 0 
L 2419 0 
L 2419 1741 
L 678 1741 
L 678 2272 
L 2419 2272 
L 2419 4013 
L 2944 4013 
z
" transform="scale(0.015625)"/>
       <path id="DejaVuSans-29" d="M 513 4856 
L 1013 4856 
Q 1481 4119 1714 3412 
Q 1947 2706 1947 2009 
Q 1947 1309 1714 600 
Q 1481 -109 1013 -844 
L 513 -844 
Q 928 -128 1133 580 
Q 1338 1288 1338 2009 
Q 1338 2731 1133 3434 
Q 928 4138 513 4856 
z
" transform="scale(0.015625)"/>
      </defs>
      <use xlink:href="#DejaVuSans-50"/>
      <use xlink:href="#DejaVuSans-79" transform="translate(60.302734 0)"/>
      <use xlink:href="#DejaVuSans-74" transform="translate(119.482422 0)"/>
      <use xlink:href="#DejaVuSans-68" transform="translate(158.691406 0)"/>
      <use xlink:href="#DejaVuSans-72" transform="translate(222.070312 0)"/>
      <use xlink:href="#DejaVuSans-61" transform="translate(263.183594 0)"/>
      <use xlink:href="#DejaVuSans-6e" transform="translate(324.462891 0)"/>
      <use xlink:href="#DejaVuSans-20" transform="translate(387.841797 0)"/>
      <use xlink:href="#DejaVuSans-28" transform="translate(419.628906 0)"/>
      <use xlink:href="#DejaVuSans-67" transform="translate(458.642578 0)"/>
      <use xlink:href="#DejaVuSans-2b" transform="translate(522.119141 0)"/>
      <use xlink:href="#DejaVuSans-2b" transform="translate(605.908203 0)"/>
      <use xlink:href="#DejaVuSans-29" transform="translate(689.697266 0)"/>
     </g>
    </g>
    <g id="patch_113">
     <path d="M 390.47 25.796059 
L 406.47 25.796059 
L 406.47 20.196059 
L 390.47 20.196059 
z
" style="fill: #2ca02c"/>
    </g>
    <g id="text_20">
     <!-- Pythran (icx) -->
     <g transform="translate(412.87 25.796059) scale(0.08 -0.08)">
      <use xlink:href="#DejaVuSans-50"/>
      <use xlink:href="#DejaVuSans-79" transform="translate(60.302734 0)"/>
      <use xlink:href="#DejaVuSans-74" transform="translate(119.482422 0)"/>
      <use xlink:href="#DejaVuSans-68" transform="translate(158.691406 0)"/>
      <use xlink:href="#DejaVuSans-72" transform="translate(222.070312 0)"/>
      <use xlink:href="#DejaVuSans-61" transform="translate(263.183594 0)"/>
      <use xlink:href="#DejaVuSans-6e" transform="translate(324.462891 0)"/>
      <use xlink:href="#DejaVuSans-20" transform="translate(387.841797 0)"/>
      <use xlink:href="#DejaVuSans-28" transform="translate(419.628906 0)"/>
      <use xlink:href="#DejaVuSans-69" transform="translate(458.642578 0)"/>
      <use xlink:href="#DejaVuSans-63" transform="translate(486.425781 0)"/>
      <use xlink:href="#DejaVuSans-78" transform="translate(541.40625 0)"/>
      <use xlink:href="#DejaVuSans-29" transform="translate(600.585938 0)"/>
     </g>
    </g>
    <g id="patch_114">
     <path d="M 390.47 37.538559 
L 406.47 37.538559 
L 406.47 31.938559 
L 390.47 31.938559 
z
" style="fill: #d62728"/>
    </g>
    <g id="text_21">
     <!-- Numba -->
     <g transform="translate(412.87 37.538559) scale(0.08 -0.08)">
      <defs>
       <path id="DejaVuSans-62" d="M 3116 1747 
Q 3116 2381 2855 2742 
Q 2594 3103 2138 3103 
Q 1681 3103 1420 2742 
Q 1159 2381 1159 1747 
Q 1159 1113 1420 752 
Q 1681 391 2138 391 
Q 2594 391 2855 752 
Q 3116 1113 3116 1747 
z
M 1159 2969 
Q 1341 3281 1617 3432 
Q 1894 3584 2278 3584 
Q 2916 3584 3314 3078 
Q 3713 2572 3713 1747 
Q 3713 922 3314 415 
Q 2916 -91 2278 -91 
Q 1894 -91 1617 61 
Q 1341 213 1159 525 
L 1159 0 
L 581 0 
L 581 4863 
L 1159 4863 
L 1159 2969 
z
" transform="scale(0.015625)"/>
      </defs>
      <use xlink:href="#DejaVuSans-4e"/>
      <use xlink:href="#DejaVuSans-75" transform="translate(74.804688 0)"/>
      <use xlink:href="#DejaVuSans-6d" transform="translate(138.183594 0)"/>
      <use xlink:href="#DejaVuSans-62" transform="translate(235.595703 0)"/>
      <use xlink:href="#DejaVuSans-61" transform="translate(299.072266 0)"/>
     </g>
    </g>
    <g id="patch_115">
     <path d="M 390.47 49.281059 
L 406.47 49.281059 
L 406.47 43.681059 
L 390.47 43.681059 
z
" style="fill: #9467bd"/>
    </g>
    <g id="text_22">
     <!-- jax -->
     <g transform="translate(412.87 49.281059) scale(0.08 -0.08)">
      <use xlink:href="#DejaVuSans-6a"/>
      <use xlink:href="#DejaVuSans-61" transform="translate(27.783203 0)"/>
      <use xlink:href="#DejaVuSans-78" transform="translate(89.0625 0)"/>
     </g>
    </g>
    <g id="patch_116">
     <path d="M 390.47 61.023559 
L 406.47 61.023559 
L 406.47 55.423559 
L 390.47 55.423559 
z
" style="fill: #8c564b"/>
    </g>
    <g id="text_23">
     <!-- pyccel_gnu_c -->
     <g transform="translate(412.87 61.023559) scale(0.08 -0.08)">
      <defs>
       <path id="DejaVuSans-5f" d="M 3263 -1063 
L 3263 -1509 
L -63 -1509 
L -63 -1063 
L 3263 -1063 
z
" transform="scale(0.015625)"/>
      </defs>
      <use xlink:href="#DejaVuSans-70"/>
      <use xlink:href="#DejaVuSans-79" transform="translate(63.476562 0)"/>
      <use xlink:href="#DejaVuSans-63" transform="translate(122.65625 0)"/>
      <use xlink:href="#DejaVuSans-63" transform="translate(177.636719 0)"/>
      <use xlink:href="#DejaVuSans-65" transform="translate(232.617188 0)"/>
      <use xlink:href="#DejaVuSans-6c" transform="translate(294.140625 0)"/>
      <use xlink:href="#DejaVuSans-5f" transform="translate(321.923828 0)"/>
      <use xlink:href="#DejaVuSans-67" transform="translate(371.923828 0)"/>
      <use xlink:href="#DejaVuSans-6e" transform="translate(435.400391 0)"/>
      <use xlink:href="#DejaVuSans-75" transform="translate(498.779297 0)"/>
      <use xlink:href="#DejaVuSans-5f" transform="translate(562.158203 0)"/>
      <use xlink:href="#DejaVuSans-63" transform="translate(612.158203 0)"/>
     </g>
    </g>
    <g id="patch_117">
     <path d="M 390.47 72.988559 
L 406.47 72.988559 
L 406.47 67.388559 
L 390.47 67.388559 
z
" style="fill: #e377c2"/>
    </g>
    <g id="text_24">
     <!-- pyccel_gnu_fortran -->
     <g transform="translate(412.87 72.988559) scale(0.08 -0.08)">
      <defs>
       <path id="DejaVuSans-66" d="M 2375 4863 
L 2375 4384 
L 1825 4384 
Q 1516 4384 1395 4259 
Q 1275 4134 1275 3809 
L 1275 3500 
L 2222 3500 
L 2222 3053 
L 1275 3053 
L 1275 0 
L 697 0 
L 697 3053 
L 147 3053 
L 147 3500 
L 697 3500 
L 697 3744 
Q 697 4328 969 4595 
Q 1241 4863 1831 4863 
L 2375 4863 
z
" transform="scale(0.015625)"/>
      </defs>
      <use xlink:href="#DejaVuSans-70"/>
      <use xlink:href="#DejaVuSans-79" transform="translate(63.476562 0)"/>
      <use xlink:href="#DejaVuSans-63" transform="translate(122.65625 0)"/>
      <use xlink:href="#DejaVuSans-63" transform="translate(177.636719 0)"/>
      <use xlink:href="#DejaVuSans-65" transform="translate(232.617188 0)"/>
      <use xlink:href="#DejaVuSans-6c" transform="translate(294.140625 0)"/>
      <use xlink:href="#DejaVuSans-5f" transform="translate(321.923828 0)"/>
      <use xlink:href="#DejaVuSans-67" transform="translate(371.923828 0)"/>
      <use xlink:href="#DejaVuSans-6e" transform="translate(435.400391 0)"/>
      <use xlink:href="#DejaVuSans-75" transform="translate(498.779297 0)"/>
      <use xlink:href="#DejaVuSans-5f" transform="translate(562.158203 0)"/>
      <use xlink:href="#DejaVuSans-66" transform="translate(612.158203 0)"/>
      <use xlink:href="#DejaVuSans-6f" transform="translate(647.363281 0)"/>
      <use xlink:href="#DejaVuSans-72" transform="translate(708.544922 0)"/>
      <use xlink:href="#DejaVuSans-74" transform="translate(749.658203 0)"/>
      <use xlink:href="#DejaVuSans-72" transform="translate(788.867188 0)"/>
      <use xlink:href="#DejaVuSans-61" transform="translate(829.980469 0)"/>
      <use xlink:href="#DejaVuSans-6e" transform="translate(891.259766 0)"/>
     </g>
    </g>
    <g id="patch_118">
     <path d="M 390.47 84.953559 
L 406.47 84.953559 
L 406.47 79.353559 
L 390.47 79.353559 
z
" style="fill: #7f7f7f"/>
    </g>
    <g id="text_25">
     <!-- pyccel_intel_c -->
     <g transform="translate(412.87 84.953559) scale(0.08 -0.08)">
      <use xlink:href="#DejaVuSans-70"/>
      <use xlink:href="#DejaVuSans-79" transform="translate(63.476562 0)"/>
      <use xlink:href="#DejaVuSans-63" transform="translate(122.65625 0)"/>
      <use xlink:href="#DejaVuSans-63" transform="translate(177.636719 0)"/>
      <use xlink:href="#DejaVuSans-65" transform="translate(232.617188 0)"/>
      <use xlink:href="#DejaVuSans-6c" transform="translate(294.140625 0)"/>
      <use xlink:href="#DejaVuSans-5f" transform="translate(321.923828 0)"/>
      <use xlink:href="#DejaVuSans-69" transform="translate(371.923828 0)"/>
      <use xlink:href="#DejaVuSans-6e" transform="translate(399.707031 0)"/>
      <use xlink:href="#DejaVuSans-74" transform="translate(463.085938 0)"/>
      <use xlink:href="#DejaVuSans-65" transform="translate(502.294922 0)"/>
      <use xlink:href="#DejaVuSans-6c" transform="translate(563.818359 0)"/>
      <use xlink:href="#DejaVuSans-5f" transform="translate(591.601562 0)"/>
      <use xlink:href="#DejaVuSans-63" transform="translate(641.601562 0)"/>
     </g>
    </g>
    <g id="patch_119">
     <path d="M 390.47 96.918559 
L 406.47 96.918559 
L 406.47 91.318559 
L 390.47 91.318559 
z
" style="fill: #bcbd22"/>
    </g>
    <g id="text_26">
     <!-- pyccel_intel_fortran -->
     <g transform="translate(412.87 96.918559) scale(0.08 -0.08)">
      <use xlink:href="#DejaVuSans-70"/>
      <use xlink:href="#DejaVuSans-79" transform="translate(63.476562 0)"/>
      <use xlink:href="#DejaVuSans-63" transform="translate(122.65625 0)"/>
      <use xlink:href="#DejaVuSans-63" transform="translate(177.636719 0)"/>
      <use xlink:href="#DejaVuSans-65" transform="translate(232.617188 0)"/>
      <use xlink:href="#DejaVuSans-6c" transform="translate(294.140625 0)"/>
      <use xlink:href="#DejaVuSans-5f" transform="translate(321.923828 0)"/>
      <use xlink:href="#DejaVuSans-69" transform="translate(371.923828 0)"/>
      <use xlink:href="#DejaVuSans-6e" transform="translate(399.707031 0)"/>
      <use xlink:href="#DejaVuSans-74" transform="translate(463.085938 0)"/>
      <use xlink:href="#DejaVuSans-65" transform="translate(502.294922 0)"/>
      <use xlink:href="#DejaVuSans-6c" transform="translate(563.818359 0)"/>
      <use xlink:href="#DejaVuSans-5f" transform="translate(591.601562 0)"/>
      <use xlink:href="#DejaVuSans-66" transform="translate(641.601562 0)"/>
      <use xlink:href="#DejaVuSans-6f" transform="translate(676.806641 0)"/>
      <use xlink:href="#DejaVuSans-72" transform="translate(737.988281 0)"/>
      <use xlink:href="#DejaVuSans-74" transform="translate(779.101562 0)"/>
      <use xlink:href="#DejaVuSans-72" transform="translate(818.310547 0)"/>
      <use xlink:href="#DejaVuSans-61" transform="translate(859.423828 0)"/>
      <use xlink:href="#DejaVuSans-6e" transform="translate(920.703125 0)"/>
     </g>
    </g>
   </g>
  </g>
 </g>
 <defs>
  <clipPath id="p2c151bac85">
   <rect x="41.698012" y="8.64" width="341.571988" height="89.499617"/>
  </clipPath>
 </defs>
</svg>
