<?xml version="1.0" encoding="utf-8" standalone="no"?>
<!DOCTYPE svg PUBLIC "-//W3C//DTD SVG 1.1//EN"
  "http://www.w3.org/Graphics/SVG/1.1/DTD/svg11.dtd">
<svg xmlns:xlink="http://www.w3.org/1999/xlink" width="504pt" height="158.4pt" viewBox="0 0 504 158.4" xmlns="http://www.w3.org/2000/svg" version="1.1">
 <metadata>
  <rdf:RDF xmlns:dc="http://purl.org/dc/elements/1.1/" xmlns:cc="http://creativecommons.org/ns#" xmlns:rdf="http://www.w3.org/1999/02/22-rdf-syntax-ns#">
   <cc:Work>
    <dc:type rdf:resource="http://purl.org/dc/dcmitype/StillImage"/>
    <dc:date>2026-07-08T10:43:16.822012</dc:date>
    <dc:format>image/svg+xml</dc:format>
    <dc:creator>
     <cc:Agent>
      <dc:title>Matplotlib v3.11.0, https://matplotlib.org/</dc:title>
     </cc:Agent>
    </dc:creator>
   </cc:Work>
  </rdf:RDF>
 </metadata>
 <defs>
  <style type="text/css">*{stroke-linejoin: round; stroke-linecap: butt}</style>
 </defs>
 <g id="figure_1">
  <g id="patch_1">
   <path d="M 0 158.4 
L 504 158.4 
L 504 0 
L 0 0 
z
" style="fill: #ffffff"/>
  </g>
  <g id="axes_1">
   <g id="patch_2">
    <path d="M 33.081875 97.311797 
L 382.64 97.311797 
L 382.64 11.026989 
L 33.081875 11.026989 
z
" style="fill: #ffffff"/>
   </g>
   <g id="matplotlib.axis_1">
    <g id="xtick_1">
     <g id="line2d_1">
      <defs>
       <path id="m740c1eb605" d="M 0 0 
L 0 3.5 
" style="stroke: #000000; stroke-width: 0.8"/>
      </defs>
      <g>
       <use xlink:href="#m740c1eb605" x="54.311723" y="97.311797" style="stroke: #000000; stroke-width: 0.8"/>
      </g>
     </g>
     <g id="text_1">
      <!-- Ackermann -->
      <g transform="translate(18.392945 132.068649) rotate(-30) scale(0.08 -0.08)">
       <defs>
        <path id="DejaVuSans-24" d="M 2188 4044 
L 1331 1722 
L 3047 1722 
L 2188 4044 
z
M 1831 4666 
L 2547 4666 
L 4325 0 
L 3669 0 
L 3244 1197 
L 1141 1197 
L 716 0 
L 50 0 
L 1831 4666 
z
" transform="scale(0.015625)"/>
        <path id="DejaVuSans-46" d="M 3122 3366 
L 3122 2828 
Q 2878 2963 2633 3030 
Q 2388 3097 2138 3097 
Q 1578 3097 1268 2742 
Q 959 2388 959 1747 
Q 959 1106 1268 751 
Q 1578 397 2138 397 
Q 2388 397 2633 464 
Q 2878 531 3122 666 
L 3122 134 
Q 2881 22 2623 -34 
Q 2366 -91 2075 -91 
Q 1284 -91 818 406 
Q 353 903 353 1747 
Q 353 2603 823 3093 
Q 1294 3584 2113 3584 
Q 2378 3584 2631 3529 
Q 2884 3475 3122 3366 
z
" transform="scale(0.015625)"/>
        <path id="DejaVuSans-4e" d="M 581 4863 
L 1159 4863 
L 1159 1991 
L 2875 3500 
L 3609 3500 
L 1753 1863 
L 3688 0 
L 2938 0 
L 1159 1709 
L 1159 0 
L 581 0 
L 581 4863 
z
" transform="scale(0.015625)"/>
        <path id="DejaVuSans-48" d="M 3597 1894 
L 3597 1613 
L 953 1613 
Q 991 1019 1311 708 
Q 1631 397 2203 397 
Q 2534 397 2845 478 
Q 3156 559 3463 722 
L 3463 178 
Q 3153 47 2828 -22 
Q 2503 -91 2169 -91 
Q 1331 -91 842 396 
Q 353 884 353 1716 
Q 353 2575 817 3079 
Q 1281 3584 2069 3584 
Q 2775 3584 3186 3129 
Q 3597 2675 3597 1894 
z
M 3022 2063 
Q 3016 2534 2758 2815 
Q 2500 3097 2075 3097 
Q 1594 3097 1305 2825 
Q 1016 2553 972 2059 
L 3022 2063 
z
" transform="scale(0.015625)"/>
        <path id="DejaVuSans-55" d="M 2631 2963 
Q 2534 3019 2420 3045 
Q 2306 3072 2169 3072 
Q 1681 3072 1420 2755 
Q 1159 2438 1159 1844 
L 1159 0 
L 581 0 
L 581 3500 
L 1159 3500 
L 1159 2956 
Q 1341 3275 1631 3429 
Q 1922 3584 2338 3584 
Q 2397 3584 2469 3576 
Q 2541 3569 2628 3553 
L 2631 2963 
z
" transform="scale(0.015625)"/>
        <path id="DejaVuSans-50" d="M 3328 2828 
Q 3544 3216 3844 3400 
Q 4144 3584 4550 3584 
Q 5097 3584 5394 3201 
Q 5691 2819 5691 2113 
L 5691 0 
L 5113 0 
L 5113 2094 
Q 5113 2597 4934 2840 
Q 4756 3084 4391 3084 
Q 3944 3084 3684 2787 
Q 3425 2491 3425 1978 
L 3425 0 
L 2847 0 
L 2847 2094 
Q 2847 2600 2669 2842 
Q 2491 3084 2119 3084 
Q 1678 3084 1418 2786 
Q 1159 2488 1159 1978 
L 1159 0 
L 581 0 
L 581 3500 
L 1159 3500 
L 1159 2956 
Q 1356 3278 1631 3431 
Q 1906 3584 2284 3584 
Q 2666 3584 2933 3390 
Q 3200 3197 3328 2828 
z
" transform="scale(0.015625)"/>
        <path id="DejaVuSans-44" d="M 2194 1759 
Q 1497 1759 1228 1600 
Q 959 1441 959 1056 
Q 959 750 1161 570 
Q 1363 391 1709 391 
Q 2188 391 2477 730 
Q 2766 1069 2766 1631 
L 2766 1759 
L 2194 1759 
z
M 3341 1997 
L 3341 0 
L 2766 0 
L 2766 531 
Q 2569 213 2275 61 
Q 1981 -91 1556 -91 
Q 1019 -91 701 211 
Q 384 513 384 1019 
Q 384 1609 779 1909 
Q 1175 2209 1959 2209 
L 2766 2209 
L 2766 2266 
Q 2766 2663 2505 2880 
Q 2244 3097 1772 3097 
Q 1472 3097 1187 3025 
Q 903 2953 641 2809 
L 641 3341 
Q 956 3463 1253 3523 
Q 1550 3584 1831 3584 
Q 2591 3584 2966 3190 
Q 3341 2797 3341 1997 
z
" transform="scale(0.015625)"/>
        <path id="DejaVuSans-51" d="M 3513 2113 
L 3513 0 
L 2938 0 
L 2938 2094 
Q 2938 2591 2744 2837 
Q 2550 3084 2163 3084 
Q 1697 3084 1428 2787 
Q 1159 2491 1159 1978 
L 1159 0 
L 581 0 
L 581 3500 
L 1159 3500 
L 1159 2956 
Q 1366 3272 1645 3428 
Q 1925 3584 2291 3584 
Q 2894 3584 3203 3211 
Q 3513 2838 3513 2113 
z
" transform="scale(0.015625)"/>
       </defs>
       <use xlink:href="#DejaVuSans-24"/>
       <use xlink:href="#DejaVuSans-46" transform="translate(66.65625 0)"/>
       <use xlink:href="#DejaVuSans-4e" transform="translate(121.640625 0)"/>
       <use xlink:href="#DejaVuSans-48" transform="translate(175.984375 0)"/>
       <use xlink:href="#DejaVuSans-55" transform="translate(237.515625 0)"/>
       <use xlink:href="#DejaVuSans-50" transform="translate(276.875 0)"/>
       <use xlink:href="#DejaVuSans-44" transform="translate(374.28125 0)"/>
       <use xlink:href="#DejaVuSans-51" transform="translate(435.5625 0)"/>
       <use xlink:href="#DejaVuSans-51" transform="translate(498.9375 0)"/>
      </g>
     </g>
    </g>
    <g id="xtick_2">
     <g id="line2d_2">
      <g>
       <use xlink:href="#m740c1eb605" x="79.235653" y="97.311797" style="stroke: #000000; stroke-width: 0.8"/>
      </g>
     </g>
     <g id="text_2">
      <!-- Bellman Ford -->
      <g transform="translate(36.719927 135.877399) rotate(-30) scale(0.08 -0.08)">
       <defs>
        <path id="DejaVuSans-25" d="M 1259 2228 
L 1259 519 
L 2272 519 
Q 2781 519 3026 730 
Q 3272 941 3272 1375 
Q 3272 1813 3026 2020 
Q 2781 2228 2272 2228 
L 1259 2228 
z
M 1259 4147 
L 1259 2741 
L 2194 2741 
Q 2656 2741 2882 2914 
Q 3109 3088 3109 3444 
Q 3109 3797 2882 3972 
Q 2656 4147 2194 4147 
L 1259 4147 
z
M 628 4666 
L 2241 4666 
Q 2963 4666 3353 4366 
Q 3744 4066 3744 3513 
Q 3744 3084 3544 2831 
Q 3344 2578 2956 2516 
Q 3422 2416 3680 2098 
Q 3938 1781 3938 1306 
Q 3938 681 3513 340 
Q 3088 0 2303 0 
L 628 0 
L 628 4666 
z
" transform="scale(0.015625)"/>
        <path id="DejaVuSans-4f" d="M 603 4863 
L 1178 4863 
L 1178 0 
L 603 0 
L 603 4863 
z
" transform="scale(0.015625)"/>
        <path id="DejaVuSans-3" transform="scale(0.015625)"/>
        <path id="DejaVuSans-29" d="M 628 4666 
L 3309 4666 
L 3309 4134 
L 1259 4134 
L 1259 2759 
L 3109 2759 
L 3109 2228 
L 1259 2228 
L 1259 0 
L 628 0 
L 628 4666 
z
" transform="scale(0.015625)"/>
        <path id="DejaVuSans-52" d="M 1959 3097 
Q 1497 3097 1228 2736 
Q 959 2375 959 1747 
Q 959 1119 1226 758 
Q 1494 397 1959 397 
Q 2419 397 2687 759 
Q 2956 1122 2956 1747 
Q 2956 2369 2687 2733 
Q 2419 3097 1959 3097 
z
M 1959 3584 
Q 2709 3584 3137 3096 
Q 3566 2609 3566 1747 
Q 3566 888 3137 398 
Q 2709 -91 1959 -91 
Q 1206 -91 779 398 
Q 353 888 353 1747 
Q 353 2609 779 3096 
Q 1206 3584 1959 3584 
z
" transform="scale(0.015625)"/>
        <path id="DejaVuSans-47" d="M 2906 2969 
L 2906 4863 
L 3481 4863 
L 3481 0 
L 2906 0 
L 2906 525 
Q 2725 213 2448 61 
Q 2172 -91 1784 -91 
Q 1150 -91 751 415 
Q 353 922 353 1747 
Q 353 2572 751 3078 
Q 1150 3584 1784 3584 
Q 2172 3584 2448 3432 
Q 2725 3281 2906 2969 
z
M 947 1747 
Q 947 1113 1208 752 
Q 1469 391 1925 391 
Q 2381 391 2643 752 
Q 2906 1113 2906 1747 
Q 2906 2381 2643 2742 
Q 2381 3103 1925 3103 
Q 1469 3103 1208 2742 
Q 947 2381 947 1747 
z
" transform="scale(0.015625)"/>
       </defs>
       <use xlink:href="#DejaVuSans-25"/>
       <use xlink:href="#DejaVuSans-48" transform="translate(68.609375 0)"/>
       <use xlink:href="#DejaVuSans-4f" transform="translate(130.140625 0)"/>
       <use xlink:href="#DejaVuSans-4f" transform="translate(157.921875 0)"/>
       <use xlink:href="#DejaVuSans-50" transform="translate(185.703125 0)"/>
       <use xlink:href="#DejaVuSans-44" transform="translate(283.109375 0)"/>
       <use xlink:href="#DejaVuSans-51" transform="translate(344.390625 0)"/>
       <use xlink:href="#DejaVuSans-3" transform="translate(407.765625 0)"/>
       <use xlink:href="#DejaVuSans-29" transform="translate(439.546875 0)"/>
       <use xlink:href="#DejaVuSans-52" transform="translate(493.5 0)"/>
       <use xlink:href="#DejaVuSans-55" transform="translate(554.6875 0)"/>
       <use xlink:href="#DejaVuSans-47" transform="translate(594.046875 0)"/>
      </g>
     </g>
    </g>
    <g id="xtick_3">
     <g id="line2d_3">
      <g>
       <use xlink:href="#m740c1eb605" x="104.159584" y="97.311797" style="stroke: #000000; stroke-width: 0.8"/>
      </g>
     </g>
     <g id="text_3">
      <!-- Dijkstra -->
      <g transform="translate(80.583833 124.942399) rotate(-30) scale(0.08 -0.08)">
       <defs>
        <path id="DejaVuSans-27" d="M 1259 4147 
L 1259 519 
L 2022 519 
Q 2988 519 3436 956 
Q 3884 1394 3884 2338 
Q 3884 3275 3436 3711 
Q 2988 4147 2022 4147 
L 1259 4147 
z
M 628 4666 
L 1925 4666 
Q 3281 4666 3915 4102 
Q 4550 3538 4550 2338 
Q 4550 1131 3912 565 
Q 3275 0 1925 0 
L 628 0 
L 628 4666 
z
" transform="scale(0.015625)"/>
        <path id="DejaVuSans-4c" d="M 603 3500 
L 1178 3500 
L 1178 0 
L 603 0 
L 603 3500 
z
M 603 4863 
L 1178 4863 
L 1178 4134 
L 603 4134 
L 603 4863 
z
" transform="scale(0.015625)"/>
        <path id="DejaVuSans-4d" d="M 603 3500 
L 1178 3500 
L 1178 -63 
Q 1178 -731 923 -1031 
Q 669 -1331 103 -1331 
L -116 -1331 
L -116 -844 
L 38 -844 
Q 366 -844 484 -692 
Q 603 -541 603 -63 
L 603 3500 
z
M 603 4863 
L 1178 4863 
L 1178 4134 
L 603 4134 
L 603 4863 
z
" transform="scale(0.015625)"/>
        <path id="DejaVuSans-56" d="M 2834 3397 
L 2834 2853 
Q 2591 2978 2328 3040 
Q 2066 3103 1784 3103 
Q 1356 3103 1142 2972 
Q 928 2841 928 2578 
Q 928 2378 1081 2264 
Q 1234 2150 1697 2047 
L 1894 2003 
Q 2506 1872 2764 1633 
Q 3022 1394 3022 966 
Q 3022 478 2636 193 
Q 2250 -91 1575 -91 
Q 1294 -91 989 -36 
Q 684 19 347 128 
L 347 722 
Q 666 556 975 473 
Q 1284 391 1588 391 
Q 1994 391 2212 530 
Q 2431 669 2431 922 
Q 2431 1156 2273 1281 
Q 2116 1406 1581 1522 
L 1381 1569 
Q 847 1681 609 1914 
Q 372 2147 372 2553 
Q 372 3047 722 3315 
Q 1072 3584 1716 3584 
Q 2034 3584 2315 3537 
Q 2597 3491 2834 3397 
z
" transform="scale(0.015625)"/>
        <path id="DejaVuSans-57" d="M 1172 4494 
L 1172 3500 
L 2356 3500 
L 2356 3053 
L 1172 3053 
L 1172 1153 
Q 1172 725 1289 603 
Q 1406 481 1766 481 
L 2356 481 
L 2356 0 
L 1766 0 
Q 1100 0 847 248 
Q 594 497 594 1153 
L 594 3053 
L 172 3053 
L 172 3500 
L 594 3500 
L 594 4494 
L 1172 4494 
z
" transform="scale(0.015625)"/>
       </defs>
       <use xlink:href="#DejaVuSans-27"/>
       <use xlink:href="#DejaVuSans-4c" transform="translate(77 0)"/>
       <use xlink:href="#DejaVuSans-4d" transform="translate(104.78125 0)"/>
       <use xlink:href="#DejaVuSans-4e" transform="translate(132.5625 0)"/>
       <use xlink:href="#DejaVuSans-56" transform="translate(190.46875 0)"/>
       <use xlink:href="#DejaVuSans-57" transform="translate(242.5625 0)"/>
       <use xlink:href="#DejaVuSans-55" transform="translate(281.765625 0)"/>
       <use xlink:href="#DejaVuSans-44" transform="translate(322.875 0)"/>
      </g>
     </g>
    </g>
    <g id="xtick_4">
     <g id="line2d_4">
      <g>
       <use xlink:href="#m740c1eb605" x="129.083514" y="97.311797" style="stroke: #000000; stroke-width: 0.8"/>
      </g>
     </g>
     <g id="text_4">
      <!-- Euler -->
      <g transform="translate(114.31849 119.855524) rotate(-30) scale(0.08 -0.08)">
       <defs>
        <path id="DejaVuSans-28" d="M 628 4666 
L 3578 4666 
L 3578 4134 
L 1259 4134 
L 1259 2753 
L 3481 2753 
L 3481 2222 
L 1259 2222 
L 1259 531 
L 3634 531 
L 3634 0 
L 628 0 
L 628 4666 
z
" transform="scale(0.015625)"/>
        <path id="DejaVuSans-58" d="M 544 1381 
L 544 3500 
L 1119 3500 
L 1119 1403 
Q 1119 906 1312 657 
Q 1506 409 1894 409 
Q 2359 409 2629 706 
Q 2900 1003 2900 1516 
L 2900 3500 
L 3475 3500 
L 3475 0 
L 2900 0 
L 2900 538 
Q 2691 219 2414 64 
Q 2138 -91 1772 -91 
Q 1169 -91 856 284 
Q 544 659 544 1381 
z
M 1991 3584 
L 1991 3584 
z
" transform="scale(0.015625)"/>
       </defs>
       <use xlink:href="#DejaVuSans-28"/>
       <use xlink:href="#DejaVuSans-58" transform="translate(63.1875 0)"/>
       <use xlink:href="#DejaVuSans-4f" transform="translate(126.5625 0)"/>
       <use xlink:href="#DejaVuSans-48" transform="translate(154.34375 0)"/>
       <use xlink:href="#DejaVuSans-55" transform="translate(215.875 0)"/>
      </g>
     </g>
    </g>
    <g id="xtick_5">
     <g id="line2d_5">
      <g>
       <use xlink:href="#m740c1eb605" x="154.007445" y="97.311797" style="stroke: #000000; stroke-width: 0.8"/>
      </g>
     </g>
     <g id="text_5">
      <!-- Midpoint Explicit -->
      <g transform="translate(99.698618 142.686149) rotate(-30) scale(0.08 -0.08)">
       <defs>
        <path id="DejaVuSans-30" d="M 628 4666 
L 1569 4666 
L 2759 1491 
L 3956 4666 
L 4897 4666 
L 4897 0 
L 4281 0 
L 4281 4097 
L 3078 897 
L 2444 897 
L 1241 4097 
L 1241 0 
L 628 0 
L 628 4666 
z
" transform="scale(0.015625)"/>
        <path id="DejaVuSans-53" d="M 1159 525 
L 1159 -1331 
L 581 -1331 
L 581 3500 
L 1159 3500 
L 1159 2969 
Q 1341 3281 1617 3432 
Q 1894 3584 2278 3584 
Q 2916 3584 3314 3078 
Q 3713 2572 3713 1747 
Q 3713 922 3314 415 
Q 2916 -91 2278 -91 
Q 1894 -91 1617 61 
Q 1341 213 1159 525 
z
M 3116 1747 
Q 3116 2381 2855 2742 
Q 2594 3103 2138 3103 
Q 1681 3103 1420 2742 
Q 1159 2381 1159 1747 
Q 1159 1113 1420 752 
Q 1681 391 2138 391 
Q 2594 391 2855 752 
Q 3116 1113 3116 1747 
z
" transform="scale(0.015625)"/>
        <path id="DejaVuSans-5b" d="M 3513 3500 
L 2247 1797 
L 3578 0 
L 2900 0 
L 1881 1375 
L 863 0 
L 184 0 
L 1544 1831 
L 300 3500 
L 978 3500 
L 1906 2253 
L 2834 3500 
L 3513 3500 
z
" transform="scale(0.015625)"/>
       </defs>
       <use xlink:href="#DejaVuSans-30"/>
       <use xlink:href="#DejaVuSans-4c" transform="translate(86.28125 0)"/>
       <use xlink:href="#DejaVuSans-47" transform="translate(114.0625 0)"/>
       <use xlink:href="#DejaVuSans-53" transform="translate(177.546875 0)"/>
       <use xlink:href="#DejaVuSans-52" transform="translate(241.03125 0)"/>
       <use xlink:href="#DejaVuSans-4c" transform="translate(302.21875 0)"/>
       <use xlink:href="#DejaVuSans-51" transform="translate(330 0)"/>
       <use xlink:href="#DejaVuSans-57" transform="translate(393.375 0)"/>
       <use xlink:href="#DejaVuSans-3" transform="translate(432.578125 0)"/>
       <use xlink:href="#DejaVuSans-28" transform="translate(464.359375 0)"/>
       <use xlink:href="#DejaVuSans-5b" transform="translate(527.546875 0)"/>
       <use xlink:href="#DejaVuSans-53" transform="translate(586.734375 0)"/>
       <use xlink:href="#DejaVuSans-4f" transform="translate(650.21875 0)"/>
       <use xlink:href="#DejaVuSans-4c" transform="translate(678 0)"/>
       <use xlink:href="#DejaVuSans-46" transform="translate(705.78125 0)"/>
       <use xlink:href="#DejaVuSans-4c" transform="translate(760.765625 0)"/>
       <use xlink:href="#DejaVuSans-57" transform="translate(788.546875 0)"/>
      </g>
     </g>
    </g>
    <g id="xtick_6">
     <g id="line2d_6">
      <g>
       <use xlink:href="#m740c1eb605" x="178.931375" y="97.311797" style="stroke: #000000; stroke-width: 0.8"/>
      </g>
     </g>
     <g id="text_6">
      <!-- Midpoint Fixed -->
      <g transform="translate(131.8452 138.516149) rotate(-30) scale(0.08 -0.08)">
       <use xlink:href="#DejaVuSans-30"/>
       <use xlink:href="#DejaVuSans-4c" transform="translate(86.28125 0)"/>
       <use xlink:href="#DejaVuSans-47" transform="translate(114.0625 0)"/>
       <use xlink:href="#DejaVuSans-53" transform="translate(177.546875 0)"/>
       <use xlink:href="#DejaVuSans-52" transform="translate(241.03125 0)"/>
       <use xlink:href="#DejaVuSans-4c" transform="translate(302.21875 0)"/>
       <use xlink:href="#DejaVuSans-51" transform="translate(330 0)"/>
       <use xlink:href="#DejaVuSans-57" transform="translate(393.375 0)"/>
       <use xlink:href="#DejaVuSans-3" transform="translate(432.578125 0)"/>
       <use xlink:href="#DejaVuSans-29" transform="translate(464.359375 0)"/>
       <use xlink:href="#DejaVuSans-4c" transform="translate(514.59375 0)"/>
       <use xlink:href="#DejaVuSans-5b" transform="translate(542.375 0)"/>
       <use xlink:href="#DejaVuSans-48" transform="translate(598.484375 0)"/>
       <use xlink:href="#DejaVuSans-47" transform="translate(660.015625 0)"/>
      </g>
     </g>
    </g>
    <g id="xtick_7">
     <g id="line2d_7">
      <g>
       <use xlink:href="#m740c1eb605" x="203.855306" y="97.311797" style="stroke: #000000; stroke-width: 0.8"/>
      </g>
     </g>
     <g id="text_7">
      <!-- RK4 -->
      <g transform="translate(193.128895 117.523107) rotate(-30) scale(0.08 -0.08)">
       <defs>
        <path id="DejaVuSans-35" d="M 2841 2188 
Q 3044 2119 3236 1894 
Q 3428 1669 3622 1275 
L 4263 0 
L 3584 0 
L 2988 1197 
Q 2756 1666 2539 1819 
Q 2322 1972 1947 1972 
L 1259 1972 
L 1259 0 
L 628 0 
L 628 4666 
L 2053 4666 
Q 2853 4666 3247 4331 
Q 3641 3997 3641 3322 
Q 3641 2881 3436 2590 
Q 3231 2300 2841 2188 
z
M 1259 4147 
L 1259 2491 
L 2053 2491 
Q 2509 2491 2742 2702 
Q 2975 2913 2975 3322 
Q 2975 3731 2742 3939 
Q 2509 4147 2053 4147 
L 1259 4147 
z
" transform="scale(0.015625)"/>
        <path id="DejaVuSans-2e" d="M 628 4666 
L 1259 4666 
L 1259 2694 
L 3353 4666 
L 4166 4666 
L 1850 2491 
L 4331 0 
L 3500 0 
L 1259 2247 
L 1259 0 
L 628 0 
L 628 4666 
z
" transform="scale(0.015625)"/>
        <path id="DejaVuSans-17" d="M 2419 4116 
L 825 1625 
L 2419 1625 
L 2419 4116 
z
M 2253 4666 
L 3047 4666 
L 3047 1625 
L 3713 1625 
L 3713 1100 
L 3047 1100 
L 3047 0 
L 2419 0 
L 2419 1100 
L 313 1100 
L 313 1709 
L 2253 4666 
z
" transform="scale(0.015625)"/>
       </defs>
       <use xlink:href="#DejaVuSans-35"/>
       <use xlink:href="#DejaVuSans-2e" transform="translate(69.484375 0)"/>
       <use xlink:href="#DejaVuSans-17" transform="translate(135.0625 0)"/>
      </g>
     </g>
    </g>
    <g id="xtick_8">
     <g id="line2d_8">
      <g>
       <use xlink:href="#m740c1eb605" x="228.779236" y="97.311797" style="stroke: #000000; stroke-width: 0.8"/>
      </g>
     </g>
     <g id="text_8">
      <!-- FD - L Convection -->
      <g transform="translate(170.622009 144.908024) rotate(-30) scale(0.08 -0.08)">
       <defs>
        <path id="DejaVuSans-10" d="M 313 2009 
L 1997 2009 
L 1997 1497 
L 313 1497 
L 313 2009 
z
" transform="scale(0.015625)"/>
        <path id="DejaVuSans-2f" d="M 628 4666 
L 1259 4666 
L 1259 531 
L 3531 531 
L 3531 0 
L 628 0 
L 628 4666 
z
" transform="scale(0.015625)"/>
        <path id="DejaVuSans-26" d="M 4122 4306 
L 4122 3641 
Q 3803 3938 3442 4084 
Q 3081 4231 2675 4231 
Q 1875 4231 1450 3742 
Q 1025 3253 1025 2328 
Q 1025 1406 1450 917 
Q 1875 428 2675 428 
Q 3081 428 3442 575 
Q 3803 722 4122 1019 
L 4122 359 
Q 3791 134 3420 21 
Q 3050 -91 2638 -91 
Q 1578 -91 968 557 
Q 359 1206 359 2328 
Q 359 3453 968 4101 
Q 1578 4750 2638 4750 
Q 3056 4750 3426 4639 
Q 3797 4528 4122 4306 
z
" transform="scale(0.015625)"/>
        <path id="DejaVuSans-59" d="M 191 3500 
L 800 3500 
L 1894 563 
L 2988 3500 
L 3597 3500 
L 2284 0 
L 1503 0 
L 191 3500 
z
" transform="scale(0.015625)"/>
       </defs>
       <use xlink:href="#DejaVuSans-29"/>
       <use xlink:href="#DejaVuSans-27" transform="translate(57.515625 0)"/>
       <use xlink:href="#DejaVuSans-3" transform="translate(134.515625 0)"/>
       <use xlink:href="#DejaVuSans-10" transform="translate(166.296875 0)"/>
       <use xlink:href="#DejaVuSans-3" transform="translate(202.375 0)"/>
       <use xlink:href="#DejaVuSans-2f" transform="translate(234.15625 0)"/>
       <use xlink:href="#DejaVuSans-3" transform="translate(289.875 0)"/>
       <use xlink:href="#DejaVuSans-26" transform="translate(321.65625 0)"/>
       <use xlink:href="#DejaVuSans-52" transform="translate(391.484375 0)"/>
       <use xlink:href="#DejaVuSans-51" transform="translate(452.671875 0)"/>
       <use xlink:href="#DejaVuSans-59" transform="translate(516.046875 0)"/>
       <use xlink:href="#DejaVuSans-48" transform="translate(575.234375 0)"/>
       <use xlink:href="#DejaVuSans-46" transform="translate(636.765625 0)"/>
       <use xlink:href="#DejaVuSans-57" transform="translate(691.75 0)"/>
       <use xlink:href="#DejaVuSans-4c" transform="translate(730.953125 0)"/>
       <use xlink:href="#DejaVuSans-52" transform="translate(758.734375 0)"/>
       <use xlink:href="#DejaVuSans-51" transform="translate(819.921875 0)"/>
      </g>
     </g>
    </g>
    <g id="xtick_9">
     <g id="line2d_9">
      <g>
       <use xlink:href="#m740c1eb605" x="253.703167" y="97.311797" style="stroke: #000000; stroke-width: 0.8"/>
      </g>
     </g>
     <g id="text_9">
      <!-- FD - NL Convection -->
      <g transform="translate(190.362777 147.900524) rotate(-30) scale(0.08 -0.08)">
       <defs>
        <path id="DejaVuSans-31" d="M 628 4666 
L 1478 4666 
L 3547 763 
L 3547 4666 
L 4159 4666 
L 4159 0 
L 3309 0 
L 1241 3903 
L 1241 0 
L 628 0 
L 628 4666 
z
" transform="scale(0.015625)"/>
       </defs>
       <use xlink:href="#DejaVuSans-29"/>
       <use xlink:href="#DejaVuSans-27" transform="translate(57.515625 0)"/>
       <use xlink:href="#DejaVuSans-3" transform="translate(134.515625 0)"/>
       <use xlink:href="#DejaVuSans-10" transform="translate(166.296875 0)"/>
       <use xlink:href="#DejaVuSans-3" transform="translate(202.375 0)"/>
       <use xlink:href="#DejaVuSans-31" transform="translate(234.15625 0)"/>
       <use xlink:href="#DejaVuSans-2f" transform="translate(308.96875 0)"/>
       <use xlink:href="#DejaVuSans-3" transform="translate(364.6875 0)"/>
       <use xlink:href="#DejaVuSans-26" transform="translate(396.46875 0)"/>
       <use xlink:href="#DejaVuSans-52" transform="translate(466.296875 0)"/>
       <use xlink:href="#DejaVuSans-51" transform="translate(527.484375 0)"/>
       <use xlink:href="#DejaVuSans-59" transform="translate(590.859375 0)"/>
       <use xlink:href="#DejaVuSans-48" transform="translate(650.046875 0)"/>
       <use xlink:href="#DejaVuSans-46" transform="translate(711.578125 0)"/>
       <use xlink:href="#DejaVuSans-57" transform="translate(766.5625 0)"/>
       <use xlink:href="#DejaVuSans-4c" transform="translate(805.765625 0)"/>
       <use xlink:href="#DejaVuSans-52" transform="translate(833.546875 0)"/>
       <use xlink:href="#DejaVuSans-51" transform="translate(894.734375 0)"/>
      </g>
     </g>
    </g>
    <g id="xtick_10">
     <g id="line2d_10">
      <g>
       <use xlink:href="#m740c1eb605" x="278.627097" y="97.311797" style="stroke: #000000; stroke-width: 0.8"/>
      </g>
     </g>
     <g id="text_10">
      <!-- FD - Poisson -->
      <g transform="translate(239.500778 133.920524) rotate(-30) scale(0.08 -0.08)">
       <defs>
        <path id="DejaVuSans-33" d="M 1259 4147 
L 1259 2394 
L 2053 2394 
Q 2494 2394 2734 2622 
Q 2975 2850 2975 3272 
Q 2975 3691 2734 3919 
Q 2494 4147 2053 4147 
L 1259 4147 
z
M 628 4666 
L 2053 4666 
Q 2838 4666 3239 4311 
Q 3641 3956 3641 3272 
Q 3641 2581 3239 2228 
Q 2838 1875 2053 1875 
L 1259 1875 
L 1259 0 
L 628 0 
L 628 4666 
z
" transform="scale(0.015625)"/>
       </defs>
       <use xlink:href="#DejaVuSans-29"/>
       <use xlink:href="#DejaVuSans-27" transform="translate(57.515625 0)"/>
       <use xlink:href="#DejaVuSans-3" transform="translate(134.515625 0)"/>
       <use xlink:href="#DejaVuSans-10" transform="translate(166.296875 0)"/>
       <use xlink:href="#DejaVuSans-3" transform="translate(202.375 0)"/>
       <use xlink:href="#DejaVuSans-33" transform="translate(234.15625 0)"/>
       <use xlink:href="#DejaVuSans-52" transform="translate(290.890625 0)"/>
       <use xlink:href="#DejaVuSans-4c" transform="translate(352.078125 0)"/>
       <use xlink:href="#DejaVuSans-56" transform="translate(379.859375 0)"/>
       <use xlink:href="#DejaVuSans-56" transform="translate(431.953125 0)"/>
       <use xlink:href="#DejaVuSans-52" transform="translate(484.046875 0)"/>
       <use xlink:href="#DejaVuSans-51" transform="translate(545.234375 0)"/>
      </g>
     </g>
    </g>
    <g id="xtick_11">
     <g id="line2d_11">
      <g>
       <use xlink:href="#m740c1eb605" x="303.551028" y="97.311797" style="stroke: #000000; stroke-width: 0.8"/>
      </g>
     </g>
     <g id="text_11">
      <!-- FD - Laplace -->
      <g transform="translate(263.620387 134.384899) rotate(-30) scale(0.08 -0.08)">
       <use xlink:href="#DejaVuSans-29"/>
       <use xlink:href="#DejaVuSans-27" transform="translate(57.515625 0)"/>
       <use xlink:href="#DejaVuSans-3" transform="translate(134.515625 0)"/>
       <use xlink:href="#DejaVuSans-10" transform="translate(166.296875 0)"/>
       <use xlink:href="#DejaVuSans-3" transform="translate(202.375 0)"/>
       <use xlink:href="#DejaVuSans-2f" transform="translate(234.15625 0)"/>
       <use xlink:href="#DejaVuSans-44" transform="translate(289.875 0)"/>
       <use xlink:href="#DejaVuSans-53" transform="translate(351.15625 0)"/>
       <use xlink:href="#DejaVuSans-4f" transform="translate(414.640625 0)"/>
       <use xlink:href="#DejaVuSans-44" transform="translate(442.421875 0)"/>
       <use xlink:href="#DejaVuSans-46" transform="translate(503.703125 0)"/>
       <use xlink:href="#DejaVuSans-48" transform="translate(558.6875 0)"/>
      </g>
     </g>
    </g>
    <g id="xtick_12">
     <g id="line2d_12">
      <g>
       <use xlink:href="#m740c1eb605" x="328.474958" y="97.311797" style="stroke: #000000; stroke-width: 0.8"/>
      </g>
     </g>
     <g id="text_12">
      <!-- M-D -->
      <g transform="translate(317.701998 117.549982) rotate(-30) scale(0.08 -0.08)">
       <use xlink:href="#DejaVuSans-30"/>
       <use xlink:href="#DejaVuSans-10" transform="translate(86.28125 0)"/>
       <use xlink:href="#DejaVuSans-27" transform="translate(122.359375 0)"/>
      </g>
     </g>
    </g>
    <g id="xtick_13">
     <g id="line2d_13">
      <g>
       <use xlink:href="#m740c1eb605" x="353.398889" y="97.311797" style="stroke: #000000; stroke-width: 0.8"/>
      </g>
     </g>
     <g id="text_13">
      <!-- Splines -->
      <g transform="translate(331.529208 123.957399) rotate(-30) scale(0.08 -0.08)">
       <defs>
        <path id="DejaVuSans-36" d="M 3425 4513 
L 3425 3897 
Q 3066 4069 2747 4153 
Q 2428 4238 2131 4238 
Q 1616 4238 1336 4038 
Q 1056 3838 1056 3469 
Q 1056 3159 1242 3001 
Q 1428 2844 1947 2747 
L 2328 2669 
Q 3034 2534 3370 2195 
Q 3706 1856 3706 1288 
Q 3706 609 3251 259 
Q 2797 -91 1919 -91 
Q 1588 -91 1214 -16 
Q 841 59 441 206 
L 441 856 
Q 825 641 1194 531 
Q 1563 422 1919 422 
Q 2459 422 2753 634 
Q 3047 847 3047 1241 
Q 3047 1584 2836 1778 
Q 2625 1972 2144 2069 
L 1759 2144 
Q 1053 2284 737 2584 
Q 422 2884 422 3419 
Q 422 4038 858 4394 
Q 1294 4750 2059 4750 
Q 2388 4750 2728 4690 
Q 3069 4631 3425 4513 
z
" transform="scale(0.015625)"/>
       </defs>
       <use xlink:href="#DejaVuSans-36"/>
       <use xlink:href="#DejaVuSans-53" transform="translate(63.484375 0)"/>
       <use xlink:href="#DejaVuSans-4f" transform="translate(126.96875 0)"/>
       <use xlink:href="#DejaVuSans-4c" transform="translate(154.75 0)"/>
       <use xlink:href="#DejaVuSans-51" transform="translate(182.53125 0)"/>
       <use xlink:href="#DejaVuSans-48" transform="translate(245.90625 0)"/>
       <use xlink:href="#DejaVuSans-56" transform="translate(307.4375 0)"/>
      </g>
     </g>
    </g>
   </g>
   <g id="matplotlib.axis_2">
    <g id="ytick_1">
     <g id="line2d_14">
      <path d="M 33.081875 97.311797 
L 382.64 97.311797 
" clip-path="url(#p0708714a6d)" style="fill: none; stroke: #b0b0b0; stroke-opacity: 0.5; stroke-width: 0.5; stroke-linecap: square"/>
     </g>
     <g id="line2d_15">
      <defs>
       <path id="m91b7b9bf59" d="M 0 0 
L -3.5 0 
" style="stroke: #000000; stroke-width: 0.8"/>
      </defs>
      <g>
       <use xlink:href="#m91b7b9bf59" x="33.081875" y="97.311797" style="stroke: #000000; stroke-width: 0.8"/>
      </g>
     </g>
     <g id="text_14">
      <!-- 0 -->
      <g transform="translate(20.991875 100.350859) scale(0.08 -0.08)">
       <defs>
        <path id="DejaVuSans-13" d="M 2034 4250 
Q 1547 4250 1301 3770 
Q 1056 3291 1056 2328 
Q 1056 1369 1301 889 
Q 1547 409 2034 409 
Q 2525 409 2770 889 
Q 3016 1369 3016 2328 
Q 3016 3291 2770 3770 
Q 2525 4250 2034 4250 
z
M 2034 4750 
Q 2819 4750 3233 4129 
Q 3647 3509 3647 2328 
Q 3647 1150 3233 529 
Q 2819 -91 2034 -91 
Q 1250 -91 836 529 
Q 422 1150 422 2328 
Q 422 3509 836 4129 
Q 1250 4750 2034 4750 
z
" transform="scale(0.015625)"/>
       </defs>
       <use xlink:href="#DejaVuSans-13"/>
      </g>
     </g>
    </g>
    <g id="ytick_2">
     <g id="line2d_16">
      <path d="M 33.081875 75.85592 
L 382.64 75.85592 
" clip-path="url(#p0708714a6d)" style="fill: none; stroke: #b0b0b0; stroke-opacity: 0.5; stroke-width: 0.5; stroke-linecap: square"/>
     </g>
     <g id="line2d_17">
      <g>
       <use xlink:href="#m91b7b9bf59" x="33.081875" y="75.85592" style="stroke: #000000; stroke-width: 0.8"/>
      </g>
     </g>
     <g id="text_15">
      <!-- 2 -->
      <g transform="translate(20.991875 78.894983) scale(0.08 -0.08)">
       <defs>
        <path id="DejaVuSans-15" d="M 1228 531 
L 3431 531 
L 3431 0 
L 469 0 
L 469 531 
Q 828 903 1448 1529 
Q 2069 2156 2228 2338 
Q 2531 2678 2651 2914 
Q 2772 3150 2772 3378 
Q 2772 3750 2511 3984 
Q 2250 4219 1831 4219 
Q 1534 4219 1204 4116 
Q 875 4013 500 3803 
L 500 4441 
Q 881 4594 1212 4672 
Q 1544 4750 1819 4750 
Q 2544 4750 2975 4387 
Q 3406 4025 3406 3419 
Q 3406 3131 3298 2873 
Q 3191 2616 2906 2266 
Q 2828 2175 2409 1742 
Q 1991 1309 1228 531 
z
" transform="scale(0.015625)"/>
       </defs>
       <use xlink:href="#DejaVuSans-15"/>
      </g>
     </g>
    </g>
    <g id="ytick_3">
     <g id="line2d_18">
      <path d="M 33.081875 54.400044 
L 382.64 54.400044 
" clip-path="url(#p0708714a6d)" style="fill: none; stroke: #b0b0b0; stroke-opacity: 0.5; stroke-width: 0.5; stroke-linecap: square"/>
     </g>
     <g id="line2d_19">
      <g>
       <use xlink:href="#m91b7b9bf59" x="33.081875" y="54.400044" style="stroke: #000000; stroke-width: 0.8"/>
      </g>
     </g>
     <g id="text_16">
      <!-- 4 -->
      <g transform="translate(20.991875 57.439106) scale(0.08 -0.08)">
       <use xlink:href="#DejaVuSans-17"/>
      </g>
     </g>
    </g>
    <g id="ytick_4">
     <g id="line2d_20">
      <path d="M 33.081875 32.944167 
L 382.64 32.944167 
" clip-path="url(#p0708714a6d)" style="fill: none; stroke: #b0b0b0; stroke-opacity: 0.5; stroke-width: 0.5; stroke-linecap: square"/>
     </g>
     <g id="line2d_21">
      <g>
       <use xlink:href="#m91b7b9bf59" x="33.081875" y="32.944167" style="stroke: #000000; stroke-width: 0.8"/>
      </g>
     </g>
     <g id="text_17">
      <!-- 6 -->
      <g transform="translate(20.991875 35.98323) scale(0.08 -0.08)">
       <defs>
        <path id="DejaVuSans-19" d="M 2113 2584 
Q 1688 2584 1439 2293 
Q 1191 2003 1191 1497 
Q 1191 994 1439 701 
Q 1688 409 2113 409 
Q 2538 409 2786 701 
Q 3034 994 3034 1497 
Q 3034 2003 2786 2293 
Q 2538 2584 2113 2584 
z
M 3366 4563 
L 3366 3988 
Q 3128 4100 2886 4159 
Q 2644 4219 2406 4219 
Q 1781 4219 1451 3797 
Q 1122 3375 1075 2522 
Q 1259 2794 1537 2939 
Q 1816 3084 2150 3084 
Q 2853 3084 3261 2657 
Q 3669 2231 3669 1497 
Q 3669 778 3244 343 
Q 2819 -91 2113 -91 
Q 1303 -91 875 529 
Q 447 1150 447 2328 
Q 447 3434 972 4092 
Q 1497 4750 2381 4750 
Q 2619 4750 2861 4703 
Q 3103 4656 3366 4563 
z
" transform="scale(0.015625)"/>
       </defs>
       <use xlink:href="#DejaVuSans-19"/>
      </g>
     </g>
    </g>
    <g id="ytick_5">
     <g id="line2d_22">
      <path d="M 33.081875 11.488291 
L 382.64 11.488291 
" clip-path="url(#p0708714a6d)" style="fill: none; stroke: #b0b0b0; stroke-opacity: 0.5; stroke-width: 0.5; stroke-linecap: square"/>
     </g>
     <g id="line2d_23">
      <g>
       <use xlink:href="#m91b7b9bf59" x="33.081875" y="11.488291" style="stroke: #000000; stroke-width: 0.8"/>
      </g>
     </g>
     <g id="text_18">
      <!-- 8 -->
      <g transform="translate(20.991875 14.527353) scale(0.08 -0.08)">
       <defs>
        <path id="DejaVuSans-1b" d="M 2034 2216 
Q 1584 2216 1326 1975 
Q 1069 1734 1069 1313 
Q 1069 891 1326 650 
Q 1584 409 2034 409 
Q 2484 409 2743 651 
Q 3003 894 3003 1313 
Q 3003 1734 2745 1975 
Q 2488 2216 2034 2216 
z
M 1403 2484 
Q 997 2584 770 2862 
Q 544 3141 544 3541 
Q 544 4100 942 4425 
Q 1341 4750 2034 4750 
Q 2731 4750 3128 4425 
Q 3525 4100 3525 3541 
Q 3525 3141 3298 2862 
Q 3072 2584 2669 2484 
Q 3125 2378 3379 2068 
Q 3634 1759 3634 1313 
Q 3634 634 3220 271 
Q 2806 -91 2034 -91 
Q 1263 -91 848 271 
Q 434 634 434 1313 
Q 434 1759 690 2068 
Q 947 2378 1403 2484 
z
M 1172 3481 
Q 1172 3119 1398 2916 
Q 1625 2713 2034 2713 
Q 2441 2713 2670 2916 
Q 2900 3119 2900 3481 
Q 2900 3844 2670 4047 
Q 2441 4250 2034 4250 
Q 1625 4250 1398 4047 
Q 1172 3844 1172 3481 
z
" transform="scale(0.015625)"/>
       </defs>
       <use xlink:href="#DejaVuSans-1b"/>
      </g>
     </g>
    </g>
    <g id="text_19">
     <!-- Compilation time [s] -->
     <g transform="translate(15.07 94.965643) rotate(-90) scale(0.08 -0.08)">
      <defs>
       <path id="DejaVuSans-3e" d="M 550 4863 
L 1875 4863 
L 1875 4416 
L 1125 4416 
L 1125 -397 
L 1875 -397 
L 1875 -844 
L 550 -844 
L 550 4863 
z
" transform="scale(0.015625)"/>
       <path id="DejaVuSans-40" d="M 1947 4863 
L 1947 -844 
L 622 -844 
L 622 -397 
L 1369 -397 
L 1369 4416 
L 622 4416 
L 622 4863 
L 1947 4863 
z
" transform="scale(0.015625)"/>
      </defs>
      <use xlink:href="#DejaVuSans-26"/>
      <use xlink:href="#DejaVuSans-52" transform="translate(69.828125 0)"/>
      <use xlink:href="#DejaVuSans-50" transform="translate(131.015625 0)"/>
      <use xlink:href="#DejaVuSans-53" transform="translate(228.421875 0)"/>
      <use xlink:href="#DejaVuSans-4c" transform="translate(291.90625 0)"/>
      <use xlink:href="#DejaVuSans-4f" transform="translate(319.6875 0)"/>
      <use xlink:href="#DejaVuSans-44" transform="translate(347.46875 0)"/>
      <use xlink:href="#DejaVuSans-57" transform="translate(408.75 0)"/>
      <use xlink:href="#DejaVuSans-4c" transform="translate(447.953125 0)"/>
      <use xlink:href="#DejaVuSans-52" transform="translate(475.734375 0)"/>
      <use xlink:href="#DejaVuSans-51" transform="translate(536.921875 0)"/>
      <use xlink:href="#DejaVuSans-3" transform="translate(600.296875 0)"/>
      <use xlink:href="#DejaVuSans-57" transform="translate(632.078125 0)"/>
      <use xlink:href="#DejaVuSans-4c" transform="translate(671.28125 0)"/>
      <use xlink:href="#DejaVuSans-50" transform="translate(699.0625 0)"/>
      <use xlink:href="#DejaVuSans-48" transform="translate(796.46875 0)"/>
      <use xlink:href="#DejaVuSans-3" transform="translate(858 0)"/>
      <use xlink:href="#DejaVuSans-3e" transform="translate(889.78125 0)"/>
      <use xlink:href="#DejaVuSans-56" transform="translate(928.796875 0)"/>
      <use xlink:href="#DejaVuSans-40" transform="translate(980.890625 0)"/>
     </g>
    </g>
   </g>
   <g id="patch_3">
    <path d="M 48.970881 97.311797 
L 51.641302 97.311797 
L 51.641302 76.177758 
L 48.970881 76.177758 
z
" clip-path="url(#p0708714a6d)" style="fill: #ff7f0e"/>
   </g>
   <g id="patch_4">
    <path d="M 73.894811 97.311797 
L 76.565232 97.311797 
L 76.565232 61.695042 
L 73.894811 61.695042 
z
" clip-path="url(#p0708714a6d)" style="fill: #ff7f0e"/>
   </g>
   <g id="patch_5">
    <path d="M 98.818742 97.311797 
L 101.489163 97.311797 
L 101.489163 72.42298 
L 98.818742 72.42298 
z
" clip-path="url(#p0708714a6d)" style="fill: #ff7f0e"/>
   </g>
   <g id="patch_6">
    <path d="M 123.742672 97.311797 
L 126.413093 97.311797 
L 126.413093 69.311878 
L 123.742672 69.311878 
z
" clip-path="url(#p0708714a6d)" style="fill: #ff7f0e"/>
   </g>
   <g id="patch_7">
    <path d="M 148.666603 97.311797 
L 151.337024 97.311797 
L 151.337024 66.308055 
L 148.666603 66.308055 
z
" clip-path="url(#p0708714a6d)" style="fill: #ff7f0e"/>
   </g>
   <g id="patch_8">
    <path d="M 173.590533 97.311797 
L 176.260954 97.311797 
L 176.260954 60.19313 
L 173.590533 60.19313 
z
" clip-path="url(#p0708714a6d)" style="fill: #ff7f0e"/>
   </g>
   <g id="patch_9">
    <path d="M 198.514464 97.311797 
L 201.184885 97.311797 
L 201.184885 59.764013 
L 198.514464 59.764013 
z
" clip-path="url(#p0708714a6d)" style="fill: #ff7f0e"/>
   </g>
   <g id="patch_10">
    <path d="M 223.438394 97.311797 
L 226.108815 97.311797 
L 226.108815 72.637539 
L 223.438394 72.637539 
z
" clip-path="url(#p0708714a6d)" style="fill: #ff7f0e"/>
   </g>
   <g id="patch_11">
    <path d="M 248.362325 97.311797 
L 251.032746 97.311797 
L 251.032746 60.944086 
L 248.362325 60.944086 
z
" clip-path="url(#p0708714a6d)" style="fill: #ff7f0e"/>
   </g>
   <g id="patch_12">
    <path d="M 273.286255 97.311797 
L 275.956676 97.311797 
L 275.956676 60.19313 
L 273.286255 60.19313 
z
" clip-path="url(#p0708714a6d)" style="fill: #ff7f0e"/>
   </g>
   <g id="patch_13">
    <path d="M 298.210185 97.311797 
L 300.880607 97.311797 
L 300.880607 23.82542 
L 298.210185 23.82542 
z
" clip-path="url(#p0708714a6d)" style="fill: #ff7f0e"/>
   </g>
   <g id="patch_14">
    <path d="M 323.134116 97.311797 
L 325.804537 97.311797 
L 325.804537 35.411593 
L 323.134116 35.411593 
z
" clip-path="url(#p0708714a6d)" style="fill: #ff7f0e"/>
   </g>
   <g id="patch_15">
    <path d="M 0 0 
z
" clip-path="url(#p0708714a6d)" style="fill: #ff7f0e"/>
   </g>
   <g id="patch_16">
    <path d="M 51.641302 97.311797 
L 54.311723 97.311797 
L 54.311723 74.997685 
L 51.641302 74.997685 
z
" clip-path="url(#p0708714a6d)" style="fill: #2ca02c"/>
   </g>
   <g id="patch_17">
    <path d="M 76.565232 97.311797 
L 79.235653 97.311797 
L 79.235653 57.725705 
L 76.565232 57.725705 
z
" clip-path="url(#p0708714a6d)" style="fill: #2ca02c"/>
   </g>
   <g id="patch_18">
    <path d="M 101.489163 97.311797 
L 104.159584 97.311797 
L 104.159584 69.204599 
L 101.489163 69.204599 
z
" clip-path="url(#p0708714a6d)" style="fill: #2ca02c"/>
   </g>
   <g id="patch_19">
    <path d="M 126.413093 97.311797 
L 129.083514 97.311797 
L 129.083514 65.127982 
L 126.413093 65.127982 
z
" clip-path="url(#p0708714a6d)" style="fill: #2ca02c"/>
   </g>
   <g id="patch_20">
    <path d="M 151.337024 97.311797 
L 154.007445 97.311797 
L 154.007445 60.944086 
L 151.337024 60.944086 
z
" clip-path="url(#p0708714a6d)" style="fill: #2ca02c"/>
   </g>
   <g id="patch_21">
    <path d="M 176.260954 97.311797 
L 178.931375 97.311797 
L 178.931375 55.472838 
L 176.260954 55.472838 
z
" clip-path="url(#p0708714a6d)" style="fill: #2ca02c"/>
   </g>
   <g id="patch_22">
    <path d="M 201.184885 97.311797 
L 203.855306 97.311797 
L 203.855306 53.863647 
L 201.184885 53.863647 
z
" clip-path="url(#p0708714a6d)" style="fill: #2ca02c"/>
   </g>
   <g id="patch_23">
    <path d="M 226.108815 97.311797 
L 228.779236 97.311797 
L 228.779236 68.346363 
L 226.108815 68.346363 
z
" clip-path="url(#p0708714a6d)" style="fill: #2ca02c"/>
   </g>
   <g id="patch_24">
    <path d="M 251.032746 97.311797 
L 253.703167 97.311797 
L 253.703167 58.58394 
L 251.032746 58.58394 
z
" clip-path="url(#p0708714a6d)" style="fill: #2ca02c"/>
   </g>
   <g id="patch_25">
    <path d="M 275.956676 97.311797 
L 278.627097 97.311797 
L 278.627097 57.832984 
L 275.956676 57.832984 
z
" clip-path="url(#p0708714a6d)" style="fill: #2ca02c"/>
   </g>
   <g id="patch_26">
    <path d="M 300.880607 97.311797 
L 303.551028 97.311797 
L 303.551028 15.13579 
L 300.880607 15.13579 
z
" clip-path="url(#p0708714a6d)" style="fill: #2ca02c"/>
   </g>
   <g id="patch_27">
    <path d="M 325.804537 97.311797 
L 328.474958 97.311797 
L 328.474958 29.940345 
L 325.804537 29.940345 
z
" clip-path="url(#p0708714a6d)" style="fill: #2ca02c"/>
   </g>
   <g id="patch_28">
    <path d="M 0 0 
z
" clip-path="url(#p0708714a6d)" style="fill: #2ca02c"/>
   </g>
   <g id="patch_29">
    <path d="M 54.311723 97.311797 
L 56.982144 97.311797 
L 56.982144 93.878857 
L 54.311723 93.878857 
z
" clip-path="url(#p0708714a6d)" style="fill: #d62728"/>
   </g>
   <g id="patch_30">
    <path d="M 79.235653 97.311797 
L 81.906075 97.311797 
L 81.906075 85.725623 
L 79.235653 85.725623 
z
" clip-path="url(#p0708714a6d)" style="fill: #d62728"/>
   </g>
   <g id="patch_31">
    <path d="M 104.159584 97.311797 
L 106.830005 97.311797 
L 106.830005 84.867388 
L 104.159584 84.867388 
z
" clip-path="url(#p0708714a6d)" style="fill: #d62728"/>
   </g>
   <g id="patch_32">
    <path d="M 129.083514 97.311797 
L 131.753935 97.311797 
L 131.753935 62.875115 
L 129.083514 62.875115 
z
" clip-path="url(#p0708714a6d)" style="fill: #d62728"/>
   </g>
   <g id="patch_33">
    <path d="M 154.007445 97.311797 
L 156.677866 97.311797 
L 156.677866 59.442175 
L 154.007445 59.442175 
z
" clip-path="url(#p0708714a6d)" style="fill: #d62728"/>
   </g>
   <g id="patch_34">
    <path d="M 178.931375 97.311797 
L 181.601796 97.311797 
L 181.601796 56.974749 
L 178.931375 56.974749 
z
" clip-path="url(#p0708714a6d)" style="fill: #d62728"/>
   </g>
   <g id="patch_35">
    <path d="M 203.855306 97.311797 
L 206.525727 97.311797 
L 206.525727 56.116514 
L 203.855306 56.116514 
z
" clip-path="url(#p0708714a6d)" style="fill: #d62728"/>
   </g>
   <g id="patch_36">
    <path d="M 228.779236 97.311797 
L 231.449657 97.311797 
L 231.449657 70.170113 
L 228.779236 70.170113 
z
" clip-path="url(#p0708714a6d)" style="fill: #d62728"/>
   </g>
   <g id="patch_37">
    <path d="M 253.703167 97.311797 
L 256.373588 97.311797 
L 256.373588 70.277392 
L 253.703167 70.277392 
z
" clip-path="url(#p0708714a6d)" style="fill: #d62728"/>
   </g>
   <g id="patch_38">
    <path d="M 278.627097 97.311797 
L 281.297518 97.311797 
L 281.297518 55.472838 
L 278.627097 55.472838 
z
" clip-path="url(#p0708714a6d)" style="fill: #d62728"/>
   </g>
   <g id="patch_39">
    <path d="M 303.551028 97.311797 
L 306.221449 97.311797 
L 306.221449 42.384753 
L 303.551028 42.384753 
z
" clip-path="url(#p0708714a6d)" style="fill: #d62728"/>
   </g>
   <g id="patch_40">
    <path d="M 328.474958 97.311797 
L 331.145379 97.311797 
L 331.145379 29.296668 
L 328.474958 29.296668 
z
" clip-path="url(#p0708714a6d)" style="fill: #d62728"/>
   </g>
   <g id="patch_41">
    <path d="M 353.398889 97.311797 
L 356.06931 97.311797 
L 356.06931 89.480402 
L 353.398889 89.480402 
z
" clip-path="url(#p0708714a6d)" style="fill: #d62728"/>
   </g>
   <g id="patch_42">
    <path d="M 56.982144 97.311797 
L 59.652565 97.311797 
L 59.652565 81.970845 
L 56.982144 81.970845 
z
" clip-path="url(#p0708714a6d)" style="fill: #9467bd"/>
   </g>
   <g id="patch_43">
    <path d="M 81.906075 97.311797 
L 84.576496 97.311797 
L 84.576496 79.932537 
L 81.906075 79.932537 
z
" clip-path="url(#p0708714a6d)" style="fill: #9467bd"/>
   </g>
   <g id="patch_44">
    <path d="M 106.830005 97.311797 
L 109.500426 97.311797 
L 109.500426 79.074302 
L 106.830005 79.074302 
z
" clip-path="url(#p0708714a6d)" style="fill: #9467bd"/>
   </g>
   <g id="patch_45">
    <path d="M 131.753935 97.311797 
L 134.424357 97.311797 
L 134.424357 80.361654 
L 131.753935 80.361654 
z
" clip-path="url(#p0708714a6d)" style="fill: #9467bd"/>
   </g>
   <g id="patch_46">
    <path d="M 156.677866 97.311797 
L 159.348287 97.311797 
L 159.348287 77.67967 
L 156.677866 77.67967 
z
" clip-path="url(#p0708714a6d)" style="fill: #9467bd"/>
   </g>
   <g id="patch_47">
    <path d="M 181.601796 97.311797 
L 184.272218 97.311797 
L 184.272218 75.9632 
L 181.601796 75.9632 
z
" clip-path="url(#p0708714a6d)" style="fill: #9467bd"/>
   </g>
   <g id="patch_48">
    <path d="M 206.525727 97.311797 
L 209.196148 97.311797 
L 209.196148 72.315701 
L 206.525727 72.315701 
z
" clip-path="url(#p0708714a6d)" style="fill: #9467bd"/>
   </g>
   <g id="patch_49">
    <path d="M 231.449657 97.311797 
L 234.120079 97.311797 
L 234.120079 80.683492 
L 231.449657 80.683492 
z
" clip-path="url(#p0708714a6d)" style="fill: #9467bd"/>
   </g>
   <g id="patch_50">
    <path d="M 256.373588 97.311797 
L 259.044009 97.311797 
L 259.044009 80.468934 
L 256.373588 80.468934 
z
" clip-path="url(#p0708714a6d)" style="fill: #9467bd"/>
   </g>
   <g id="patch_51">
    <path d="M 281.297518 97.311797 
L 283.96794 97.311797 
L 283.96794 74.13945 
L 281.297518 74.13945 
z
" clip-path="url(#p0708714a6d)" style="fill: #9467bd"/>
   </g>
   <g id="patch_52">
    <path d="M 306.221449 97.311797 
L 308.89187 97.311797 
L 308.89187 76.606876 
L 306.221449 76.606876 
z
" clip-path="url(#p0708714a6d)" style="fill: #9467bd"/>
   </g>
   <g id="patch_53">
    <path d="M 331.145379 97.311797 
L 333.8158 97.311797 
L 333.8158 66.093496 
L 331.145379 66.093496 
z
" clip-path="url(#p0708714a6d)" style="fill: #9467bd"/>
   </g>
   <g id="patch_54">
    <path d="M 356.06931 97.311797 
L 358.739731 97.311797 
L 358.739731 73.495774 
L 356.06931 73.495774 
z
" clip-path="url(#p0708714a6d)" style="fill: #9467bd"/>
   </g>
   <g id="patch_55">
    <path d="M 59.652565 97.311797 
L 62.322986 97.311797 
L 62.322986 81.434448 
L 59.652565 81.434448 
z
" clip-path="url(#p0708714a6d)" style="fill: #8c564b"/>
   </g>
   <g id="patch_56">
    <path d="M 84.576496 97.311797 
L 87.246917 97.311797 
L 87.246917 79.825257 
L 84.576496 79.825257 
z
" clip-path="url(#p0708714a6d)" style="fill: #8c564b"/>
   </g>
   <g id="patch_57">
    <path d="M 109.500426 97.311797 
L 112.170847 97.311797 
L 112.170847 79.074302 
L 109.500426 79.074302 
z
" clip-path="url(#p0708714a6d)" style="fill: #8c564b"/>
   </g>
   <g id="patch_58">
    <path d="M 134.424357 97.311797 
L 137.094778 97.311797 
L 137.094778 80.254375 
L 134.424357 80.254375 
z
" clip-path="url(#p0708714a6d)" style="fill: #8c564b"/>
   </g>
   <g id="patch_59">
    <path d="M 159.348287 97.311797 
L 162.018708 97.311797 
L 162.018708 77.67967 
L 159.348287 77.67967 
z
" clip-path="url(#p0708714a6d)" style="fill: #8c564b"/>
   </g>
   <g id="patch_60">
    <path d="M 184.272218 97.311797 
L 186.942639 97.311797 
L 186.942639 76.070479 
L 184.272218 76.070479 
z
" clip-path="url(#p0708714a6d)" style="fill: #8c564b"/>
   </g>
   <g id="patch_61">
    <path d="M 209.196148 97.311797 
L 211.866569 97.311797 
L 211.866569 71.779304 
L 209.196148 71.779304 
z
" clip-path="url(#p0708714a6d)" style="fill: #8c564b"/>
   </g>
   <g id="patch_62">
    <path d="M 234.120079 97.311797 
L 236.7905 97.311797 
L 236.7905 80.468934 
L 234.120079 80.468934 
z
" clip-path="url(#p0708714a6d)" style="fill: #8c564b"/>
   </g>
   <g id="patch_63">
    <path d="M 259.044009 97.311797 
L 261.71443 97.311797 
L 261.71443 80.468934 
L 259.044009 80.468934 
z
" clip-path="url(#p0708714a6d)" style="fill: #8c564b"/>
   </g>
   <g id="patch_64">
    <path d="M 283.96794 97.311797 
L 286.638361 97.311797 
L 286.638361 77.465111 
L 283.96794 77.465111 
z
" clip-path="url(#p0708714a6d)" style="fill: #8c564b"/>
   </g>
   <g id="patch_65">
    <path d="M 308.89187 97.311797 
L 311.562291 97.311797 
L 311.562291 75.9632 
L 308.89187 75.9632 
z
" clip-path="url(#p0708714a6d)" style="fill: #8c564b"/>
   </g>
   <g id="patch_66">
    <path d="M 333.8158 97.311797 
L 336.486222 97.311797 
L 336.486222 68.88276 
L 333.8158 68.88276 
z
" clip-path="url(#p0708714a6d)" style="fill: #8c564b"/>
   </g>
   <g id="patch_67">
    <path d="M 358.739731 97.311797 
L 361.410152 97.311797 
L 361.410152 77.357832 
L 358.739731 77.357832 
z
" clip-path="url(#p0708714a6d)" style="fill: #8c564b"/>
   </g>
   <g id="patch_68">
    <path d="M 62.322986 97.311797 
L 64.993407 97.311797 
L 64.993407 81.434448 
L 62.322986 81.434448 
z
" clip-path="url(#p0708714a6d)" style="fill: #e377c2"/>
   </g>
   <g id="patch_69">
    <path d="M 87.246917 97.311797 
L 89.917338 97.311797 
L 89.917338 79.610699 
L 87.246917 79.610699 
z
" clip-path="url(#p0708714a6d)" style="fill: #e377c2"/>
   </g>
   <g id="patch_70">
    <path d="M 112.170847 97.311797 
L 114.841268 97.311797 
L 114.841268 78.752464 
L 112.170847 78.752464 
z
" clip-path="url(#p0708714a6d)" style="fill: #e377c2"/>
   </g>
   <g id="patch_71">
    <path d="M 137.094778 97.311797 
L 139.765199 97.311797 
L 139.765199 79.932537 
L 137.094778 79.932537 
z
" clip-path="url(#p0708714a6d)" style="fill: #e377c2"/>
   </g>
   <g id="patch_72">
    <path d="M 162.018708 97.311797 
L 164.689129 97.311797 
L 164.689129 77.250552 
L 162.018708 77.250552 
z
" clip-path="url(#p0708714a6d)" style="fill: #e377c2"/>
   </g>
   <g id="patch_73">
    <path d="M 186.942639 97.311797 
L 189.61306 97.311797 
L 189.61306 75.85592 
L 186.942639 75.85592 
z
" clip-path="url(#p0708714a6d)" style="fill: #e377c2"/>
   </g>
   <g id="patch_74">
    <path d="M 211.866569 97.311797 
L 214.53699 97.311797 
L 214.53699 73.281215 
L 211.866569 73.281215 
z
" clip-path="url(#p0708714a6d)" style="fill: #e377c2"/>
   </g>
   <g id="patch_75">
    <path d="M 236.7905 97.311797 
L 239.460921 97.311797 
L 239.460921 79.932537 
L 236.7905 79.932537 
z
" clip-path="url(#p0708714a6d)" style="fill: #e377c2"/>
   </g>
   <g id="patch_76">
    <path d="M 261.71443 97.311797 
L 264.384851 97.311797 
L 264.384851 80.147096 
L 261.71443 80.147096 
z
" clip-path="url(#p0708714a6d)" style="fill: #e377c2"/>
   </g>
   <g id="patch_77">
    <path d="M 286.638361 97.311797 
L 289.308782 97.311797 
L 289.308782 68.668202 
L 286.638361 68.668202 
z
" clip-path="url(#p0708714a6d)" style="fill: #e377c2"/>
   </g>
   <g id="patch_78">
    <path d="M 311.562291 97.311797 
L 314.232712 97.311797 
L 314.232712 76.821435 
L 311.562291 76.821435 
z
" clip-path="url(#p0708714a6d)" style="fill: #e377c2"/>
   </g>
   <g id="patch_79">
    <path d="M 336.486222 97.311797 
L 339.156643 97.311797 
L 339.156643 60.622248 
L 336.486222 60.622248 
z
" clip-path="url(#p0708714a6d)" style="fill: #e377c2"/>
   </g>
   <g id="patch_80">
    <path d="M 361.410152 97.311797 
L 364.080573 97.311797 
L 364.080573 67.917246 
L 361.410152 67.917246 
z
" clip-path="url(#p0708714a6d)" style="fill: #e377c2"/>
   </g>
   <g id="patch_81">
    <path d="M 64.993407 97.311797 
L 67.663829 97.311797 
L 67.663829 80.683492 
L 64.993407 80.683492 
z
" clip-path="url(#p0708714a6d)" style="fill: #7f7f7f"/>
   </g>
   <g id="patch_82">
    <path d="M 89.917338 97.311797 
L 92.587759 97.311797 
L 92.587759 78.859743 
L 89.917338 78.859743 
z
" clip-path="url(#p0708714a6d)" style="fill: #7f7f7f"/>
   </g>
   <g id="patch_83">
    <path d="M 114.841268 97.311797 
L 117.51169 97.311797 
L 117.51169 77.67967 
L 114.841268 77.67967 
z
" clip-path="url(#p0708714a6d)" style="fill: #7f7f7f"/>
   </g>
   <g id="patch_84">
    <path d="M 139.765199 97.311797 
L 142.43562 97.311797 
L 142.43562 79.181581 
L 139.765199 79.181581 
z
" clip-path="url(#p0708714a6d)" style="fill: #7f7f7f"/>
   </g>
   <g id="patch_85">
    <path d="M 164.689129 97.311797 
L 167.35955 97.311797 
L 167.35955 76.714155 
L 164.689129 76.714155 
z
" clip-path="url(#p0708714a6d)" style="fill: #7f7f7f"/>
   </g>
   <g id="patch_86">
    <path d="M 189.61306 97.311797 
L 192.283481 97.311797 
L 192.283481 74.997685 
L 189.61306 74.997685 
z
" clip-path="url(#p0708714a6d)" style="fill: #7f7f7f"/>
   </g>
   <g id="patch_87">
    <path d="M 214.53699 97.311797 
L 217.207411 97.311797 
L 217.207411 71.672024 
L 214.53699 71.672024 
z
" clip-path="url(#p0708714a6d)" style="fill: #7f7f7f"/>
   </g>
   <g id="patch_88">
    <path d="M 239.460921 97.311797 
L 242.131342 97.311797 
L 242.131342 79.503419 
L 239.460921 79.503419 
z
" clip-path="url(#p0708714a6d)" style="fill: #7f7f7f"/>
   </g>
   <g id="patch_89">
    <path d="M 264.384851 97.311797 
L 267.055272 97.311797 
L 267.055272 79.717978 
L 264.384851 79.717978 
z
" clip-path="url(#p0708714a6d)" style="fill: #7f7f7f"/>
   </g>
   <g id="patch_90">
    <path d="M 289.308782 97.311797 
L 291.979203 97.311797 
L 291.979203 74.783126 
L 289.308782 74.783126 
z
" clip-path="url(#p0708714a6d)" style="fill: #7f7f7f"/>
   </g>
   <g id="patch_91">
    <path d="M 314.232712 97.311797 
L 316.903133 97.311797 
L 316.903133 74.461288 
L 314.232712 74.461288 
z
" clip-path="url(#p0708714a6d)" style="fill: #7f7f7f"/>
   </g>
   <g id="patch_92">
    <path d="M 339.156643 97.311797 
L 341.827064 97.311797 
L 341.827064 67.380849 
L 339.156643 67.380849 
z
" clip-path="url(#p0708714a6d)" style="fill: #7f7f7f"/>
   </g>
   <g id="patch_93">
    <path d="M 364.080573 97.311797 
L 366.750994 97.311797 
L 366.750994 75.85592 
L 364.080573 75.85592 
z
" clip-path="url(#p0708714a6d)" style="fill: #7f7f7f"/>
   </g>
   <g id="patch_94">
    <path d="M 33.081875 97.311797 
L 33.081875 11.026989 
" style="fill: none; stroke: #000000; stroke-width: 0.8; stroke-linejoin: miter; stroke-linecap: square"/>
   </g>
   <g id="patch_95">
    <path d="M 382.64 97.311797 
L 382.64 11.026989 
" style="fill: none; stroke: #000000; stroke-width: 0.8; stroke-linejoin: miter; stroke-linecap: square"/>
   </g>
   <g id="patch_96">
    <path d="M 33.081875 97.311797 
L 382.64 97.311797 
" style="fill: none; stroke: #000000; stroke-width: 0.8; stroke-linejoin: miter; stroke-linecap: square"/>
   </g>
   <g id="patch_97">
    <path d="M 33.081875 11.026989 
L 382.64 11.026989 
" style="fill: none; stroke: #000000; stroke-width: 0.8; stroke-linejoin: miter; stroke-linecap: square"/>
   </g>
   <g id="legend_1">
    <g id="patch_98">
     <path d="M 388.24 97.371581 
L 492.5675 97.371581 
Q 494.1675 97.371581 494.1675 95.771581 
L 494.1675 12.567206 
Q 494.1675 10.967206 492.5675 10.967206 
L 388.24 10.967206 
Q 386.64 10.967206 386.64 12.567206 
L 386.64 95.771581 
Q 386.64 97.371581 388.24 97.371581 
z
" style="fill: #ffffff; opacity: 0.8; stroke: #cccccc; stroke-linejoin: miter"/>
    </g>
    <g id="patch_99">
     <path d="M 389.84 20.245956 
L 405.84 20.245956 
L 405.84 14.645956 
L 389.84 14.645956 
z
" style="fill: #ff7f0e"/>
    </g>
    <g id="text_20">
     <!-- Pythran (g++) -->
     <g transform="translate(412.24 20.245956) scale(0.08 -0.08)">
      <defs>
       <path id="DejaVuSans-5c" d="M 2059 -325 
Q 1816 -950 1584 -1140 
Q 1353 -1331 966 -1331 
L 506 -1331 
L 506 -850 
L 844 -850 
Q 1081 -850 1212 -737 
Q 1344 -625 1503 -206 
L 1606 56 
L 191 3500 
L 800 3500 
L 1894 763 
L 2988 3500 
L 3597 3500 
L 2059 -325 
z
" transform="scale(0.015625)"/>
       <path id="DejaVuSans-4b" d="M 3513 2113 
L 3513 0 
L 2938 0 
L 2938 2094 
Q 2938 2591 2744 2837 
Q 2550 3084 2163 3084 
Q 1697 3084 1428 2787 
Q 1159 2491 1159 1978 
L 1159 0 
L 581 0 
L 581 4863 
L 1159 4863 
L 1159 2956 
Q 1366 3272 1645 3428 
Q 1925 3584 2291 3584 
Q 2894 3584 3203 3211 
Q 3513 2838 3513 2113 
z
" transform="scale(0.015625)"/>
       <path id="DejaVuSans-b" d="M 1984 4856 
Q 1566 4138 1362 3434 
Q 1159 2731 1159 2009 
Q 1159 1288 1364 580 
Q 1569 -128 1984 -844 
L 1484 -844 
Q 1016 -109 783 600 
Q 550 1309 550 2009 
Q 550 2706 781 3412 
Q 1013 4119 1484 4856 
L 1984 4856 
z
" transform="scale(0.015625)"/>
       <path id="DejaVuSans-4a" d="M 2906 1791 
Q 2906 2416 2648 2759 
Q 2391 3103 1925 3103 
Q 1463 3103 1205 2759 
Q 947 2416 947 1791 
Q 947 1169 1205 825 
Q 1463 481 1925 481 
Q 2391 481 2648 825 
Q 2906 1169 2906 1791 
z
M 3481 434 
Q 3481 -459 3084 -895 
Q 2688 -1331 1869 -1331 
Q 1566 -1331 1297 -1286 
Q 1028 -1241 775 -1147 
L 775 -588 
Q 1028 -725 1275 -790 
Q 1522 -856 1778 -856 
Q 2344 -856 2625 -561 
Q 2906 -266 2906 331 
L 2906 616 
Q 2728 306 2450 153 
Q 2172 0 1784 0 
Q 1141 0 747 490 
Q 353 981 353 1791 
Q 353 2603 747 3093 
Q 1141 3584 1784 3584 
Q 2172 3584 2450 3431 
Q 2728 3278 2906 2969 
L 2906 3500 
L 3481 3500 
L 3481 434 
z
" transform="scale(0.015625)"/>
       <path id="DejaVuSans-e" d="M 2944 4013 
L 2944 2272 
L 4684 2272 
L 4684 1741 
L 2944 1741 
L 2944 0 
L 2419 0 
L 2419 1741 
L 678 1741 
L 678 2272 
L 2419 2272 
L 2419 4013 
L 2944 4013 
z
" transform="scale(0.015625)"/>
       <path id="DejaVuSans-c" d="M 513 4856 
L 1013 4856 
Q 1481 4119 1714 3412 
Q 1947 2706 1947 2009 
Q 1947 1309 1714 600 
Q 1481 -109 1013 -844 
L 513 -844 
Q 928 -128 1133 580 
Q 1338 1288 1338 2009 
Q 1338 2731 1133 3434 
Q 928 4138 513 4856 
z
" transform="scale(0.015625)"/>
      </defs>
      <use xlink:href="#DejaVuSans-33"/>
      <use xlink:href="#DejaVuSans-5c" transform="translate(60.296875 0)"/>
      <use xlink:href="#DejaVuSans-57" transform="translate(119.484375 0)"/>
      <use xlink:href="#DejaVuSans-4b" transform="translate(158.6875 0)"/>
      <use xlink:href="#DejaVuSans-55" transform="translate(222.0625 0)"/>
      <use xlink:href="#DejaVuSans-44" transform="translate(263.171875 0)"/>
      <use xlink:href="#DejaVuSans-51" transform="translate(324.453125 0)"/>
      <use xlink:href="#DejaVuSans-3" transform="translate(387.828125 0)"/>
      <use xlink:href="#DejaVuSans-b" transform="translate(419.609375 0)"/>
      <use xlink:href="#DejaVuSans-4a" transform="translate(458.625 0)"/>
      <use xlink:href="#DejaVuSans-e" transform="translate(522.109375 0)"/>
      <use xlink:href="#DejaVuSans-e" transform="translate(605.90625 0)"/>
      <use xlink:href="#DejaVuSans-c" transform="translate(689.703125 0)"/>
     </g>
    </g>
    <g id="patch_100">
     <path d="M 389.84 32.246581 
L 405.84 32.246581 
L 405.84 26.646581 
L 389.84 26.646581 
z
" style="fill: #2ca02c"/>
    </g>
    <g id="text_21">
     <!-- Pythran (icx) -->
     <g transform="translate(412.24 32.246581) scale(0.08 -0.08)">
      <use xlink:href="#DejaVuSans-33"/>
      <use xlink:href="#DejaVuSans-5c" transform="translate(60.296875 0)"/>
      <use xlink:href="#DejaVuSans-57" transform="translate(119.484375 0)"/>
      <use xlink:href="#DejaVuSans-4b" transform="translate(158.6875 0)"/>
      <use xlink:href="#DejaVuSans-55" transform="translate(222.0625 0)"/>
      <use xlink:href="#DejaVuSans-44" transform="translate(263.171875 0)"/>
      <use xlink:href="#DejaVuSans-51" transform="translate(324.453125 0)"/>
      <use xlink:href="#DejaVuSans-3" transform="translate(387.828125 0)"/>
      <use xlink:href="#DejaVuSans-b" transform="translate(419.609375 0)"/>
      <use xlink:href="#DejaVuSans-4c" transform="translate(458.625 0)"/>
      <use xlink:href="#DejaVuSans-46" transform="translate(486.40625 0)"/>
      <use xlink:href="#DejaVuSans-5b" transform="translate(541.390625 0)"/>
      <use xlink:href="#DejaVuSans-c" transform="translate(600.578125 0)"/>
     </g>
    </g>
    <g id="patch_101">
     <path d="M 389.84 44.247206 
L 405.84 44.247206 
L 405.84 38.647206 
L 389.84 38.647206 
z
" style="fill: #d62728"/>
    </g>
    <g id="text_22">
     <!-- Numba -->
     <g transform="translate(412.24 44.247206) scale(0.08 -0.08)">
      <defs>
       <path id="DejaVuSans-45" d="M 3116 1747 
Q 3116 2381 2855 2742 
Q 2594 3103 2138 3103 
Q 1681 3103 1420 2742 
Q 1159 2381 1159 1747 
Q 1159 1113 1420 752 
Q 1681 391 2138 391 
Q 2594 391 2855 752 
Q 3116 1113 3116 1747 
z
M 1159 2969 
Q 1341 3281 1617 3432 
Q 1894 3584 2278 3584 
Q 2916 3584 3314 3078 
Q 3713 2572 3713 1747 
Q 3713 922 3314 415 
Q 2916 -91 2278 -91 
Q 1894 -91 1617 61 
Q 1341 213 1159 525 
L 1159 0 
L 581 0 
L 581 4863 
L 1159 4863 
L 1159 2969 
z
" transform="scale(0.015625)"/>
      </defs>
      <use xlink:href="#DejaVuSans-31"/>
      <use xlink:href="#DejaVuSans-58" transform="translate(74.8125 0)"/>
      <use xlink:href="#DejaVuSans-50" transform="translate(138.1875 0)"/>
      <use xlink:href="#DejaVuSans-45" transform="translate(235.59375 0)"/>
      <use xlink:href="#DejaVuSans-44" transform="translate(299.078125 0)"/>
     </g>
    </g>
    <g id="patch_102">
     <path d="M 389.84 56.247831 
L 405.84 56.247831 
L 405.84 50.647831 
L 389.84 50.647831 
z
" style="fill: #9467bd"/>
    </g>
    <g id="text_23">
     <!-- pyccel_gnu_c -->
     <g transform="translate(412.24 56.247831) scale(0.08 -0.08)">
      <defs>
       <path id="DejaVuSans-42" d="M 3263 -1063 
L 3263 -1509 
L -63 -1509 
L -63 -1063 
L 3263 -1063 
z
" transform="scale(0.015625)"/>
      </defs>
      <use xlink:href="#DejaVuSans-53"/>
      <use xlink:href="#DejaVuSans-5c" transform="translate(63.484375 0)"/>
      <use xlink:href="#DejaVuSans-46" transform="translate(122.671875 0)"/>
      <use xlink:href="#DejaVuSans-46" transform="translate(177.65625 0)"/>
      <use xlink:href="#DejaVuSans-48" transform="translate(232.640625 0)"/>
      <use xlink:href="#DejaVuSans-4f" transform="translate(294.171875 0)"/>
      <use xlink:href="#DejaVuSans-42" transform="translate(321.953125 0)"/>
      <use xlink:href="#DejaVuSans-4a" transform="translate(371.953125 0)"/>
      <use xlink:href="#DejaVuSans-51" transform="translate(435.4375 0)"/>
      <use xlink:href="#DejaVuSans-58" transform="translate(498.8125 0)"/>
      <use xlink:href="#DejaVuSans-42" transform="translate(562.1875 0)"/>
      <use xlink:href="#DejaVuSans-46" transform="translate(612.1875 0)"/>
     </g>
    </g>
    <g id="patch_103">
     <path d="M 389.84 68.248456 
L 405.84 68.248456 
L 405.84 62.648456 
L 389.84 62.648456 
z
" style="fill: #8c564b"/>
    </g>
    <g id="text_24">
     <!-- pyccel_gnu_fortran -->
     <g transform="translate(412.24 68.248456) scale(0.08 -0.08)">
      <defs>
       <path id="DejaVuSans-49" d="M 2375 4863 
L 2375 4384 
L 1825 4384 
Q 1516 4384 1395 4259 
Q 1275 4134 1275 3809 
L 1275 3500 
L 2222 3500 
L 2222 3053 
L 1275 3053 
L 1275 0 
L 697 0 
L 697 3053 
L 147 3053 
L 147 3500 
L 697 3500 
L 697 3744 
Q 697 4328 969 4595 
Q 1241 4863 1831 4863 
L 2375 4863 
z
" transform="scale(0.015625)"/>
      </defs>
      <use xlink:href="#DejaVuSans-53"/>
      <use xlink:href="#DejaVuSans-5c" transform="translate(63.484375 0)"/>
      <use xlink:href="#DejaVuSans-46" transform="translate(122.671875 0)"/>
      <use xlink:href="#DejaVuSans-46" transform="translate(177.65625 0)"/>
      <use xlink:href="#DejaVuSans-48" transform="translate(232.640625 0)"/>
      <use xlink:href="#DejaVuSans-4f" transform="translate(294.171875 0)"/>
      <use xlink:href="#DejaVuSans-42" transform="translate(321.953125 0)"/>
      <use xlink:href="#DejaVuSans-4a" transform="translate(371.953125 0)"/>
      <use xlink:href="#DejaVuSans-51" transform="translate(435.4375 0)"/>
      <use xlink:href="#DejaVuSans-58" transform="translate(498.8125 0)"/>
      <use xlink:href="#DejaVuSans-42" transform="translate(562.1875 0)"/>
      <use xlink:href="#DejaVuSans-49" transform="translate(612.1875 0)"/>
      <use xlink:href="#DejaVuSans-52" transform="translate(647.390625 0)"/>
      <use xlink:href="#DejaVuSans-55" transform="translate(708.578125 0)"/>
      <use xlink:href="#DejaVuSans-57" transform="translate(749.6875 0)"/>
      <use xlink:href="#DejaVuSans-55" transform="translate(788.890625 0)"/>
      <use xlink:href="#DejaVuSans-44" transform="translate(830 0)"/>
      <use xlink:href="#DejaVuSans-51" transform="translate(891.28125 0)"/>
     </g>
    </g>
    <g id="patch_104">
     <path d="M 389.84 80.249081 
L 405.84 80.249081 
L 405.84 74.649081 
L 389.84 74.649081 
z
" style="fill: #e377c2"/>
    </g>
    <g id="text_25">
     <!-- pyccel_intel_c -->
     <g transform="translate(412.24 80.249081) scale(0.08 -0.08)">
      <use xlink:href="#DejaVuSans-53"/>
      <use xlink:href="#DejaVuSans-5c" transform="translate(63.484375 0)"/>
      <use xlink:href="#DejaVuSans-46" transform="translate(122.671875 0)"/>
      <use xlink:href="#DejaVuSans-46" transform="translate(177.65625 0)"/>
      <use xlink:href="#DejaVuSans-48" transform="translate(232.640625 0)"/>
      <use xlink:href="#DejaVuSans-4f" transform="translate(294.171875 0)"/>
      <use xlink:href="#DejaVuSans-42" transform="translate(321.953125 0)"/>
      <use xlink:href="#DejaVuSans-4c" transform="translate(371.953125 0)"/>
      <use xlink:href="#DejaVuSans-51" transform="translate(399.734375 0)"/>
      <use xlink:href="#DejaVuSans-57" transform="translate(463.109375 0)"/>
      <use xlink:href="#DejaVuSans-48" transform="translate(502.3125 0)"/>
      <use xlink:href="#DejaVuSans-4f" transform="translate(563.84375 0)"/>
      <use xlink:href="#DejaVuSans-42" transform="translate(591.625 0)"/>
      <use xlink:href="#DejaVuSans-46" transform="translate(641.625 0)"/>
     </g>
    </g>
    <g id="patch_105">
     <path d="M 389.84 92.249706 
L 405.84 92.249706 
L 405.84 86.649706 
L 389.84 86.649706 
z
" style="fill: #7f7f7f"/>
    </g>
    <g id="text_26">
     <!-- pyccel_intel_fortran -->
     <g transform="translate(412.24 92.249706) scale(0.08 -0.08)">
      <use xlink:href="#DejaVuSans-53"/>
      <use xlink:href="#DejaVuSans-5c" transform="translate(63.484375 0)"/>
      <use xlink:href="#DejaVuSans-46" transform="translate(122.671875 0)"/>
      <use xlink:href="#DejaVuSans-46" transform="translate(177.65625 0)"/>
      <use xlink:href="#DejaVuSans-48" transform="translate(232.640625 0)"/>
      <use xlink:href="#DejaVuSans-4f" transform="translate(294.171875 0)"/>
      <use xlink:href="#DejaVuSans-42" transform="translate(321.953125 0)"/>
      <use xlink:href="#DejaVuSans-4c" transform="translate(371.953125 0)"/>
      <use xlink:href="#DejaVuSans-51" transform="translate(399.734375 0)"/>
      <use xlink:href="#DejaVuSans-57" transform="translate(463.109375 0)"/>
      <use xlink:href="#DejaVuSans-48" transform="translate(502.3125 0)"/>
      <use xlink:href="#DejaVuSans-4f" transform="translate(563.84375 0)"/>
      <use xlink:href="#DejaVuSans-42" transform="translate(591.625 0)"/>
      <use xlink:href="#DejaVuSans-49" transform="translate(641.625 0)"/>
      <use xlink:href="#DejaVuSans-52" transform="translate(676.828125 0)"/>
      <use xlink:href="#DejaVuSans-55" transform="translate(738.015625 0)"/>
      <use xlink:href="#DejaVuSans-57" transform="translate(779.125 0)"/>
      <use xlink:href="#DejaVuSans-55" transform="translate(818.328125 0)"/>
      <use xlink:href="#DejaVuSans-44" transform="translate(859.4375 0)"/>
      <use xlink:href="#DejaVuSans-51" transform="translate(920.71875 0)"/>
     </g>
    </g>
   </g>
  </g>
 </g>
 <defs>
  <clipPath id="p0708714a6d">
   <rect x="33.081875" y="11.026989" width="349.558125" height="86.284807"/>
  </clipPath>
 </defs>
</svg>
