<?xml version="1.0" encoding="utf-8" standalone="no"?>
<!DOCTYPE svg PUBLIC "-//W3C//DTD SVG 1.1//EN"
  "http://www.w3.org/Graphics/SVG/1.1/DTD/svg11.dtd">
<svg xmlns:xlink="http://www.w3.org/1999/xlink" width="504pt" height="158.4pt" viewBox="0 0 504 158.4" xmlns="http://www.w3.org/2000/svg" version="1.1">
 <metadata>
  <rdf:RDF xmlns:dc="http://purl.org/dc/elements/1.1/" xmlns:cc="http://creativecommons.org/ns#" xmlns:rdf="http://www.w3.org/1999/02/22-rdf-syntax-ns#">
   <cc:Work>
    <dc:type rdf:resource="http://purl.org/dc/dcmitype/StillImage"/>
    <dc:date>2024-02-29T21:04:17.622838</dc:date>
    <dc:format>image/svg+xml</dc:format>
    <dc:creator>
     <cc:Agent>
      <dc:title>Matplotlib v3.8.3, https://matplotlib.org/</dc:title>
     </cc:Agent>
    </dc:creator>
   </cc:Work>
  </rdf:RDF>
 </metadata>
 <defs>
  <style type="text/css">*{stroke-linejoin: round; stroke-linecap: butt}</style>
 </defs>
 <g id="figure_1">
  <g id="patch_1">
   <path d="M 0 158.4 
L 504 158.4 
L 504 0 
L 0 0 
z
" style="fill: #ffffff"/>
  </g>
  <g id="axes_1">
   <g id="patch_2">
    <path d="M 41.698012 98.139617 
L 361.22 98.139617 
L 361.22 8.64 
L 41.698012 8.64 
z
" style="fill: #ffffff"/>
   </g>
   <g id="matplotlib.axis_1">
    <g id="xtick_1">
     <g id="line2d_1">
      <defs>
       <path id="m3f64a4e9af" d="M 0 0 
L 0 3.5 
" style="stroke: #000000; stroke-width: 0.8"/>
      </defs>
      <g>
       <use xlink:href="#m3f64a4e9af" x="60.894251" y="98.139617" style="stroke: #000000; stroke-width: 0.8"/>
      </g>
     </g>
     <g id="text_1">
      <!-- Ackermann -->
      <g transform="translate(24.979804 132.893969) rotate(-30) scale(0.08 -0.08)">
       <defs>
        <path id="DejaVuSans-41" d="M 2188 4044 
L 1331 1722 
L 3047 1722 
L 2188 4044 
z
M 1831 4666 
L 2547 4666 
L 4325 0 
L 3669 0 
L 3244 1197 
L 1141 1197 
L 716 0 
L 50 0 
L 1831 4666 
z
" transform="scale(0.015625)"/>
        <path id="DejaVuSans-63" d="M 3122 3366 
L 3122 2828 
Q 2878 2963 2633 3030 
Q 2388 3097 2138 3097 
Q 1578 3097 1268 2742 
Q 959 2388 959 1747 
Q 959 1106 1268 751 
Q 1578 397 2138 397 
Q 2388 397 2633 464 
Q 2878 531 3122 666 
L 3122 134 
Q 2881 22 2623 -34 
Q 2366 -91 2075 -91 
Q 1284 -91 818 406 
Q 353 903 353 1747 
Q 353 2603 823 3093 
Q 1294 3584 2113 3584 
Q 2378 3584 2631 3529 
Q 2884 3475 3122 3366 
z
" transform="scale(0.015625)"/>
        <path id="DejaVuSans-6b" d="M 581 4863 
L 1159 4863 
L 1159 1991 
L 2875 3500 
L 3609 3500 
L 1753 1863 
L 3688 0 
L 2938 0 
L 1159 1709 
L 1159 0 
L 581 0 
L 581 4863 
z
" transform="scale(0.015625)"/>
        <path id="DejaVuSans-65" d="M 3597 1894 
L 3597 1613 
L 953 1613 
Q 991 1019 1311 708 
Q 1631 397 2203 397 
Q 2534 397 2845 478 
Q 3156 559 3463 722 
L 3463 178 
Q 3153 47 2828 -22 
Q 2503 -91 2169 -91 
Q 1331 -91 842 396 
Q 353 884 353 1716 
Q 353 2575 817 3079 
Q 1281 3584 2069 3584 
Q 2775 3584 3186 3129 
Q 3597 2675 3597 1894 
z
M 3022 2063 
Q 3016 2534 2758 2815 
Q 2500 3097 2075 3097 
Q 1594 3097 1305 2825 
Q 1016 2553 972 2059 
L 3022 2063 
z
" transform="scale(0.015625)"/>
        <path id="DejaVuSans-72" d="M 2631 2963 
Q 2534 3019 2420 3045 
Q 2306 3072 2169 3072 
Q 1681 3072 1420 2755 
Q 1159 2438 1159 1844 
L 1159 0 
L 581 0 
L 581 3500 
L 1159 3500 
L 1159 2956 
Q 1341 3275 1631 3429 
Q 1922 3584 2338 3584 
Q 2397 3584 2469 3576 
Q 2541 3569 2628 3553 
L 2631 2963 
z
" transform="scale(0.015625)"/>
        <path id="DejaVuSans-6d" d="M 3328 2828 
Q 3544 3216 3844 3400 
Q 4144 3584 4550 3584 
Q 5097 3584 5394 3201 
Q 5691 2819 5691 2113 
L 5691 0 
L 5113 0 
L 5113 2094 
Q 5113 2597 4934 2840 
Q 4756 3084 4391 3084 
Q 3944 3084 3684 2787 
Q 3425 2491 3425 1978 
L 3425 0 
L 2847 0 
L 2847 2094 
Q 2847 2600 2669 2842 
Q 2491 3084 2119 3084 
Q 1678 3084 1418 2786 
Q 1159 2488 1159 1978 
L 1159 0 
L 581 0 
L 581 3500 
L 1159 3500 
L 1159 2956 
Q 1356 3278 1631 3431 
Q 1906 3584 2284 3584 
Q 2666 3584 2933 3390 
Q 3200 3197 3328 2828 
z
" transform="scale(0.015625)"/>
        <path id="DejaVuSans-61" d="M 2194 1759 
Q 1497 1759 1228 1600 
Q 959 1441 959 1056 
Q 959 750 1161 570 
Q 1363 391 1709 391 
Q 2188 391 2477 730 
Q 2766 1069 2766 1631 
L 2766 1759 
L 2194 1759 
z
M 3341 1997 
L 3341 0 
L 2766 0 
L 2766 531 
Q 2569 213 2275 61 
Q 1981 -91 1556 -91 
Q 1019 -91 701 211 
Q 384 513 384 1019 
Q 384 1609 779 1909 
Q 1175 2209 1959 2209 
L 2766 2209 
L 2766 2266 
Q 2766 2663 2505 2880 
Q 2244 3097 1772 3097 
Q 1472 3097 1187 3025 
Q 903 2953 641 2809 
L 641 3341 
Q 956 3463 1253 3523 
Q 1550 3584 1831 3584 
Q 2591 3584 2966 3190 
Q 3341 2797 3341 1997 
z
" transform="scale(0.015625)"/>
        <path id="DejaVuSans-6e" d="M 3513 2113 
L 3513 0 
L 2938 0 
L 2938 2094 
Q 2938 2591 2744 2837 
Q 2550 3084 2163 3084 
Q 1697 3084 1428 2787 
Q 1159 2491 1159 1978 
L 1159 0 
L 581 0 
L 581 3500 
L 1159 3500 
L 1159 2956 
Q 1366 3272 1645 3428 
Q 1925 3584 2291 3584 
Q 2894 3584 3203 3211 
Q 3513 2838 3513 2113 
z
" transform="scale(0.015625)"/>
       </defs>
       <use xlink:href="#DejaVuSans-41"/>
       <use xlink:href="#DejaVuSans-63" x="66.658203"/>
       <use xlink:href="#DejaVuSans-6b" x="121.638672"/>
       <use xlink:href="#DejaVuSans-65" x="175.923828"/>
       <use xlink:href="#DejaVuSans-72" x="237.447266"/>
       <use xlink:href="#DejaVuSans-6d" x="276.810547"/>
       <use xlink:href="#DejaVuSans-61" x="374.222656"/>
       <use xlink:href="#DejaVuSans-6e" x="435.501953"/>
       <use xlink:href="#DejaVuSans-6e" x="498.880859"/>
      </g>
     </g>
    </g>
    <g id="xtick_2">
     <g id="line2d_2">
      <g>
       <use xlink:href="#m3f64a4e9af" x="85.814319" y="98.139617" style="stroke: #000000; stroke-width: 0.8"/>
      </g>
     </g>
     <g id="text_2">
      <!-- Bellman Ford -->
      <g transform="translate(43.302923 136.702719) rotate(-30) scale(0.08 -0.08)">
       <defs>
        <path id="DejaVuSans-42" d="M 1259 2228 
L 1259 519 
L 2272 519 
Q 2781 519 3026 730 
Q 3272 941 3272 1375 
Q 3272 1813 3026 2020 
Q 2781 2228 2272 2228 
L 1259 2228 
z
M 1259 4147 
L 1259 2741 
L 2194 2741 
Q 2656 2741 2882 2914 
Q 3109 3088 3109 3444 
Q 3109 3797 2882 3972 
Q 2656 4147 2194 4147 
L 1259 4147 
z
M 628 4666 
L 2241 4666 
Q 2963 4666 3353 4366 
Q 3744 4066 3744 3513 
Q 3744 3084 3544 2831 
Q 3344 2578 2956 2516 
Q 3422 2416 3680 2098 
Q 3938 1781 3938 1306 
Q 3938 681 3513 340 
Q 3088 0 2303 0 
L 628 0 
L 628 4666 
z
" transform="scale(0.015625)"/>
        <path id="DejaVuSans-6c" d="M 603 4863 
L 1178 4863 
L 1178 0 
L 603 0 
L 603 4863 
z
" transform="scale(0.015625)"/>
        <path id="DejaVuSans-20" transform="scale(0.015625)"/>
        <path id="DejaVuSans-46" d="M 628 4666 
L 3309 4666 
L 3309 4134 
L 1259 4134 
L 1259 2759 
L 3109 2759 
L 3109 2228 
L 1259 2228 
L 1259 0 
L 628 0 
L 628 4666 
z
" transform="scale(0.015625)"/>
        <path id="DejaVuSans-6f" d="M 1959 3097 
Q 1497 3097 1228 2736 
Q 959 2375 959 1747 
Q 959 1119 1226 758 
Q 1494 397 1959 397 
Q 2419 397 2687 759 
Q 2956 1122 2956 1747 
Q 2956 2369 2687 2733 
Q 2419 3097 1959 3097 
z
M 1959 3584 
Q 2709 3584 3137 3096 
Q 3566 2609 3566 1747 
Q 3566 888 3137 398 
Q 2709 -91 1959 -91 
Q 1206 -91 779 398 
Q 353 888 353 1747 
Q 353 2609 779 3096 
Q 1206 3584 1959 3584 
z
" transform="scale(0.015625)"/>
        <path id="DejaVuSans-64" d="M 2906 2969 
L 2906 4863 
L 3481 4863 
L 3481 0 
L 2906 0 
L 2906 525 
Q 2725 213 2448 61 
Q 2172 -91 1784 -91 
Q 1150 -91 751 415 
Q 353 922 353 1747 
Q 353 2572 751 3078 
Q 1150 3584 1784 3584 
Q 2172 3584 2448 3432 
Q 2725 3281 2906 2969 
z
M 947 1747 
Q 947 1113 1208 752 
Q 1469 391 1925 391 
Q 2381 391 2643 752 
Q 2906 1113 2906 1747 
Q 2906 2381 2643 2742 
Q 2381 3103 1925 3103 
Q 1469 3103 1208 2742 
Q 947 2381 947 1747 
z
" transform="scale(0.015625)"/>
       </defs>
       <use xlink:href="#DejaVuSans-42"/>
       <use xlink:href="#DejaVuSans-65" x="68.603516"/>
       <use xlink:href="#DejaVuSans-6c" x="130.126953"/>
       <use xlink:href="#DejaVuSans-6c" x="157.910156"/>
       <use xlink:href="#DejaVuSans-6d" x="185.693359"/>
       <use xlink:href="#DejaVuSans-61" x="283.105469"/>
       <use xlink:href="#DejaVuSans-6e" x="344.384766"/>
       <use xlink:href="#DejaVuSans-20" x="407.763672"/>
       <use xlink:href="#DejaVuSans-46" x="439.550781"/>
       <use xlink:href="#DejaVuSans-6f" x="493.445312"/>
       <use xlink:href="#DejaVuSans-72" x="554.626953"/>
       <use xlink:href="#DejaVuSans-64" x="593.990234"/>
      </g>
     </g>
    </g>
    <g id="xtick_3">
     <g id="line2d_3">
      <g>
       <use xlink:href="#m3f64a4e9af" x="110.734386" y="98.139617" style="stroke: #000000; stroke-width: 0.8"/>
      </g>
     </g>
     <g id="text_3">
      <!-- Dijkstra -->
      <g transform="translate(87.158635 125.770219) rotate(-30) scale(0.08 -0.08)">
       <defs>
        <path id="DejaVuSans-44" d="M 1259 4147 
L 1259 519 
L 2022 519 
Q 2988 519 3436 956 
Q 3884 1394 3884 2338 
Q 3884 3275 3436 3711 
Q 2988 4147 2022 4147 
L 1259 4147 
z
M 628 4666 
L 1925 4666 
Q 3281 4666 3915 4102 
Q 4550 3538 4550 2338 
Q 4550 1131 3912 565 
Q 3275 0 1925 0 
L 628 0 
L 628 4666 
z
" transform="scale(0.015625)"/>
        <path id="DejaVuSans-69" d="M 603 3500 
L 1178 3500 
L 1178 0 
L 603 0 
L 603 3500 
z
M 603 4863 
L 1178 4863 
L 1178 4134 
L 603 4134 
L 603 4863 
z
" transform="scale(0.015625)"/>
        <path id="DejaVuSans-6a" d="M 603 3500 
L 1178 3500 
L 1178 -63 
Q 1178 -731 923 -1031 
Q 669 -1331 103 -1331 
L -116 -1331 
L -116 -844 
L 38 -844 
Q 366 -844 484 -692 
Q 603 -541 603 -63 
L 603 3500 
z
M 603 4863 
L 1178 4863 
L 1178 4134 
L 603 4134 
L 603 4863 
z
" transform="scale(0.015625)"/>
        <path id="DejaVuSans-73" d="M 2834 3397 
L 2834 2853 
Q 2591 2978 2328 3040 
Q 2066 3103 1784 3103 
Q 1356 3103 1142 2972 
Q 928 2841 928 2578 
Q 928 2378 1081 2264 
Q 1234 2150 1697 2047 
L 1894 2003 
Q 2506 1872 2764 1633 
Q 3022 1394 3022 966 
Q 3022 478 2636 193 
Q 2250 -91 1575 -91 
Q 1294 -91 989 -36 
Q 684 19 347 128 
L 347 722 
Q 666 556 975 473 
Q 1284 391 1588 391 
Q 1994 391 2212 530 
Q 2431 669 2431 922 
Q 2431 1156 2273 1281 
Q 2116 1406 1581 1522 
L 1381 1569 
Q 847 1681 609 1914 
Q 372 2147 372 2553 
Q 372 3047 722 3315 
Q 1072 3584 1716 3584 
Q 2034 3584 2315 3537 
Q 2597 3491 2834 3397 
z
" transform="scale(0.015625)"/>
        <path id="DejaVuSans-74" d="M 1172 4494 
L 1172 3500 
L 2356 3500 
L 2356 3053 
L 1172 3053 
L 1172 1153 
Q 1172 725 1289 603 
Q 1406 481 1766 481 
L 2356 481 
L 2356 0 
L 1766 0 
Q 1100 0 847 248 
Q 594 497 594 1153 
L 594 3053 
L 172 3053 
L 172 3500 
L 594 3500 
L 594 4494 
L 1172 4494 
z
" transform="scale(0.015625)"/>
       </defs>
       <use xlink:href="#DejaVuSans-44"/>
       <use xlink:href="#DejaVuSans-69" x="77.001953"/>
       <use xlink:href="#DejaVuSans-6a" x="104.785156"/>
       <use xlink:href="#DejaVuSans-6b" x="132.568359"/>
       <use xlink:href="#DejaVuSans-73" x="190.478516"/>
       <use xlink:href="#DejaVuSans-74" x="242.578125"/>
       <use xlink:href="#DejaVuSans-72" x="281.787109"/>
       <use xlink:href="#DejaVuSans-61" x="322.900391"/>
      </g>
     </g>
    </g>
    <g id="xtick_4">
     <g id="line2d_4">
      <g>
       <use xlink:href="#m3f64a4e9af" x="135.654453" y="98.139617" style="stroke: #000000; stroke-width: 0.8"/>
      </g>
     </g>
     <g id="text_4">
      <!-- Euler -->
      <g transform="translate(120.889429 120.683344) rotate(-30) scale(0.08 -0.08)">
       <defs>
        <path id="DejaVuSans-45" d="M 628 4666 
L 3578 4666 
L 3578 4134 
L 1259 4134 
L 1259 2753 
L 3481 2753 
L 3481 2222 
L 1259 2222 
L 1259 531 
L 3634 531 
L 3634 0 
L 628 0 
L 628 4666 
z
" transform="scale(0.015625)"/>
        <path id="DejaVuSans-75" d="M 544 1381 
L 544 3500 
L 1119 3500 
L 1119 1403 
Q 1119 906 1312 657 
Q 1506 409 1894 409 
Q 2359 409 2629 706 
Q 2900 1003 2900 1516 
L 2900 3500 
L 3475 3500 
L 3475 0 
L 2900 0 
L 2900 538 
Q 2691 219 2414 64 
Q 2138 -91 1772 -91 
Q 1169 -91 856 284 
Q 544 659 544 1381 
z
M 1991 3584 
L 1991 3584 
z
" transform="scale(0.015625)"/>
       </defs>
       <use xlink:href="#DejaVuSans-45"/>
       <use xlink:href="#DejaVuSans-75" x="63.183594"/>
       <use xlink:href="#DejaVuSans-6c" x="126.5625"/>
       <use xlink:href="#DejaVuSans-65" x="154.345703"/>
       <use xlink:href="#DejaVuSans-72" x="215.869141"/>
      </g>
     </g>
    </g>
    <g id="xtick_5">
     <g id="line2d_5">
      <g>
       <use xlink:href="#m3f64a4e9af" x="160.574521" y="98.139617" style="stroke: #000000; stroke-width: 0.8"/>
      </g>
     </g>
     <g id="text_5">
      <!-- Midpoint Explicit -->
      <g transform="translate(106.265693 143.513969) rotate(-30) scale(0.08 -0.08)">
       <defs>
        <path id="DejaVuSans-4d" d="M 628 4666 
L 1569 4666 
L 2759 1491 
L 3956 4666 
L 4897 4666 
L 4897 0 
L 4281 0 
L 4281 4097 
L 3078 897 
L 2444 897 
L 1241 4097 
L 1241 0 
L 628 0 
L 628 4666 
z
" transform="scale(0.015625)"/>
        <path id="DejaVuSans-70" d="M 1159 525 
L 1159 -1331 
L 581 -1331 
L 581 3500 
L 1159 3500 
L 1159 2969 
Q 1341 3281 1617 3432 
Q 1894 3584 2278 3584 
Q 2916 3584 3314 3078 
Q 3713 2572 3713 1747 
Q 3713 922 3314 415 
Q 2916 -91 2278 -91 
Q 1894 -91 1617 61 
Q 1341 213 1159 525 
z
M 3116 1747 
Q 3116 2381 2855 2742 
Q 2594 3103 2138 3103 
Q 1681 3103 1420 2742 
Q 1159 2381 1159 1747 
Q 1159 1113 1420 752 
Q 1681 391 2138 391 
Q 2594 391 2855 752 
Q 3116 1113 3116 1747 
z
" transform="scale(0.015625)"/>
        <path id="DejaVuSans-78" d="M 3513 3500 
L 2247 1797 
L 3578 0 
L 2900 0 
L 1881 1375 
L 863 0 
L 184 0 
L 1544 1831 
L 300 3500 
L 978 3500 
L 1906 2253 
L 2834 3500 
L 3513 3500 
z
" transform="scale(0.015625)"/>
       </defs>
       <use xlink:href="#DejaVuSans-4d"/>
       <use xlink:href="#DejaVuSans-69" x="86.279297"/>
       <use xlink:href="#DejaVuSans-64" x="114.0625"/>
       <use xlink:href="#DejaVuSans-70" x="177.539062"/>
       <use xlink:href="#DejaVuSans-6f" x="241.015625"/>
       <use xlink:href="#DejaVuSans-69" x="302.197266"/>
       <use xlink:href="#DejaVuSans-6e" x="329.980469"/>
       <use xlink:href="#DejaVuSans-74" x="393.359375"/>
       <use xlink:href="#DejaVuSans-20" x="432.568359"/>
       <use xlink:href="#DejaVuSans-45" x="464.355469"/>
       <use xlink:href="#DejaVuSans-78" x="527.539062"/>
       <use xlink:href="#DejaVuSans-70" x="586.71875"/>
       <use xlink:href="#DejaVuSans-6c" x="650.195312"/>
       <use xlink:href="#DejaVuSans-69" x="677.978516"/>
       <use xlink:href="#DejaVuSans-63" x="705.761719"/>
       <use xlink:href="#DejaVuSans-69" x="760.742188"/>
       <use xlink:href="#DejaVuSans-74" x="788.525391"/>
      </g>
     </g>
    </g>
    <g id="xtick_6">
     <g id="line2d_6">
      <g>
       <use xlink:href="#m3f64a4e9af" x="185.494588" y="98.139617" style="stroke: #000000; stroke-width: 0.8"/>
      </g>
     </g>
     <g id="text_6">
      <!-- Midpoint Fixed -->
      <g transform="translate(138.409495 139.343344) rotate(-30) scale(0.08 -0.08)">
       <use xlink:href="#DejaVuSans-4d"/>
       <use xlink:href="#DejaVuSans-69" x="86.279297"/>
       <use xlink:href="#DejaVuSans-64" x="114.0625"/>
       <use xlink:href="#DejaVuSans-70" x="177.539062"/>
       <use xlink:href="#DejaVuSans-6f" x="241.015625"/>
       <use xlink:href="#DejaVuSans-69" x="302.197266"/>
       <use xlink:href="#DejaVuSans-6e" x="329.980469"/>
       <use xlink:href="#DejaVuSans-74" x="393.359375"/>
       <use xlink:href="#DejaVuSans-20" x="432.568359"/>
       <use xlink:href="#DejaVuSans-46" x="464.355469"/>
       <use xlink:href="#DejaVuSans-69" x="514.625"/>
       <use xlink:href="#DejaVuSans-78" x="542.408203"/>
       <use xlink:href="#DejaVuSans-65" x="598.462891"/>
       <use xlink:href="#DejaVuSans-64" x="659.986328"/>
      </g>
     </g>
    </g>
    <g id="xtick_7">
     <g id="line2d_7">
      <g>
       <use xlink:href="#m3f64a4e9af" x="210.414655" y="98.139617" style="stroke: #000000; stroke-width: 0.8"/>
      </g>
     </g>
     <g id="text_7">
      <!-- RK4 -->
      <g transform="translate(199.688556 118.351469) rotate(-30) scale(0.08 -0.08)">
       <defs>
        <path id="DejaVuSans-52" d="M 2841 2188 
Q 3044 2119 3236 1894 
Q 3428 1669 3622 1275 
L 4263 0 
L 3584 0 
L 2988 1197 
Q 2756 1666 2539 1819 
Q 2322 1972 1947 1972 
L 1259 1972 
L 1259 0 
L 628 0 
L 628 4666 
L 2053 4666 
Q 2853 4666 3247 4331 
Q 3641 3997 3641 3322 
Q 3641 2881 3436 2590 
Q 3231 2300 2841 2188 
z
M 1259 4147 
L 1259 2491 
L 2053 2491 
Q 2509 2491 2742 2702 
Q 2975 2913 2975 3322 
Q 2975 3731 2742 3939 
Q 2509 4147 2053 4147 
L 1259 4147 
z
" transform="scale(0.015625)"/>
        <path id="DejaVuSans-4b" d="M 628 4666 
L 1259 4666 
L 1259 2694 
L 3353 4666 
L 4166 4666 
L 1850 2491 
L 4331 0 
L 3500 0 
L 1259 2247 
L 1259 0 
L 628 0 
L 628 4666 
z
" transform="scale(0.015625)"/>
        <path id="DejaVuSans-34" d="M 2419 4116 
L 825 1625 
L 2419 1625 
L 2419 4116 
z
M 2253 4666 
L 3047 4666 
L 3047 1625 
L 3713 1625 
L 3713 1100 
L 3047 1100 
L 3047 0 
L 2419 0 
L 2419 1100 
L 313 1100 
L 313 1709 
L 2253 4666 
z
" transform="scale(0.015625)"/>
       </defs>
       <use xlink:href="#DejaVuSans-52"/>
       <use xlink:href="#DejaVuSans-4b" x="69.482422"/>
       <use xlink:href="#DejaVuSans-34" x="135.058594"/>
      </g>
     </g>
    </g>
    <g id="xtick_8">
     <g id="line2d_8">
      <g>
       <use xlink:href="#m3f64a4e9af" x="235.334723" y="98.139617" style="stroke: #000000; stroke-width: 0.8"/>
      </g>
     </g>
     <g id="text_8">
      <!-- FD - L Convection -->
      <g transform="translate(177.177495 145.735844) rotate(-30) scale(0.08 -0.08)">
       <defs>
        <path id="DejaVuSans-2d" d="M 313 2009 
L 1997 2009 
L 1997 1497 
L 313 1497 
L 313 2009 
z
" transform="scale(0.015625)"/>
        <path id="DejaVuSans-4c" d="M 628 4666 
L 1259 4666 
L 1259 531 
L 3531 531 
L 3531 0 
L 628 0 
L 628 4666 
z
" transform="scale(0.015625)"/>
        <path id="DejaVuSans-43" d="M 4122 4306 
L 4122 3641 
Q 3803 3938 3442 4084 
Q 3081 4231 2675 4231 
Q 1875 4231 1450 3742 
Q 1025 3253 1025 2328 
Q 1025 1406 1450 917 
Q 1875 428 2675 428 
Q 3081 428 3442 575 
Q 3803 722 4122 1019 
L 4122 359 
Q 3791 134 3420 21 
Q 3050 -91 2638 -91 
Q 1578 -91 968 557 
Q 359 1206 359 2328 
Q 359 3453 968 4101 
Q 1578 4750 2638 4750 
Q 3056 4750 3426 4639 
Q 3797 4528 4122 4306 
z
" transform="scale(0.015625)"/>
        <path id="DejaVuSans-76" d="M 191 3500 
L 800 3500 
L 1894 563 
L 2988 3500 
L 3597 3500 
L 2284 0 
L 1503 0 
L 191 3500 
z
" transform="scale(0.015625)"/>
       </defs>
       <use xlink:href="#DejaVuSans-46"/>
       <use xlink:href="#DejaVuSans-44" x="57.519531"/>
       <use xlink:href="#DejaVuSans-20" x="134.521484"/>
       <use xlink:href="#DejaVuSans-2d" x="166.308594"/>
       <use xlink:href="#DejaVuSans-20" x="202.392578"/>
       <use xlink:href="#DejaVuSans-4c" x="234.179688"/>
       <use xlink:href="#DejaVuSans-20" x="289.892578"/>
       <use xlink:href="#DejaVuSans-43" x="321.679688"/>
       <use xlink:href="#DejaVuSans-6f" x="391.503906"/>
       <use xlink:href="#DejaVuSans-6e" x="452.685547"/>
       <use xlink:href="#DejaVuSans-76" x="516.064453"/>
       <use xlink:href="#DejaVuSans-65" x="575.244141"/>
       <use xlink:href="#DejaVuSans-63" x="636.767578"/>
       <use xlink:href="#DejaVuSans-74" x="691.748047"/>
       <use xlink:href="#DejaVuSans-69" x="730.957031"/>
       <use xlink:href="#DejaVuSans-6f" x="758.740234"/>
       <use xlink:href="#DejaVuSans-6e" x="819.921875"/>
      </g>
     </g>
    </g>
    <g id="xtick_9">
     <g id="line2d_9">
      <g>
       <use xlink:href="#m3f64a4e9af" x="260.25479" y="98.139617" style="stroke: #000000; stroke-width: 0.8"/>
      </g>
     </g>
     <g id="text_9">
      <!-- FD - NL Convection -->
      <g transform="translate(196.9144 148.728344) rotate(-30) scale(0.08 -0.08)">
       <defs>
        <path id="DejaVuSans-4e" d="M 628 4666 
L 1478 4666 
L 3547 763 
L 3547 4666 
L 4159 4666 
L 4159 0 
L 3309 0 
L 1241 3903 
L 1241 0 
L 628 0 
L 628 4666 
z
" transform="scale(0.015625)"/>
       </defs>
       <use xlink:href="#DejaVuSans-46"/>
       <use xlink:href="#DejaVuSans-44" x="57.519531"/>
       <use xlink:href="#DejaVuSans-20" x="134.521484"/>
       <use xlink:href="#DejaVuSans-2d" x="166.308594"/>
       <use xlink:href="#DejaVuSans-20" x="202.392578"/>
       <use xlink:href="#DejaVuSans-4e" x="234.179688"/>
       <use xlink:href="#DejaVuSans-4c" x="308.984375"/>
       <use xlink:href="#DejaVuSans-20" x="364.697266"/>
       <use xlink:href="#DejaVuSans-43" x="396.484375"/>
       <use xlink:href="#DejaVuSans-6f" x="466.308594"/>
       <use xlink:href="#DejaVuSans-6e" x="527.490234"/>
       <use xlink:href="#DejaVuSans-76" x="590.869141"/>
       <use xlink:href="#DejaVuSans-65" x="650.048828"/>
       <use xlink:href="#DejaVuSans-63" x="711.572266"/>
       <use xlink:href="#DejaVuSans-74" x="766.552734"/>
       <use xlink:href="#DejaVuSans-69" x="805.761719"/>
       <use xlink:href="#DejaVuSans-6f" x="833.544922"/>
       <use xlink:href="#DejaVuSans-6e" x="894.726562"/>
      </g>
     </g>
    </g>
    <g id="xtick_10">
     <g id="line2d_10">
      <g>
       <use xlink:href="#m3f64a4e9af" x="285.174857" y="98.139617" style="stroke: #000000; stroke-width: 0.8"/>
      </g>
     </g>
     <g id="text_10">
      <!-- FD - Poisson -->
      <g transform="translate(246.052868 134.745844) rotate(-30) scale(0.08 -0.08)">
       <defs>
        <path id="DejaVuSans-50" d="M 1259 4147 
L 1259 2394 
L 2053 2394 
Q 2494 2394 2734 2622 
Q 2975 2850 2975 3272 
Q 2975 3691 2734 3919 
Q 2494 4147 2053 4147 
L 1259 4147 
z
M 628 4666 
L 2053 4666 
Q 2838 4666 3239 4311 
Q 3641 3956 3641 3272 
Q 3641 2581 3239 2228 
Q 2838 1875 2053 1875 
L 1259 1875 
L 1259 0 
L 628 0 
L 628 4666 
z
" transform="scale(0.015625)"/>
       </defs>
       <use xlink:href="#DejaVuSans-46"/>
       <use xlink:href="#DejaVuSans-44" x="57.519531"/>
       <use xlink:href="#DejaVuSans-20" x="134.521484"/>
       <use xlink:href="#DejaVuSans-2d" x="166.308594"/>
       <use xlink:href="#DejaVuSans-20" x="202.392578"/>
       <use xlink:href="#DejaVuSans-50" x="234.179688"/>
       <use xlink:href="#DejaVuSans-6f" x="290.857422"/>
       <use xlink:href="#DejaVuSans-69" x="352.039062"/>
       <use xlink:href="#DejaVuSans-73" x="379.822266"/>
       <use xlink:href="#DejaVuSans-73" x="431.921875"/>
       <use xlink:href="#DejaVuSans-6f" x="484.021484"/>
       <use xlink:href="#DejaVuSans-6e" x="545.203125"/>
      </g>
     </g>
    </g>
    <g id="xtick_11">
     <g id="line2d_11">
      <g>
       <use xlink:href="#m3f64a4e9af" x="310.094924" y="98.139617" style="stroke: #000000; stroke-width: 0.8"/>
      </g>
     </g>
     <g id="text_11">
      <!-- FD - Laplace -->
      <g transform="translate(270.164284 135.212719) rotate(-30) scale(0.08 -0.08)">
       <use xlink:href="#DejaVuSans-46"/>
       <use xlink:href="#DejaVuSans-44" x="57.519531"/>
       <use xlink:href="#DejaVuSans-20" x="134.521484"/>
       <use xlink:href="#DejaVuSans-2d" x="166.308594"/>
       <use xlink:href="#DejaVuSans-20" x="202.392578"/>
       <use xlink:href="#DejaVuSans-4c" x="234.179688"/>
       <use xlink:href="#DejaVuSans-61" x="289.892578"/>
       <use xlink:href="#DejaVuSans-70" x="351.171875"/>
       <use xlink:href="#DejaVuSans-6c" x="414.648438"/>
       <use xlink:href="#DejaVuSans-61" x="442.431641"/>
       <use xlink:href="#DejaVuSans-63" x="503.710938"/>
       <use xlink:href="#DejaVuSans-65" x="558.691406"/>
      </g>
     </g>
    </g>
    <g id="xtick_12">
     <g id="line2d_12">
      <g>
       <use xlink:href="#m3f64a4e9af" x="335.014992" y="98.139617" style="stroke: #000000; stroke-width: 0.8"/>
      </g>
     </g>
     <g id="text_12">
      <!-- M-D -->
      <g transform="translate(324.242344 118.378344) rotate(-30) scale(0.08 -0.08)">
       <use xlink:href="#DejaVuSans-4d"/>
       <use xlink:href="#DejaVuSans-2d" x="86.279297"/>
       <use xlink:href="#DejaVuSans-44" x="122.363281"/>
      </g>
     </g>
    </g>
   </g>
   <g id="matplotlib.axis_2">
    <g id="ytick_1">
     <g id="line2d_13">
      <path d="M 41.698012 98.139617 
L 361.22 98.139617 
" clip-path="url(#pf26f79e230)" style="fill: none; stroke: #b0b0b0; stroke-opacity: 0.5; stroke-width: 0.5; stroke-linecap: square"/>
     </g>
     <g id="line2d_14">
      <defs>
       <path id="m6eb879feb1" d="M 0 0 
L -3.5 0 
" style="stroke: #000000; stroke-width: 0.8"/>
      </defs>
      <g>
       <use xlink:href="#m6eb879feb1" x="41.698012" y="98.139617" style="stroke: #000000; stroke-width: 0.8"/>
      </g>
     </g>
     <g id="text_13">
      <!-- $\mathdefault{10^{0}}$ -->
      <g transform="translate(20.618012 101.178992) scale(0.08 -0.08)">
       <defs>
        <path id="DejaVuSans-31" d="M 794 531 
L 1825 531 
L 1825 4091 
L 703 3866 
L 703 4441 
L 1819 4666 
L 2450 4666 
L 2450 531 
L 3481 531 
L 3481 0 
L 794 0 
L 794 531 
z
" transform="scale(0.015625)"/>
        <path id="DejaVuSans-30" d="M 2034 4250 
Q 1547 4250 1301 3770 
Q 1056 3291 1056 2328 
Q 1056 1369 1301 889 
Q 1547 409 2034 409 
Q 2525 409 2770 889 
Q 3016 1369 3016 2328 
Q 3016 3291 2770 3770 
Q 2525 4250 2034 4250 
z
M 2034 4750 
Q 2819 4750 3233 4129 
Q 3647 3509 3647 2328 
Q 3647 1150 3233 529 
Q 2819 -91 2034 -91 
Q 1250 -91 836 529 
Q 422 1150 422 2328 
Q 422 3509 836 4129 
Q 1250 4750 2034 4750 
z
" transform="scale(0.015625)"/>
       </defs>
       <use xlink:href="#DejaVuSans-31" transform="translate(0 0.765625)"/>
       <use xlink:href="#DejaVuSans-30" transform="translate(63.623047 0.765625)"/>
       <use xlink:href="#DejaVuSans-30" transform="translate(128.203125 39.046875) scale(0.7)"/>
      </g>
     </g>
    </g>
    <g id="ytick_2">
     <g id="line2d_15">
      <path d="M 41.698012 72.822261 
L 361.22 72.822261 
" clip-path="url(#pf26f79e230)" style="fill: none; stroke: #b0b0b0; stroke-opacity: 0.5; stroke-width: 0.5; stroke-linecap: square"/>
     </g>
     <g id="line2d_16">
      <g>
       <use xlink:href="#m6eb879feb1" x="41.698012" y="72.822261" style="stroke: #000000; stroke-width: 0.8"/>
      </g>
     </g>
     <g id="text_14">
      <!-- $\mathdefault{10^{1}}$ -->
      <g transform="translate(20.618012 75.861636) scale(0.08 -0.08)">
       <use xlink:href="#DejaVuSans-31" transform="translate(0 0.684375)"/>
       <use xlink:href="#DejaVuSans-30" transform="translate(63.623047 0.684375)"/>
       <use xlink:href="#DejaVuSans-31" transform="translate(128.203125 38.965625) scale(0.7)"/>
      </g>
     </g>
    </g>
    <g id="ytick_3">
     <g id="line2d_17">
      <path d="M 41.698012 47.504906 
L 361.22 47.504906 
" clip-path="url(#pf26f79e230)" style="fill: none; stroke: #b0b0b0; stroke-opacity: 0.5; stroke-width: 0.5; stroke-linecap: square"/>
     </g>
     <g id="line2d_18">
      <g>
       <use xlink:href="#m6eb879feb1" x="41.698012" y="47.504906" style="stroke: #000000; stroke-width: 0.8"/>
      </g>
     </g>
     <g id="text_15">
      <!-- $\mathdefault{10^{2}}$ -->
      <g transform="translate(20.618012 50.544281) scale(0.08 -0.08)">
       <defs>
        <path id="DejaVuSans-32" d="M 1228 531 
L 3431 531 
L 3431 0 
L 469 0 
L 469 531 
Q 828 903 1448 1529 
Q 2069 2156 2228 2338 
Q 2531 2678 2651 2914 
Q 2772 3150 2772 3378 
Q 2772 3750 2511 3984 
Q 2250 4219 1831 4219 
Q 1534 4219 1204 4116 
Q 875 4013 500 3803 
L 500 4441 
Q 881 4594 1212 4672 
Q 1544 4750 1819 4750 
Q 2544 4750 2975 4387 
Q 3406 4025 3406 3419 
Q 3406 3131 3298 2873 
Q 3191 2616 2906 2266 
Q 2828 2175 2409 1742 
Q 1991 1309 1228 531 
z
" transform="scale(0.015625)"/>
       </defs>
       <use xlink:href="#DejaVuSans-31" transform="translate(0 0.765625)"/>
       <use xlink:href="#DejaVuSans-30" transform="translate(63.623047 0.765625)"/>
       <use xlink:href="#DejaVuSans-32" transform="translate(128.203125 39.046875) scale(0.7)"/>
      </g>
     </g>
    </g>
    <g id="ytick_4">
     <g id="line2d_19">
      <path d="M 41.698012 22.18755 
L 361.22 22.18755 
" clip-path="url(#pf26f79e230)" style="fill: none; stroke: #b0b0b0; stroke-opacity: 0.5; stroke-width: 0.5; stroke-linecap: square"/>
     </g>
     <g id="line2d_20">
      <g>
       <use xlink:href="#m6eb879feb1" x="41.698012" y="22.18755" style="stroke: #000000; stroke-width: 0.8"/>
      </g>
     </g>
     <g id="text_16">
      <!-- $\mathdefault{10^{3}}$ -->
      <g transform="translate(20.618012 25.226925) scale(0.08 -0.08)">
       <defs>
        <path id="DejaVuSans-33" d="M 2597 2516 
Q 3050 2419 3304 2112 
Q 3559 1806 3559 1356 
Q 3559 666 3084 287 
Q 2609 -91 1734 -91 
Q 1441 -91 1130 -33 
Q 819 25 488 141 
L 488 750 
Q 750 597 1062 519 
Q 1375 441 1716 441 
Q 2309 441 2620 675 
Q 2931 909 2931 1356 
Q 2931 1769 2642 2001 
Q 2353 2234 1838 2234 
L 1294 2234 
L 1294 2753 
L 1863 2753 
Q 2328 2753 2575 2939 
Q 2822 3125 2822 3475 
Q 2822 3834 2567 4026 
Q 2313 4219 1838 4219 
Q 1578 4219 1281 4162 
Q 984 4106 628 3988 
L 628 4550 
Q 988 4650 1302 4700 
Q 1616 4750 1894 4750 
Q 2613 4750 3031 4423 
Q 3450 4097 3450 3541 
Q 3450 3153 3228 2886 
Q 3006 2619 2597 2516 
z
" transform="scale(0.015625)"/>
       </defs>
       <use xlink:href="#DejaVuSans-31" transform="translate(0 0.765625)"/>
       <use xlink:href="#DejaVuSans-30" transform="translate(63.623047 0.765625)"/>
       <use xlink:href="#DejaVuSans-33" transform="translate(128.203125 39.046875) scale(0.7)"/>
      </g>
     </g>
    </g>
    <g id="ytick_5">
     <g id="line2d_21">
      <path d="M 41.698012 90.518334 
L 361.22 90.518334 
" clip-path="url(#pf26f79e230)" style="fill: none; stroke: #b0b0b0; stroke-opacity: 0.5; stroke-width: 0.25; stroke-linecap: square"/>
     </g>
     <g id="line2d_22">
      <defs>
       <path id="m7e2c32437c" d="M 0 0 
L -2 0 
" style="stroke: #000000; stroke-width: 0.6"/>
      </defs>
      <g>
       <use xlink:href="#m7e2c32437c" x="41.698012" y="90.518334" style="stroke: #000000; stroke-width: 0.6"/>
      </g>
     </g>
    </g>
    <g id="ytick_6">
     <g id="line2d_23">
      <path d="M 41.698012 86.060169 
L 361.22 86.060169 
" clip-path="url(#pf26f79e230)" style="fill: none; stroke: #b0b0b0; stroke-opacity: 0.5; stroke-width: 0.25; stroke-linecap: square"/>
     </g>
     <g id="line2d_24">
      <g>
       <use xlink:href="#m7e2c32437c" x="41.698012" y="86.060169" style="stroke: #000000; stroke-width: 0.6"/>
      </g>
     </g>
    </g>
    <g id="ytick_7">
     <g id="line2d_25">
      <path d="M 41.698012 82.89705 
L 361.22 82.89705 
" clip-path="url(#pf26f79e230)" style="fill: none; stroke: #b0b0b0; stroke-opacity: 0.5; stroke-width: 0.25; stroke-linecap: square"/>
     </g>
     <g id="line2d_26">
      <g>
       <use xlink:href="#m7e2c32437c" x="41.698012" y="82.89705" style="stroke: #000000; stroke-width: 0.6"/>
      </g>
     </g>
    </g>
    <g id="ytick_8">
     <g id="line2d_27">
      <path d="M 41.698012 80.443545 
L 361.22 80.443545 
" clip-path="url(#pf26f79e230)" style="fill: none; stroke: #b0b0b0; stroke-opacity: 0.5; stroke-width: 0.25; stroke-linecap: square"/>
     </g>
     <g id="line2d_28">
      <g>
       <use xlink:href="#m7e2c32437c" x="41.698012" y="80.443545" style="stroke: #000000; stroke-width: 0.6"/>
      </g>
     </g>
    </g>
    <g id="ytick_9">
     <g id="line2d_29">
      <path d="M 41.698012 78.438885 
L 361.22 78.438885 
" clip-path="url(#pf26f79e230)" style="fill: none; stroke: #b0b0b0; stroke-opacity: 0.5; stroke-width: 0.25; stroke-linecap: square"/>
     </g>
     <g id="line2d_30">
      <g>
       <use xlink:href="#m7e2c32437c" x="41.698012" y="78.438885" style="stroke: #000000; stroke-width: 0.6"/>
      </g>
     </g>
    </g>
    <g id="ytick_10">
     <g id="line2d_31">
      <path d="M 41.698012 76.743969 
L 361.22 76.743969 
" clip-path="url(#pf26f79e230)" style="fill: none; stroke: #b0b0b0; stroke-opacity: 0.5; stroke-width: 0.25; stroke-linecap: square"/>
     </g>
     <g id="line2d_32">
      <g>
       <use xlink:href="#m7e2c32437c" x="41.698012" y="76.743969" style="stroke: #000000; stroke-width: 0.6"/>
      </g>
     </g>
    </g>
    <g id="ytick_11">
     <g id="line2d_33">
      <path d="M 41.698012 75.275767 
L 361.22 75.275767 
" clip-path="url(#pf26f79e230)" style="fill: none; stroke: #b0b0b0; stroke-opacity: 0.5; stroke-width: 0.25; stroke-linecap: square"/>
     </g>
     <g id="line2d_34">
      <g>
       <use xlink:href="#m7e2c32437c" x="41.698012" y="75.275767" style="stroke: #000000; stroke-width: 0.6"/>
      </g>
     </g>
    </g>
    <g id="ytick_12">
     <g id="line2d_35">
      <path d="M 41.698012 73.98072 
L 361.22 73.98072 
" clip-path="url(#pf26f79e230)" style="fill: none; stroke: #b0b0b0; stroke-opacity: 0.5; stroke-width: 0.25; stroke-linecap: square"/>
     </g>
     <g id="line2d_36">
      <g>
       <use xlink:href="#m7e2c32437c" x="41.698012" y="73.98072" style="stroke: #000000; stroke-width: 0.6"/>
      </g>
     </g>
    </g>
    <g id="ytick_13">
     <g id="line2d_37">
      <path d="M 41.698012 65.200978 
L 361.22 65.200978 
" clip-path="url(#pf26f79e230)" style="fill: none; stroke: #b0b0b0; stroke-opacity: 0.5; stroke-width: 0.25; stroke-linecap: square"/>
     </g>
     <g id="line2d_38">
      <g>
       <use xlink:href="#m7e2c32437c" x="41.698012" y="65.200978" style="stroke: #000000; stroke-width: 0.6"/>
      </g>
     </g>
    </g>
    <g id="ytick_14">
     <g id="line2d_39">
      <path d="M 41.698012 60.742813 
L 361.22 60.742813 
" clip-path="url(#pf26f79e230)" style="fill: none; stroke: #b0b0b0; stroke-opacity: 0.5; stroke-width: 0.25; stroke-linecap: square"/>
     </g>
     <g id="line2d_40">
      <g>
       <use xlink:href="#m7e2c32437c" x="41.698012" y="60.742813" style="stroke: #000000; stroke-width: 0.6"/>
      </g>
     </g>
    </g>
    <g id="ytick_15">
     <g id="line2d_41">
      <path d="M 41.698012 57.579695 
L 361.22 57.579695 
" clip-path="url(#pf26f79e230)" style="fill: none; stroke: #b0b0b0; stroke-opacity: 0.5; stroke-width: 0.25; stroke-linecap: square"/>
     </g>
     <g id="line2d_42">
      <g>
       <use xlink:href="#m7e2c32437c" x="41.698012" y="57.579695" style="stroke: #000000; stroke-width: 0.6"/>
      </g>
     </g>
    </g>
    <g id="ytick_16">
     <g id="line2d_43">
      <path d="M 41.698012 55.126189 
L 361.22 55.126189 
" clip-path="url(#pf26f79e230)" style="fill: none; stroke: #b0b0b0; stroke-opacity: 0.5; stroke-width: 0.25; stroke-linecap: square"/>
     </g>
     <g id="line2d_44">
      <g>
       <use xlink:href="#m7e2c32437c" x="41.698012" y="55.126189" style="stroke: #000000; stroke-width: 0.6"/>
      </g>
     </g>
    </g>
    <g id="ytick_17">
     <g id="line2d_45">
      <path d="M 41.698012 53.12153 
L 361.22 53.12153 
" clip-path="url(#pf26f79e230)" style="fill: none; stroke: #b0b0b0; stroke-opacity: 0.5; stroke-width: 0.25; stroke-linecap: square"/>
     </g>
     <g id="line2d_46">
      <g>
       <use xlink:href="#m7e2c32437c" x="41.698012" y="53.12153" style="stroke: #000000; stroke-width: 0.6"/>
      </g>
     </g>
    </g>
    <g id="ytick_18">
     <g id="line2d_47">
      <path d="M 41.698012 51.426614 
L 361.22 51.426614 
" clip-path="url(#pf26f79e230)" style="fill: none; stroke: #b0b0b0; stroke-opacity: 0.5; stroke-width: 0.25; stroke-linecap: square"/>
     </g>
     <g id="line2d_48">
      <g>
       <use xlink:href="#m7e2c32437c" x="41.698012" y="51.426614" style="stroke: #000000; stroke-width: 0.6"/>
      </g>
     </g>
    </g>
    <g id="ytick_19">
     <g id="line2d_49">
      <path d="M 41.698012 49.958411 
L 361.22 49.958411 
" clip-path="url(#pf26f79e230)" style="fill: none; stroke: #b0b0b0; stroke-opacity: 0.5; stroke-width: 0.25; stroke-linecap: square"/>
     </g>
     <g id="line2d_50">
      <g>
       <use xlink:href="#m7e2c32437c" x="41.698012" y="49.958411" style="stroke: #000000; stroke-width: 0.6"/>
      </g>
     </g>
    </g>
    <g id="ytick_20">
     <g id="line2d_51">
      <path d="M 41.698012 48.663365 
L 361.22 48.663365 
" clip-path="url(#pf26f79e230)" style="fill: none; stroke: #b0b0b0; stroke-opacity: 0.5; stroke-width: 0.25; stroke-linecap: square"/>
     </g>
     <g id="line2d_52">
      <g>
       <use xlink:href="#m7e2c32437c" x="41.698012" y="48.663365" style="stroke: #000000; stroke-width: 0.6"/>
      </g>
     </g>
    </g>
    <g id="ytick_21">
     <g id="line2d_53">
      <path d="M 41.698012 39.883622 
L 361.22 39.883622 
" clip-path="url(#pf26f79e230)" style="fill: none; stroke: #b0b0b0; stroke-opacity: 0.5; stroke-width: 0.25; stroke-linecap: square"/>
     </g>
     <g id="line2d_54">
      <g>
       <use xlink:href="#m7e2c32437c" x="41.698012" y="39.883622" style="stroke: #000000; stroke-width: 0.6"/>
      </g>
     </g>
    </g>
    <g id="ytick_22">
     <g id="line2d_55">
      <path d="M 41.698012 35.425457 
L 361.22 35.425457 
" clip-path="url(#pf26f79e230)" style="fill: none; stroke: #b0b0b0; stroke-opacity: 0.5; stroke-width: 0.25; stroke-linecap: square"/>
     </g>
     <g id="line2d_56">
      <g>
       <use xlink:href="#m7e2c32437c" x="41.698012" y="35.425457" style="stroke: #000000; stroke-width: 0.6"/>
      </g>
     </g>
    </g>
    <g id="ytick_23">
     <g id="line2d_57">
      <path d="M 41.698012 32.262339 
L 361.22 32.262339 
" clip-path="url(#pf26f79e230)" style="fill: none; stroke: #b0b0b0; stroke-opacity: 0.5; stroke-width: 0.25; stroke-linecap: square"/>
     </g>
     <g id="line2d_58">
      <g>
       <use xlink:href="#m7e2c32437c" x="41.698012" y="32.262339" style="stroke: #000000; stroke-width: 0.6"/>
      </g>
     </g>
    </g>
    <g id="ytick_24">
     <g id="line2d_59">
      <path d="M 41.698012 29.808834 
L 361.22 29.808834 
" clip-path="url(#pf26f79e230)" style="fill: none; stroke: #b0b0b0; stroke-opacity: 0.5; stroke-width: 0.25; stroke-linecap: square"/>
     </g>
     <g id="line2d_60">
      <g>
       <use xlink:href="#m7e2c32437c" x="41.698012" y="29.808834" style="stroke: #000000; stroke-width: 0.6"/>
      </g>
     </g>
    </g>
    <g id="ytick_25">
     <g id="line2d_61">
      <path d="M 41.698012 27.804174 
L 361.22 27.804174 
" clip-path="url(#pf26f79e230)" style="fill: none; stroke: #b0b0b0; stroke-opacity: 0.5; stroke-width: 0.25; stroke-linecap: square"/>
     </g>
     <g id="line2d_62">
      <g>
       <use xlink:href="#m7e2c32437c" x="41.698012" y="27.804174" style="stroke: #000000; stroke-width: 0.6"/>
      </g>
     </g>
    </g>
    <g id="ytick_26">
     <g id="line2d_63">
      <path d="M 41.698012 26.109258 
L 361.22 26.109258 
" clip-path="url(#pf26f79e230)" style="fill: none; stroke: #b0b0b0; stroke-opacity: 0.5; stroke-width: 0.25; stroke-linecap: square"/>
     </g>
     <g id="line2d_64">
      <g>
       <use xlink:href="#m7e2c32437c" x="41.698012" y="26.109258" style="stroke: #000000; stroke-width: 0.6"/>
      </g>
     </g>
    </g>
    <g id="ytick_27">
     <g id="line2d_65">
      <path d="M 41.698012 24.641056 
L 361.22 24.641056 
" clip-path="url(#pf26f79e230)" style="fill: none; stroke: #b0b0b0; stroke-opacity: 0.5; stroke-width: 0.25; stroke-linecap: square"/>
     </g>
     <g id="line2d_66">
      <g>
       <use xlink:href="#m7e2c32437c" x="41.698012" y="24.641056" style="stroke: #000000; stroke-width: 0.6"/>
      </g>
     </g>
    </g>
    <g id="ytick_28">
     <g id="line2d_67">
      <path d="M 41.698012 23.346009 
L 361.22 23.346009 
" clip-path="url(#pf26f79e230)" style="fill: none; stroke: #b0b0b0; stroke-opacity: 0.5; stroke-width: 0.25; stroke-linecap: square"/>
     </g>
     <g id="line2d_68">
      <g>
       <use xlink:href="#m7e2c32437c" x="41.698012" y="23.346009" style="stroke: #000000; stroke-width: 0.6"/>
      </g>
     </g>
    </g>
    <g id="ytick_29">
     <g id="line2d_69">
      <path d="M 41.698012 14.566267 
L 361.22 14.566267 
" clip-path="url(#pf26f79e230)" style="fill: none; stroke: #b0b0b0; stroke-opacity: 0.5; stroke-width: 0.25; stroke-linecap: square"/>
     </g>
     <g id="line2d_70">
      <g>
       <use xlink:href="#m7e2c32437c" x="41.698012" y="14.566267" style="stroke: #000000; stroke-width: 0.6"/>
      </g>
     </g>
    </g>
    <g id="ytick_30">
     <g id="line2d_71">
      <path d="M 41.698012 10.108102 
L 361.22 10.108102 
" clip-path="url(#pf26f79e230)" style="fill: none; stroke: #b0b0b0; stroke-opacity: 0.5; stroke-width: 0.25; stroke-linecap: square"/>
     </g>
     <g id="line2d_72">
      <g>
       <use xlink:href="#m7e2c32437c" x="41.698012" y="10.108102" style="stroke: #000000; stroke-width: 0.6"/>
      </g>
     </g>
    </g>
    <g id="text_17">
     <!-- Speedup -->
     <g transform="translate(14.954262 71.004809) rotate(-90) scale(0.08 -0.08)">
      <defs>
       <path id="DejaVuSans-53" d="M 3425 4513 
L 3425 3897 
Q 3066 4069 2747 4153 
Q 2428 4238 2131 4238 
Q 1616 4238 1336 4038 
Q 1056 3838 1056 3469 
Q 1056 3159 1242 3001 
Q 1428 2844 1947 2747 
L 2328 2669 
Q 3034 2534 3370 2195 
Q 3706 1856 3706 1288 
Q 3706 609 3251 259 
Q 2797 -91 1919 -91 
Q 1588 -91 1214 -16 
Q 841 59 441 206 
L 441 856 
Q 825 641 1194 531 
Q 1563 422 1919 422 
Q 2459 422 2753 634 
Q 3047 847 3047 1241 
Q 3047 1584 2836 1778 
Q 2625 1972 2144 2069 
L 1759 2144 
Q 1053 2284 737 2584 
Q 422 2884 422 3419 
Q 422 4038 858 4394 
Q 1294 4750 2059 4750 
Q 2388 4750 2728 4690 
Q 3069 4631 3425 4513 
z
" transform="scale(0.015625)"/>
      </defs>
      <use xlink:href="#DejaVuSans-53"/>
      <use xlink:href="#DejaVuSans-70" x="63.476562"/>
      <use xlink:href="#DejaVuSans-65" x="126.953125"/>
      <use xlink:href="#DejaVuSans-65" x="188.476562"/>
      <use xlink:href="#DejaVuSans-64" x="250"/>
      <use xlink:href="#DejaVuSans-75" x="313.476562"/>
      <use xlink:href="#DejaVuSans-70" x="376.855469"/>
     </g>
    </g>
   </g>
   <g id="patch_3">
    <path d="M 56.221739 25415.495222 
L 58.557995 25415.495222 
L 58.557995 47.066501 
L 56.221739 47.066501 
z
" clip-path="url(#pf26f79e230)" style="fill: #ff7f0e"/>
   </g>
   <g id="patch_4">
    <path d="M 81.141806 25415.495222 
L 83.478062 25415.495222 
L 83.478062 31.486185 
L 81.141806 31.486185 
z
" clip-path="url(#pf26f79e230)" style="fill: #ff7f0e"/>
   </g>
   <g id="patch_5">
    <path d="M 106.061873 25415.495222 
L 108.39813 25415.495222 
L 108.39813 39.172528 
L 106.061873 39.172528 
z
" clip-path="url(#pf26f79e230)" style="fill: #ff7f0e"/>
   </g>
   <g id="patch_6">
    <path d="M 130.981941 25415.495222 
L 133.318197 25415.495222 
L 133.318197 44.456921 
L 130.981941 44.456921 
z
" clip-path="url(#pf26f79e230)" style="fill: #ff7f0e"/>
   </g>
   <g id="patch_7">
    <path d="M 155.902008 25415.495222 
L 158.238264 25415.495222 
L 158.238264 44.426258 
L 155.902008 44.426258 
z
" clip-path="url(#pf26f79e230)" style="fill: #ff7f0e"/>
   </g>
   <g id="patch_8">
    <path d="M 180.822075 25415.495222 
L 183.158332 25415.495222 
L 183.158332 42.606591 
L 180.822075 42.606591 
z
" clip-path="url(#pf26f79e230)" style="fill: #ff7f0e"/>
   </g>
   <g id="patch_9">
    <path d="M 205.742143 25415.495222 
L 208.078399 25415.495222 
L 208.078399 45.378014 
L 205.742143 45.378014 
z
" clip-path="url(#pf26f79e230)" style="fill: #ff7f0e"/>
   </g>
   <g id="patch_10">
    <path d="M 230.66221 25415.495222 
L 232.998466 25415.495222 
L 232.998466 18.564865 
L 230.66221 18.564865 
z
" clip-path="url(#pf26f79e230)" style="fill: #ff7f0e"/>
   </g>
   <g id="patch_11">
    <path d="M 255.582277 25415.495222 
L 257.918534 25415.495222 
L 257.918534 18.495715 
L 255.582277 18.495715 
z
" clip-path="url(#pf26f79e230)" style="fill: #ff7f0e"/>
   </g>
   <g id="patch_12">
    <path d="M 280.502345 25415.495222 
L 282.838601 25415.495222 
L 282.838601 14.031549 
L 280.502345 14.031549 
z
" clip-path="url(#pf26f79e230)" style="fill: #ff7f0e"/>
   </g>
   <g id="patch_13">
    <path d="M 305.422412 25415.495222 
L 307.758668 25415.495222 
L 307.758668 73.605421 
L 305.422412 73.605421 
z
" clip-path="url(#pf26f79e230)" style="fill: #ff7f0e"/>
   </g>
   <g id="patch_14">
    <path d="M 330.342479 25415.495222 
L 332.678735 25415.495222 
L 332.678735 22.334155 
L 330.342479 22.334155 
z
" clip-path="url(#pf26f79e230)" style="fill: #ff7f0e"/>
   </g>
   <g id="patch_15">
    <path d="M 58.557995 25415.495222 
L 60.894251 25415.495222 
L 60.894251 48.851564 
L 58.557995 48.851564 
z
" clip-path="url(#pf26f79e230)" style="fill: #2ca02c"/>
   </g>
   <g id="patch_16">
    <path d="M 83.478062 25415.495222 
L 85.814319 25415.495222 
L 85.814319 28.71163 
L 83.478062 28.71163 
z
" clip-path="url(#pf26f79e230)" style="fill: #2ca02c"/>
   </g>
   <g id="patch_17">
    <path d="M 108.39813 25415.495222 
L 110.734386 25415.495222 
L 110.734386 36.07242 
L 108.39813 36.07242 
z
" clip-path="url(#pf26f79e230)" style="fill: #2ca02c"/>
   </g>
   <g id="patch_18">
    <path d="M 133.318197 25415.495222 
L 135.654453 25415.495222 
L 135.654453 44.341787 
L 133.318197 44.341787 
z
" clip-path="url(#pf26f79e230)" style="fill: #2ca02c"/>
   </g>
   <g id="patch_19">
    <path d="M 158.238264 25415.495222 
L 160.574521 25415.495222 
L 160.574521 44.026389 
L 158.238264 44.026389 
z
" clip-path="url(#pf26f79e230)" style="fill: #2ca02c"/>
   </g>
   <g id="patch_20">
    <path d="M 183.158332 25415.495222 
L 185.494588 25415.495222 
L 185.494588 27.355328 
L 183.158332 27.355328 
z
" clip-path="url(#pf26f79e230)" style="fill: #2ca02c"/>
   </g>
   <g id="patch_21">
    <path d="M 208.078399 25415.495222 
L 210.414655 25415.495222 
L 210.414655 29.183616 
L 208.078399 29.183616 
z
" clip-path="url(#pf26f79e230)" style="fill: #2ca02c"/>
   </g>
   <g id="patch_22">
    <path d="M 232.998466 25415.495222 
L 235.334723 25415.495222 
L 235.334723 18.085248 
L 232.998466 18.085248 
z
" clip-path="url(#pf26f79e230)" style="fill: #2ca02c"/>
   </g>
   <g id="patch_23">
    <path d="M 257.918534 25415.495222 
L 260.25479 25415.495222 
L 260.25479 17.173553 
L 257.918534 17.173553 
z
" clip-path="url(#pf26f79e230)" style="fill: #2ca02c"/>
   </g>
   <g id="patch_24">
    <path d="M 282.838601 25415.495222 
L 285.174857 25415.495222 
L 285.174857 12.672391 
L 282.838601 12.672391 
z
" clip-path="url(#pf26f79e230)" style="fill: #2ca02c"/>
   </g>
   <g id="patch_25">
    <path d="M 307.758668 25415.495222 
L 310.094924 25415.495222 
L 310.094924 83.043655 
L 307.758668 83.043655 
z
" clip-path="url(#pf26f79e230)" style="fill: #2ca02c"/>
   </g>
   <g id="patch_26">
    <path d="M 332.678735 25415.495222 
L 335.014992 25415.495222 
L 335.014992 35.866626 
L 332.678735 35.866626 
z
" clip-path="url(#pf26f79e230)" style="fill: #2ca02c"/>
   </g>
   <g id="patch_27">
    <path d="M 60.894251 25415.495222 
L 63.230508 25415.495222 
L 63.230508 60.028901 
L 60.894251 60.028901 
z
" clip-path="url(#pf26f79e230)" style="fill: #d62728"/>
   </g>
   <g id="patch_28">
    <path d="M 85.814319 25415.495222 
L 88.150575 25415.495222 
L 88.150575 30.834428 
L 85.814319 30.834428 
z
" clip-path="url(#pf26f79e230)" style="fill: #d62728"/>
   </g>
   <g id="patch_29">
    <path d="M 110.734386 25415.495222 
L 113.070642 25415.495222 
L 113.070642 37.148895 
L 110.734386 37.148895 
z
" clip-path="url(#pf26f79e230)" style="fill: #d62728"/>
   </g>
   <g id="patch_30">
    <path d="M 135.654453 25415.495222 
L 137.99071 25415.495222 
L 137.99071 47.417757 
L 135.654453 47.417757 
z
" clip-path="url(#pf26f79e230)" style="fill: #d62728"/>
   </g>
   <g id="patch_31">
    <path d="M 160.574521 25415.495222 
L 162.910777 25415.495222 
L 162.910777 48.163169 
L 160.574521 48.163169 
z
" clip-path="url(#pf26f79e230)" style="fill: #d62728"/>
   </g>
   <g id="patch_32">
    <path d="M 185.494588 25415.495222 
L 187.830844 25415.495222 
L 187.830844 46.874801 
L 185.494588 46.874801 
z
" clip-path="url(#pf26f79e230)" style="fill: #d62728"/>
   </g>
   <g id="patch_33">
    <path d="M 210.414655 25415.495222 
L 212.750912 25415.495222 
L 212.750912 43.638312 
L 210.414655 43.638312 
z
" clip-path="url(#pf26f79e230)" style="fill: #d62728"/>
   </g>
   <g id="patch_34">
    <path d="M 235.334723 25415.495222 
L 237.670979 25415.495222 
L 237.670979 23.841053 
L 235.334723 23.841053 
z
" clip-path="url(#pf26f79e230)" style="fill: #d62728"/>
   </g>
   <g id="patch_35">
    <path d="M 260.25479 25415.495222 
L 262.591046 25415.495222 
L 262.591046 21.992249 
L 260.25479 21.992249 
z
" clip-path="url(#pf26f79e230)" style="fill: #d62728"/>
   </g>
   <g id="patch_36">
    <path d="M 285.174857 25415.495222 
L 287.511113 25415.495222 
L 287.511113 23.513482 
L 285.174857 23.513482 
z
" clip-path="url(#pf26f79e230)" style="fill: #d62728"/>
   </g>
   <g id="patch_37">
    <path d="M 310.094924 25415.495222 
L 312.431181 25415.495222 
L 312.431181 88.320118 
L 310.094924 88.320118 
z
" clip-path="url(#pf26f79e230)" style="fill: #d62728"/>
   </g>
   <g id="patch_38">
    <path d="M 335.014992 25415.495222 
L 337.351248 25415.495222 
L 337.351248 37.356075 
L 335.014992 37.356075 
z
" clip-path="url(#pf26f79e230)" style="fill: #d62728"/>
   </g>
   <g id="patch_39">
    <path d="M 63.230508 25415.495222 
L 65.566764 25415.495222 
L 65.566764 39.630015 
L 63.230508 39.630015 
z
" clip-path="url(#pf26f79e230)" style="fill: #9467bd"/>
   </g>
   <g id="patch_40">
    <path d="M 88.150575 25415.495222 
L 90.486831 25415.495222 
L 90.486831 27.754923 
L 88.150575 27.754923 
z
" clip-path="url(#pf26f79e230)" style="fill: #9467bd"/>
   </g>
   <g id="patch_41">
    <path d="M 113.070642 25415.495222 
L 115.406899 25415.495222 
L 115.406899 36.623826 
L 113.070642 36.623826 
z
" clip-path="url(#pf26f79e230)" style="fill: #9467bd"/>
   </g>
   <g id="patch_42">
    <path d="M 137.99071 25415.495222 
L 140.326966 25415.495222 
L 140.326966 38.062603 
L 137.99071 38.062603 
z
" clip-path="url(#pf26f79e230)" style="fill: #9467bd"/>
   </g>
   <g id="patch_43">
    <path d="M 162.910777 25415.495222 
L 165.247033 25415.495222 
L 165.247033 34.295228 
L 162.910777 34.295228 
z
" clip-path="url(#pf26f79e230)" style="fill: #9467bd"/>
   </g>
   <g id="patch_44">
    <path d="M 187.830844 25415.495222 
L 190.167101 25415.495222 
L 190.167101 29.252177 
L 187.830844 29.252177 
z
" clip-path="url(#pf26f79e230)" style="fill: #9467bd"/>
   </g>
   <g id="patch_45">
    <path d="M 212.750912 25415.495222 
L 215.087168 25415.495222 
L 215.087168 28.427115 
L 212.750912 28.427115 
z
" clip-path="url(#pf26f79e230)" style="fill: #9467bd"/>
   </g>
   <g id="patch_46">
    <path d="M 237.670979 25415.495222 
L 240.007235 25415.495222 
L 240.007235 17.510205 
L 237.670979 17.510205 
z
" clip-path="url(#pf26f79e230)" style="fill: #9467bd"/>
   </g>
   <g id="patch_47">
    <path d="M 262.591046 25415.495222 
L 264.927302 25415.495222 
L 264.927302 17.173553 
L 262.591046 17.173553 
z
" clip-path="url(#pf26f79e230)" style="fill: #9467bd"/>
   </g>
   <g id="patch_48">
    <path d="M 287.511113 25415.495222 
L 289.84737 25415.495222 
L 289.84737 13.197031 
L 287.511113 13.197031 
z
" clip-path="url(#pf26f79e230)" style="fill: #9467bd"/>
   </g>
   <g id="patch_49">
    <path d="M 312.431181 25415.495222 
L 314.767437 25415.495222 
L 314.767437 73.256338 
L 312.431181 73.256338 
z
" clip-path="url(#pf26f79e230)" style="fill: #9467bd"/>
   </g>
   <g id="patch_50">
    <path d="M 337.351248 25415.495222 
L 339.687504 25415.495222 
L 339.687504 36.283951 
L 337.351248 36.283951 
z
" clip-path="url(#pf26f79e230)" style="fill: #9467bd"/>
   </g>
   <g id="patch_51">
    <path d="M 65.566764 25415.495222 
L 67.90302 25415.495222 
L 67.90302 39.630015 
L 65.566764 39.630015 
z
" clip-path="url(#pf26f79e230)" style="fill: #8c564b"/>
   </g>
   <g id="patch_52">
    <path d="M 90.486831 25415.495222 
L 92.823088 25415.495222 
L 92.823088 34.728123 
L 90.486831 34.728123 
z
" clip-path="url(#pf26f79e230)" style="fill: #8c564b"/>
   </g>
   <g id="patch_53">
    <path d="M 115.406899 25415.495222 
L 117.743155 25415.495222 
L 117.743155 42.216521 
L 115.406899 42.216521 
z
" clip-path="url(#pf26f79e230)" style="fill: #8c564b"/>
   </g>
   <g id="patch_54">
    <path d="M 140.326966 25415.495222 
L 142.663222 25415.495222 
L 142.663222 62.076372 
L 140.326966 62.076372 
z
" clip-path="url(#pf26f79e230)" style="fill: #8c564b"/>
   </g>
   <g id="patch_55">
    <path d="M 165.247033 25415.495222 
L 167.58329 25415.495222 
L 167.58329 61.625072 
L 165.247033 61.625072 
z
" clip-path="url(#pf26f79e230)" style="fill: #8c564b"/>
   </g>
   <g id="patch_56">
    <path d="M 190.167101 25415.495222 
L 192.503357 25415.495222 
L 192.503357 61.650698 
L 190.167101 61.650698 
z
" clip-path="url(#pf26f79e230)" style="fill: #8c564b"/>
   </g>
   <g id="patch_57">
    <path d="M 215.087168 25415.495222 
L 217.423424 25415.495222 
L 217.423424 57.345151 
L 215.087168 57.345151 
z
" clip-path="url(#pf26f79e230)" style="fill: #8c564b"/>
   </g>
   <g id="patch_58">
    <path d="M 240.007235 25415.495222 
L 242.343491 25415.495222 
L 242.343491 19.770154 
L 240.007235 19.770154 
z
" clip-path="url(#pf26f79e230)" style="fill: #8c564b"/>
   </g>
   <g id="patch_59">
    <path d="M 264.927302 25415.495222 
L 267.263559 25415.495222 
L 267.263559 19.329873 
L 264.927302 19.329873 
z
" clip-path="url(#pf26f79e230)" style="fill: #8c564b"/>
   </g>
   <g id="patch_60">
    <path d="M 289.84737 25415.495222 
L 292.183626 25415.495222 
L 292.183626 16.536077 
L 289.84737 16.536077 
z
" clip-path="url(#pf26f79e230)" style="fill: #8c564b"/>
   </g>
   <g id="patch_61">
    <path d="M 314.767437 25415.495222 
L 317.103693 25415.495222 
L 317.103693 88.847988 
L 314.767437 88.847988 
z
" clip-path="url(#pf26f79e230)" style="fill: #8c564b"/>
   </g>
   <g id="patch_62">
    <path d="M 339.687504 25415.495222 
L 342.023761 25415.495222 
L 342.023761 37.430117 
L 339.687504 37.430117 
z
" clip-path="url(#pf26f79e230)" style="fill: #8c564b"/>
   </g>
   <g id="patch_63">
    <path d="M 67.90302 25415.495222 
L 70.239277 25415.495222 
L 70.239277 57.369981 
L 67.90302 57.369981 
z
" clip-path="url(#pf26f79e230)" style="fill: #e377c2"/>
   </g>
   <g id="patch_64">
    <path d="M 92.823088 25415.495222 
L 95.159344 25415.495222 
L 95.159344 32.0765 
L 92.823088 32.0765 
z
" clip-path="url(#pf26f79e230)" style="fill: #e377c2"/>
   </g>
   <g id="patch_65">
    <path d="M 117.743155 25415.495222 
L 120.079411 25415.495222 
L 120.079411 39.636529 
L 117.743155 39.636529 
z
" clip-path="url(#pf26f79e230)" style="fill: #e377c2"/>
   </g>
   <g id="patch_66">
    <path d="M 142.663222 25415.495222 
L 144.999479 25415.495222 
L 144.999479 36.681857 
L 142.663222 36.681857 
z
" clip-path="url(#pf26f79e230)" style="fill: #e377c2"/>
   </g>
   <g id="patch_67">
    <path d="M 167.58329 25415.495222 
L 169.919546 25415.495222 
L 169.919546 30.386937 
L 167.58329 30.386937 
z
" clip-path="url(#pf26f79e230)" style="fill: #e377c2"/>
   </g>
   <g id="patch_68">
    <path d="M 192.503357 25415.495222 
L 194.839613 25415.495222 
L 194.839613 27.545054 
L 192.503357 27.545054 
z
" clip-path="url(#pf26f79e230)" style="fill: #e377c2"/>
   </g>
   <g id="patch_69">
    <path d="M 217.423424 25415.495222 
L 219.75968 25415.495222 
L 219.75968 29.21282 
L 217.423424 29.21282 
z
" clip-path="url(#pf26f79e230)" style="fill: #e377c2"/>
   </g>
   <g id="patch_70">
    <path d="M 242.343491 25415.495222 
L 244.679748 25415.495222 
L 244.679748 16.010331 
L 242.343491 16.010331 
z
" clip-path="url(#pf26f79e230)" style="fill: #e377c2"/>
   </g>
   <g id="patch_71">
    <path d="M 267.263559 25415.495222 
L 269.599815 25415.495222 
L 269.599815 15.241952 
L 267.263559 15.241952 
z
" clip-path="url(#pf26f79e230)" style="fill: #e377c2"/>
   </g>
   <g id="patch_72">
    <path d="M 292.183626 25415.495222 
L 294.519882 25415.495222 
L 294.519882 12.54768 
L 292.183626 12.54768 
z
" clip-path="url(#pf26f79e230)" style="fill: #e377c2"/>
   </g>
   <g id="patch_73">
    <path d="M 317.103693 25415.495222 
L 319.43995 25415.495222 
L 319.43995 72.523054 
L 317.103693 72.523054 
z
" clip-path="url(#pf26f79e230)" style="fill: #e377c2"/>
   </g>
   <g id="patch_74">
    <path d="M 342.023761 25415.495222 
L 344.360017 25415.495222 
L 344.360017 39.040373 
L 342.023761 39.040373 
z
" clip-path="url(#pf26f79e230)" style="fill: #e377c2"/>
   </g>
   <g id="patch_75">
    <path d="M 70.239277 25415.495222 
L 72.575533 25415.495222 
L 72.575533 52.327067 
L 70.239277 52.327067 
z
" clip-path="url(#pf26f79e230)" style="fill: #7f7f7f"/>
   </g>
   <g id="patch_76">
    <path d="M 95.159344 25415.495222 
L 97.4956 25415.495222 
L 97.4956 48.16064 
L 95.159344 48.16064 
z
" clip-path="url(#pf26f79e230)" style="fill: #7f7f7f"/>
   </g>
   <g id="patch_77">
    <path d="M 120.079411 25415.495222 
L 122.415668 25415.495222 
L 122.415668 38.68808 
L 120.079411 38.68808 
z
" clip-path="url(#pf26f79e230)" style="fill: #7f7f7f"/>
   </g>
   <g id="patch_78">
    <path d="M 144.999479 25415.495222 
L 147.335735 25415.495222 
L 147.335735 60.857947 
L 144.999479 60.857947 
z
" clip-path="url(#pf26f79e230)" style="fill: #7f7f7f"/>
   </g>
   <g id="patch_79">
    <path d="M 169.919546 25415.495222 
L 172.255802 25415.495222 
L 172.255802 60.47096 
L 169.919546 60.47096 
z
" clip-path="url(#pf26f79e230)" style="fill: #7f7f7f"/>
   </g>
   <g id="patch_80">
    <path d="M 194.839613 25415.495222 
L 197.175869 25415.495222 
L 197.175869 60.083191 
L 194.839613 60.083191 
z
" clip-path="url(#pf26f79e230)" style="fill: #7f7f7f"/>
   </g>
   <g id="patch_81">
    <path d="M 219.75968 25415.495222 
L 222.095937 25415.495222 
L 222.095937 55.58608 
L 219.75968 55.58608 
z
" clip-path="url(#pf26f79e230)" style="fill: #7f7f7f"/>
   </g>
   <g id="patch_82">
    <path d="M 244.679748 25415.495222 
L 247.016004 25415.495222 
L 247.016004 27.451357 
L 244.679748 27.451357 
z
" clip-path="url(#pf26f79e230)" style="fill: #7f7f7f"/>
   </g>
   <g id="patch_83">
    <path d="M 269.599815 25415.495222 
L 271.936071 25415.495222 
L 271.936071 25.184884 
L 269.599815 25.184884 
z
" clip-path="url(#pf26f79e230)" style="fill: #7f7f7f"/>
   </g>
   <g id="patch_84">
    <path d="M 294.519882 25415.495222 
L 296.856139 25415.495222 
L 296.856139 25.889611 
L 294.519882 25.889611 
z
" clip-path="url(#pf26f79e230)" style="fill: #7f7f7f"/>
   </g>
   <g id="patch_85">
    <path d="M 319.43995 25415.495222 
L 321.776206 25415.495222 
L 321.776206 90.701286 
L 319.43995 90.701286 
z
" clip-path="url(#pf26f79e230)" style="fill: #7f7f7f"/>
   </g>
   <g id="patch_86">
    <path d="M 344.360017 25415.495222 
L 346.696273 25415.495222 
L 346.696273 38.315877 
L 344.360017 38.315877 
z
" clip-path="url(#pf26f79e230)" style="fill: #7f7f7f"/>
   </g>
   <g id="patch_87">
    <path d="M 41.698012 98.139617 
L 41.698012 8.64 
" style="fill: none; stroke: #000000; stroke-width: 0.8; stroke-linejoin: miter; stroke-linecap: square"/>
   </g>
   <g id="patch_88">
    <path d="M 361.22 98.139617 
L 361.22 8.64 
" style="fill: none; stroke: #000000; stroke-width: 0.8; stroke-linejoin: miter; stroke-linecap: square"/>
   </g>
   <g id="patch_89">
    <path d="M 41.698012 98.139617 
L 361.22 98.139617 
" style="fill: none; stroke: #000000; stroke-width: 0.8; stroke-linejoin: miter; stroke-linecap: square"/>
   </g>
   <g id="patch_90">
    <path d="M 41.698012 8.64 
L 361.22 8.64 
" style="fill: none; stroke: #000000; stroke-width: 0.8; stroke-linejoin: miter; stroke-linecap: square"/>
   </g>
   <g id="legend_1">
    <g id="patch_91">
     <path d="M 366.82 95.688559 
L 493.16 95.688559 
Q 494.76 95.688559 494.76 94.088559 
L 494.76 12.691059 
Q 494.76 11.091059 493.16 11.091059 
L 366.82 11.091059 
Q 365.22 11.091059 365.22 12.691059 
L 365.22 94.088559 
Q 365.22 95.688559 366.82 95.688559 
z
" style="fill: #ffffff; opacity: 0.8; stroke: #cccccc; stroke-linejoin: miter"/>
    </g>
    <g id="patch_92">
     <path d="M 368.42 20.369809 
L 384.42 20.369809 
L 384.42 14.769809 
L 368.42 14.769809 
z
" style="fill: #ff7f0e"/>
    </g>
    <g id="text_18">
     <!-- Pythran (g++) -->
     <g transform="translate(390.82 20.369809) scale(0.08 -0.08)">
      <defs>
       <path id="DejaVuSans-79" d="M 2059 -325 
Q 1816 -950 1584 -1140 
Q 1353 -1331 966 -1331 
L 506 -1331 
L 506 -850 
L 844 -850 
Q 1081 -850 1212 -737 
Q 1344 -625 1503 -206 
L 1606 56 
L 191 3500 
L 800 3500 
L 1894 763 
L 2988 3500 
L 3597 3500 
L 2059 -325 
z
" transform="scale(0.015625)"/>
       <path id="DejaVuSans-68" d="M 3513 2113 
L 3513 0 
L 2938 0 
L 2938 2094 
Q 2938 2591 2744 2837 
Q 2550 3084 2163 3084 
Q 1697 3084 1428 2787 
Q 1159 2491 1159 1978 
L 1159 0 
L 581 0 
L 581 4863 
L 1159 4863 
L 1159 2956 
Q 1366 3272 1645 3428 
Q 1925 3584 2291 3584 
Q 2894 3584 3203 3211 
Q 3513 2838 3513 2113 
z
" transform="scale(0.015625)"/>
       <path id="DejaVuSans-28" d="M 1984 4856 
Q 1566 4138 1362 3434 
Q 1159 2731 1159 2009 
Q 1159 1288 1364 580 
Q 1569 -128 1984 -844 
L 1484 -844 
Q 1016 -109 783 600 
Q 550 1309 550 2009 
Q 550 2706 781 3412 
Q 1013 4119 1484 4856 
L 1984 4856 
z
" transform="scale(0.015625)"/>
       <path id="DejaVuSans-67" d="M 2906 1791 
Q 2906 2416 2648 2759 
Q 2391 3103 1925 3103 
Q 1463 3103 1205 2759 
Q 947 2416 947 1791 
Q 947 1169 1205 825 
Q 1463 481 1925 481 
Q 2391 481 2648 825 
Q 2906 1169 2906 1791 
z
M 3481 434 
Q 3481 -459 3084 -895 
Q 2688 -1331 1869 -1331 
Q 1566 -1331 1297 -1286 
Q 1028 -1241 775 -1147 
L 775 -588 
Q 1028 -725 1275 -790 
Q 1522 -856 1778 -856 
Q 2344 -856 2625 -561 
Q 2906 -266 2906 331 
L 2906 616 
Q 2728 306 2450 153 
Q 2172 0 1784 0 
Q 1141 0 747 490 
Q 353 981 353 1791 
Q 353 2603 747 3093 
Q 1141 3584 1784 3584 
Q 2172 3584 2450 3431 
Q 2728 3278 2906 2969 
L 2906 3500 
L 3481 3500 
L 3481 434 
z
" transform="scale(0.015625)"/>
       <path id="DejaVuSans-2b" d="M 2944 4013 
L 2944 2272 
L 4684 2272 
L 4684 1741 
L 2944 1741 
L 2944 0 
L 2419 0 
L 2419 1741 
L 678 1741 
L 678 2272 
L 2419 2272 
L 2419 4013 
L 2944 4013 
z
" transform="scale(0.015625)"/>
       <path id="DejaVuSans-29" d="M 513 4856 
L 1013 4856 
Q 1481 4119 1714 3412 
Q 1947 2706 1947 2009 
Q 1947 1309 1714 600 
Q 1481 -109 1013 -844 
L 513 -844 
Q 928 -128 1133 580 
Q 1338 1288 1338 2009 
Q 1338 2731 1133 3434 
Q 928 4138 513 4856 
z
" transform="scale(0.015625)"/>
      </defs>
      <use xlink:href="#DejaVuSans-50"/>
      <use xlink:href="#DejaVuSans-79" x="60.302734"/>
      <use xlink:href="#DejaVuSans-74" x="119.482422"/>
      <use xlink:href="#DejaVuSans-68" x="158.691406"/>
      <use xlink:href="#DejaVuSans-72" x="222.070312"/>
      <use xlink:href="#DejaVuSans-61" x="263.183594"/>
      <use xlink:href="#DejaVuSans-6e" x="324.462891"/>
      <use xlink:href="#DejaVuSans-20" x="387.841797"/>
      <use xlink:href="#DejaVuSans-28" x="419.628906"/>
      <use xlink:href="#DejaVuSans-67" x="458.642578"/>
      <use xlink:href="#DejaVuSans-2b" x="522.119141"/>
      <use xlink:href="#DejaVuSans-2b" x="605.908203"/>
      <use xlink:href="#DejaVuSans-29" x="689.697266"/>
     </g>
    </g>
    <g id="patch_93">
     <path d="M 368.42 32.112309 
L 384.42 32.112309 
L 384.42 26.512309 
L 368.42 26.512309 
z
" style="fill: #2ca02c"/>
    </g>
    <g id="text_19">
     <!-- Pythran (icx) -->
     <g transform="translate(390.82 32.112309) scale(0.08 -0.08)">
      <use xlink:href="#DejaVuSans-50"/>
      <use xlink:href="#DejaVuSans-79" x="60.302734"/>
      <use xlink:href="#DejaVuSans-74" x="119.482422"/>
      <use xlink:href="#DejaVuSans-68" x="158.691406"/>
      <use xlink:href="#DejaVuSans-72" x="222.070312"/>
      <use xlink:href="#DejaVuSans-61" x="263.183594"/>
      <use xlink:href="#DejaVuSans-6e" x="324.462891"/>
      <use xlink:href="#DejaVuSans-20" x="387.841797"/>
      <use xlink:href="#DejaVuSans-28" x="419.628906"/>
      <use xlink:href="#DejaVuSans-69" x="458.642578"/>
      <use xlink:href="#DejaVuSans-63" x="486.425781"/>
      <use xlink:href="#DejaVuSans-78" x="541.40625"/>
      <use xlink:href="#DejaVuSans-29" x="600.585938"/>
     </g>
    </g>
    <g id="patch_94">
     <path d="M 368.42 43.854809 
L 384.42 43.854809 
L 384.42 38.254809 
L 368.42 38.254809 
z
" style="fill: #d62728"/>
    </g>
    <g id="text_20">
     <!-- Numba -->
     <g transform="translate(390.82 43.854809) scale(0.08 -0.08)">
      <defs>
       <path id="DejaVuSans-62" d="M 3116 1747 
Q 3116 2381 2855 2742 
Q 2594 3103 2138 3103 
Q 1681 3103 1420 2742 
Q 1159 2381 1159 1747 
Q 1159 1113 1420 752 
Q 1681 391 2138 391 
Q 2594 391 2855 752 
Q 3116 1113 3116 1747 
z
M 1159 2969 
Q 1341 3281 1617 3432 
Q 1894 3584 2278 3584 
Q 2916 3584 3314 3078 
Q 3713 2572 3713 1747 
Q 3713 922 3314 415 
Q 2916 -91 2278 -91 
Q 1894 -91 1617 61 
Q 1341 213 1159 525 
L 1159 0 
L 581 0 
L 581 4863 
L 1159 4863 
L 1159 2969 
z
" transform="scale(0.015625)"/>
      </defs>
      <use xlink:href="#DejaVuSans-4e"/>
      <use xlink:href="#DejaVuSans-75" x="74.804688"/>
      <use xlink:href="#DejaVuSans-6d" x="138.183594"/>
      <use xlink:href="#DejaVuSans-62" x="235.595703"/>
      <use xlink:href="#DejaVuSans-61" x="299.072266"/>
     </g>
    </g>
    <g id="patch_95">
     <path d="M 368.42 55.597309 
L 384.42 55.597309 
L 384.42 49.997309 
L 368.42 49.997309 
z
" style="fill: #9467bd"/>
    </g>
    <g id="text_21">
     <!-- Pyccel (Fortran, gfortran) -->
     <g transform="translate(390.82 55.597309) scale(0.08 -0.08)">
      <defs>
       <path id="DejaVuSans-2c" d="M 750 794 
L 1409 794 
L 1409 256 
L 897 -744 
L 494 -744 
L 750 256 
L 750 794 
z
" transform="scale(0.015625)"/>
       <path id="DejaVuSans-66" d="M 2375 4863 
L 2375 4384 
L 1825 4384 
Q 1516 4384 1395 4259 
Q 1275 4134 1275 3809 
L 1275 3500 
L 2222 3500 
L 2222 3053 
L 1275 3053 
L 1275 0 
L 697 0 
L 697 3053 
L 147 3053 
L 147 3500 
L 697 3500 
L 697 3744 
Q 697 4328 969 4595 
Q 1241 4863 1831 4863 
L 2375 4863 
z
" transform="scale(0.015625)"/>
      </defs>
      <use xlink:href="#DejaVuSans-50"/>
      <use xlink:href="#DejaVuSans-79" x="60.302734"/>
      <use xlink:href="#DejaVuSans-63" x="119.482422"/>
      <use xlink:href="#DejaVuSans-63" x="174.462891"/>
      <use xlink:href="#DejaVuSans-65" x="229.443359"/>
      <use xlink:href="#DejaVuSans-6c" x="290.966797"/>
      <use xlink:href="#DejaVuSans-20" x="318.75"/>
      <use xlink:href="#DejaVuSans-28" x="350.537109"/>
      <use xlink:href="#DejaVuSans-46" x="389.550781"/>
      <use xlink:href="#DejaVuSans-6f" x="443.445312"/>
      <use xlink:href="#DejaVuSans-72" x="504.626953"/>
      <use xlink:href="#DejaVuSans-74" x="545.740234"/>
      <use xlink:href="#DejaVuSans-72" x="584.949219"/>
      <use xlink:href="#DejaVuSans-61" x="626.0625"/>
      <use xlink:href="#DejaVuSans-6e" x="687.341797"/>
      <use xlink:href="#DejaVuSans-2c" x="750.720703"/>
      <use xlink:href="#DejaVuSans-20" x="782.507812"/>
      <use xlink:href="#DejaVuSans-67" x="814.294922"/>
      <use xlink:href="#DejaVuSans-66" x="877.771484"/>
      <use xlink:href="#DejaVuSans-6f" x="912.976562"/>
      <use xlink:href="#DejaVuSans-72" x="974.158203"/>
      <use xlink:href="#DejaVuSans-74" x="1015.271484"/>
      <use xlink:href="#DejaVuSans-72" x="1054.480469"/>
      <use xlink:href="#DejaVuSans-61" x="1095.59375"/>
      <use xlink:href="#DejaVuSans-6e" x="1156.873047"/>
      <use xlink:href="#DejaVuSans-29" x="1220.251953"/>
     </g>
    </g>
    <g id="patch_96">
     <path d="M 368.42 67.339809 
L 384.42 67.339809 
L 384.42 61.739809 
L 368.42 61.739809 
z
" style="fill: #8c564b"/>
    </g>
    <g id="text_22">
     <!-- Pyccel (C, gcc) -->
     <g transform="translate(390.82 67.339809) scale(0.08 -0.08)">
      <use xlink:href="#DejaVuSans-50"/>
      <use xlink:href="#DejaVuSans-79" x="60.302734"/>
      <use xlink:href="#DejaVuSans-63" x="119.482422"/>
      <use xlink:href="#DejaVuSans-63" x="174.462891"/>
      <use xlink:href="#DejaVuSans-65" x="229.443359"/>
      <use xlink:href="#DejaVuSans-6c" x="290.966797"/>
      <use xlink:href="#DejaVuSans-20" x="318.75"/>
      <use xlink:href="#DejaVuSans-28" x="350.537109"/>
      <use xlink:href="#DejaVuSans-43" x="389.550781"/>
      <use xlink:href="#DejaVuSans-2c" x="459.375"/>
      <use xlink:href="#DejaVuSans-20" x="491.162109"/>
      <use xlink:href="#DejaVuSans-67" x="522.949219"/>
      <use xlink:href="#DejaVuSans-63" x="586.425781"/>
      <use xlink:href="#DejaVuSans-63" x="641.40625"/>
      <use xlink:href="#DejaVuSans-29" x="696.386719"/>
     </g>
    </g>
    <g id="patch_97">
     <path d="M 368.42 79.082309 
L 384.42 79.082309 
L 384.42 73.482309 
L 368.42 73.482309 
z
" style="fill: #e377c2"/>
    </g>
    <g id="text_23">
     <!-- Pyccel (Fortran, ifort) -->
     <g transform="translate(390.82 79.082309) scale(0.08 -0.08)">
      <use xlink:href="#DejaVuSans-50"/>
      <use xlink:href="#DejaVuSans-79" x="60.302734"/>
      <use xlink:href="#DejaVuSans-63" x="119.482422"/>
      <use xlink:href="#DejaVuSans-63" x="174.462891"/>
      <use xlink:href="#DejaVuSans-65" x="229.443359"/>
      <use xlink:href="#DejaVuSans-6c" x="290.966797"/>
      <use xlink:href="#DejaVuSans-20" x="318.75"/>
      <use xlink:href="#DejaVuSans-28" x="350.537109"/>
      <use xlink:href="#DejaVuSans-46" x="389.550781"/>
      <use xlink:href="#DejaVuSans-6f" x="443.445312"/>
      <use xlink:href="#DejaVuSans-72" x="504.626953"/>
      <use xlink:href="#DejaVuSans-74" x="545.740234"/>
      <use xlink:href="#DejaVuSans-72" x="584.949219"/>
      <use xlink:href="#DejaVuSans-61" x="626.0625"/>
      <use xlink:href="#DejaVuSans-6e" x="687.341797"/>
      <use xlink:href="#DejaVuSans-2c" x="750.720703"/>
      <use xlink:href="#DejaVuSans-20" x="782.507812"/>
      <use xlink:href="#DejaVuSans-69" x="814.294922"/>
      <use xlink:href="#DejaVuSans-66" x="842.078125"/>
      <use xlink:href="#DejaVuSans-6f" x="877.283203"/>
      <use xlink:href="#DejaVuSans-72" x="938.464844"/>
      <use xlink:href="#DejaVuSans-74" x="979.578125"/>
      <use xlink:href="#DejaVuSans-29" x="1018.787109"/>
     </g>
    </g>
    <g id="patch_98">
     <path d="M 368.42 90.824809 
L 384.42 90.824809 
L 384.42 85.224809 
L 368.42 85.224809 
z
" style="fill: #7f7f7f"/>
    </g>
    <g id="text_24">
     <!-- Pyccel (C, icc) -->
     <g transform="translate(390.82 90.824809) scale(0.08 -0.08)">
      <use xlink:href="#DejaVuSans-50"/>
      <use xlink:href="#DejaVuSans-79" x="60.302734"/>
      <use xlink:href="#DejaVuSans-63" x="119.482422"/>
      <use xlink:href="#DejaVuSans-63" x="174.462891"/>
      <use xlink:href="#DejaVuSans-65" x="229.443359"/>
      <use xlink:href="#DejaVuSans-6c" x="290.966797"/>
      <use xlink:href="#DejaVuSans-20" x="318.75"/>
      <use xlink:href="#DejaVuSans-28" x="350.537109"/>
      <use xlink:href="#DejaVuSans-43" x="389.550781"/>
      <use xlink:href="#DejaVuSans-2c" x="459.375"/>
      <use xlink:href="#DejaVuSans-20" x="491.162109"/>
      <use xlink:href="#DejaVuSans-69" x="522.949219"/>
      <use xlink:href="#DejaVuSans-63" x="550.732422"/>
      <use xlink:href="#DejaVuSans-63" x="605.712891"/>
      <use xlink:href="#DejaVuSans-29" x="660.693359"/>
     </g>
    </g>
   </g>
  </g>
 </g>
 <defs>
  <clipPath id="pf26f79e230">
   <rect x="41.698012" y="8.64" width="319.521988" height="89.499617"/>
  </clipPath>
 </defs>
</svg>
