<?xml version="1.0" encoding="utf-8" standalone="no"?>
<!DOCTYPE svg PUBLIC "-//W3C//DTD SVG 1.1//EN"
  "http://www.w3.org/Graphics/SVG/1.1/DTD/svg11.dtd">
<svg xmlns:xlink="http://www.w3.org/1999/xlink" width="504pt" height="158.4pt" viewBox="0 0 504 158.4" xmlns="http://www.w3.org/2000/svg" version="1.1">
 <metadata>
  <rdf:RDF xmlns:dc="http://purl.org/dc/elements/1.1/" xmlns:cc="http://creativecommons.org/ns#" xmlns:rdf="http://www.w3.org/1999/02/22-rdf-syntax-ns#">
   <cc:Work>
    <dc:type rdf:resource="http://purl.org/dc/dcmitype/StillImage"/>
    <dc:date>2023-05-03T23:20:31.598355</dc:date>
    <dc:format>image/svg+xml</dc:format>
    <dc:creator>
     <cc:Agent>
      <dc:title>Matplotlib v3.7.1, https://matplotlib.org/</dc:title>
     </cc:Agent>
    </dc:creator>
   </cc:Work>
  </rdf:RDF>
 </metadata>
 <defs>
  <style type="text/css">*{stroke-linejoin: round; stroke-linecap: butt}</style>
 </defs>
 <g id="figure_1">
  <g id="patch_1">
   <path d="M 0 158.4 
L 504 158.4 
L 504 0 
L 0 0 
z
" style="fill: #ffffff"/>
  </g>
  <g id="axes_1">
   <g id="patch_2">
    <path d="M 31.97 98.139617 
L 399.02 98.139617 
L 399.02 8.64 
L 31.97 8.64 
z
" style="fill: #ffffff"/>
   </g>
   <g id="matplotlib.axis_1">
    <g id="xtick_1">
     <g id="line2d_1">
      <defs>
       <path id="m3d44fe1454" d="M 0 0 
L 0 3.5 
" style="stroke: #000000; stroke-width: 0.8"/>
      </defs>
      <g>
       <use xlink:href="#m3d44fe1454" x="59.303511" y="98.139617" style="stroke: #000000; stroke-width: 0.8"/>
      </g>
     </g>
     <g id="text_1">
      <!-- Ackermann -->
      <g transform="translate(23.389063 132.893969) rotate(-30) scale(0.08 -0.08)">
       <defs>
        <path id="DejaVuSans-41" d="M 2188 4044 
L 1331 1722 
L 3047 1722 
L 2188 4044 
z
M 1831 4666 
L 2547 4666 
L 4325 0 
L 3669 0 
L 3244 1197 
L 1141 1197 
L 716 0 
L 50 0 
L 1831 4666 
z
" transform="scale(0.015625)"/>
        <path id="DejaVuSans-63" d="M 3122 3366 
L 3122 2828 
Q 2878 2963 2633 3030 
Q 2388 3097 2138 3097 
Q 1578 3097 1268 2742 
Q 959 2388 959 1747 
Q 959 1106 1268 751 
Q 1578 397 2138 397 
Q 2388 397 2633 464 
Q 2878 531 3122 666 
L 3122 134 
Q 2881 22 2623 -34 
Q 2366 -91 2075 -91 
Q 1284 -91 818 406 
Q 353 903 353 1747 
Q 353 2603 823 3093 
Q 1294 3584 2113 3584 
Q 2378 3584 2631 3529 
Q 2884 3475 3122 3366 
z
" transform="scale(0.015625)"/>
        <path id="DejaVuSans-6b" d="M 581 4863 
L 1159 4863 
L 1159 1991 
L 2875 3500 
L 3609 3500 
L 1753 1863 
L 3688 0 
L 2938 0 
L 1159 1709 
L 1159 0 
L 581 0 
L 581 4863 
z
" transform="scale(0.015625)"/>
        <path id="DejaVuSans-65" d="M 3597 1894 
L 3597 1613 
L 953 1613 
Q 991 1019 1311 708 
Q 1631 397 2203 397 
Q 2534 397 2845 478 
Q 3156 559 3463 722 
L 3463 178 
Q 3153 47 2828 -22 
Q 2503 -91 2169 -91 
Q 1331 -91 842 396 
Q 353 884 353 1716 
Q 353 2575 817 3079 
Q 1281 3584 2069 3584 
Q 2775 3584 3186 3129 
Q 3597 2675 3597 1894 
z
M 3022 2063 
Q 3016 2534 2758 2815 
Q 2500 3097 2075 3097 
Q 1594 3097 1305 2825 
Q 1016 2553 972 2059 
L 3022 2063 
z
" transform="scale(0.015625)"/>
        <path id="DejaVuSans-72" d="M 2631 2963 
Q 2534 3019 2420 3045 
Q 2306 3072 2169 3072 
Q 1681 3072 1420 2755 
Q 1159 2438 1159 1844 
L 1159 0 
L 581 0 
L 581 3500 
L 1159 3500 
L 1159 2956 
Q 1341 3275 1631 3429 
Q 1922 3584 2338 3584 
Q 2397 3584 2469 3576 
Q 2541 3569 2628 3553 
L 2631 2963 
z
" transform="scale(0.015625)"/>
        <path id="DejaVuSans-6d" d="M 3328 2828 
Q 3544 3216 3844 3400 
Q 4144 3584 4550 3584 
Q 5097 3584 5394 3201 
Q 5691 2819 5691 2113 
L 5691 0 
L 5113 0 
L 5113 2094 
Q 5113 2597 4934 2840 
Q 4756 3084 4391 3084 
Q 3944 3084 3684 2787 
Q 3425 2491 3425 1978 
L 3425 0 
L 2847 0 
L 2847 2094 
Q 2847 2600 2669 2842 
Q 2491 3084 2119 3084 
Q 1678 3084 1418 2786 
Q 1159 2488 1159 1978 
L 1159 0 
L 581 0 
L 581 3500 
L 1159 3500 
L 1159 2956 
Q 1356 3278 1631 3431 
Q 1906 3584 2284 3584 
Q 2666 3584 2933 3390 
Q 3200 3197 3328 2828 
z
" transform="scale(0.015625)"/>
        <path id="DejaVuSans-61" d="M 2194 1759 
Q 1497 1759 1228 1600 
Q 959 1441 959 1056 
Q 959 750 1161 570 
Q 1363 391 1709 391 
Q 2188 391 2477 730 
Q 2766 1069 2766 1631 
L 2766 1759 
L 2194 1759 
z
M 3341 1997 
L 3341 0 
L 2766 0 
L 2766 531 
Q 2569 213 2275 61 
Q 1981 -91 1556 -91 
Q 1019 -91 701 211 
Q 384 513 384 1019 
Q 384 1609 779 1909 
Q 1175 2209 1959 2209 
L 2766 2209 
L 2766 2266 
Q 2766 2663 2505 2880 
Q 2244 3097 1772 3097 
Q 1472 3097 1187 3025 
Q 903 2953 641 2809 
L 641 3341 
Q 956 3463 1253 3523 
Q 1550 3584 1831 3584 
Q 2591 3584 2966 3190 
Q 3341 2797 3341 1997 
z
" transform="scale(0.015625)"/>
        <path id="DejaVuSans-6e" d="M 3513 2113 
L 3513 0 
L 2938 0 
L 2938 2094 
Q 2938 2591 2744 2837 
Q 2550 3084 2163 3084 
Q 1697 3084 1428 2787 
Q 1159 2491 1159 1978 
L 1159 0 
L 581 0 
L 581 3500 
L 1159 3500 
L 1159 2956 
Q 1366 3272 1645 3428 
Q 1925 3584 2291 3584 
Q 2894 3584 3203 3211 
Q 3513 2838 3513 2113 
z
" transform="scale(0.015625)"/>
       </defs>
       <use xlink:href="#DejaVuSans-41"/>
       <use xlink:href="#DejaVuSans-63" x="66.658203"/>
       <use xlink:href="#DejaVuSans-6b" x="121.638672"/>
       <use xlink:href="#DejaVuSans-65" x="175.923828"/>
       <use xlink:href="#DejaVuSans-72" x="237.447266"/>
       <use xlink:href="#DejaVuSans-6d" x="276.810547"/>
       <use xlink:href="#DejaVuSans-61" x="374.222656"/>
       <use xlink:href="#DejaVuSans-6e" x="435.501953"/>
       <use xlink:href="#DejaVuSans-6e" x="498.880859"/>
      </g>
     </g>
    </g>
    <g id="xtick_2">
     <g id="line2d_2">
      <g>
       <use xlink:href="#m3d44fe1454" x="87.701963" y="98.139617" style="stroke: #000000; stroke-width: 0.8"/>
      </g>
     </g>
     <g id="text_2">
      <!-- Bellman Ford -->
      <g transform="translate(45.190567 136.702719) rotate(-30) scale(0.08 -0.08)">
       <defs>
        <path id="DejaVuSans-42" d="M 1259 2228 
L 1259 519 
L 2272 519 
Q 2781 519 3026 730 
Q 3272 941 3272 1375 
Q 3272 1813 3026 2020 
Q 2781 2228 2272 2228 
L 1259 2228 
z
M 1259 4147 
L 1259 2741 
L 2194 2741 
Q 2656 2741 2882 2914 
Q 3109 3088 3109 3444 
Q 3109 3797 2882 3972 
Q 2656 4147 2194 4147 
L 1259 4147 
z
M 628 4666 
L 2241 4666 
Q 2963 4666 3353 4366 
Q 3744 4066 3744 3513 
Q 3744 3084 3544 2831 
Q 3344 2578 2956 2516 
Q 3422 2416 3680 2098 
Q 3938 1781 3938 1306 
Q 3938 681 3513 340 
Q 3088 0 2303 0 
L 628 0 
L 628 4666 
z
" transform="scale(0.015625)"/>
        <path id="DejaVuSans-6c" d="M 603 4863 
L 1178 4863 
L 1178 0 
L 603 0 
L 603 4863 
z
" transform="scale(0.015625)"/>
        <path id="DejaVuSans-20" transform="scale(0.015625)"/>
        <path id="DejaVuSans-46" d="M 628 4666 
L 3309 4666 
L 3309 4134 
L 1259 4134 
L 1259 2759 
L 3109 2759 
L 3109 2228 
L 1259 2228 
L 1259 0 
L 628 0 
L 628 4666 
z
" transform="scale(0.015625)"/>
        <path id="DejaVuSans-6f" d="M 1959 3097 
Q 1497 3097 1228 2736 
Q 959 2375 959 1747 
Q 959 1119 1226 758 
Q 1494 397 1959 397 
Q 2419 397 2687 759 
Q 2956 1122 2956 1747 
Q 2956 2369 2687 2733 
Q 2419 3097 1959 3097 
z
M 1959 3584 
Q 2709 3584 3137 3096 
Q 3566 2609 3566 1747 
Q 3566 888 3137 398 
Q 2709 -91 1959 -91 
Q 1206 -91 779 398 
Q 353 888 353 1747 
Q 353 2609 779 3096 
Q 1206 3584 1959 3584 
z
" transform="scale(0.015625)"/>
        <path id="DejaVuSans-64" d="M 2906 2969 
L 2906 4863 
L 3481 4863 
L 3481 0 
L 2906 0 
L 2906 525 
Q 2725 213 2448 61 
Q 2172 -91 1784 -91 
Q 1150 -91 751 415 
Q 353 922 353 1747 
Q 353 2572 751 3078 
Q 1150 3584 1784 3584 
Q 2172 3584 2448 3432 
Q 2725 3281 2906 2969 
z
M 947 1747 
Q 947 1113 1208 752 
Q 1469 391 1925 391 
Q 2381 391 2643 752 
Q 2906 1113 2906 1747 
Q 2906 2381 2643 2742 
Q 2381 3103 1925 3103 
Q 1469 3103 1208 2742 
Q 947 2381 947 1747 
z
" transform="scale(0.015625)"/>
       </defs>
       <use xlink:href="#DejaVuSans-42"/>
       <use xlink:href="#DejaVuSans-65" x="68.603516"/>
       <use xlink:href="#DejaVuSans-6c" x="130.126953"/>
       <use xlink:href="#DejaVuSans-6c" x="157.910156"/>
       <use xlink:href="#DejaVuSans-6d" x="185.693359"/>
       <use xlink:href="#DejaVuSans-61" x="283.105469"/>
       <use xlink:href="#DejaVuSans-6e" x="344.384766"/>
       <use xlink:href="#DejaVuSans-20" x="407.763672"/>
       <use xlink:href="#DejaVuSans-46" x="439.550781"/>
       <use xlink:href="#DejaVuSans-6f" x="493.445312"/>
       <use xlink:href="#DejaVuSans-72" x="554.626953"/>
       <use xlink:href="#DejaVuSans-64" x="593.990234"/>
      </g>
     </g>
    </g>
    <g id="xtick_3">
     <g id="line2d_3">
      <g>
       <use xlink:href="#m3d44fe1454" x="116.100416" y="98.139617" style="stroke: #000000; stroke-width: 0.8"/>
      </g>
     </g>
     <g id="text_3">
      <!-- Dijkstra -->
      <g transform="translate(92.524665 125.770219) rotate(-30) scale(0.08 -0.08)">
       <defs>
        <path id="DejaVuSans-44" d="M 1259 4147 
L 1259 519 
L 2022 519 
Q 2988 519 3436 956 
Q 3884 1394 3884 2338 
Q 3884 3275 3436 3711 
Q 2988 4147 2022 4147 
L 1259 4147 
z
M 628 4666 
L 1925 4666 
Q 3281 4666 3915 4102 
Q 4550 3538 4550 2338 
Q 4550 1131 3912 565 
Q 3275 0 1925 0 
L 628 0 
L 628 4666 
z
" transform="scale(0.015625)"/>
        <path id="DejaVuSans-69" d="M 603 3500 
L 1178 3500 
L 1178 0 
L 603 0 
L 603 3500 
z
M 603 4863 
L 1178 4863 
L 1178 4134 
L 603 4134 
L 603 4863 
z
" transform="scale(0.015625)"/>
        <path id="DejaVuSans-6a" d="M 603 3500 
L 1178 3500 
L 1178 -63 
Q 1178 -731 923 -1031 
Q 669 -1331 103 -1331 
L -116 -1331 
L -116 -844 
L 38 -844 
Q 366 -844 484 -692 
Q 603 -541 603 -63 
L 603 3500 
z
M 603 4863 
L 1178 4863 
L 1178 4134 
L 603 4134 
L 603 4863 
z
" transform="scale(0.015625)"/>
        <path id="DejaVuSans-73" d="M 2834 3397 
L 2834 2853 
Q 2591 2978 2328 3040 
Q 2066 3103 1784 3103 
Q 1356 3103 1142 2972 
Q 928 2841 928 2578 
Q 928 2378 1081 2264 
Q 1234 2150 1697 2047 
L 1894 2003 
Q 2506 1872 2764 1633 
Q 3022 1394 3022 966 
Q 3022 478 2636 193 
Q 2250 -91 1575 -91 
Q 1294 -91 989 -36 
Q 684 19 347 128 
L 347 722 
Q 666 556 975 473 
Q 1284 391 1588 391 
Q 1994 391 2212 530 
Q 2431 669 2431 922 
Q 2431 1156 2273 1281 
Q 2116 1406 1581 1522 
L 1381 1569 
Q 847 1681 609 1914 
Q 372 2147 372 2553 
Q 372 3047 722 3315 
Q 1072 3584 1716 3584 
Q 2034 3584 2315 3537 
Q 2597 3491 2834 3397 
z
" transform="scale(0.015625)"/>
        <path id="DejaVuSans-74" d="M 1172 4494 
L 1172 3500 
L 2356 3500 
L 2356 3053 
L 1172 3053 
L 1172 1153 
Q 1172 725 1289 603 
Q 1406 481 1766 481 
L 2356 481 
L 2356 0 
L 1766 0 
Q 1100 0 847 248 
Q 594 497 594 1153 
L 594 3053 
L 172 3053 
L 172 3500 
L 594 3500 
L 594 4494 
L 1172 4494 
z
" transform="scale(0.015625)"/>
       </defs>
       <use xlink:href="#DejaVuSans-44"/>
       <use xlink:href="#DejaVuSans-69" x="77.001953"/>
       <use xlink:href="#DejaVuSans-6a" x="104.785156"/>
       <use xlink:href="#DejaVuSans-6b" x="132.568359"/>
       <use xlink:href="#DejaVuSans-73" x="190.478516"/>
       <use xlink:href="#DejaVuSans-74" x="242.578125"/>
       <use xlink:href="#DejaVuSans-72" x="281.787109"/>
       <use xlink:href="#DejaVuSans-61" x="322.900391"/>
      </g>
     </g>
    </g>
    <g id="xtick_4">
     <g id="line2d_4">
      <g>
       <use xlink:href="#m3d44fe1454" x="144.498868" y="98.139617" style="stroke: #000000; stroke-width: 0.8"/>
      </g>
     </g>
     <g id="text_4">
      <!-- Euler -->
      <g transform="translate(129.733844 120.683344) rotate(-30) scale(0.08 -0.08)">
       <defs>
        <path id="DejaVuSans-45" d="M 628 4666 
L 3578 4666 
L 3578 4134 
L 1259 4134 
L 1259 2753 
L 3481 2753 
L 3481 2222 
L 1259 2222 
L 1259 531 
L 3634 531 
L 3634 0 
L 628 0 
L 628 4666 
z
" transform="scale(0.015625)"/>
        <path id="DejaVuSans-75" d="M 544 1381 
L 544 3500 
L 1119 3500 
L 1119 1403 
Q 1119 906 1312 657 
Q 1506 409 1894 409 
Q 2359 409 2629 706 
Q 2900 1003 2900 1516 
L 2900 3500 
L 3475 3500 
L 3475 0 
L 2900 0 
L 2900 538 
Q 2691 219 2414 64 
Q 2138 -91 1772 -91 
Q 1169 -91 856 284 
Q 544 659 544 1381 
z
M 1991 3584 
L 1991 3584 
z
" transform="scale(0.015625)"/>
       </defs>
       <use xlink:href="#DejaVuSans-45"/>
       <use xlink:href="#DejaVuSans-75" x="63.183594"/>
       <use xlink:href="#DejaVuSans-6c" x="126.5625"/>
       <use xlink:href="#DejaVuSans-65" x="154.345703"/>
       <use xlink:href="#DejaVuSans-72" x="215.869141"/>
      </g>
     </g>
    </g>
    <g id="xtick_5">
     <g id="line2d_5">
      <g>
       <use xlink:href="#m3d44fe1454" x="172.897321" y="98.139617" style="stroke: #000000; stroke-width: 0.8"/>
      </g>
     </g>
     <g id="text_5">
      <!-- Midpoint Explicit -->
      <g transform="translate(118.588494 143.513969) rotate(-30) scale(0.08 -0.08)">
       <defs>
        <path id="DejaVuSans-4d" d="M 628 4666 
L 1569 4666 
L 2759 1491 
L 3956 4666 
L 4897 4666 
L 4897 0 
L 4281 0 
L 4281 4097 
L 3078 897 
L 2444 897 
L 1241 4097 
L 1241 0 
L 628 0 
L 628 4666 
z
" transform="scale(0.015625)"/>
        <path id="DejaVuSans-70" d="M 1159 525 
L 1159 -1331 
L 581 -1331 
L 581 3500 
L 1159 3500 
L 1159 2969 
Q 1341 3281 1617 3432 
Q 1894 3584 2278 3584 
Q 2916 3584 3314 3078 
Q 3713 2572 3713 1747 
Q 3713 922 3314 415 
Q 2916 -91 2278 -91 
Q 1894 -91 1617 61 
Q 1341 213 1159 525 
z
M 3116 1747 
Q 3116 2381 2855 2742 
Q 2594 3103 2138 3103 
Q 1681 3103 1420 2742 
Q 1159 2381 1159 1747 
Q 1159 1113 1420 752 
Q 1681 391 2138 391 
Q 2594 391 2855 752 
Q 3116 1113 3116 1747 
z
" transform="scale(0.015625)"/>
        <path id="DejaVuSans-78" d="M 3513 3500 
L 2247 1797 
L 3578 0 
L 2900 0 
L 1881 1375 
L 863 0 
L 184 0 
L 1544 1831 
L 300 3500 
L 978 3500 
L 1906 2253 
L 2834 3500 
L 3513 3500 
z
" transform="scale(0.015625)"/>
       </defs>
       <use xlink:href="#DejaVuSans-4d"/>
       <use xlink:href="#DejaVuSans-69" x="86.279297"/>
       <use xlink:href="#DejaVuSans-64" x="114.0625"/>
       <use xlink:href="#DejaVuSans-70" x="177.539062"/>
       <use xlink:href="#DejaVuSans-6f" x="241.015625"/>
       <use xlink:href="#DejaVuSans-69" x="302.197266"/>
       <use xlink:href="#DejaVuSans-6e" x="329.980469"/>
       <use xlink:href="#DejaVuSans-74" x="393.359375"/>
       <use xlink:href="#DejaVuSans-20" x="432.568359"/>
       <use xlink:href="#DejaVuSans-45" x="464.355469"/>
       <use xlink:href="#DejaVuSans-78" x="527.539062"/>
       <use xlink:href="#DejaVuSans-70" x="586.71875"/>
       <use xlink:href="#DejaVuSans-6c" x="650.195312"/>
       <use xlink:href="#DejaVuSans-69" x="677.978516"/>
       <use xlink:href="#DejaVuSans-63" x="705.761719"/>
       <use xlink:href="#DejaVuSans-69" x="760.742188"/>
       <use xlink:href="#DejaVuSans-74" x="788.525391"/>
      </g>
     </g>
    </g>
    <g id="xtick_6">
     <g id="line2d_6">
      <g>
       <use xlink:href="#m3d44fe1454" x="201.295774" y="98.139617" style="stroke: #000000; stroke-width: 0.8"/>
      </g>
     </g>
     <g id="text_6">
      <!-- Midpoint Fixed -->
      <g transform="translate(154.210681 139.343344) rotate(-30) scale(0.08 -0.08)">
       <use xlink:href="#DejaVuSans-4d"/>
       <use xlink:href="#DejaVuSans-69" x="86.279297"/>
       <use xlink:href="#DejaVuSans-64" x="114.0625"/>
       <use xlink:href="#DejaVuSans-70" x="177.539062"/>
       <use xlink:href="#DejaVuSans-6f" x="241.015625"/>
       <use xlink:href="#DejaVuSans-69" x="302.197266"/>
       <use xlink:href="#DejaVuSans-6e" x="329.980469"/>
       <use xlink:href="#DejaVuSans-74" x="393.359375"/>
       <use xlink:href="#DejaVuSans-20" x="432.568359"/>
       <use xlink:href="#DejaVuSans-46" x="464.355469"/>
       <use xlink:href="#DejaVuSans-69" x="514.625"/>
       <use xlink:href="#DejaVuSans-78" x="542.408203"/>
       <use xlink:href="#DejaVuSans-65" x="598.462891"/>
       <use xlink:href="#DejaVuSans-64" x="659.986328"/>
      </g>
     </g>
    </g>
    <g id="xtick_7">
     <g id="line2d_7">
      <g>
       <use xlink:href="#m3d44fe1454" x="229.694226" y="98.139617" style="stroke: #000000; stroke-width: 0.8"/>
      </g>
     </g>
     <g id="text_7">
      <!-- RK4 -->
      <g transform="translate(218.968128 118.351469) rotate(-30) scale(0.08 -0.08)">
       <defs>
        <path id="DejaVuSans-52" d="M 2841 2188 
Q 3044 2119 3236 1894 
Q 3428 1669 3622 1275 
L 4263 0 
L 3584 0 
L 2988 1197 
Q 2756 1666 2539 1819 
Q 2322 1972 1947 1972 
L 1259 1972 
L 1259 0 
L 628 0 
L 628 4666 
L 2053 4666 
Q 2853 4666 3247 4331 
Q 3641 3997 3641 3322 
Q 3641 2881 3436 2590 
Q 3231 2300 2841 2188 
z
M 1259 4147 
L 1259 2491 
L 2053 2491 
Q 2509 2491 2742 2702 
Q 2975 2913 2975 3322 
Q 2975 3731 2742 3939 
Q 2509 4147 2053 4147 
L 1259 4147 
z
" transform="scale(0.015625)"/>
        <path id="DejaVuSans-4b" d="M 628 4666 
L 1259 4666 
L 1259 2694 
L 3353 4666 
L 4166 4666 
L 1850 2491 
L 4331 0 
L 3500 0 
L 1259 2247 
L 1259 0 
L 628 0 
L 628 4666 
z
" transform="scale(0.015625)"/>
        <path id="DejaVuSans-34" d="M 2419 4116 
L 825 1625 
L 2419 1625 
L 2419 4116 
z
M 2253 4666 
L 3047 4666 
L 3047 1625 
L 3713 1625 
L 3713 1100 
L 3047 1100 
L 3047 0 
L 2419 0 
L 2419 1100 
L 313 1100 
L 313 1709 
L 2253 4666 
z
" transform="scale(0.015625)"/>
       </defs>
       <use xlink:href="#DejaVuSans-52"/>
       <use xlink:href="#DejaVuSans-4b" x="69.482422"/>
       <use xlink:href="#DejaVuSans-34" x="135.058594"/>
      </g>
     </g>
    </g>
    <g id="xtick_8">
     <g id="line2d_8">
      <g>
       <use xlink:href="#m3d44fe1454" x="258.092679" y="98.139617" style="stroke: #000000; stroke-width: 0.8"/>
      </g>
     </g>
     <g id="text_8">
      <!-- FD - L Convection -->
      <g transform="translate(199.935451 145.735844) rotate(-30) scale(0.08 -0.08)">
       <defs>
        <path id="DejaVuSans-2d" d="M 313 2009 
L 1997 2009 
L 1997 1497 
L 313 1497 
L 313 2009 
z
" transform="scale(0.015625)"/>
        <path id="DejaVuSans-4c" d="M 628 4666 
L 1259 4666 
L 1259 531 
L 3531 531 
L 3531 0 
L 628 0 
L 628 4666 
z
" transform="scale(0.015625)"/>
        <path id="DejaVuSans-43" d="M 4122 4306 
L 4122 3641 
Q 3803 3938 3442 4084 
Q 3081 4231 2675 4231 
Q 1875 4231 1450 3742 
Q 1025 3253 1025 2328 
Q 1025 1406 1450 917 
Q 1875 428 2675 428 
Q 3081 428 3442 575 
Q 3803 722 4122 1019 
L 4122 359 
Q 3791 134 3420 21 
Q 3050 -91 2638 -91 
Q 1578 -91 968 557 
Q 359 1206 359 2328 
Q 359 3453 968 4101 
Q 1578 4750 2638 4750 
Q 3056 4750 3426 4639 
Q 3797 4528 4122 4306 
z
" transform="scale(0.015625)"/>
        <path id="DejaVuSans-76" d="M 191 3500 
L 800 3500 
L 1894 563 
L 2988 3500 
L 3597 3500 
L 2284 0 
L 1503 0 
L 191 3500 
z
" transform="scale(0.015625)"/>
       </defs>
       <use xlink:href="#DejaVuSans-46"/>
       <use xlink:href="#DejaVuSans-44" x="57.519531"/>
       <use xlink:href="#DejaVuSans-20" x="134.521484"/>
       <use xlink:href="#DejaVuSans-2d" x="166.308594"/>
       <use xlink:href="#DejaVuSans-20" x="202.392578"/>
       <use xlink:href="#DejaVuSans-4c" x="234.179688"/>
       <use xlink:href="#DejaVuSans-20" x="289.892578"/>
       <use xlink:href="#DejaVuSans-43" x="321.679688"/>
       <use xlink:href="#DejaVuSans-6f" x="391.503906"/>
       <use xlink:href="#DejaVuSans-6e" x="452.685547"/>
       <use xlink:href="#DejaVuSans-76" x="516.064453"/>
       <use xlink:href="#DejaVuSans-65" x="575.244141"/>
       <use xlink:href="#DejaVuSans-63" x="636.767578"/>
       <use xlink:href="#DejaVuSans-74" x="691.748047"/>
       <use xlink:href="#DejaVuSans-69" x="730.957031"/>
       <use xlink:href="#DejaVuSans-6f" x="758.740234"/>
       <use xlink:href="#DejaVuSans-6e" x="819.921875"/>
      </g>
     </g>
    </g>
    <g id="xtick_9">
     <g id="line2d_9">
      <g>
       <use xlink:href="#m3d44fe1454" x="286.491132" y="98.139617" style="stroke: #000000; stroke-width: 0.8"/>
      </g>
     </g>
     <g id="text_9">
      <!-- FD - NL Convection -->
      <g transform="translate(223.150742 148.728344) rotate(-30) scale(0.08 -0.08)">
       <defs>
        <path id="DejaVuSans-4e" d="M 628 4666 
L 1478 4666 
L 3547 763 
L 3547 4666 
L 4159 4666 
L 4159 0 
L 3309 0 
L 1241 3903 
L 1241 0 
L 628 0 
L 628 4666 
z
" transform="scale(0.015625)"/>
       </defs>
       <use xlink:href="#DejaVuSans-46"/>
       <use xlink:href="#DejaVuSans-44" x="57.519531"/>
       <use xlink:href="#DejaVuSans-20" x="134.521484"/>
       <use xlink:href="#DejaVuSans-2d" x="166.308594"/>
       <use xlink:href="#DejaVuSans-20" x="202.392578"/>
       <use xlink:href="#DejaVuSans-4e" x="234.179688"/>
       <use xlink:href="#DejaVuSans-4c" x="308.984375"/>
       <use xlink:href="#DejaVuSans-20" x="364.697266"/>
       <use xlink:href="#DejaVuSans-43" x="396.484375"/>
       <use xlink:href="#DejaVuSans-6f" x="466.308594"/>
       <use xlink:href="#DejaVuSans-6e" x="527.490234"/>
       <use xlink:href="#DejaVuSans-76" x="590.869141"/>
       <use xlink:href="#DejaVuSans-65" x="650.048828"/>
       <use xlink:href="#DejaVuSans-63" x="711.572266"/>
       <use xlink:href="#DejaVuSans-74" x="766.552734"/>
       <use xlink:href="#DejaVuSans-69" x="805.761719"/>
       <use xlink:href="#DejaVuSans-6f" x="833.544922"/>
       <use xlink:href="#DejaVuSans-6e" x="894.726562"/>
      </g>
     </g>
    </g>
    <g id="xtick_10">
     <g id="line2d_10">
      <g>
       <use xlink:href="#m3d44fe1454" x="314.889584" y="98.139617" style="stroke: #000000; stroke-width: 0.8"/>
      </g>
     </g>
     <g id="text_10">
      <!-- FD - Poisson -->
      <g transform="translate(275.767595 134.745844) rotate(-30) scale(0.08 -0.08)">
       <defs>
        <path id="DejaVuSans-50" d="M 1259 4147 
L 1259 2394 
L 2053 2394 
Q 2494 2394 2734 2622 
Q 2975 2850 2975 3272 
Q 2975 3691 2734 3919 
Q 2494 4147 2053 4147 
L 1259 4147 
z
M 628 4666 
L 2053 4666 
Q 2838 4666 3239 4311 
Q 3641 3956 3641 3272 
Q 3641 2581 3239 2228 
Q 2838 1875 2053 1875 
L 1259 1875 
L 1259 0 
L 628 0 
L 628 4666 
z
" transform="scale(0.015625)"/>
       </defs>
       <use xlink:href="#DejaVuSans-46"/>
       <use xlink:href="#DejaVuSans-44" x="57.519531"/>
       <use xlink:href="#DejaVuSans-20" x="134.521484"/>
       <use xlink:href="#DejaVuSans-2d" x="166.308594"/>
       <use xlink:href="#DejaVuSans-20" x="202.392578"/>
       <use xlink:href="#DejaVuSans-50" x="234.179688"/>
       <use xlink:href="#DejaVuSans-6f" x="290.857422"/>
       <use xlink:href="#DejaVuSans-69" x="352.039062"/>
       <use xlink:href="#DejaVuSans-73" x="379.822266"/>
       <use xlink:href="#DejaVuSans-73" x="431.921875"/>
       <use xlink:href="#DejaVuSans-6f" x="484.021484"/>
       <use xlink:href="#DejaVuSans-6e" x="545.203125"/>
      </g>
     </g>
    </g>
    <g id="xtick_11">
     <g id="line2d_11">
      <g>
       <use xlink:href="#m3d44fe1454" x="343.288037" y="98.139617" style="stroke: #000000; stroke-width: 0.8"/>
      </g>
     </g>
     <g id="text_11">
      <!-- FD - Laplace -->
      <g transform="translate(303.357396 135.212719) rotate(-30) scale(0.08 -0.08)">
       <use xlink:href="#DejaVuSans-46"/>
       <use xlink:href="#DejaVuSans-44" x="57.519531"/>
       <use xlink:href="#DejaVuSans-20" x="134.521484"/>
       <use xlink:href="#DejaVuSans-2d" x="166.308594"/>
       <use xlink:href="#DejaVuSans-20" x="202.392578"/>
       <use xlink:href="#DejaVuSans-4c" x="234.179688"/>
       <use xlink:href="#DejaVuSans-61" x="289.892578"/>
       <use xlink:href="#DejaVuSans-70" x="351.171875"/>
       <use xlink:href="#DejaVuSans-6c" x="414.648438"/>
       <use xlink:href="#DejaVuSans-61" x="442.431641"/>
       <use xlink:href="#DejaVuSans-63" x="503.710938"/>
       <use xlink:href="#DejaVuSans-65" x="558.691406"/>
      </g>
     </g>
    </g>
    <g id="xtick_12">
     <g id="line2d_12">
      <g>
       <use xlink:href="#m3d44fe1454" x="371.686489" y="98.139617" style="stroke: #000000; stroke-width: 0.8"/>
      </g>
     </g>
     <g id="text_12">
      <!-- M-D -->
      <g transform="translate(360.913842 118.378344) rotate(-30) scale(0.08 -0.08)">
       <use xlink:href="#DejaVuSans-4d"/>
       <use xlink:href="#DejaVuSans-2d" x="86.279297"/>
       <use xlink:href="#DejaVuSans-44" x="122.363281"/>
      </g>
     </g>
    </g>
   </g>
   <g id="matplotlib.axis_2">
    <g id="ytick_1">
     <g id="line2d_13">
      <path d="M 31.97 98.139617 
L 399.02 98.139617 
" clip-path="url(#p9814e36ab6)" style="fill: none; stroke: #b0b0b0; stroke-opacity: 0.5; stroke-width: 0.5; stroke-linecap: square"/>
     </g>
     <g id="line2d_14">
      <defs>
       <path id="m2c49128927" d="M 0 0 
L -3.5 0 
" style="stroke: #000000; stroke-width: 0.8"/>
      </defs>
      <g>
       <use xlink:href="#m2c49128927" x="31.97" y="98.139617" style="stroke: #000000; stroke-width: 0.8"/>
      </g>
     </g>
     <g id="text_13">
      <!-- 0 -->
      <g transform="translate(19.88 101.178992) scale(0.08 -0.08)">
       <defs>
        <path id="DejaVuSans-30" d="M 2034 4250 
Q 1547 4250 1301 3770 
Q 1056 3291 1056 2328 
Q 1056 1369 1301 889 
Q 1547 409 2034 409 
Q 2525 409 2770 889 
Q 3016 1369 3016 2328 
Q 3016 3291 2770 3770 
Q 2525 4250 2034 4250 
z
M 2034 4750 
Q 2819 4750 3233 4129 
Q 3647 3509 3647 2328 
Q 3647 1150 3233 529 
Q 2819 -91 2034 -91 
Q 1250 -91 836 529 
Q 422 1150 422 2328 
Q 422 3509 836 4129 
Q 1250 4750 2034 4750 
z
" transform="scale(0.015625)"/>
       </defs>
       <use xlink:href="#DejaVuSans-30"/>
      </g>
     </g>
    </g>
    <g id="ytick_2">
     <g id="line2d_15">
      <path d="M 31.97 78.985071 
L 399.02 78.985071 
" clip-path="url(#p9814e36ab6)" style="fill: none; stroke: #b0b0b0; stroke-opacity: 0.5; stroke-width: 0.5; stroke-linecap: square"/>
     </g>
     <g id="line2d_16">
      <g>
       <use xlink:href="#m2c49128927" x="31.97" y="78.985071" style="stroke: #000000; stroke-width: 0.8"/>
      </g>
     </g>
     <g id="text_14">
      <!-- 2 -->
      <g transform="translate(19.88 82.024446) scale(0.08 -0.08)">
       <defs>
        <path id="DejaVuSans-32" d="M 1228 531 
L 3431 531 
L 3431 0 
L 469 0 
L 469 531 
Q 828 903 1448 1529 
Q 2069 2156 2228 2338 
Q 2531 2678 2651 2914 
Q 2772 3150 2772 3378 
Q 2772 3750 2511 3984 
Q 2250 4219 1831 4219 
Q 1534 4219 1204 4116 
Q 875 4013 500 3803 
L 500 4441 
Q 881 4594 1212 4672 
Q 1544 4750 1819 4750 
Q 2544 4750 2975 4387 
Q 3406 4025 3406 3419 
Q 3406 3131 3298 2873 
Q 3191 2616 2906 2266 
Q 2828 2175 2409 1742 
Q 1991 1309 1228 531 
z
" transform="scale(0.015625)"/>
       </defs>
       <use xlink:href="#DejaVuSans-32"/>
      </g>
     </g>
    </g>
    <g id="ytick_3">
     <g id="line2d_17">
      <path d="M 31.97 59.830525 
L 399.02 59.830525 
" clip-path="url(#p9814e36ab6)" style="fill: none; stroke: #b0b0b0; stroke-opacity: 0.5; stroke-width: 0.5; stroke-linecap: square"/>
     </g>
     <g id="line2d_18">
      <g>
       <use xlink:href="#m2c49128927" x="31.97" y="59.830525" style="stroke: #000000; stroke-width: 0.8"/>
      </g>
     </g>
     <g id="text_15">
      <!-- 4 -->
      <g transform="translate(19.88 62.8699) scale(0.08 -0.08)">
       <use xlink:href="#DejaVuSans-34"/>
      </g>
     </g>
    </g>
    <g id="ytick_4">
     <g id="line2d_19">
      <path d="M 31.97 40.675979 
L 399.02 40.675979 
" clip-path="url(#p9814e36ab6)" style="fill: none; stroke: #b0b0b0; stroke-opacity: 0.5; stroke-width: 0.5; stroke-linecap: square"/>
     </g>
     <g id="line2d_20">
      <g>
       <use xlink:href="#m2c49128927" x="31.97" y="40.675979" style="stroke: #000000; stroke-width: 0.8"/>
      </g>
     </g>
     <g id="text_16">
      <!-- 6 -->
      <g transform="translate(19.88 43.715354) scale(0.08 -0.08)">
       <defs>
        <path id="DejaVuSans-36" d="M 2113 2584 
Q 1688 2584 1439 2293 
Q 1191 2003 1191 1497 
Q 1191 994 1439 701 
Q 1688 409 2113 409 
Q 2538 409 2786 701 
Q 3034 994 3034 1497 
Q 3034 2003 2786 2293 
Q 2538 2584 2113 2584 
z
M 3366 4563 
L 3366 3988 
Q 3128 4100 2886 4159 
Q 2644 4219 2406 4219 
Q 1781 4219 1451 3797 
Q 1122 3375 1075 2522 
Q 1259 2794 1537 2939 
Q 1816 3084 2150 3084 
Q 2853 3084 3261 2657 
Q 3669 2231 3669 1497 
Q 3669 778 3244 343 
Q 2819 -91 2113 -91 
Q 1303 -91 875 529 
Q 447 1150 447 2328 
Q 447 3434 972 4092 
Q 1497 4750 2381 4750 
Q 2619 4750 2861 4703 
Q 3103 4656 3366 4563 
z
" transform="scale(0.015625)"/>
       </defs>
       <use xlink:href="#DejaVuSans-36"/>
      </g>
     </g>
    </g>
    <g id="ytick_5">
     <g id="line2d_21">
      <path d="M 31.97 21.521432 
L 399.02 21.521432 
" clip-path="url(#p9814e36ab6)" style="fill: none; stroke: #b0b0b0; stroke-opacity: 0.5; stroke-width: 0.5; stroke-linecap: square"/>
     </g>
     <g id="line2d_22">
      <g>
       <use xlink:href="#m2c49128927" x="31.97" y="21.521432" style="stroke: #000000; stroke-width: 0.8"/>
      </g>
     </g>
     <g id="text_17">
      <!-- 8 -->
      <g transform="translate(19.88 24.560807) scale(0.08 -0.08)">
       <defs>
        <path id="DejaVuSans-38" d="M 2034 2216 
Q 1584 2216 1326 1975 
Q 1069 1734 1069 1313 
Q 1069 891 1326 650 
Q 1584 409 2034 409 
Q 2484 409 2743 651 
Q 3003 894 3003 1313 
Q 3003 1734 2745 1975 
Q 2488 2216 2034 2216 
z
M 1403 2484 
Q 997 2584 770 2862 
Q 544 3141 544 3541 
Q 544 4100 942 4425 
Q 1341 4750 2034 4750 
Q 2731 4750 3128 4425 
Q 3525 4100 3525 3541 
Q 3525 3141 3298 2862 
Q 3072 2584 2669 2484 
Q 3125 2378 3379 2068 
Q 3634 1759 3634 1313 
Q 3634 634 3220 271 
Q 2806 -91 2034 -91 
Q 1263 -91 848 271 
Q 434 634 434 1313 
Q 434 1759 690 2068 
Q 947 2378 1403 2484 
z
M 1172 3481 
Q 1172 3119 1398 2916 
Q 1625 2713 2034 2713 
Q 2441 2713 2670 2916 
Q 2900 3119 2900 3481 
Q 2900 3844 2670 4047 
Q 2441 4250 2034 4250 
Q 1625 4250 1398 4047 
Q 1172 3844 1172 3481 
z
" transform="scale(0.015625)"/>
       </defs>
       <use xlink:href="#DejaVuSans-38"/>
      </g>
     </g>
    </g>
    <g id="text_18">
     <!-- Compilation time [s] -->
     <g transform="translate(14.21625 94.186059) rotate(-90) scale(0.08 -0.08)">
      <defs>
       <path id="DejaVuSans-5b" d="M 550 4863 
L 1875 4863 
L 1875 4416 
L 1125 4416 
L 1125 -397 
L 1875 -397 
L 1875 -844 
L 550 -844 
L 550 4863 
z
" transform="scale(0.015625)"/>
       <path id="DejaVuSans-5d" d="M 1947 4863 
L 1947 -844 
L 622 -844 
L 622 -397 
L 1369 -397 
L 1369 4416 
L 622 4416 
L 622 4863 
L 1947 4863 
z
" transform="scale(0.015625)"/>
      </defs>
      <use xlink:href="#DejaVuSans-43"/>
      <use xlink:href="#DejaVuSans-6f" x="69.824219"/>
      <use xlink:href="#DejaVuSans-6d" x="131.005859"/>
      <use xlink:href="#DejaVuSans-70" x="228.417969"/>
      <use xlink:href="#DejaVuSans-69" x="291.894531"/>
      <use xlink:href="#DejaVuSans-6c" x="319.677734"/>
      <use xlink:href="#DejaVuSans-61" x="347.460938"/>
      <use xlink:href="#DejaVuSans-74" x="408.740234"/>
      <use xlink:href="#DejaVuSans-69" x="447.949219"/>
      <use xlink:href="#DejaVuSans-6f" x="475.732422"/>
      <use xlink:href="#DejaVuSans-6e" x="536.914062"/>
      <use xlink:href="#DejaVuSans-20" x="600.292969"/>
      <use xlink:href="#DejaVuSans-74" x="632.080078"/>
      <use xlink:href="#DejaVuSans-69" x="671.289062"/>
      <use xlink:href="#DejaVuSans-6d" x="699.072266"/>
      <use xlink:href="#DejaVuSans-65" x="796.484375"/>
      <use xlink:href="#DejaVuSans-20" x="858.007812"/>
      <use xlink:href="#DejaVuSans-5b" x="889.794922"/>
      <use xlink:href="#DejaVuSans-73" x="928.808594"/>
      <use xlink:href="#DejaVuSans-5d" x="980.908203"/>
     </g>
    </g>
   </g>
   <g id="patch_3">
    <path d="M 48.654091 98.139617 
L 53.978801 98.139617 
L 53.978801 72.951389 
L 48.654091 72.951389 
z
" clip-path="url(#p9814e36ab6)" style="fill: #ff7f0e"/>
   </g>
   <g id="patch_4">
    <path d="M 77.052544 98.139617 
L 82.377253 98.139617 
L 82.377253 59.734752 
L 77.052544 59.734752 
z
" clip-path="url(#p9814e36ab6)" style="fill: #ff7f0e"/>
   </g>
   <g id="patch_5">
    <path d="M 105.450996 98.139617 
L 110.775706 98.139617 
L 110.775706 67.683889 
L 105.450996 67.683889 
z
" clip-path="url(#p9814e36ab6)" style="fill: #ff7f0e"/>
   </g>
   <g id="patch_6">
    <path d="M 133.849449 98.139617 
L 139.174159 98.139617 
L 139.174159 61.745979 
L 133.849449 61.745979 
z
" clip-path="url(#p9814e36ab6)" style="fill: #ff7f0e"/>
   </g>
   <g id="patch_7">
    <path d="M 162.247901 98.139617 
L 167.572611 98.139617 
L 167.572611 58.96857 
L 162.247901 58.96857 
z
" clip-path="url(#p9814e36ab6)" style="fill: #ff7f0e"/>
   </g>
   <g id="patch_8">
    <path d="M 190.646354 98.139617 
L 195.971064 98.139617 
L 195.971064 51.115206 
L 190.646354 51.115206 
z
" clip-path="url(#p9814e36ab6)" style="fill: #ff7f0e"/>
   </g>
   <g id="patch_9">
    <path d="M 219.044807 98.139617 
L 224.369516 98.139617 
L 224.369516 46.422342 
L 219.044807 46.422342 
z
" clip-path="url(#p9814e36ab6)" style="fill: #ff7f0e"/>
   </g>
   <g id="patch_10">
    <path d="M 247.443259 98.139617 
L 252.767969 98.139617 
L 252.767969 68.354298 
L 247.443259 68.354298 
z
" clip-path="url(#p9814e36ab6)" style="fill: #ff7f0e"/>
   </g>
   <g id="patch_11">
    <path d="M 275.841712 98.139617 
L 281.166422 98.139617 
L 281.166422 58.298161 
L 275.841712 58.298161 
z
" clip-path="url(#p9814e36ab6)" style="fill: #ff7f0e"/>
   </g>
   <g id="patch_12">
    <path d="M 304.240164 98.139617 
L 309.564874 98.139617 
L 309.564874 56.86157 
L 304.240164 56.86157 
z
" clip-path="url(#p9814e36ab6)" style="fill: #ff7f0e"/>
   </g>
   <g id="patch_13">
    <path d="M 332.638617 98.139617 
L 337.963327 98.139617 
L 337.963327 12.901887 
L 332.638617 12.901887 
z
" clip-path="url(#p9814e36ab6)" style="fill: #ff7f0e"/>
   </g>
   <g id="patch_14">
    <path d="M 361.03707 98.139617 
L 366.361779 98.139617 
L 366.361779 13.955387 
L 361.03707 13.955387 
z
" clip-path="url(#p9814e36ab6)" style="fill: #ff7f0e"/>
   </g>
   <g id="patch_15">
    <path d="M 53.978801 98.139617 
L 59.303511 98.139617 
L 59.303511 93.255208 
L 53.978801 93.255208 
z
" clip-path="url(#p9814e36ab6)" style="fill: #2ca02c"/>
   </g>
   <g id="patch_16">
    <path d="M 82.377253 98.139617 
L 87.701963 98.139617 
L 87.701963 83.965253 
L 82.377253 83.965253 
z
" clip-path="url(#p9814e36ab6)" style="fill: #2ca02c"/>
   </g>
   <g id="patch_17">
    <path d="M 110.775706 98.139617 
L 116.100416 98.139617 
L 116.100416 81.187844 
L 110.775706 81.187844 
z
" clip-path="url(#p9814e36ab6)" style="fill: #2ca02c"/>
   </g>
   <g id="patch_18">
    <path d="M 139.174159 98.139617 
L 144.498868 98.139617 
L 144.498868 76.016116 
L 139.174159 76.016116 
z
" clip-path="url(#p9814e36ab6)" style="fill: #2ca02c"/>
   </g>
   <g id="patch_19">
    <path d="M 167.572611 98.139617 
L 172.897321 98.139617 
L 172.897321 69.216252 
L 167.572611 69.216252 
z
" clip-path="url(#p9814e36ab6)" style="fill: #2ca02c"/>
   </g>
   <g id="patch_20">
    <path d="M 195.971064 98.139617 
L 201.295774 98.139617 
L 201.295774 67.205025 
L 195.971064 67.205025 
z
" clip-path="url(#p9814e36ab6)" style="fill: #2ca02c"/>
   </g>
   <g id="patch_21">
    <path d="M 224.369516 98.139617 
L 229.694226 98.139617 
L 229.694226 61.267116 
L 224.369516 61.267116 
z
" clip-path="url(#p9814e36ab6)" style="fill: #2ca02c"/>
   </g>
   <g id="patch_22">
    <path d="M 252.767969 98.139617 
L 258.092679 98.139617 
L 258.092679 86.551117 
L 252.767969 86.551117 
z
" clip-path="url(#p9814e36ab6)" style="fill: #2ca02c"/>
   </g>
   <g id="patch_23">
    <path d="M 281.166422 98.139617 
L 286.491132 98.139617 
L 286.491132 85.880708 
L 281.166422 85.880708 
z
" clip-path="url(#p9814e36ab6)" style="fill: #2ca02c"/>
   </g>
   <g id="patch_24">
    <path d="M 309.564874 98.139617 
L 314.889584 98.139617 
L 314.889584 80.613207 
L 309.564874 80.613207 
z
" clip-path="url(#p9814e36ab6)" style="fill: #2ca02c"/>
   </g>
   <g id="patch_25">
    <path d="M 337.963327 98.139617 
L 343.288037 98.139617 
L 343.288037 64.044525 
L 337.963327 64.044525 
z
" clip-path="url(#p9814e36ab6)" style="fill: #2ca02c"/>
   </g>
   <g id="patch_26">
    <path d="M 366.361779 98.139617 
L 371.686489 98.139617 
L 371.686489 59.638979 
L 366.361779 59.638979 
z
" clip-path="url(#p9814e36ab6)" style="fill: #2ca02c"/>
   </g>
   <g id="patch_27">
    <path d="M 59.303511 98.139617 
L 64.628221 98.139617 
L 64.628221 82.81598 
L 59.303511 82.81598 
z
" clip-path="url(#p9814e36ab6)" style="fill: #d62728"/>
   </g>
   <g id="patch_28">
    <path d="M 87.701963 98.139617 
L 93.026673 98.139617 
L 93.026673 73.430253 
L 87.701963 73.430253 
z
" clip-path="url(#p9814e36ab6)" style="fill: #d62728"/>
   </g>
   <g id="patch_29">
    <path d="M 116.100416 98.139617 
L 121.425126 98.139617 
L 121.425126 72.376752 
L 116.100416 72.376752 
z
" clip-path="url(#p9814e36ab6)" style="fill: #d62728"/>
   </g>
   <g id="patch_30">
    <path d="M 144.498868 98.139617 
L 149.823578 98.139617 
L 149.823578 73.813343 
L 144.498868 73.813343 
z
" clip-path="url(#p9814e36ab6)" style="fill: #d62728"/>
   </g>
   <g id="patch_31">
    <path d="M 172.897321 98.139617 
L 178.222031 98.139617 
L 178.222031 69.216252 
L 172.897321 69.216252 
z
" clip-path="url(#p9814e36ab6)" style="fill: #d62728"/>
   </g>
   <g id="patch_32">
    <path d="M 201.295774 98.139617 
L 206.620484 98.139617 
L 206.620484 68.833161 
L 201.295774 68.833161 
z
" clip-path="url(#p9814e36ab6)" style="fill: #d62728"/>
   </g>
   <g id="patch_33">
    <path d="M 229.694226 98.139617 
L 235.018936 98.139617 
L 235.018936 62.703707 
L 229.694226 62.703707 
z
" clip-path="url(#p9814e36ab6)" style="fill: #d62728"/>
   </g>
   <g id="patch_34">
    <path d="M 258.092679 98.139617 
L 263.417389 98.139617 
L 263.417389 73.909116 
L 258.092679 73.909116 
z
" clip-path="url(#p9814e36ab6)" style="fill: #d62728"/>
   </g>
   <g id="patch_35">
    <path d="M 286.491132 98.139617 
L 291.815841 98.139617 
L 291.815841 74.675298 
L 286.491132 74.675298 
z
" clip-path="url(#p9814e36ab6)" style="fill: #d62728"/>
   </g>
   <g id="patch_36">
    <path d="M 314.889584 98.139617 
L 320.214294 98.139617 
L 320.214294 71.514798 
L 314.889584 71.514798 
z
" clip-path="url(#p9814e36ab6)" style="fill: #d62728"/>
   </g>
   <g id="patch_37">
    <path d="M 343.288037 98.139617 
L 348.612747 98.139617 
L 348.612747 66.630389 
L 343.288037 66.630389 
z
" clip-path="url(#p9814e36ab6)" style="fill: #d62728"/>
   </g>
   <g id="patch_38">
    <path d="M 371.686489 98.139617 
L 377.011199 98.139617 
L 377.011199 61.554434 
L 371.686489 61.554434 
z
" clip-path="url(#p9814e36ab6)" style="fill: #d62728"/>
   </g>
   <g id="patch_39">
    <path d="M 64.628221 98.139617 
L 69.95293 98.139617 
L 69.95293 83.773707 
L 64.628221 83.773707 
z
" clip-path="url(#p9814e36ab6)" style="fill: #9467bd"/>
   </g>
   <g id="patch_40">
    <path d="M 93.026673 98.139617 
L 98.351383 98.139617 
L 98.351383 74.004889 
L 93.026673 74.004889 
z
" clip-path="url(#p9814e36ab6)" style="fill: #9467bd"/>
   </g>
   <g id="patch_41">
    <path d="M 121.425126 98.139617 
L 126.749836 98.139617 
L 126.749836 73.238707 
L 121.425126 73.238707 
z
" clip-path="url(#p9814e36ab6)" style="fill: #9467bd"/>
   </g>
   <g id="patch_42">
    <path d="M 149.823578 98.139617 
L 155.148288 98.139617 
L 155.148288 72.472525 
L 149.823578 72.472525 
z
" clip-path="url(#p9814e36ab6)" style="fill: #9467bd"/>
   </g>
   <g id="patch_43">
    <path d="M 178.222031 98.139617 
L 183.546741 98.139617 
L 183.546741 67.588116 
L 178.222031 67.588116 
z
" clip-path="url(#p9814e36ab6)" style="fill: #9467bd"/>
   </g>
   <g id="patch_44">
    <path d="M 206.620484 98.139617 
L 211.945193 98.139617 
L 211.945193 67.109252 
L 206.620484 67.109252 
z
" clip-path="url(#p9814e36ab6)" style="fill: #9467bd"/>
   </g>
   <g id="patch_45">
    <path d="M 235.018936 98.139617 
L 240.343646 98.139617 
L 240.343646 62.512161 
L 235.018936 62.512161 
z
" clip-path="url(#p9814e36ab6)" style="fill: #9467bd"/>
   </g>
   <g id="patch_46">
    <path d="M 263.417389 98.139617 
L 268.742099 98.139617 
L 268.742099 73.526025 
L 263.417389 73.526025 
z
" clip-path="url(#p9814e36ab6)" style="fill: #9467bd"/>
   </g>
   <g id="patch_47">
    <path d="M 291.815841 98.139617 
L 297.140551 98.139617 
L 297.140551 73.717571 
L 291.815841 73.717571 
z
" clip-path="url(#p9814e36ab6)" style="fill: #9467bd"/>
   </g>
   <g id="patch_48">
    <path d="M 320.214294 98.139617 
L 325.539004 98.139617 
L 325.539004 71.323252 
L 320.214294 71.323252 
z
" clip-path="url(#p9814e36ab6)" style="fill: #9467bd"/>
   </g>
   <g id="patch_49">
    <path d="M 348.612747 98.139617 
L 353.937456 98.139617 
L 353.937456 66.438843 
L 348.612747 66.438843 
z
" clip-path="url(#p9814e36ab6)" style="fill: #9467bd"/>
   </g>
   <g id="patch_50">
    <path d="M 377.011199 98.139617 
L 382.335909 98.139617 
L 382.335909 63.469888 
L 377.011199 63.469888 
z
" clip-path="url(#p9814e36ab6)" style="fill: #9467bd"/>
   </g>
   <g id="patch_51">
    <path d="M 31.97 98.139617 
L 31.97 8.64 
" style="fill: none; stroke: #000000; stroke-width: 0.8; stroke-linejoin: miter; stroke-linecap: square"/>
   </g>
   <g id="patch_52">
    <path d="M 399.02 98.139617 
L 399.02 8.64 
" style="fill: none; stroke: #000000; stroke-width: 0.8; stroke-linejoin: miter; stroke-linecap: square"/>
   </g>
   <g id="patch_53">
    <path d="M 31.97 98.139617 
L 399.02 98.139617 
" style="fill: none; stroke: #000000; stroke-width: 0.8; stroke-linejoin: miter; stroke-linecap: square"/>
   </g>
   <g id="patch_54">
    <path d="M 31.97 8.64 
L 399.02 8.64 
" style="fill: none; stroke: #000000; stroke-width: 0.8; stroke-linejoin: miter; stroke-linecap: square"/>
   </g>
   <g id="legend_1">
    <g id="patch_55">
     <path d="M 404.62 78.074809 
L 493.39875 78.074809 
Q 494.99875 78.074809 494.99875 76.474809 
L 494.99875 30.304809 
Q 494.99875 28.704809 493.39875 28.704809 
L 404.62 28.704809 
Q 403.02 28.704809 403.02 30.304809 
L 403.02 76.474809 
Q 403.02 78.074809 404.62 78.074809 
z
" style="fill: #ffffff; opacity: 0.8; stroke: #cccccc; stroke-linejoin: miter"/>
    </g>
    <g id="patch_56">
     <path d="M 406.22 37.983559 
L 422.22 37.983559 
L 422.22 32.383559 
L 406.22 32.383559 
z
" style="fill: #ff7f0e"/>
    </g>
    <g id="text_19">
     <!-- Pythran -->
     <g transform="translate(428.62 37.983559) scale(0.08 -0.08)">
      <defs>
       <path id="DejaVuSans-79" d="M 2059 -325 
Q 1816 -950 1584 -1140 
Q 1353 -1331 966 -1331 
L 506 -1331 
L 506 -850 
L 844 -850 
Q 1081 -850 1212 -737 
Q 1344 -625 1503 -206 
L 1606 56 
L 191 3500 
L 800 3500 
L 1894 763 
L 2988 3500 
L 3597 3500 
L 2059 -325 
z
" transform="scale(0.015625)"/>
       <path id="DejaVuSans-68" d="M 3513 2113 
L 3513 0 
L 2938 0 
L 2938 2094 
Q 2938 2591 2744 2837 
Q 2550 3084 2163 3084 
Q 1697 3084 1428 2787 
Q 1159 2491 1159 1978 
L 1159 0 
L 581 0 
L 581 4863 
L 1159 4863 
L 1159 2956 
Q 1366 3272 1645 3428 
Q 1925 3584 2291 3584 
Q 2894 3584 3203 3211 
Q 3513 2838 3513 2113 
z
" transform="scale(0.015625)"/>
      </defs>
      <use xlink:href="#DejaVuSans-50"/>
      <use xlink:href="#DejaVuSans-79" x="60.302734"/>
      <use xlink:href="#DejaVuSans-74" x="119.482422"/>
      <use xlink:href="#DejaVuSans-68" x="158.691406"/>
      <use xlink:href="#DejaVuSans-72" x="222.070312"/>
      <use xlink:href="#DejaVuSans-61" x="263.183594"/>
      <use xlink:href="#DejaVuSans-6e" x="324.462891"/>
     </g>
    </g>
    <g id="patch_57">
     <path d="M 406.22 49.726059 
L 422.22 49.726059 
L 422.22 44.126059 
L 406.22 44.126059 
z
" style="fill: #2ca02c"/>
    </g>
    <g id="text_20">
     <!-- Numba -->
     <g transform="translate(428.62 49.726059) scale(0.08 -0.08)">
      <defs>
       <path id="DejaVuSans-62" d="M 3116 1747 
Q 3116 2381 2855 2742 
Q 2594 3103 2138 3103 
Q 1681 3103 1420 2742 
Q 1159 2381 1159 1747 
Q 1159 1113 1420 752 
Q 1681 391 2138 391 
Q 2594 391 2855 752 
Q 3116 1113 3116 1747 
z
M 1159 2969 
Q 1341 3281 1617 3432 
Q 1894 3584 2278 3584 
Q 2916 3584 3314 3078 
Q 3713 2572 3713 1747 
Q 3713 922 3314 415 
Q 2916 -91 2278 -91 
Q 1894 -91 1617 61 
Q 1341 213 1159 525 
L 1159 0 
L 581 0 
L 581 4863 
L 1159 4863 
L 1159 2969 
z
" transform="scale(0.015625)"/>
      </defs>
      <use xlink:href="#DejaVuSans-4e"/>
      <use xlink:href="#DejaVuSans-75" x="74.804688"/>
      <use xlink:href="#DejaVuSans-6d" x="138.183594"/>
      <use xlink:href="#DejaVuSans-62" x="235.595703"/>
      <use xlink:href="#DejaVuSans-61" x="299.072266"/>
     </g>
    </g>
    <g id="patch_58">
     <path d="M 406.22 61.468559 
L 422.22 61.468559 
L 422.22 55.868559 
L 406.22 55.868559 
z
" style="fill: #d62728"/>
    </g>
    <g id="text_21">
     <!-- Pyccel (Fortran) -->
     <g transform="translate(428.62 61.468559) scale(0.08 -0.08)">
      <defs>
       <path id="DejaVuSans-28" d="M 1984 4856 
Q 1566 4138 1362 3434 
Q 1159 2731 1159 2009 
Q 1159 1288 1364 580 
Q 1569 -128 1984 -844 
L 1484 -844 
Q 1016 -109 783 600 
Q 550 1309 550 2009 
Q 550 2706 781 3412 
Q 1013 4119 1484 4856 
L 1984 4856 
z
" transform="scale(0.015625)"/>
       <path id="DejaVuSans-29" d="M 513 4856 
L 1013 4856 
Q 1481 4119 1714 3412 
Q 1947 2706 1947 2009 
Q 1947 1309 1714 600 
Q 1481 -109 1013 -844 
L 513 -844 
Q 928 -128 1133 580 
Q 1338 1288 1338 2009 
Q 1338 2731 1133 3434 
Q 928 4138 513 4856 
z
" transform="scale(0.015625)"/>
      </defs>
      <use xlink:href="#DejaVuSans-50"/>
      <use xlink:href="#DejaVuSans-79" x="60.302734"/>
      <use xlink:href="#DejaVuSans-63" x="119.482422"/>
      <use xlink:href="#DejaVuSans-63" x="174.462891"/>
      <use xlink:href="#DejaVuSans-65" x="229.443359"/>
      <use xlink:href="#DejaVuSans-6c" x="290.966797"/>
      <use xlink:href="#DejaVuSans-20" x="318.75"/>
      <use xlink:href="#DejaVuSans-28" x="350.537109"/>
      <use xlink:href="#DejaVuSans-46" x="389.550781"/>
      <use xlink:href="#DejaVuSans-6f" x="443.445312"/>
      <use xlink:href="#DejaVuSans-72" x="504.626953"/>
      <use xlink:href="#DejaVuSans-74" x="545.740234"/>
      <use xlink:href="#DejaVuSans-72" x="584.949219"/>
      <use xlink:href="#DejaVuSans-61" x="626.0625"/>
      <use xlink:href="#DejaVuSans-6e" x="687.341797"/>
      <use xlink:href="#DejaVuSans-29" x="750.720703"/>
     </g>
    </g>
    <g id="patch_59">
     <path d="M 406.22 73.211059 
L 422.22 73.211059 
L 422.22 67.611059 
L 406.22 67.611059 
z
" style="fill: #9467bd"/>
    </g>
    <g id="text_22">
     <!-- Pyccel (C) -->
     <g transform="translate(428.62 73.211059) scale(0.08 -0.08)">
      <use xlink:href="#DejaVuSans-50"/>
      <use xlink:href="#DejaVuSans-79" x="60.302734"/>
      <use xlink:href="#DejaVuSans-63" x="119.482422"/>
      <use xlink:href="#DejaVuSans-63" x="174.462891"/>
      <use xlink:href="#DejaVuSans-65" x="229.443359"/>
      <use xlink:href="#DejaVuSans-6c" x="290.966797"/>
      <use xlink:href="#DejaVuSans-20" x="318.75"/>
      <use xlink:href="#DejaVuSans-28" x="350.537109"/>
      <use xlink:href="#DejaVuSans-43" x="389.550781"/>
      <use xlink:href="#DejaVuSans-29" x="459.375"/>
     </g>
    </g>
   </g>
  </g>
 </g>
 <defs>
  <clipPath id="p9814e36ab6">
   <rect x="31.97" y="8.64" width="367.05" height="89.499617"/>
  </clipPath>
 </defs>
</svg>
