<?xml version="1.0" encoding="utf-8" standalone="no"?>
<!DOCTYPE svg PUBLIC "-//W3C//DTD SVG 1.1//EN"
  "http://www.w3.org/Graphics/SVG/1.1/DTD/svg11.dtd">
<svg xmlns:xlink="http://www.w3.org/1999/xlink" width="504pt" height="158.4pt" viewBox="0 0 504 158.4" xmlns="http://www.w3.org/2000/svg" version="1.1">
 <metadata>
  <rdf:RDF xmlns:dc="http://purl.org/dc/elements/1.1/" xmlns:cc="http://creativecommons.org/ns#" xmlns:rdf="http://www.w3.org/1999/02/22-rdf-syntax-ns#">
   <cc:Work>
    <dc:type rdf:resource="http://purl.org/dc/dcmitype/StillImage"/>
    <dc:date>2025-12-26T11:10:49.006960</dc:date>
    <dc:format>image/svg+xml</dc:format>
    <dc:creator>
     <cc:Agent>
      <dc:title>Matplotlib v3.10.8, https://matplotlib.org/</dc:title>
     </cc:Agent>
    </dc:creator>
   </cc:Work>
  </rdf:RDF>
 </metadata>
 <defs>
  <style type="text/css">*{stroke-linejoin: round; stroke-linecap: butt}</style>
 </defs>
 <g id="figure_1">
  <g id="patch_1">
   <path d="M 0 158.4 
L 504 158.4 
L 504 0 
L 0 0 
z
" style="fill: #ffffff"/>
  </g>
  <g id="axes_1">
   <g id="patch_2">
    <path d="M 41.698012 98.139617 
L 383.27 98.139617 
L 383.27 8.64 
L 41.698012 8.64 
z
" style="fill: #ffffff"/>
   </g>
   <g id="matplotlib.axis_1">
    <g id="xtick_1">
     <g id="line2d_1">
      <defs>
       <path id="m37b9a1991d" d="M 0 0 
L 0 3.5 
" style="stroke: #000000; stroke-width: 0.8"/>
      </defs>
      <g>
       <use xlink:href="#m37b9a1991d" x="61.824308" y="98.139617" style="stroke: #000000; stroke-width: 0.8"/>
      </g>
     </g>
     <g id="text_1">
      <!-- Ackermann -->
      <g transform="translate(25.90986 132.893969) rotate(-30) scale(0.08 -0.08)">
       <defs>
        <path id="DejaVuSans-41" d="M 2188 4044 
L 1331 1722 
L 3047 1722 
L 2188 4044 
z
M 1831 4666 
L 2547 4666 
L 4325 0 
L 3669 0 
L 3244 1197 
L 1141 1197 
L 716 0 
L 50 0 
L 1831 4666 
z
" transform="scale(0.015625)"/>
        <path id="DejaVuSans-63" d="M 3122 3366 
L 3122 2828 
Q 2878 2963 2633 3030 
Q 2388 3097 2138 3097 
Q 1578 3097 1268 2742 
Q 959 2388 959 1747 
Q 959 1106 1268 751 
Q 1578 397 2138 397 
Q 2388 397 2633 464 
Q 2878 531 3122 666 
L 3122 134 
Q 2881 22 2623 -34 
Q 2366 -91 2075 -91 
Q 1284 -91 818 406 
Q 353 903 353 1747 
Q 353 2603 823 3093 
Q 1294 3584 2113 3584 
Q 2378 3584 2631 3529 
Q 2884 3475 3122 3366 
z
" transform="scale(0.015625)"/>
        <path id="DejaVuSans-6b" d="M 581 4863 
L 1159 4863 
L 1159 1991 
L 2875 3500 
L 3609 3500 
L 1753 1863 
L 3688 0 
L 2938 0 
L 1159 1709 
L 1159 0 
L 581 0 
L 581 4863 
z
" transform="scale(0.015625)"/>
        <path id="DejaVuSans-65" d="M 3597 1894 
L 3597 1613 
L 953 1613 
Q 991 1019 1311 708 
Q 1631 397 2203 397 
Q 2534 397 2845 478 
Q 3156 559 3463 722 
L 3463 178 
Q 3153 47 2828 -22 
Q 2503 -91 2169 -91 
Q 1331 -91 842 396 
Q 353 884 353 1716 
Q 353 2575 817 3079 
Q 1281 3584 2069 3584 
Q 2775 3584 3186 3129 
Q 3597 2675 3597 1894 
z
M 3022 2063 
Q 3016 2534 2758 2815 
Q 2500 3097 2075 3097 
Q 1594 3097 1305 2825 
Q 1016 2553 972 2059 
L 3022 2063 
z
" transform="scale(0.015625)"/>
        <path id="DejaVuSans-72" d="M 2631 2963 
Q 2534 3019 2420 3045 
Q 2306 3072 2169 3072 
Q 1681 3072 1420 2755 
Q 1159 2438 1159 1844 
L 1159 0 
L 581 0 
L 581 3500 
L 1159 3500 
L 1159 2956 
Q 1341 3275 1631 3429 
Q 1922 3584 2338 3584 
Q 2397 3584 2469 3576 
Q 2541 3569 2628 3553 
L 2631 2963 
z
" transform="scale(0.015625)"/>
        <path id="DejaVuSans-6d" d="M 3328 2828 
Q 3544 3216 3844 3400 
Q 4144 3584 4550 3584 
Q 5097 3584 5394 3201 
Q 5691 2819 5691 2113 
L 5691 0 
L 5113 0 
L 5113 2094 
Q 5113 2597 4934 2840 
Q 4756 3084 4391 3084 
Q 3944 3084 3684 2787 
Q 3425 2491 3425 1978 
L 3425 0 
L 2847 0 
L 2847 2094 
Q 2847 2600 2669 2842 
Q 2491 3084 2119 3084 
Q 1678 3084 1418 2786 
Q 1159 2488 1159 1978 
L 1159 0 
L 581 0 
L 581 3500 
L 1159 3500 
L 1159 2956 
Q 1356 3278 1631 3431 
Q 1906 3584 2284 3584 
Q 2666 3584 2933 3390 
Q 3200 3197 3328 2828 
z
" transform="scale(0.015625)"/>
        <path id="DejaVuSans-61" d="M 2194 1759 
Q 1497 1759 1228 1600 
Q 959 1441 959 1056 
Q 959 750 1161 570 
Q 1363 391 1709 391 
Q 2188 391 2477 730 
Q 2766 1069 2766 1631 
L 2766 1759 
L 2194 1759 
z
M 3341 1997 
L 3341 0 
L 2766 0 
L 2766 531 
Q 2569 213 2275 61 
Q 1981 -91 1556 -91 
Q 1019 -91 701 211 
Q 384 513 384 1019 
Q 384 1609 779 1909 
Q 1175 2209 1959 2209 
L 2766 2209 
L 2766 2266 
Q 2766 2663 2505 2880 
Q 2244 3097 1772 3097 
Q 1472 3097 1187 3025 
Q 903 2953 641 2809 
L 641 3341 
Q 956 3463 1253 3523 
Q 1550 3584 1831 3584 
Q 2591 3584 2966 3190 
Q 3341 2797 3341 1997 
z
" transform="scale(0.015625)"/>
        <path id="DejaVuSans-6e" d="M 3513 2113 
L 3513 0 
L 2938 0 
L 2938 2094 
Q 2938 2591 2744 2837 
Q 2550 3084 2163 3084 
Q 1697 3084 1428 2787 
Q 1159 2491 1159 1978 
L 1159 0 
L 581 0 
L 581 3500 
L 1159 3500 
L 1159 2956 
Q 1366 3272 1645 3428 
Q 1925 3584 2291 3584 
Q 2894 3584 3203 3211 
Q 3513 2838 3513 2113 
z
" transform="scale(0.015625)"/>
       </defs>
       <use xlink:href="#DejaVuSans-41"/>
       <use xlink:href="#DejaVuSans-63" transform="translate(66.658203 0)"/>
       <use xlink:href="#DejaVuSans-6b" transform="translate(121.638672 0)"/>
       <use xlink:href="#DejaVuSans-65" transform="translate(175.923828 0)"/>
       <use xlink:href="#DejaVuSans-72" transform="translate(237.447266 0)"/>
       <use xlink:href="#DejaVuSans-6d" transform="translate(276.810547 0)"/>
       <use xlink:href="#DejaVuSans-61" transform="translate(374.222656 0)"/>
       <use xlink:href="#DejaVuSans-6e" transform="translate(435.501953 0)"/>
       <use xlink:href="#DejaVuSans-6e" transform="translate(498.880859 0)"/>
      </g>
     </g>
    </g>
    <g id="xtick_2">
     <g id="line2d_2">
      <g>
       <use xlink:href="#m37b9a1991d" x="86.35922" y="98.139617" style="stroke: #000000; stroke-width: 0.8"/>
      </g>
     </g>
     <g id="text_2">
      <!-- Bellman Ford -->
      <g transform="translate(43.847824 136.702719) rotate(-30) scale(0.08 -0.08)">
       <defs>
        <path id="DejaVuSans-42" d="M 1259 2228 
L 1259 519 
L 2272 519 
Q 2781 519 3026 730 
Q 3272 941 3272 1375 
Q 3272 1813 3026 2020 
Q 2781 2228 2272 2228 
L 1259 2228 
z
M 1259 4147 
L 1259 2741 
L 2194 2741 
Q 2656 2741 2882 2914 
Q 3109 3088 3109 3444 
Q 3109 3797 2882 3972 
Q 2656 4147 2194 4147 
L 1259 4147 
z
M 628 4666 
L 2241 4666 
Q 2963 4666 3353 4366 
Q 3744 4066 3744 3513 
Q 3744 3084 3544 2831 
Q 3344 2578 2956 2516 
Q 3422 2416 3680 2098 
Q 3938 1781 3938 1306 
Q 3938 681 3513 340 
Q 3088 0 2303 0 
L 628 0 
L 628 4666 
z
" transform="scale(0.015625)"/>
        <path id="DejaVuSans-6c" d="M 603 4863 
L 1178 4863 
L 1178 0 
L 603 0 
L 603 4863 
z
" transform="scale(0.015625)"/>
        <path id="DejaVuSans-20" transform="scale(0.015625)"/>
        <path id="DejaVuSans-46" d="M 628 4666 
L 3309 4666 
L 3309 4134 
L 1259 4134 
L 1259 2759 
L 3109 2759 
L 3109 2228 
L 1259 2228 
L 1259 0 
L 628 0 
L 628 4666 
z
" transform="scale(0.015625)"/>
        <path id="DejaVuSans-6f" d="M 1959 3097 
Q 1497 3097 1228 2736 
Q 959 2375 959 1747 
Q 959 1119 1226 758 
Q 1494 397 1959 397 
Q 2419 397 2687 759 
Q 2956 1122 2956 1747 
Q 2956 2369 2687 2733 
Q 2419 3097 1959 3097 
z
M 1959 3584 
Q 2709 3584 3137 3096 
Q 3566 2609 3566 1747 
Q 3566 888 3137 398 
Q 2709 -91 1959 -91 
Q 1206 -91 779 398 
Q 353 888 353 1747 
Q 353 2609 779 3096 
Q 1206 3584 1959 3584 
z
" transform="scale(0.015625)"/>
        <path id="DejaVuSans-64" d="M 2906 2969 
L 2906 4863 
L 3481 4863 
L 3481 0 
L 2906 0 
L 2906 525 
Q 2725 213 2448 61 
Q 2172 -91 1784 -91 
Q 1150 -91 751 415 
Q 353 922 353 1747 
Q 353 2572 751 3078 
Q 1150 3584 1784 3584 
Q 2172 3584 2448 3432 
Q 2725 3281 2906 2969 
z
M 947 1747 
Q 947 1113 1208 752 
Q 1469 391 1925 391 
Q 2381 391 2643 752 
Q 2906 1113 2906 1747 
Q 2906 2381 2643 2742 
Q 2381 3103 1925 3103 
Q 1469 3103 1208 2742 
Q 947 2381 947 1747 
z
" transform="scale(0.015625)"/>
       </defs>
       <use xlink:href="#DejaVuSans-42"/>
       <use xlink:href="#DejaVuSans-65" transform="translate(68.603516 0)"/>
       <use xlink:href="#DejaVuSans-6c" transform="translate(130.126953 0)"/>
       <use xlink:href="#DejaVuSans-6c" transform="translate(157.910156 0)"/>
       <use xlink:href="#DejaVuSans-6d" transform="translate(185.693359 0)"/>
       <use xlink:href="#DejaVuSans-61" transform="translate(283.105469 0)"/>
       <use xlink:href="#DejaVuSans-6e" transform="translate(344.384766 0)"/>
       <use xlink:href="#DejaVuSans-20" transform="translate(407.763672 0)"/>
       <use xlink:href="#DejaVuSans-46" transform="translate(439.550781 0)"/>
       <use xlink:href="#DejaVuSans-6f" transform="translate(493.445312 0)"/>
       <use xlink:href="#DejaVuSans-72" transform="translate(554.626953 0)"/>
       <use xlink:href="#DejaVuSans-64" transform="translate(593.990234 0)"/>
      </g>
     </g>
    </g>
    <g id="xtick_3">
     <g id="line2d_3">
      <g>
       <use xlink:href="#m37b9a1991d" x="110.894133" y="98.139617" style="stroke: #000000; stroke-width: 0.8"/>
      </g>
     </g>
     <g id="text_3">
      <!-- Dijkstra -->
      <g transform="translate(87.318382 125.770219) rotate(-30) scale(0.08 -0.08)">
       <defs>
        <path id="DejaVuSans-44" d="M 1259 4147 
L 1259 519 
L 2022 519 
Q 2988 519 3436 956 
Q 3884 1394 3884 2338 
Q 3884 3275 3436 3711 
Q 2988 4147 2022 4147 
L 1259 4147 
z
M 628 4666 
L 1925 4666 
Q 3281 4666 3915 4102 
Q 4550 3538 4550 2338 
Q 4550 1131 3912 565 
Q 3275 0 1925 0 
L 628 0 
L 628 4666 
z
" transform="scale(0.015625)"/>
        <path id="DejaVuSans-69" d="M 603 3500 
L 1178 3500 
L 1178 0 
L 603 0 
L 603 3500 
z
M 603 4863 
L 1178 4863 
L 1178 4134 
L 603 4134 
L 603 4863 
z
" transform="scale(0.015625)"/>
        <path id="DejaVuSans-6a" d="M 603 3500 
L 1178 3500 
L 1178 -63 
Q 1178 -731 923 -1031 
Q 669 -1331 103 -1331 
L -116 -1331 
L -116 -844 
L 38 -844 
Q 366 -844 484 -692 
Q 603 -541 603 -63 
L 603 3500 
z
M 603 4863 
L 1178 4863 
L 1178 4134 
L 603 4134 
L 603 4863 
z
" transform="scale(0.015625)"/>
        <path id="DejaVuSans-73" d="M 2834 3397 
L 2834 2853 
Q 2591 2978 2328 3040 
Q 2066 3103 1784 3103 
Q 1356 3103 1142 2972 
Q 928 2841 928 2578 
Q 928 2378 1081 2264 
Q 1234 2150 1697 2047 
L 1894 2003 
Q 2506 1872 2764 1633 
Q 3022 1394 3022 966 
Q 3022 478 2636 193 
Q 2250 -91 1575 -91 
Q 1294 -91 989 -36 
Q 684 19 347 128 
L 347 722 
Q 666 556 975 473 
Q 1284 391 1588 391 
Q 1994 391 2212 530 
Q 2431 669 2431 922 
Q 2431 1156 2273 1281 
Q 2116 1406 1581 1522 
L 1381 1569 
Q 847 1681 609 1914 
Q 372 2147 372 2553 
Q 372 3047 722 3315 
Q 1072 3584 1716 3584 
Q 2034 3584 2315 3537 
Q 2597 3491 2834 3397 
z
" transform="scale(0.015625)"/>
        <path id="DejaVuSans-74" d="M 1172 4494 
L 1172 3500 
L 2356 3500 
L 2356 3053 
L 1172 3053 
L 1172 1153 
Q 1172 725 1289 603 
Q 1406 481 1766 481 
L 2356 481 
L 2356 0 
L 1766 0 
Q 1100 0 847 248 
Q 594 497 594 1153 
L 594 3053 
L 172 3053 
L 172 3500 
L 594 3500 
L 594 4494 
L 1172 4494 
z
" transform="scale(0.015625)"/>
       </defs>
       <use xlink:href="#DejaVuSans-44"/>
       <use xlink:href="#DejaVuSans-69" transform="translate(77.001953 0)"/>
       <use xlink:href="#DejaVuSans-6a" transform="translate(104.785156 0)"/>
       <use xlink:href="#DejaVuSans-6b" transform="translate(132.568359 0)"/>
       <use xlink:href="#DejaVuSans-73" transform="translate(190.478516 0)"/>
       <use xlink:href="#DejaVuSans-74" transform="translate(242.578125 0)"/>
       <use xlink:href="#DejaVuSans-72" transform="translate(281.787109 0)"/>
       <use xlink:href="#DejaVuSans-61" transform="translate(322.900391 0)"/>
      </g>
     </g>
    </g>
    <g id="xtick_4">
     <g id="line2d_4">
      <g>
       <use xlink:href="#m37b9a1991d" x="135.429046" y="98.139617" style="stroke: #000000; stroke-width: 0.8"/>
      </g>
     </g>
     <g id="text_4">
      <!-- Euler -->
      <g transform="translate(120.664021 120.683344) rotate(-30) scale(0.08 -0.08)">
       <defs>
        <path id="DejaVuSans-45" d="M 628 4666 
L 3578 4666 
L 3578 4134 
L 1259 4134 
L 1259 2753 
L 3481 2753 
L 3481 2222 
L 1259 2222 
L 1259 531 
L 3634 531 
L 3634 0 
L 628 0 
L 628 4666 
z
" transform="scale(0.015625)"/>
        <path id="DejaVuSans-75" d="M 544 1381 
L 544 3500 
L 1119 3500 
L 1119 1403 
Q 1119 906 1312 657 
Q 1506 409 1894 409 
Q 2359 409 2629 706 
Q 2900 1003 2900 1516 
L 2900 3500 
L 3475 3500 
L 3475 0 
L 2900 0 
L 2900 538 
Q 2691 219 2414 64 
Q 2138 -91 1772 -91 
Q 1169 -91 856 284 
Q 544 659 544 1381 
z
M 1991 3584 
L 1991 3584 
z
" transform="scale(0.015625)"/>
       </defs>
       <use xlink:href="#DejaVuSans-45"/>
       <use xlink:href="#DejaVuSans-75" transform="translate(63.183594 0)"/>
       <use xlink:href="#DejaVuSans-6c" transform="translate(126.5625 0)"/>
       <use xlink:href="#DejaVuSans-65" transform="translate(154.345703 0)"/>
       <use xlink:href="#DejaVuSans-72" transform="translate(215.869141 0)"/>
      </g>
     </g>
    </g>
    <g id="xtick_5">
     <g id="line2d_5">
      <g>
       <use xlink:href="#m37b9a1991d" x="159.963959" y="98.139617" style="stroke: #000000; stroke-width: 0.8"/>
      </g>
     </g>
     <g id="text_5">
      <!-- Midpoint Explicit -->
      <g transform="translate(105.655131 143.513969) rotate(-30) scale(0.08 -0.08)">
       <defs>
        <path id="DejaVuSans-4d" d="M 628 4666 
L 1569 4666 
L 2759 1491 
L 3956 4666 
L 4897 4666 
L 4897 0 
L 4281 0 
L 4281 4097 
L 3078 897 
L 2444 897 
L 1241 4097 
L 1241 0 
L 628 0 
L 628 4666 
z
" transform="scale(0.015625)"/>
        <path id="DejaVuSans-70" d="M 1159 525 
L 1159 -1331 
L 581 -1331 
L 581 3500 
L 1159 3500 
L 1159 2969 
Q 1341 3281 1617 3432 
Q 1894 3584 2278 3584 
Q 2916 3584 3314 3078 
Q 3713 2572 3713 1747 
Q 3713 922 3314 415 
Q 2916 -91 2278 -91 
Q 1894 -91 1617 61 
Q 1341 213 1159 525 
z
M 3116 1747 
Q 3116 2381 2855 2742 
Q 2594 3103 2138 3103 
Q 1681 3103 1420 2742 
Q 1159 2381 1159 1747 
Q 1159 1113 1420 752 
Q 1681 391 2138 391 
Q 2594 391 2855 752 
Q 3116 1113 3116 1747 
z
" transform="scale(0.015625)"/>
        <path id="DejaVuSans-78" d="M 3513 3500 
L 2247 1797 
L 3578 0 
L 2900 0 
L 1881 1375 
L 863 0 
L 184 0 
L 1544 1831 
L 300 3500 
L 978 3500 
L 1906 2253 
L 2834 3500 
L 3513 3500 
z
" transform="scale(0.015625)"/>
       </defs>
       <use xlink:href="#DejaVuSans-4d"/>
       <use xlink:href="#DejaVuSans-69" transform="translate(86.279297 0)"/>
       <use xlink:href="#DejaVuSans-64" transform="translate(114.0625 0)"/>
       <use xlink:href="#DejaVuSans-70" transform="translate(177.539062 0)"/>
       <use xlink:href="#DejaVuSans-6f" transform="translate(241.015625 0)"/>
       <use xlink:href="#DejaVuSans-69" transform="translate(302.197266 0)"/>
       <use xlink:href="#DejaVuSans-6e" transform="translate(329.980469 0)"/>
       <use xlink:href="#DejaVuSans-74" transform="translate(393.359375 0)"/>
       <use xlink:href="#DejaVuSans-20" transform="translate(432.568359 0)"/>
       <use xlink:href="#DejaVuSans-45" transform="translate(464.355469 0)"/>
       <use xlink:href="#DejaVuSans-78" transform="translate(527.539062 0)"/>
       <use xlink:href="#DejaVuSans-70" transform="translate(586.71875 0)"/>
       <use xlink:href="#DejaVuSans-6c" transform="translate(650.195312 0)"/>
       <use xlink:href="#DejaVuSans-69" transform="translate(677.978516 0)"/>
       <use xlink:href="#DejaVuSans-63" transform="translate(705.761719 0)"/>
       <use xlink:href="#DejaVuSans-69" transform="translate(760.742188 0)"/>
       <use xlink:href="#DejaVuSans-74" transform="translate(788.525391 0)"/>
      </g>
     </g>
    </g>
    <g id="xtick_6">
     <g id="line2d_6">
      <g>
       <use xlink:href="#m37b9a1991d" x="184.498871" y="98.139617" style="stroke: #000000; stroke-width: 0.8"/>
      </g>
     </g>
     <g id="text_6">
      <!-- Midpoint Fixed -->
      <g transform="translate(137.413778 139.343344) rotate(-30) scale(0.08 -0.08)">
       <use xlink:href="#DejaVuSans-4d"/>
       <use xlink:href="#DejaVuSans-69" transform="translate(86.279297 0)"/>
       <use xlink:href="#DejaVuSans-64" transform="translate(114.0625 0)"/>
       <use xlink:href="#DejaVuSans-70" transform="translate(177.539062 0)"/>
       <use xlink:href="#DejaVuSans-6f" transform="translate(241.015625 0)"/>
       <use xlink:href="#DejaVuSans-69" transform="translate(302.197266 0)"/>
       <use xlink:href="#DejaVuSans-6e" transform="translate(329.980469 0)"/>
       <use xlink:href="#DejaVuSans-74" transform="translate(393.359375 0)"/>
       <use xlink:href="#DejaVuSans-20" transform="translate(432.568359 0)"/>
       <use xlink:href="#DejaVuSans-46" transform="translate(464.355469 0)"/>
       <use xlink:href="#DejaVuSans-69" transform="translate(514.625 0)"/>
       <use xlink:href="#DejaVuSans-78" transform="translate(542.408203 0)"/>
       <use xlink:href="#DejaVuSans-65" transform="translate(598.462891 0)"/>
       <use xlink:href="#DejaVuSans-64" transform="translate(659.986328 0)"/>
      </g>
     </g>
    </g>
    <g id="xtick_7">
     <g id="line2d_7">
      <g>
       <use xlink:href="#m37b9a1991d" x="209.033784" y="98.139617" style="stroke: #000000; stroke-width: 0.8"/>
      </g>
     </g>
     <g id="text_7">
      <!-- RK4 -->
      <g transform="translate(198.307685 118.351469) rotate(-30) scale(0.08 -0.08)">
       <defs>
        <path id="DejaVuSans-52" d="M 2841 2188 
Q 3044 2119 3236 1894 
Q 3428 1669 3622 1275 
L 4263 0 
L 3584 0 
L 2988 1197 
Q 2756 1666 2539 1819 
Q 2322 1972 1947 1972 
L 1259 1972 
L 1259 0 
L 628 0 
L 628 4666 
L 2053 4666 
Q 2853 4666 3247 4331 
Q 3641 3997 3641 3322 
Q 3641 2881 3436 2590 
Q 3231 2300 2841 2188 
z
M 1259 4147 
L 1259 2491 
L 2053 2491 
Q 2509 2491 2742 2702 
Q 2975 2913 2975 3322 
Q 2975 3731 2742 3939 
Q 2509 4147 2053 4147 
L 1259 4147 
z
" transform="scale(0.015625)"/>
        <path id="DejaVuSans-4b" d="M 628 4666 
L 1259 4666 
L 1259 2694 
L 3353 4666 
L 4166 4666 
L 1850 2491 
L 4331 0 
L 3500 0 
L 1259 2247 
L 1259 0 
L 628 0 
L 628 4666 
z
" transform="scale(0.015625)"/>
        <path id="DejaVuSans-34" d="M 2419 4116 
L 825 1625 
L 2419 1625 
L 2419 4116 
z
M 2253 4666 
L 3047 4666 
L 3047 1625 
L 3713 1625 
L 3713 1100 
L 3047 1100 
L 3047 0 
L 2419 0 
L 2419 1100 
L 313 1100 
L 313 1709 
L 2253 4666 
z
" transform="scale(0.015625)"/>
       </defs>
       <use xlink:href="#DejaVuSans-52"/>
       <use xlink:href="#DejaVuSans-4b" transform="translate(69.482422 0)"/>
       <use xlink:href="#DejaVuSans-34" transform="translate(135.058594 0)"/>
      </g>
     </g>
    </g>
    <g id="xtick_8">
     <g id="line2d_8">
      <g>
       <use xlink:href="#m37b9a1991d" x="233.568697" y="98.139617" style="stroke: #000000; stroke-width: 0.8"/>
      </g>
     </g>
     <g id="text_8">
      <!-- FD - L Convection -->
      <g transform="translate(175.411469 145.735844) rotate(-30) scale(0.08 -0.08)">
       <defs>
        <path id="DejaVuSans-2d" d="M 313 2009 
L 1997 2009 
L 1997 1497 
L 313 1497 
L 313 2009 
z
" transform="scale(0.015625)"/>
        <path id="DejaVuSans-4c" d="M 628 4666 
L 1259 4666 
L 1259 531 
L 3531 531 
L 3531 0 
L 628 0 
L 628 4666 
z
" transform="scale(0.015625)"/>
        <path id="DejaVuSans-43" d="M 4122 4306 
L 4122 3641 
Q 3803 3938 3442 4084 
Q 3081 4231 2675 4231 
Q 1875 4231 1450 3742 
Q 1025 3253 1025 2328 
Q 1025 1406 1450 917 
Q 1875 428 2675 428 
Q 3081 428 3442 575 
Q 3803 722 4122 1019 
L 4122 359 
Q 3791 134 3420 21 
Q 3050 -91 2638 -91 
Q 1578 -91 968 557 
Q 359 1206 359 2328 
Q 359 3453 968 4101 
Q 1578 4750 2638 4750 
Q 3056 4750 3426 4639 
Q 3797 4528 4122 4306 
z
" transform="scale(0.015625)"/>
        <path id="DejaVuSans-76" d="M 191 3500 
L 800 3500 
L 1894 563 
L 2988 3500 
L 3597 3500 
L 2284 0 
L 1503 0 
L 191 3500 
z
" transform="scale(0.015625)"/>
       </defs>
       <use xlink:href="#DejaVuSans-46"/>
       <use xlink:href="#DejaVuSans-44" transform="translate(57.519531 0)"/>
       <use xlink:href="#DejaVuSans-20" transform="translate(134.521484 0)"/>
       <use xlink:href="#DejaVuSans-2d" transform="translate(166.308594 0)"/>
       <use xlink:href="#DejaVuSans-20" transform="translate(202.392578 0)"/>
       <use xlink:href="#DejaVuSans-4c" transform="translate(234.179688 0)"/>
       <use xlink:href="#DejaVuSans-20" transform="translate(289.892578 0)"/>
       <use xlink:href="#DejaVuSans-43" transform="translate(321.679688 0)"/>
       <use xlink:href="#DejaVuSans-6f" transform="translate(391.503906 0)"/>
       <use xlink:href="#DejaVuSans-6e" transform="translate(452.685547 0)"/>
       <use xlink:href="#DejaVuSans-76" transform="translate(516.064453 0)"/>
       <use xlink:href="#DejaVuSans-65" transform="translate(575.244141 0)"/>
       <use xlink:href="#DejaVuSans-63" transform="translate(636.767578 0)"/>
       <use xlink:href="#DejaVuSans-74" transform="translate(691.748047 0)"/>
       <use xlink:href="#DejaVuSans-69" transform="translate(730.957031 0)"/>
       <use xlink:href="#DejaVuSans-6f" transform="translate(758.740234 0)"/>
       <use xlink:href="#DejaVuSans-6e" transform="translate(819.921875 0)"/>
      </g>
     </g>
    </g>
    <g id="xtick_9">
     <g id="line2d_9">
      <g>
       <use xlink:href="#m37b9a1991d" x="258.103609" y="98.139617" style="stroke: #000000; stroke-width: 0.8"/>
      </g>
     </g>
     <g id="text_9">
      <!-- FD - NL Convection -->
      <g transform="translate(194.76322 148.728344) rotate(-30) scale(0.08 -0.08)">
       <defs>
        <path id="DejaVuSans-4e" d="M 628 4666 
L 1478 4666 
L 3547 763 
L 3547 4666 
L 4159 4666 
L 4159 0 
L 3309 0 
L 1241 3903 
L 1241 0 
L 628 0 
L 628 4666 
z
" transform="scale(0.015625)"/>
       </defs>
       <use xlink:href="#DejaVuSans-46"/>
       <use xlink:href="#DejaVuSans-44" transform="translate(57.519531 0)"/>
       <use xlink:href="#DejaVuSans-20" transform="translate(134.521484 0)"/>
       <use xlink:href="#DejaVuSans-2d" transform="translate(166.308594 0)"/>
       <use xlink:href="#DejaVuSans-20" transform="translate(202.392578 0)"/>
       <use xlink:href="#DejaVuSans-4e" transform="translate(234.179688 0)"/>
       <use xlink:href="#DejaVuSans-4c" transform="translate(308.984375 0)"/>
       <use xlink:href="#DejaVuSans-20" transform="translate(364.697266 0)"/>
       <use xlink:href="#DejaVuSans-43" transform="translate(396.484375 0)"/>
       <use xlink:href="#DejaVuSans-6f" transform="translate(466.308594 0)"/>
       <use xlink:href="#DejaVuSans-6e" transform="translate(527.490234 0)"/>
       <use xlink:href="#DejaVuSans-76" transform="translate(590.869141 0)"/>
       <use xlink:href="#DejaVuSans-65" transform="translate(650.048828 0)"/>
       <use xlink:href="#DejaVuSans-63" transform="translate(711.572266 0)"/>
       <use xlink:href="#DejaVuSans-74" transform="translate(766.552734 0)"/>
       <use xlink:href="#DejaVuSans-69" transform="translate(805.761719 0)"/>
       <use xlink:href="#DejaVuSans-6f" transform="translate(833.544922 0)"/>
       <use xlink:href="#DejaVuSans-6e" transform="translate(894.726562 0)"/>
      </g>
     </g>
    </g>
    <g id="xtick_10">
     <g id="line2d_10">
      <g>
       <use xlink:href="#m37b9a1991d" x="282.638522" y="98.139617" style="stroke: #000000; stroke-width: 0.8"/>
      </g>
     </g>
     <g id="text_10">
      <!-- FD - Poisson -->
      <g transform="translate(243.516533 134.745844) rotate(-30) scale(0.08 -0.08)">
       <defs>
        <path id="DejaVuSans-50" d="M 1259 4147 
L 1259 2394 
L 2053 2394 
Q 2494 2394 2734 2622 
Q 2975 2850 2975 3272 
Q 2975 3691 2734 3919 
Q 2494 4147 2053 4147 
L 1259 4147 
z
M 628 4666 
L 2053 4666 
Q 2838 4666 3239 4311 
Q 3641 3956 3641 3272 
Q 3641 2581 3239 2228 
Q 2838 1875 2053 1875 
L 1259 1875 
L 1259 0 
L 628 0 
L 628 4666 
z
" transform="scale(0.015625)"/>
       </defs>
       <use xlink:href="#DejaVuSans-46"/>
       <use xlink:href="#DejaVuSans-44" transform="translate(57.519531 0)"/>
       <use xlink:href="#DejaVuSans-20" transform="translate(134.521484 0)"/>
       <use xlink:href="#DejaVuSans-2d" transform="translate(166.308594 0)"/>
       <use xlink:href="#DejaVuSans-20" transform="translate(202.392578 0)"/>
       <use xlink:href="#DejaVuSans-50" transform="translate(234.179688 0)"/>
       <use xlink:href="#DejaVuSans-6f" transform="translate(290.857422 0)"/>
       <use xlink:href="#DejaVuSans-69" transform="translate(352.039062 0)"/>
       <use xlink:href="#DejaVuSans-73" transform="translate(379.822266 0)"/>
       <use xlink:href="#DejaVuSans-73" transform="translate(431.921875 0)"/>
       <use xlink:href="#DejaVuSans-6f" transform="translate(484.021484 0)"/>
       <use xlink:href="#DejaVuSans-6e" transform="translate(545.203125 0)"/>
      </g>
     </g>
    </g>
    <g id="xtick_11">
     <g id="line2d_11">
      <g>
       <use xlink:href="#m37b9a1991d" x="307.173435" y="98.139617" style="stroke: #000000; stroke-width: 0.8"/>
      </g>
     </g>
     <g id="text_11">
      <!-- FD - Laplace -->
      <g transform="translate(267.242794 135.212719) rotate(-30) scale(0.08 -0.08)">
       <use xlink:href="#DejaVuSans-46"/>
       <use xlink:href="#DejaVuSans-44" transform="translate(57.519531 0)"/>
       <use xlink:href="#DejaVuSans-20" transform="translate(134.521484 0)"/>
       <use xlink:href="#DejaVuSans-2d" transform="translate(166.308594 0)"/>
       <use xlink:href="#DejaVuSans-20" transform="translate(202.392578 0)"/>
       <use xlink:href="#DejaVuSans-4c" transform="translate(234.179688 0)"/>
       <use xlink:href="#DejaVuSans-61" transform="translate(289.892578 0)"/>
       <use xlink:href="#DejaVuSans-70" transform="translate(351.171875 0)"/>
       <use xlink:href="#DejaVuSans-6c" transform="translate(414.648438 0)"/>
       <use xlink:href="#DejaVuSans-61" transform="translate(442.431641 0)"/>
       <use xlink:href="#DejaVuSans-63" transform="translate(503.710938 0)"/>
       <use xlink:href="#DejaVuSans-65" transform="translate(558.691406 0)"/>
      </g>
     </g>
    </g>
    <g id="xtick_12">
     <g id="line2d_12">
      <g>
       <use xlink:href="#m37b9a1991d" x="331.708348" y="98.139617" style="stroke: #000000; stroke-width: 0.8"/>
      </g>
     </g>
     <g id="text_12">
      <!-- M-D -->
      <g transform="translate(320.9357 118.378344) rotate(-30) scale(0.08 -0.08)">
       <use xlink:href="#DejaVuSans-4d"/>
       <use xlink:href="#DejaVuSans-2d" transform="translate(86.279297 0)"/>
       <use xlink:href="#DejaVuSans-44" transform="translate(122.363281 0)"/>
      </g>
     </g>
    </g>
    <g id="xtick_13">
     <g id="line2d_13">
      <g>
       <use xlink:href="#m37b9a1991d" x="356.24326" y="98.139617" style="stroke: #000000; stroke-width: 0.8"/>
      </g>
     </g>
     <g id="text_13">
      <!-- Splines -->
      <g transform="translate(334.37358 124.785219) rotate(-30) scale(0.08 -0.08)">
       <defs>
        <path id="DejaVuSans-53" d="M 3425 4513 
L 3425 3897 
Q 3066 4069 2747 4153 
Q 2428 4238 2131 4238 
Q 1616 4238 1336 4038 
Q 1056 3838 1056 3469 
Q 1056 3159 1242 3001 
Q 1428 2844 1947 2747 
L 2328 2669 
Q 3034 2534 3370 2195 
Q 3706 1856 3706 1288 
Q 3706 609 3251 259 
Q 2797 -91 1919 -91 
Q 1588 -91 1214 -16 
Q 841 59 441 206 
L 441 856 
Q 825 641 1194 531 
Q 1563 422 1919 422 
Q 2459 422 2753 634 
Q 3047 847 3047 1241 
Q 3047 1584 2836 1778 
Q 2625 1972 2144 2069 
L 1759 2144 
Q 1053 2284 737 2584 
Q 422 2884 422 3419 
Q 422 4038 858 4394 
Q 1294 4750 2059 4750 
Q 2388 4750 2728 4690 
Q 3069 4631 3425 4513 
z
" transform="scale(0.015625)"/>
       </defs>
       <use xlink:href="#DejaVuSans-53"/>
       <use xlink:href="#DejaVuSans-70" transform="translate(63.476562 0)"/>
       <use xlink:href="#DejaVuSans-6c" transform="translate(126.953125 0)"/>
       <use xlink:href="#DejaVuSans-69" transform="translate(154.736328 0)"/>
       <use xlink:href="#DejaVuSans-6e" transform="translate(182.519531 0)"/>
       <use xlink:href="#DejaVuSans-65" transform="translate(245.898438 0)"/>
       <use xlink:href="#DejaVuSans-73" transform="translate(307.421875 0)"/>
      </g>
     </g>
    </g>
   </g>
   <g id="matplotlib.axis_2">
    <g id="ytick_1">
     <g id="line2d_14">
      <path d="M 41.698012 97.817493 
L 383.27 97.817493 
" clip-path="url(#pd1af2ae4ea)" style="fill: none; stroke: #b0b0b0; stroke-opacity: 0.5; stroke-width: 0.5; stroke-linecap: square"/>
     </g>
     <g id="line2d_15">
      <defs>
       <path id="mf8d045751c" d="M 0 0 
L -3.5 0 
" style="stroke: #000000; stroke-width: 0.8"/>
      </defs>
      <g>
       <use xlink:href="#mf8d045751c" x="41.698012" y="97.817493" style="stroke: #000000; stroke-width: 0.8"/>
      </g>
     </g>
     <g id="text_14">
      <!-- $\mathdefault{10^{0}}$ -->
      <g transform="translate(20.618012 100.856868) scale(0.08 -0.08)">
       <defs>
        <path id="DejaVuSans-31" d="M 794 531 
L 1825 531 
L 1825 4091 
L 703 3866 
L 703 4441 
L 1819 4666 
L 2450 4666 
L 2450 531 
L 3481 531 
L 3481 0 
L 794 0 
L 794 531 
z
" transform="scale(0.015625)"/>
        <path id="DejaVuSans-30" d="M 2034 4250 
Q 1547 4250 1301 3770 
Q 1056 3291 1056 2328 
Q 1056 1369 1301 889 
Q 1547 409 2034 409 
Q 2525 409 2770 889 
Q 3016 1369 3016 2328 
Q 3016 3291 2770 3770 
Q 2525 4250 2034 4250 
z
M 2034 4750 
Q 2819 4750 3233 4129 
Q 3647 3509 3647 2328 
Q 3647 1150 3233 529 
Q 2819 -91 2034 -91 
Q 1250 -91 836 529 
Q 422 1150 422 2328 
Q 422 3509 836 4129 
Q 1250 4750 2034 4750 
z
" transform="scale(0.015625)"/>
       </defs>
       <use xlink:href="#DejaVuSans-31" transform="translate(0 0.765625)"/>
       <use xlink:href="#DejaVuSans-30" transform="translate(63.623047 0.765625)"/>
       <use xlink:href="#DejaVuSans-30" transform="translate(128.203125 39.046875) scale(0.7)"/>
      </g>
     </g>
    </g>
    <g id="ytick_2">
     <g id="line2d_16">
      <path d="M 41.698012 72.425556 
L 383.27 72.425556 
" clip-path="url(#pd1af2ae4ea)" style="fill: none; stroke: #b0b0b0; stroke-opacity: 0.5; stroke-width: 0.5; stroke-linecap: square"/>
     </g>
     <g id="line2d_17">
      <g>
       <use xlink:href="#mf8d045751c" x="41.698012" y="72.425556" style="stroke: #000000; stroke-width: 0.8"/>
      </g>
     </g>
     <g id="text_15">
      <!-- $\mathdefault{10^{1}}$ -->
      <g transform="translate(20.618012 75.464931) scale(0.08 -0.08)">
       <use xlink:href="#DejaVuSans-31" transform="translate(0 0.684375)"/>
       <use xlink:href="#DejaVuSans-30" transform="translate(63.623047 0.684375)"/>
       <use xlink:href="#DejaVuSans-31" transform="translate(128.203125 38.965625) scale(0.7)"/>
      </g>
     </g>
    </g>
    <g id="ytick_3">
     <g id="line2d_18">
      <path d="M 41.698012 47.033618 
L 383.27 47.033618 
" clip-path="url(#pd1af2ae4ea)" style="fill: none; stroke: #b0b0b0; stroke-opacity: 0.5; stroke-width: 0.5; stroke-linecap: square"/>
     </g>
     <g id="line2d_19">
      <g>
       <use xlink:href="#mf8d045751c" x="41.698012" y="47.033618" style="stroke: #000000; stroke-width: 0.8"/>
      </g>
     </g>
     <g id="text_16">
      <!-- $\mathdefault{10^{2}}$ -->
      <g transform="translate(20.618012 50.072993) scale(0.08 -0.08)">
       <defs>
        <path id="DejaVuSans-32" d="M 1228 531 
L 3431 531 
L 3431 0 
L 469 0 
L 469 531 
Q 828 903 1448 1529 
Q 2069 2156 2228 2338 
Q 2531 2678 2651 2914 
Q 2772 3150 2772 3378 
Q 2772 3750 2511 3984 
Q 2250 4219 1831 4219 
Q 1534 4219 1204 4116 
Q 875 4013 500 3803 
L 500 4441 
Q 881 4594 1212 4672 
Q 1544 4750 1819 4750 
Q 2544 4750 2975 4387 
Q 3406 4025 3406 3419 
Q 3406 3131 3298 2873 
Q 3191 2616 2906 2266 
Q 2828 2175 2409 1742 
Q 1991 1309 1228 531 
z
" transform="scale(0.015625)"/>
       </defs>
       <use xlink:href="#DejaVuSans-31" transform="translate(0 0.765625)"/>
       <use xlink:href="#DejaVuSans-30" transform="translate(63.623047 0.765625)"/>
       <use xlink:href="#DejaVuSans-32" transform="translate(128.203125 39.046875) scale(0.7)"/>
      </g>
     </g>
    </g>
    <g id="ytick_4">
     <g id="line2d_20">
      <path d="M 41.698012 21.641681 
L 383.27 21.641681 
" clip-path="url(#pd1af2ae4ea)" style="fill: none; stroke: #b0b0b0; stroke-opacity: 0.5; stroke-width: 0.5; stroke-linecap: square"/>
     </g>
     <g id="line2d_21">
      <g>
       <use xlink:href="#mf8d045751c" x="41.698012" y="21.641681" style="stroke: #000000; stroke-width: 0.8"/>
      </g>
     </g>
     <g id="text_17">
      <!-- $\mathdefault{10^{3}}$ -->
      <g transform="translate(20.618012 24.681056) scale(0.08 -0.08)">
       <defs>
        <path id="DejaVuSans-33" d="M 2597 2516 
Q 3050 2419 3304 2112 
Q 3559 1806 3559 1356 
Q 3559 666 3084 287 
Q 2609 -91 1734 -91 
Q 1441 -91 1130 -33 
Q 819 25 488 141 
L 488 750 
Q 750 597 1062 519 
Q 1375 441 1716 441 
Q 2309 441 2620 675 
Q 2931 909 2931 1356 
Q 2931 1769 2642 2001 
Q 2353 2234 1838 2234 
L 1294 2234 
L 1294 2753 
L 1863 2753 
Q 2328 2753 2575 2939 
Q 2822 3125 2822 3475 
Q 2822 3834 2567 4026 
Q 2313 4219 1838 4219 
Q 1578 4219 1281 4162 
Q 984 4106 628 3988 
L 628 4550 
Q 988 4650 1302 4700 
Q 1616 4750 1894 4750 
Q 2613 4750 3031 4423 
Q 3450 4097 3450 3541 
Q 3450 3153 3228 2886 
Q 3006 2619 2597 2516 
z
" transform="scale(0.015625)"/>
       </defs>
       <use xlink:href="#DejaVuSans-31" transform="translate(0 0.765625)"/>
       <use xlink:href="#DejaVuSans-30" transform="translate(63.623047 0.765625)"/>
       <use xlink:href="#DejaVuSans-33" transform="translate(128.203125 39.046875) scale(0.7)"/>
      </g>
     </g>
    </g>
    <g id="ytick_5">
     <g id="line2d_22">
      <path d="M 41.698012 90.173758 
L 383.27 90.173758 
" clip-path="url(#pd1af2ae4ea)" style="fill: none; stroke: #b0b0b0; stroke-opacity: 0.5; stroke-width: 0.25; stroke-linecap: square"/>
     </g>
     <g id="line2d_23">
      <defs>
       <path id="ma1a61c8eda" d="M 0 0 
L -2 0 
" style="stroke: #000000; stroke-width: 0.6"/>
      </defs>
      <g>
       <use xlink:href="#ma1a61c8eda" x="41.698012" y="90.173758" style="stroke: #000000; stroke-width: 0.6"/>
      </g>
     </g>
    </g>
    <g id="ytick_6">
     <g id="line2d_24">
      <path d="M 41.698012 85.70246 
L 383.27 85.70246 
" clip-path="url(#pd1af2ae4ea)" style="fill: none; stroke: #b0b0b0; stroke-opacity: 0.5; stroke-width: 0.25; stroke-linecap: square"/>
     </g>
     <g id="line2d_25">
      <g>
       <use xlink:href="#ma1a61c8eda" x="41.698012" y="85.70246" style="stroke: #000000; stroke-width: 0.6"/>
      </g>
     </g>
    </g>
    <g id="ytick_7">
     <g id="line2d_26">
      <path d="M 41.698012 82.530023 
L 383.27 82.530023 
" clip-path="url(#pd1af2ae4ea)" style="fill: none; stroke: #b0b0b0; stroke-opacity: 0.5; stroke-width: 0.25; stroke-linecap: square"/>
     </g>
     <g id="line2d_27">
      <g>
       <use xlink:href="#ma1a61c8eda" x="41.698012" y="82.530023" style="stroke: #000000; stroke-width: 0.6"/>
      </g>
     </g>
    </g>
    <g id="ytick_8">
     <g id="line2d_28">
      <path d="M 41.698012 80.069291 
L 383.27 80.069291 
" clip-path="url(#pd1af2ae4ea)" style="fill: none; stroke: #b0b0b0; stroke-opacity: 0.5; stroke-width: 0.25; stroke-linecap: square"/>
     </g>
     <g id="line2d_29">
      <g>
       <use xlink:href="#ma1a61c8eda" x="41.698012" y="80.069291" style="stroke: #000000; stroke-width: 0.6"/>
      </g>
     </g>
    </g>
    <g id="ytick_9">
     <g id="line2d_30">
      <path d="M 41.698012 78.058725 
L 383.27 78.058725 
" clip-path="url(#pd1af2ae4ea)" style="fill: none; stroke: #b0b0b0; stroke-opacity: 0.5; stroke-width: 0.25; stroke-linecap: square"/>
     </g>
     <g id="line2d_31">
      <g>
       <use xlink:href="#ma1a61c8eda" x="41.698012" y="78.058725" style="stroke: #000000; stroke-width: 0.6"/>
      </g>
     </g>
    </g>
    <g id="ytick_10">
     <g id="line2d_32">
      <path d="M 41.698012 76.358817 
L 383.27 76.358817 
" clip-path="url(#pd1af2ae4ea)" style="fill: none; stroke: #b0b0b0; stroke-opacity: 0.5; stroke-width: 0.25; stroke-linecap: square"/>
     </g>
     <g id="line2d_33">
      <g>
       <use xlink:href="#ma1a61c8eda" x="41.698012" y="76.358817" style="stroke: #000000; stroke-width: 0.6"/>
      </g>
     </g>
    </g>
    <g id="ytick_11">
     <g id="line2d_34">
      <path d="M 41.698012 74.886289 
L 383.27 74.886289 
" clip-path="url(#pd1af2ae4ea)" style="fill: none; stroke: #b0b0b0; stroke-opacity: 0.5; stroke-width: 0.25; stroke-linecap: square"/>
     </g>
     <g id="line2d_35">
      <g>
       <use xlink:href="#ma1a61c8eda" x="41.698012" y="74.886289" style="stroke: #000000; stroke-width: 0.6"/>
      </g>
     </g>
    </g>
    <g id="ytick_12">
     <g id="line2d_36">
      <path d="M 41.698012 73.587427 
L 383.27 73.587427 
" clip-path="url(#pd1af2ae4ea)" style="fill: none; stroke: #b0b0b0; stroke-opacity: 0.5; stroke-width: 0.25; stroke-linecap: square"/>
     </g>
     <g id="line2d_37">
      <g>
       <use xlink:href="#ma1a61c8eda" x="41.698012" y="73.587427" style="stroke: #000000; stroke-width: 0.6"/>
      </g>
     </g>
    </g>
    <g id="ytick_13">
     <g id="line2d_38">
      <path d="M 41.698012 64.781821 
L 383.27 64.781821 
" clip-path="url(#pd1af2ae4ea)" style="fill: none; stroke: #b0b0b0; stroke-opacity: 0.5; stroke-width: 0.25; stroke-linecap: square"/>
     </g>
     <g id="line2d_39">
      <g>
       <use xlink:href="#ma1a61c8eda" x="41.698012" y="64.781821" style="stroke: #000000; stroke-width: 0.6"/>
      </g>
     </g>
    </g>
    <g id="ytick_14">
     <g id="line2d_40">
      <path d="M 41.698012 60.310523 
L 383.27 60.310523 
" clip-path="url(#pd1af2ae4ea)" style="fill: none; stroke: #b0b0b0; stroke-opacity: 0.5; stroke-width: 0.25; stroke-linecap: square"/>
     </g>
     <g id="line2d_41">
      <g>
       <use xlink:href="#ma1a61c8eda" x="41.698012" y="60.310523" style="stroke: #000000; stroke-width: 0.6"/>
      </g>
     </g>
    </g>
    <g id="ytick_15">
     <g id="line2d_42">
      <path d="M 41.698012 57.138086 
L 383.27 57.138086 
" clip-path="url(#pd1af2ae4ea)" style="fill: none; stroke: #b0b0b0; stroke-opacity: 0.5; stroke-width: 0.25; stroke-linecap: square"/>
     </g>
     <g id="line2d_43">
      <g>
       <use xlink:href="#ma1a61c8eda" x="41.698012" y="57.138086" style="stroke: #000000; stroke-width: 0.6"/>
      </g>
     </g>
    </g>
    <g id="ytick_16">
     <g id="line2d_44">
      <path d="M 41.698012 54.677353 
L 383.27 54.677353 
" clip-path="url(#pd1af2ae4ea)" style="fill: none; stroke: #b0b0b0; stroke-opacity: 0.5; stroke-width: 0.25; stroke-linecap: square"/>
     </g>
     <g id="line2d_45">
      <g>
       <use xlink:href="#ma1a61c8eda" x="41.698012" y="54.677353" style="stroke: #000000; stroke-width: 0.6"/>
      </g>
     </g>
    </g>
    <g id="ytick_17">
     <g id="line2d_46">
      <path d="M 41.698012 52.666788 
L 383.27 52.666788 
" clip-path="url(#pd1af2ae4ea)" style="fill: none; stroke: #b0b0b0; stroke-opacity: 0.5; stroke-width: 0.25; stroke-linecap: square"/>
     </g>
     <g id="line2d_47">
      <g>
       <use xlink:href="#ma1a61c8eda" x="41.698012" y="52.666788" style="stroke: #000000; stroke-width: 0.6"/>
      </g>
     </g>
    </g>
    <g id="ytick_18">
     <g id="line2d_48">
      <path d="M 41.698012 50.966879 
L 383.27 50.966879 
" clip-path="url(#pd1af2ae4ea)" style="fill: none; stroke: #b0b0b0; stroke-opacity: 0.5; stroke-width: 0.25; stroke-linecap: square"/>
     </g>
     <g id="line2d_49">
      <g>
       <use xlink:href="#ma1a61c8eda" x="41.698012" y="50.966879" style="stroke: #000000; stroke-width: 0.6"/>
      </g>
     </g>
    </g>
    <g id="ytick_19">
     <g id="line2d_50">
      <path d="M 41.698012 49.494351 
L 383.27 49.494351 
" clip-path="url(#pd1af2ae4ea)" style="fill: none; stroke: #b0b0b0; stroke-opacity: 0.5; stroke-width: 0.25; stroke-linecap: square"/>
     </g>
     <g id="line2d_51">
      <g>
       <use xlink:href="#ma1a61c8eda" x="41.698012" y="49.494351" style="stroke: #000000; stroke-width: 0.6"/>
      </g>
     </g>
    </g>
    <g id="ytick_20">
     <g id="line2d_52">
      <path d="M 41.698012 48.19549 
L 383.27 48.19549 
" clip-path="url(#pd1af2ae4ea)" style="fill: none; stroke: #b0b0b0; stroke-opacity: 0.5; stroke-width: 0.25; stroke-linecap: square"/>
     </g>
     <g id="line2d_53">
      <g>
       <use xlink:href="#ma1a61c8eda" x="41.698012" y="48.19549" style="stroke: #000000; stroke-width: 0.6"/>
      </g>
     </g>
    </g>
    <g id="ytick_21">
     <g id="line2d_54">
      <path d="M 41.698012 39.389884 
L 383.27 39.389884 
" clip-path="url(#pd1af2ae4ea)" style="fill: none; stroke: #b0b0b0; stroke-opacity: 0.5; stroke-width: 0.25; stroke-linecap: square"/>
     </g>
     <g id="line2d_55">
      <g>
       <use xlink:href="#ma1a61c8eda" x="41.698012" y="39.389884" style="stroke: #000000; stroke-width: 0.6"/>
      </g>
     </g>
    </g>
    <g id="ytick_22">
     <g id="line2d_56">
      <path d="M 41.698012 34.918585 
L 383.27 34.918585 
" clip-path="url(#pd1af2ae4ea)" style="fill: none; stroke: #b0b0b0; stroke-opacity: 0.5; stroke-width: 0.25; stroke-linecap: square"/>
     </g>
     <g id="line2d_57">
      <g>
       <use xlink:href="#ma1a61c8eda" x="41.698012" y="34.918585" style="stroke: #000000; stroke-width: 0.6"/>
      </g>
     </g>
    </g>
    <g id="ytick_23">
     <g id="line2d_58">
      <path d="M 41.698012 31.746149 
L 383.27 31.746149 
" clip-path="url(#pd1af2ae4ea)" style="fill: none; stroke: #b0b0b0; stroke-opacity: 0.5; stroke-width: 0.25; stroke-linecap: square"/>
     </g>
     <g id="line2d_59">
      <g>
       <use xlink:href="#ma1a61c8eda" x="41.698012" y="31.746149" style="stroke: #000000; stroke-width: 0.6"/>
      </g>
     </g>
    </g>
    <g id="ytick_24">
     <g id="line2d_60">
      <path d="M 41.698012 29.285416 
L 383.27 29.285416 
" clip-path="url(#pd1af2ae4ea)" style="fill: none; stroke: #b0b0b0; stroke-opacity: 0.5; stroke-width: 0.25; stroke-linecap: square"/>
     </g>
     <g id="line2d_61">
      <g>
       <use xlink:href="#ma1a61c8eda" x="41.698012" y="29.285416" style="stroke: #000000; stroke-width: 0.6"/>
      </g>
     </g>
    </g>
    <g id="ytick_25">
     <g id="line2d_62">
      <path d="M 41.698012 27.27485 
L 383.27 27.27485 
" clip-path="url(#pd1af2ae4ea)" style="fill: none; stroke: #b0b0b0; stroke-opacity: 0.5; stroke-width: 0.25; stroke-linecap: square"/>
     </g>
     <g id="line2d_63">
      <g>
       <use xlink:href="#ma1a61c8eda" x="41.698012" y="27.27485" style="stroke: #000000; stroke-width: 0.6"/>
      </g>
     </g>
    </g>
    <g id="ytick_26">
     <g id="line2d_64">
      <path d="M 41.698012 25.574942 
L 383.27 25.574942 
" clip-path="url(#pd1af2ae4ea)" style="fill: none; stroke: #b0b0b0; stroke-opacity: 0.5; stroke-width: 0.25; stroke-linecap: square"/>
     </g>
     <g id="line2d_65">
      <g>
       <use xlink:href="#ma1a61c8eda" x="41.698012" y="25.574942" style="stroke: #000000; stroke-width: 0.6"/>
      </g>
     </g>
    </g>
    <g id="ytick_27">
     <g id="line2d_66">
      <path d="M 41.698012 24.102414 
L 383.27 24.102414 
" clip-path="url(#pd1af2ae4ea)" style="fill: none; stroke: #b0b0b0; stroke-opacity: 0.5; stroke-width: 0.25; stroke-linecap: square"/>
     </g>
     <g id="line2d_67">
      <g>
       <use xlink:href="#ma1a61c8eda" x="41.698012" y="24.102414" style="stroke: #000000; stroke-width: 0.6"/>
      </g>
     </g>
    </g>
    <g id="ytick_28">
     <g id="line2d_68">
      <path d="M 41.698012 22.803552 
L 383.27 22.803552 
" clip-path="url(#pd1af2ae4ea)" style="fill: none; stroke: #b0b0b0; stroke-opacity: 0.5; stroke-width: 0.25; stroke-linecap: square"/>
     </g>
     <g id="line2d_69">
      <g>
       <use xlink:href="#ma1a61c8eda" x="41.698012" y="22.803552" style="stroke: #000000; stroke-width: 0.6"/>
      </g>
     </g>
    </g>
    <g id="ytick_29">
     <g id="line2d_70">
      <path d="M 41.698012 13.997946 
L 383.27 13.997946 
" clip-path="url(#pd1af2ae4ea)" style="fill: none; stroke: #b0b0b0; stroke-opacity: 0.5; stroke-width: 0.25; stroke-linecap: square"/>
     </g>
     <g id="line2d_71">
      <g>
       <use xlink:href="#ma1a61c8eda" x="41.698012" y="13.997946" style="stroke: #000000; stroke-width: 0.6"/>
      </g>
     </g>
    </g>
    <g id="ytick_30">
     <g id="line2d_72">
      <path d="M 41.698012 9.526648 
L 383.27 9.526648 
" clip-path="url(#pd1af2ae4ea)" style="fill: none; stroke: #b0b0b0; stroke-opacity: 0.5; stroke-width: 0.25; stroke-linecap: square"/>
     </g>
     <g id="line2d_73">
      <g>
       <use xlink:href="#ma1a61c8eda" x="41.698012" y="9.526648" style="stroke: #000000; stroke-width: 0.6"/>
      </g>
     </g>
    </g>
    <g id="text_18">
     <!-- Speedup -->
     <g transform="translate(14.954262 71.004809) rotate(-90) scale(0.08 -0.08)">
      <use xlink:href="#DejaVuSans-53"/>
      <use xlink:href="#DejaVuSans-70" transform="translate(63.476562 0)"/>
      <use xlink:href="#DejaVuSans-65" transform="translate(126.953125 0)"/>
      <use xlink:href="#DejaVuSans-65" transform="translate(188.476562 0)"/>
      <use xlink:href="#DejaVuSans-64" transform="translate(250 0)"/>
      <use xlink:href="#DejaVuSans-75" transform="translate(313.476562 0)"/>
      <use xlink:href="#DejaVuSans-70" transform="translate(376.855469 0)"/>
     </g>
    </g>
   </g>
   <g id="patch_3">
    <path d="M 57.224012 25489.754884 
L 59.52416 25489.754884 
L 59.52416 55.001717 
L 57.224012 55.001717 
z
" clip-path="url(#pd1af2ae4ea)" style="fill: #ff7f0e"/>
   </g>
   <g id="patch_4">
    <path d="M 81.758924 25489.754884 
L 84.059072 25489.754884 
L 84.059072 30.788609 
L 81.758924 30.788609 
z
" clip-path="url(#pd1af2ae4ea)" style="fill: #ff7f0e"/>
   </g>
   <g id="patch_5">
    <path d="M 106.293837 25489.754884 
L 108.593985 25489.754884 
L 108.593985 42.773179 
L 106.293837 42.773179 
z
" clip-path="url(#pd1af2ae4ea)" style="fill: #ff7f0e"/>
   </g>
   <g id="patch_6">
    <path d="M 130.82875 25489.754884 
L 133.128898 25489.754884 
L 133.128898 43.14045 
L 130.82875 43.14045 
z
" clip-path="url(#pd1af2ae4ea)" style="fill: #ff7f0e"/>
   </g>
   <g id="patch_7">
    <path d="M 155.363662 25489.754884 
L 157.66381 25489.754884 
L 157.66381 42.312746 
L 155.363662 42.312746 
z
" clip-path="url(#pd1af2ae4ea)" style="fill: #ff7f0e"/>
   </g>
   <g id="patch_8">
    <path d="M 179.898575 25489.754884 
L 182.198723 25489.754884 
L 182.198723 42.436289 
L 179.898575 42.436289 
z
" clip-path="url(#pd1af2ae4ea)" style="fill: #ff7f0e"/>
   </g>
   <g id="patch_9">
    <path d="M 204.433488 25489.754884 
L 206.733636 25489.754884 
L 206.733636 43.840157 
L 204.433488 43.840157 
z
" clip-path="url(#pd1af2ae4ea)" style="fill: #ff7f0e"/>
   </g>
   <g id="patch_10">
    <path d="M 228.968401 25489.754884 
L 231.268549 25489.754884 
L 231.268549 16.219805 
L 228.968401 16.219805 
z
" clip-path="url(#pd1af2ae4ea)" style="fill: #ff7f0e"/>
   </g>
   <g id="patch_11">
    <path d="M 253.503313 25489.754884 
L 255.803461 25489.754884 
L 255.803461 13.610974 
L 253.503313 13.610974 
z
" clip-path="url(#pd1af2ae4ea)" style="fill: #ff7f0e"/>
   </g>
   <g id="patch_12">
    <path d="M 278.038226 25489.754884 
L 280.338374 25489.754884 
L 280.338374 14.231628 
L 278.038226 14.231628 
z
" clip-path="url(#pd1af2ae4ea)" style="fill: #ff7f0e"/>
   </g>
   <g id="patch_13">
    <path d="M 302.573139 25489.754884 
L 304.873287 25489.754884 
L 304.873287 73.986501 
L 302.573139 73.986501 
z
" clip-path="url(#pd1af2ae4ea)" style="fill: #ff7f0e"/>
   </g>
   <g id="patch_14">
    <path d="M 327.108051 25489.754884 
L 329.408199 25489.754884 
L 329.408199 27.201577 
L 327.108051 27.201577 
z
" clip-path="url(#pd1af2ae4ea)" style="fill: #ff7f0e"/>
   </g>
   <g id="patch_15">
    <path clip-path="url(#pd1af2ae4ea)" style="fill: #ff7f0e"/>
   </g>
   <g id="patch_16">
    <path d="M 59.52416 25489.754884 
L 61.824308 25489.754884 
L 61.824308 61.986893 
L 59.52416 61.986893 
z
" clip-path="url(#pd1af2ae4ea)" style="fill: #2ca02c"/>
   </g>
   <g id="patch_17">
    <path d="M 84.059072 25489.754884 
L 86.35922 25489.754884 
L 86.35922 28.345725 
L 84.059072 28.345725 
z
" clip-path="url(#pd1af2ae4ea)" style="fill: #2ca02c"/>
   </g>
   <g id="patch_18">
    <path d="M 108.593985 25489.754884 
L 110.894133 25489.754884 
L 110.894133 40.787648 
L 108.593985 40.787648 
z
" clip-path="url(#pd1af2ae4ea)" style="fill: #2ca02c"/>
   </g>
   <g id="patch_19">
    <path d="M 133.128898 25489.754884 
L 135.429046 25489.754884 
L 135.429046 43.14045 
L 133.128898 43.14045 
z
" clip-path="url(#pd1af2ae4ea)" style="fill: #2ca02c"/>
   </g>
   <g id="patch_20">
    <path d="M 157.66381 25489.754884 
L 159.963959 25489.754884 
L 159.963959 42.289056 
L 157.66381 42.289056 
z
" clip-path="url(#pd1af2ae4ea)" style="fill: #2ca02c"/>
   </g>
   <g id="patch_21">
    <path d="M 182.198723 25489.754884 
L 184.498871 25489.754884 
L 184.498871 31.02107 
L 182.198723 31.02107 
z
" clip-path="url(#pd1af2ae4ea)" style="fill: #2ca02c"/>
   </g>
   <g id="patch_22">
    <path d="M 206.733636 25489.754884 
L 209.033784 25489.754884 
L 209.033784 29.348251 
L 206.733636 29.348251 
z
" clip-path="url(#pd1af2ae4ea)" style="fill: #2ca02c"/>
   </g>
   <g id="patch_23">
    <path d="M 231.268549 25489.754884 
L 233.568697 25489.754884 
L 233.568697 16.921443 
L 231.268549 16.921443 
z
" clip-path="url(#pd1af2ae4ea)" style="fill: #2ca02c"/>
   </g>
   <g id="patch_24">
    <path d="M 255.803461 25489.754884 
L 258.103609 25489.754884 
L 258.103609 13.610974 
L 255.803461 13.610974 
z
" clip-path="url(#pd1af2ae4ea)" style="fill: #2ca02c"/>
   </g>
   <g id="patch_25">
    <path d="M 280.338374 25489.754884 
L 282.638522 25489.754884 
L 282.638522 21.910878 
L 280.338374 21.910878 
z
" clip-path="url(#pd1af2ae4ea)" style="fill: #2ca02c"/>
   </g>
   <g id="patch_26">
    <path d="M 304.873287 25489.754884 
L 307.173435 25489.754884 
L 307.173435 87.976179 
L 304.873287 87.976179 
z
" clip-path="url(#pd1af2ae4ea)" style="fill: #2ca02c"/>
   </g>
   <g id="patch_27">
    <path d="M 329.408199 25489.754884 
L 331.708348 25489.754884 
L 331.708348 33.925815 
L 329.408199 33.925815 
z
" clip-path="url(#pd1af2ae4ea)" style="fill: #2ca02c"/>
   </g>
   <g id="patch_28">
    <path clip-path="url(#pd1af2ae4ea)" style="fill: #2ca02c"/>
   </g>
   <g id="patch_29">
    <path d="M 61.824308 25489.754884 
L 64.124456 25489.754884 
L 64.124456 66.287218 
L 61.824308 66.287218 
z
" clip-path="url(#pd1af2ae4ea)" style="fill: #d62728"/>
   </g>
   <g id="patch_30">
    <path d="M 86.35922 25489.754884 
L 88.659368 25489.754884 
L 88.659368 30.764766 
L 86.35922 30.764766 
z
" clip-path="url(#pd1af2ae4ea)" style="fill: #d62728"/>
   </g>
   <g id="patch_31">
    <path d="M 110.894133 25489.754884 
L 113.194281 25489.754884 
L 113.194281 43.021 
L 110.894133 43.021 
z
" clip-path="url(#pd1af2ae4ea)" style="fill: #d62728"/>
   </g>
   <g id="patch_32">
    <path d="M 135.429046 25489.754884 
L 137.729194 25489.754884 
L 137.729194 57.081711 
L 135.429046 57.081711 
z
" clip-path="url(#pd1af2ae4ea)" style="fill: #d62728"/>
   </g>
   <g id="patch_33">
    <path d="M 159.963959 25489.754884 
L 162.264107 25489.754884 
L 162.264107 56.322041 
L 159.963959 56.322041 
z
" clip-path="url(#pd1af2ae4ea)" style="fill: #d62728"/>
   </g>
   <g id="patch_34">
    <path d="M 184.498871 25489.754884 
L 186.799019 25489.754884 
L 186.799019 52.859333 
L 184.498871 52.859333 
z
" clip-path="url(#pd1af2ae4ea)" style="fill: #d62728"/>
   </g>
   <g id="patch_35">
    <path d="M 209.033784 25489.754884 
L 211.333932 25489.754884 
L 211.333932 53.374552 
L 209.033784 53.374552 
z
" clip-path="url(#pd1af2ae4ea)" style="fill: #d62728"/>
   </g>
   <g id="patch_36">
    <path d="M 233.568697 25489.754884 
L 235.868845 25489.754884 
L 235.868845 20.982365 
L 233.568697 20.982365 
z
" clip-path="url(#pd1af2ae4ea)" style="fill: #d62728"/>
   </g>
   <g id="patch_37">
    <path d="M 258.103609 25489.754884 
L 260.403757 25489.754884 
L 260.403757 19.960769 
L 258.103609 19.960769 
z
" clip-path="url(#pd1af2ae4ea)" style="fill: #d62728"/>
   </g>
   <g id="patch_38">
    <path d="M 282.638522 25489.754884 
L 284.93867 25489.754884 
L 284.93867 22.861535 
L 282.638522 22.861535 
z
" clip-path="url(#pd1af2ae4ea)" style="fill: #d62728"/>
   </g>
   <g id="patch_39">
    <path d="M 307.173435 25489.754884 
L 309.473583 25489.754884 
L 309.473583 87.177454 
L 307.173435 87.177454 
z
" clip-path="url(#pd1af2ae4ea)" style="fill: #d62728"/>
   </g>
   <g id="patch_40">
    <path d="M 331.708348 25489.754884 
L 334.008496 25489.754884 
L 334.008496 35.612016 
L 331.708348 35.612016 
z
" clip-path="url(#pd1af2ae4ea)" style="fill: #d62728"/>
   </g>
   <g id="patch_41">
    <path d="M 356.24326 25489.754884 
L 358.543408 25489.754884 
L 358.543408 46.675936 
L 356.24326 46.675936 
z
" clip-path="url(#pd1af2ae4ea)" style="fill: #d62728"/>
   </g>
   <g id="patch_42">
    <path d="M 64.124456 25489.754884 
L 66.424604 25489.754884 
L 66.424604 42.14297 
L 64.124456 42.14297 
z
" clip-path="url(#pd1af2ae4ea)" style="fill: #9467bd"/>
   </g>
   <g id="patch_43">
    <path d="M 88.659368 25489.754884 
L 90.959517 25489.754884 
L 90.959517 29.367001 
L 88.659368 29.367001 
z
" clip-path="url(#pd1af2ae4ea)" style="fill: #9467bd"/>
   </g>
   <g id="patch_44">
    <path d="M 113.194281 25489.754884 
L 115.494429 25489.754884 
L 115.494429 47.45138 
L 113.194281 47.45138 
z
" clip-path="url(#pd1af2ae4ea)" style="fill: #9467bd"/>
   </g>
   <g id="patch_45">
    <path d="M 137.729194 25489.754884 
L 140.029342 25489.754884 
L 140.029342 41.514403 
L 137.729194 41.514403 
z
" clip-path="url(#pd1af2ae4ea)" style="fill: #9467bd"/>
   </g>
   <g id="patch_46">
    <path d="M 162.264107 25489.754884 
L 164.564255 25489.754884 
L 164.564255 40.349408 
L 162.264107 40.349408 
z
" clip-path="url(#pd1af2ae4ea)" style="fill: #9467bd"/>
   </g>
   <g id="patch_47">
    <path d="M 186.799019 25489.754884 
L 189.099167 25489.754884 
L 189.099167 39.136365 
L 186.799019 39.136365 
z
" clip-path="url(#pd1af2ae4ea)" style="fill: #9467bd"/>
   </g>
   <g id="patch_48">
    <path d="M 211.333932 25489.754884 
L 213.63408 25489.754884 
L 213.63408 38.511406 
L 211.333932 38.511406 
z
" clip-path="url(#pd1af2ae4ea)" style="fill: #9467bd"/>
   </g>
   <g id="patch_49">
    <path d="M 235.868845 25489.754884 
L 238.168993 25489.754884 
L 238.168993 33.079963 
L 235.868845 33.079963 
z
" clip-path="url(#pd1af2ae4ea)" style="fill: #9467bd"/>
   </g>
   <g id="patch_50">
    <path d="M 260.403757 25489.754884 
L 262.703906 25489.754884 
L 262.703906 29.787178 
L 260.403757 29.787178 
z
" clip-path="url(#pd1af2ae4ea)" style="fill: #9467bd"/>
   </g>
   <g id="patch_51">
    <path d="M 284.93867 25489.754884 
L 287.238818 25489.754884 
L 287.238818 25.445193 
L 284.93867 25.445193 
z
" clip-path="url(#pd1af2ae4ea)" style="fill: #9467bd"/>
   </g>
   <g id="patch_52">
    <path d="M 309.473583 25489.754884 
L 311.773731 25489.754884 
L 311.773731 86.647179 
L 309.473583 86.647179 
z
" clip-path="url(#pd1af2ae4ea)" style="fill: #9467bd"/>
   </g>
   <g id="patch_53">
    <path d="M 334.008496 25489.754884 
L 336.308644 25489.754884 
L 336.308644 41.253412 
L 334.008496 41.253412 
z
" clip-path="url(#pd1af2ae4ea)" style="fill: #9467bd"/>
   </g>
   <g id="patch_54">
    <path d="M 358.543408 25489.754884 
L 360.843556 25489.754884 
L 360.843556 42.082785 
L 358.543408 42.082785 
z
" clip-path="url(#pd1af2ae4ea)" style="fill: #9467bd"/>
   </g>
   <g id="patch_55">
    <path d="M 66.424604 25489.754884 
L 68.724752 25489.754884 
L 68.724752 42.693213 
L 66.424604 42.693213 
z
" clip-path="url(#pd1af2ae4ea)" style="fill: #8c564b"/>
   </g>
   <g id="patch_56">
    <path d="M 90.959517 25489.754884 
L 93.259665 25489.754884 
L 93.259665 26.851945 
L 90.959517 26.851945 
z
" clip-path="url(#pd1af2ae4ea)" style="fill: #8c564b"/>
   </g>
   <g id="patch_57">
    <path d="M 115.494429 25489.754884 
L 117.794577 25489.754884 
L 117.794577 41.407543 
L 115.494429 41.407543 
z
" clip-path="url(#pd1af2ae4ea)" style="fill: #8c564b"/>
   </g>
   <g id="patch_58">
    <path d="M 140.029342 25489.754884 
L 142.32949 25489.754884 
L 142.32949 34.275396 
L 140.029342 34.275396 
z
" clip-path="url(#pd1af2ae4ea)" style="fill: #8c564b"/>
   </g>
   <g id="patch_59">
    <path d="M 164.564255 25489.754884 
L 166.864403 25489.754884 
L 166.864403 31.761561 
L 164.564255 31.761561 
z
" clip-path="url(#pd1af2ae4ea)" style="fill: #8c564b"/>
   </g>
   <g id="patch_60">
    <path d="M 189.099167 25489.754884 
L 191.399315 25489.754884 
L 191.399315 29.015857 
L 189.099167 29.015857 
z
" clip-path="url(#pd1af2ae4ea)" style="fill: #8c564b"/>
   </g>
   <g id="patch_61">
    <path d="M 213.63408 25489.754884 
L 215.934228 25489.754884 
L 215.934228 26.903171 
L 213.63408 26.903171 
z
" clip-path="url(#pd1af2ae4ea)" style="fill: #8c564b"/>
   </g>
   <g id="patch_62">
    <path d="M 238.168993 25489.754884 
L 240.469141 25489.754884 
L 240.469141 16.615101 
L 238.168993 16.615101 
z
" clip-path="url(#pd1af2ae4ea)" style="fill: #8c564b"/>
   </g>
   <g id="patch_63">
    <path d="M 262.703906 25489.754884 
L 265.004054 25489.754884 
L 265.004054 13.531923 
L 262.703906 13.531923 
z
" clip-path="url(#pd1af2ae4ea)" style="fill: #8c564b"/>
   </g>
   <g id="patch_64">
    <path d="M 287.238818 25489.754884 
L 289.538966 25489.754884 
L 289.538966 12.789549 
L 287.238818 12.789549 
z
" clip-path="url(#pd1af2ae4ea)" style="fill: #8c564b"/>
   </g>
   <g id="patch_65">
    <path d="M 311.773731 25489.754884 
L 314.073879 25489.754884 
L 314.073879 72.346363 
L 311.773731 72.346363 
z
" clip-path="url(#pd1af2ae4ea)" style="fill: #8c564b"/>
   </g>
   <g id="patch_66">
    <path d="M 336.308644 25489.754884 
L 338.608792 25489.754884 
L 338.608792 36.114728 
L 336.308644 36.114728 
z
" clip-path="url(#pd1af2ae4ea)" style="fill: #8c564b"/>
   </g>
   <g id="patch_67">
    <path d="M 360.843556 25489.754884 
L 363.143704 25489.754884 
L 363.143704 45.988442 
L 360.843556 45.988442 
z
" clip-path="url(#pd1af2ae4ea)" style="fill: #8c564b"/>
   </g>
   <g id="patch_68">
    <path d="M 68.724752 25489.754884 
L 71.0249 25489.754884 
L 71.0249 60.825022 
L 68.724752 60.825022 
z
" clip-path="url(#pd1af2ae4ea)" style="fill: #e377c2"/>
   </g>
   <g id="patch_69">
    <path d="M 93.259665 25489.754884 
L 95.559813 25489.754884 
L 95.559813 33.442937 
L 93.259665 33.442937 
z
" clip-path="url(#pd1af2ae4ea)" style="fill: #e377c2"/>
   </g>
   <g id="patch_70">
    <path d="M 117.794577 25489.754884 
L 120.094725 25489.754884 
L 120.094725 48.836448 
L 117.794577 48.836448 
z
" clip-path="url(#pd1af2ae4ea)" style="fill: #e377c2"/>
   </g>
   <g id="patch_71">
    <path d="M 142.32949 25489.754884 
L 144.629638 25489.754884 
L 144.629638 42.686576 
L 142.32949 42.686576 
z
" clip-path="url(#pd1af2ae4ea)" style="fill: #e377c2"/>
   </g>
   <g id="patch_72">
    <path d="M 166.864403 25489.754884 
L 169.164551 25489.754884 
L 169.164551 40.954564 
L 166.864403 40.954564 
z
" clip-path="url(#pd1af2ae4ea)" style="fill: #e377c2"/>
   </g>
   <g id="patch_73">
    <path d="M 191.399315 25489.754884 
L 193.699464 25489.754884 
L 193.699464 39.819983 
L 191.399315 39.819983 
z
" clip-path="url(#pd1af2ae4ea)" style="fill: #e377c2"/>
   </g>
   <g id="patch_74">
    <path d="M 215.934228 25489.754884 
L 218.234376 25489.754884 
L 218.234376 39.147789 
L 215.934228 39.147789 
z
" clip-path="url(#pd1af2ae4ea)" style="fill: #e377c2"/>
   </g>
   <g id="patch_75">
    <path d="M 240.469141 25489.754884 
L 242.769289 25489.754884 
L 242.769289 36.360918 
L 240.469141 36.360918 
z
" clip-path="url(#pd1af2ae4ea)" style="fill: #e377c2"/>
   </g>
   <g id="patch_76">
    <path d="M 265.004054 25489.754884 
L 267.304202 25489.754884 
L 267.304202 33.513213 
L 265.004054 33.513213 
z
" clip-path="url(#pd1af2ae4ea)" style="fill: #e377c2"/>
   </g>
   <g id="patch_77">
    <path d="M 289.538966 25489.754884 
L 291.839114 25489.754884 
L 291.839114 30.291773 
L 289.538966 30.291773 
z
" clip-path="url(#pd1af2ae4ea)" style="fill: #e377c2"/>
   </g>
   <g id="patch_78">
    <path d="M 314.073879 25489.754884 
L 316.374027 25489.754884 
L 316.374027 94.071453 
L 314.073879 94.071453 
z
" clip-path="url(#pd1af2ae4ea)" style="fill: #e377c2"/>
   </g>
   <g id="patch_79">
    <path d="M 338.608792 25489.754884 
L 340.90894 25489.754884 
L 340.90894 36.290237 
L 338.608792 36.290237 
z
" clip-path="url(#pd1af2ae4ea)" style="fill: #e377c2"/>
   </g>
   <g id="patch_80">
    <path d="M 363.143704 25489.754884 
L 365.443852 25489.754884 
L 365.443852 43.299656 
L 363.143704 43.299656 
z
" clip-path="url(#pd1af2ae4ea)" style="fill: #e377c2"/>
   </g>
   <g id="patch_81">
    <path d="M 71.0249 25489.754884 
L 73.325048 25489.754884 
L 73.325048 63.783324 
L 71.0249 63.783324 
z
" clip-path="url(#pd1af2ae4ea)" style="fill: #7f7f7f"/>
   </g>
   <g id="patch_82">
    <path d="M 95.559813 25489.754884 
L 97.859961 25489.754884 
L 97.859961 27.890602 
L 95.559813 27.890602 
z
" clip-path="url(#pd1af2ae4ea)" style="fill: #7f7f7f"/>
   </g>
   <g id="patch_83">
    <path d="M 120.094725 25489.754884 
L 122.394873 25489.754884 
L 122.394873 44.237872 
L 120.094725 44.237872 
z
" clip-path="url(#pd1af2ae4ea)" style="fill: #7f7f7f"/>
   </g>
   <g id="patch_84">
    <path d="M 144.629638 25489.754884 
L 146.929786 25489.754884 
L 146.929786 34.275396 
L 144.629638 34.275396 
z
" clip-path="url(#pd1af2ae4ea)" style="fill: #7f7f7f"/>
   </g>
   <g id="patch_85">
    <path d="M 169.164551 25489.754884 
L 171.464699 25489.754884 
L 171.464699 29.664408 
L 169.164551 29.664408 
z
" clip-path="url(#pd1af2ae4ea)" style="fill: #7f7f7f"/>
   </g>
   <g id="patch_86">
    <path d="M 193.699464 25489.754884 
L 195.999612 25489.754884 
L 195.999612 24.251774 
L 193.699464 24.251774 
z
" clip-path="url(#pd1af2ae4ea)" style="fill: #7f7f7f"/>
   </g>
   <g id="patch_87">
    <path d="M 218.234376 25489.754884 
L 220.534524 25489.754884 
L 220.534524 27.911469 
L 218.234376 27.911469 
z
" clip-path="url(#pd1af2ae4ea)" style="fill: #7f7f7f"/>
   </g>
   <g id="patch_88">
    <path d="M 242.769289 25489.754884 
L 245.069437 25489.754884 
L 245.069437 16.537168 
L 242.769289 16.537168 
z
" clip-path="url(#pd1af2ae4ea)" style="fill: #7f7f7f"/>
   </g>
   <g id="patch_89">
    <path d="M 267.304202 25489.754884 
L 269.60435 25489.754884 
L 269.60435 13.767396 
L 267.304202 13.767396 
z
" clip-path="url(#pd1af2ae4ea)" style="fill: #7f7f7f"/>
   </g>
   <g id="patch_90">
    <path d="M 291.839114 25489.754884 
L 294.139262 25489.754884 
L 294.139262 12.708164 
L 291.839114 12.708164 
z
" clip-path="url(#pd1af2ae4ea)" style="fill: #7f7f7f"/>
   </g>
   <g id="patch_91">
    <path d="M 316.374027 25489.754884 
L 318.674175 25489.754884 
L 318.674175 73.406431 
L 316.374027 73.406431 
z
" clip-path="url(#pd1af2ae4ea)" style="fill: #7f7f7f"/>
   </g>
   <g id="patch_92">
    <path d="M 340.90894 25489.754884 
L 343.209088 25489.754884 
L 343.209088 35.775391 
L 340.90894 35.775391 
z
" clip-path="url(#pd1af2ae4ea)" style="fill: #7f7f7f"/>
   </g>
   <g id="patch_93">
    <path d="M 365.443852 25489.754884 
L 367.744001 25489.754884 
L 367.744001 50.902167 
L 365.443852 50.902167 
z
" clip-path="url(#pd1af2ae4ea)" style="fill: #7f7f7f"/>
   </g>
   <g id="patch_94">
    <path d="M 41.698012 98.139617 
L 41.698012 8.64 
" style="fill: none; stroke: #000000; stroke-width: 0.8; stroke-linejoin: miter; stroke-linecap: square"/>
   </g>
   <g id="patch_95">
    <path d="M 383.27 98.139617 
L 383.27 8.64 
" style="fill: none; stroke: #000000; stroke-width: 0.8; stroke-linejoin: miter; stroke-linecap: square"/>
   </g>
   <g id="patch_96">
    <path d="M 41.698012 98.139617 
L 383.27 98.139617 
" style="fill: none; stroke: #000000; stroke-width: 0.8; stroke-linejoin: miter; stroke-linecap: square"/>
   </g>
   <g id="patch_97">
    <path d="M 41.698012 8.64 
L 383.27 8.64 
" style="fill: none; stroke: #000000; stroke-width: 0.8; stroke-linejoin: miter; stroke-linecap: square"/>
   </g>
   <g id="legend_1">
    <g id="patch_98">
     <path d="M 388.87 96.133559 
L 493.1975 96.133559 
Q 494.7975 96.133559 494.7975 94.533559 
L 494.7975 12.246059 
Q 494.7975 10.646059 493.1975 10.646059 
L 388.87 10.646059 
Q 387.27 10.646059 387.27 12.246059 
L 387.27 94.533559 
Q 387.27 96.133559 388.87 96.133559 
z
" style="fill: #ffffff; opacity: 0.8; stroke: #cccccc; stroke-linejoin: miter"/>
    </g>
    <g id="patch_99">
     <path d="M 390.47 19.924809 
L 406.47 19.924809 
L 406.47 14.324809 
L 390.47 14.324809 
z
" style="fill: #ff7f0e"/>
    </g>
    <g id="text_19">
     <!-- Pythran (g++) -->
     <g transform="translate(412.87 19.924809) scale(0.08 -0.08)">
      <defs>
       <path id="DejaVuSans-79" d="M 2059 -325 
Q 1816 -950 1584 -1140 
Q 1353 -1331 966 -1331 
L 506 -1331 
L 506 -850 
L 844 -850 
Q 1081 -850 1212 -737 
Q 1344 -625 1503 -206 
L 1606 56 
L 191 3500 
L 800 3500 
L 1894 763 
L 2988 3500 
L 3597 3500 
L 2059 -325 
z
" transform="scale(0.015625)"/>
       <path id="DejaVuSans-68" d="M 3513 2113 
L 3513 0 
L 2938 0 
L 2938 2094 
Q 2938 2591 2744 2837 
Q 2550 3084 2163 3084 
Q 1697 3084 1428 2787 
Q 1159 2491 1159 1978 
L 1159 0 
L 581 0 
L 581 4863 
L 1159 4863 
L 1159 2956 
Q 1366 3272 1645 3428 
Q 1925 3584 2291 3584 
Q 2894 3584 3203 3211 
Q 3513 2838 3513 2113 
z
" transform="scale(0.015625)"/>
       <path id="DejaVuSans-28" d="M 1984 4856 
Q 1566 4138 1362 3434 
Q 1159 2731 1159 2009 
Q 1159 1288 1364 580 
Q 1569 -128 1984 -844 
L 1484 -844 
Q 1016 -109 783 600 
Q 550 1309 550 2009 
Q 550 2706 781 3412 
Q 1013 4119 1484 4856 
L 1984 4856 
z
" transform="scale(0.015625)"/>
       <path id="DejaVuSans-67" d="M 2906 1791 
Q 2906 2416 2648 2759 
Q 2391 3103 1925 3103 
Q 1463 3103 1205 2759 
Q 947 2416 947 1791 
Q 947 1169 1205 825 
Q 1463 481 1925 481 
Q 2391 481 2648 825 
Q 2906 1169 2906 1791 
z
M 3481 434 
Q 3481 -459 3084 -895 
Q 2688 -1331 1869 -1331 
Q 1566 -1331 1297 -1286 
Q 1028 -1241 775 -1147 
L 775 -588 
Q 1028 -725 1275 -790 
Q 1522 -856 1778 -856 
Q 2344 -856 2625 -561 
Q 2906 -266 2906 331 
L 2906 616 
Q 2728 306 2450 153 
Q 2172 0 1784 0 
Q 1141 0 747 490 
Q 353 981 353 1791 
Q 353 2603 747 3093 
Q 1141 3584 1784 3584 
Q 2172 3584 2450 3431 
Q 2728 3278 2906 2969 
L 2906 3500 
L 3481 3500 
L 3481 434 
z
" transform="scale(0.015625)"/>
       <path id="DejaVuSans-2b" d="M 2944 4013 
L 2944 2272 
L 4684 2272 
L 4684 1741 
L 2944 1741 
L 2944 0 
L 2419 0 
L 2419 1741 
L 678 1741 
L 678 2272 
L 2419 2272 
L 2419 4013 
L 2944 4013 
z
" transform="scale(0.015625)"/>
       <path id="DejaVuSans-29" d="M 513 4856 
L 1013 4856 
Q 1481 4119 1714 3412 
Q 1947 2706 1947 2009 
Q 1947 1309 1714 600 
Q 1481 -109 1013 -844 
L 513 -844 
Q 928 -128 1133 580 
Q 1338 1288 1338 2009 
Q 1338 2731 1133 3434 
Q 928 4138 513 4856 
z
" transform="scale(0.015625)"/>
      </defs>
      <use xlink:href="#DejaVuSans-50"/>
      <use xlink:href="#DejaVuSans-79" transform="translate(60.302734 0)"/>
      <use xlink:href="#DejaVuSans-74" transform="translate(119.482422 0)"/>
      <use xlink:href="#DejaVuSans-68" transform="translate(158.691406 0)"/>
      <use xlink:href="#DejaVuSans-72" transform="translate(222.070312 0)"/>
      <use xlink:href="#DejaVuSans-61" transform="translate(263.183594 0)"/>
      <use xlink:href="#DejaVuSans-6e" transform="translate(324.462891 0)"/>
      <use xlink:href="#DejaVuSans-20" transform="translate(387.841797 0)"/>
      <use xlink:href="#DejaVuSans-28" transform="translate(419.628906 0)"/>
      <use xlink:href="#DejaVuSans-67" transform="translate(458.642578 0)"/>
      <use xlink:href="#DejaVuSans-2b" transform="translate(522.119141 0)"/>
      <use xlink:href="#DejaVuSans-2b" transform="translate(605.908203 0)"/>
      <use xlink:href="#DejaVuSans-29" transform="translate(689.697266 0)"/>
     </g>
    </g>
    <g id="patch_100">
     <path d="M 390.47 31.667309 
L 406.47 31.667309 
L 406.47 26.067309 
L 390.47 26.067309 
z
" style="fill: #2ca02c"/>
    </g>
    <g id="text_20">
     <!-- Pythran (icx) -->
     <g transform="translate(412.87 31.667309) scale(0.08 -0.08)">
      <use xlink:href="#DejaVuSans-50"/>
      <use xlink:href="#DejaVuSans-79" transform="translate(60.302734 0)"/>
      <use xlink:href="#DejaVuSans-74" transform="translate(119.482422 0)"/>
      <use xlink:href="#DejaVuSans-68" transform="translate(158.691406 0)"/>
      <use xlink:href="#DejaVuSans-72" transform="translate(222.070312 0)"/>
      <use xlink:href="#DejaVuSans-61" transform="translate(263.183594 0)"/>
      <use xlink:href="#DejaVuSans-6e" transform="translate(324.462891 0)"/>
      <use xlink:href="#DejaVuSans-20" transform="translate(387.841797 0)"/>
      <use xlink:href="#DejaVuSans-28" transform="translate(419.628906 0)"/>
      <use xlink:href="#DejaVuSans-69" transform="translate(458.642578 0)"/>
      <use xlink:href="#DejaVuSans-63" transform="translate(486.425781 0)"/>
      <use xlink:href="#DejaVuSans-78" transform="translate(541.40625 0)"/>
      <use xlink:href="#DejaVuSans-29" transform="translate(600.585938 0)"/>
     </g>
    </g>
    <g id="patch_101">
     <path d="M 390.47 43.409809 
L 406.47 43.409809 
L 406.47 37.809809 
L 390.47 37.809809 
z
" style="fill: #d62728"/>
    </g>
    <g id="text_21">
     <!-- Numba -->
     <g transform="translate(412.87 43.409809) scale(0.08 -0.08)">
      <defs>
       <path id="DejaVuSans-62" d="M 3116 1747 
Q 3116 2381 2855 2742 
Q 2594 3103 2138 3103 
Q 1681 3103 1420 2742 
Q 1159 2381 1159 1747 
Q 1159 1113 1420 752 
Q 1681 391 2138 391 
Q 2594 391 2855 752 
Q 3116 1113 3116 1747 
z
M 1159 2969 
Q 1341 3281 1617 3432 
Q 1894 3584 2278 3584 
Q 2916 3584 3314 3078 
Q 3713 2572 3713 1747 
Q 3713 922 3314 415 
Q 2916 -91 2278 -91 
Q 1894 -91 1617 61 
Q 1341 213 1159 525 
L 1159 0 
L 581 0 
L 581 4863 
L 1159 4863 
L 1159 2969 
z
" transform="scale(0.015625)"/>
      </defs>
      <use xlink:href="#DejaVuSans-4e"/>
      <use xlink:href="#DejaVuSans-75" transform="translate(74.804688 0)"/>
      <use xlink:href="#DejaVuSans-6d" transform="translate(138.183594 0)"/>
      <use xlink:href="#DejaVuSans-62" transform="translate(235.595703 0)"/>
      <use xlink:href="#DejaVuSans-61" transform="translate(299.072266 0)"/>
     </g>
    </g>
    <g id="patch_102">
     <path d="M 390.47 55.152309 
L 406.47 55.152309 
L 406.47 49.552309 
L 390.47 49.552309 
z
" style="fill: #9467bd"/>
    </g>
    <g id="text_22">
     <!-- pyccel_gnu_c -->
     <g transform="translate(412.87 55.152309) scale(0.08 -0.08)">
      <defs>
       <path id="DejaVuSans-5f" d="M 3263 -1063 
L 3263 -1509 
L -63 -1509 
L -63 -1063 
L 3263 -1063 
z
" transform="scale(0.015625)"/>
      </defs>
      <use xlink:href="#DejaVuSans-70"/>
      <use xlink:href="#DejaVuSans-79" transform="translate(63.476562 0)"/>
      <use xlink:href="#DejaVuSans-63" transform="translate(122.65625 0)"/>
      <use xlink:href="#DejaVuSans-63" transform="translate(177.636719 0)"/>
      <use xlink:href="#DejaVuSans-65" transform="translate(232.617188 0)"/>
      <use xlink:href="#DejaVuSans-6c" transform="translate(294.140625 0)"/>
      <use xlink:href="#DejaVuSans-5f" transform="translate(321.923828 0)"/>
      <use xlink:href="#DejaVuSans-67" transform="translate(371.923828 0)"/>
      <use xlink:href="#DejaVuSans-6e" transform="translate(435.400391 0)"/>
      <use xlink:href="#DejaVuSans-75" transform="translate(498.779297 0)"/>
      <use xlink:href="#DejaVuSans-5f" transform="translate(562.158203 0)"/>
      <use xlink:href="#DejaVuSans-63" transform="translate(612.158203 0)"/>
     </g>
    </g>
    <g id="patch_103">
     <path d="M 390.47 67.117309 
L 406.47 67.117309 
L 406.47 61.517309 
L 390.47 61.517309 
z
" style="fill: #8c564b"/>
    </g>
    <g id="text_23">
     <!-- pyccel_gnu_fortran -->
     <g transform="translate(412.87 67.117309) scale(0.08 -0.08)">
      <defs>
       <path id="DejaVuSans-66" d="M 2375 4863 
L 2375 4384 
L 1825 4384 
Q 1516 4384 1395 4259 
Q 1275 4134 1275 3809 
L 1275 3500 
L 2222 3500 
L 2222 3053 
L 1275 3053 
L 1275 0 
L 697 0 
L 697 3053 
L 147 3053 
L 147 3500 
L 697 3500 
L 697 3744 
Q 697 4328 969 4595 
Q 1241 4863 1831 4863 
L 2375 4863 
z
" transform="scale(0.015625)"/>
      </defs>
      <use xlink:href="#DejaVuSans-70"/>
      <use xlink:href="#DejaVuSans-79" transform="translate(63.476562 0)"/>
      <use xlink:href="#DejaVuSans-63" transform="translate(122.65625 0)"/>
      <use xlink:href="#DejaVuSans-63" transform="translate(177.636719 0)"/>
      <use xlink:href="#DejaVuSans-65" transform="translate(232.617188 0)"/>
      <use xlink:href="#DejaVuSans-6c" transform="translate(294.140625 0)"/>
      <use xlink:href="#DejaVuSans-5f" transform="translate(321.923828 0)"/>
      <use xlink:href="#DejaVuSans-67" transform="translate(371.923828 0)"/>
      <use xlink:href="#DejaVuSans-6e" transform="translate(435.400391 0)"/>
      <use xlink:href="#DejaVuSans-75" transform="translate(498.779297 0)"/>
      <use xlink:href="#DejaVuSans-5f" transform="translate(562.158203 0)"/>
      <use xlink:href="#DejaVuSans-66" transform="translate(612.158203 0)"/>
      <use xlink:href="#DejaVuSans-6f" transform="translate(647.363281 0)"/>
      <use xlink:href="#DejaVuSans-72" transform="translate(708.544922 0)"/>
      <use xlink:href="#DejaVuSans-74" transform="translate(749.658203 0)"/>
      <use xlink:href="#DejaVuSans-72" transform="translate(788.867188 0)"/>
      <use xlink:href="#DejaVuSans-61" transform="translate(829.980469 0)"/>
      <use xlink:href="#DejaVuSans-6e" transform="translate(891.259766 0)"/>
     </g>
    </g>
    <g id="patch_104">
     <path d="M 390.47 79.082309 
L 406.47 79.082309 
L 406.47 73.482309 
L 390.47 73.482309 
z
" style="fill: #e377c2"/>
    </g>
    <g id="text_24">
     <!-- pyccel_intel_c -->
     <g transform="translate(412.87 79.082309) scale(0.08 -0.08)">
      <use xlink:href="#DejaVuSans-70"/>
      <use xlink:href="#DejaVuSans-79" transform="translate(63.476562 0)"/>
      <use xlink:href="#DejaVuSans-63" transform="translate(122.65625 0)"/>
      <use xlink:href="#DejaVuSans-63" transform="translate(177.636719 0)"/>
      <use xlink:href="#DejaVuSans-65" transform="translate(232.617188 0)"/>
      <use xlink:href="#DejaVuSans-6c" transform="translate(294.140625 0)"/>
      <use xlink:href="#DejaVuSans-5f" transform="translate(321.923828 0)"/>
      <use xlink:href="#DejaVuSans-69" transform="translate(371.923828 0)"/>
      <use xlink:href="#DejaVuSans-6e" transform="translate(399.707031 0)"/>
      <use xlink:href="#DejaVuSans-74" transform="translate(463.085938 0)"/>
      <use xlink:href="#DejaVuSans-65" transform="translate(502.294922 0)"/>
      <use xlink:href="#DejaVuSans-6c" transform="translate(563.818359 0)"/>
      <use xlink:href="#DejaVuSans-5f" transform="translate(591.601562 0)"/>
      <use xlink:href="#DejaVuSans-63" transform="translate(641.601562 0)"/>
     </g>
    </g>
    <g id="patch_105">
     <path d="M 390.47 91.047309 
L 406.47 91.047309 
L 406.47 85.447309 
L 390.47 85.447309 
z
" style="fill: #7f7f7f"/>
    </g>
    <g id="text_25">
     <!-- pyccel_intel_fortran -->
     <g transform="translate(412.87 91.047309) scale(0.08 -0.08)">
      <use xlink:href="#DejaVuSans-70"/>
      <use xlink:href="#DejaVuSans-79" transform="translate(63.476562 0)"/>
      <use xlink:href="#DejaVuSans-63" transform="translate(122.65625 0)"/>
      <use xlink:href="#DejaVuSans-63" transform="translate(177.636719 0)"/>
      <use xlink:href="#DejaVuSans-65" transform="translate(232.617188 0)"/>
      <use xlink:href="#DejaVuSans-6c" transform="translate(294.140625 0)"/>
      <use xlink:href="#DejaVuSans-5f" transform="translate(321.923828 0)"/>
      <use xlink:href="#DejaVuSans-69" transform="translate(371.923828 0)"/>
      <use xlink:href="#DejaVuSans-6e" transform="translate(399.707031 0)"/>
      <use xlink:href="#DejaVuSans-74" transform="translate(463.085938 0)"/>
      <use xlink:href="#DejaVuSans-65" transform="translate(502.294922 0)"/>
      <use xlink:href="#DejaVuSans-6c" transform="translate(563.818359 0)"/>
      <use xlink:href="#DejaVuSans-5f" transform="translate(591.601562 0)"/>
      <use xlink:href="#DejaVuSans-66" transform="translate(641.601562 0)"/>
      <use xlink:href="#DejaVuSans-6f" transform="translate(676.806641 0)"/>
      <use xlink:href="#DejaVuSans-72" transform="translate(737.988281 0)"/>
      <use xlink:href="#DejaVuSans-74" transform="translate(779.101562 0)"/>
      <use xlink:href="#DejaVuSans-72" transform="translate(818.310547 0)"/>
      <use xlink:href="#DejaVuSans-61" transform="translate(859.423828 0)"/>
      <use xlink:href="#DejaVuSans-6e" transform="translate(920.703125 0)"/>
     </g>
    </g>
   </g>
  </g>
 </g>
 <defs>
  <clipPath id="pd1af2ae4ea">
   <rect x="41.698012" y="8.64" width="341.571988" height="89.499617"/>
  </clipPath>
 </defs>
</svg>
