<?xml version="1.0" encoding="utf-8" standalone="no"?>
<!DOCTYPE svg PUBLIC "-//W3C//DTD SVG 1.1//EN"
  "http://www.w3.org/Graphics/SVG/1.1/DTD/svg11.dtd">
<svg xmlns:xlink="http://www.w3.org/1999/xlink" width="504pt" height="158.4pt" viewBox="0 0 504 158.4" xmlns="http://www.w3.org/2000/svg" version="1.1">
 <metadata>
  <rdf:RDF xmlns:dc="http://purl.org/dc/elements/1.1/" xmlns:cc="http://creativecommons.org/ns#" xmlns:rdf="http://www.w3.org/1999/02/22-rdf-syntax-ns#">
   <cc:Work>
    <dc:type rdf:resource="http://purl.org/dc/dcmitype/StillImage"/>
    <dc:date>2026-02-27T11:30:34.108145</dc:date>
    <dc:format>image/svg+xml</dc:format>
    <dc:creator>
     <cc:Agent>
      <dc:title>Matplotlib v3.10.8, https://matplotlib.org/</dc:title>
     </cc:Agent>
    </dc:creator>
   </cc:Work>
  </rdf:RDF>
 </metadata>
 <defs>
  <style type="text/css">*{stroke-linejoin: round; stroke-linecap: butt}</style>
 </defs>
 <g id="figure_1">
  <g id="patch_1">
   <path d="M 0 158.4 
L 504 158.4 
L 504 0 
L 0 0 
z
" style="fill: #ffffff"/>
  </g>
  <g id="axes_1">
   <g id="patch_2">
    <path d="M 31.97 98.139617 
L 383.27 98.139617 
L 383.27 11.504756 
L 31.97 11.504756 
z
" style="fill: #ffffff"/>
   </g>
   <g id="matplotlib.axis_1">
    <g id="xtick_1">
     <g id="line2d_1">
      <defs>
       <path id="m2aa8f9588f" d="M 0 0 
L 0 3.5 
" style="stroke: #000000; stroke-width: 0.8"/>
      </defs>
      <g>
       <use xlink:href="#m2aa8f9588f" x="53.305638" y="98.139617" style="stroke: #000000; stroke-width: 0.8"/>
      </g>
     </g>
     <g id="text_1">
      <!-- Ackermann -->
      <g transform="translate(17.39119 132.893969) rotate(-30) scale(0.08 -0.08)">
       <defs>
        <path id="DejaVuSans-41" d="M 2188 4044 
L 1331 1722 
L 3047 1722 
L 2188 4044 
z
M 1831 4666 
L 2547 4666 
L 4325 0 
L 3669 0 
L 3244 1197 
L 1141 1197 
L 716 0 
L 50 0 
L 1831 4666 
z
" transform="scale(0.015625)"/>
        <path id="DejaVuSans-63" d="M 3122 3366 
L 3122 2828 
Q 2878 2963 2633 3030 
Q 2388 3097 2138 3097 
Q 1578 3097 1268 2742 
Q 959 2388 959 1747 
Q 959 1106 1268 751 
Q 1578 397 2138 397 
Q 2388 397 2633 464 
Q 2878 531 3122 666 
L 3122 134 
Q 2881 22 2623 -34 
Q 2366 -91 2075 -91 
Q 1284 -91 818 406 
Q 353 903 353 1747 
Q 353 2603 823 3093 
Q 1294 3584 2113 3584 
Q 2378 3584 2631 3529 
Q 2884 3475 3122 3366 
z
" transform="scale(0.015625)"/>
        <path id="DejaVuSans-6b" d="M 581 4863 
L 1159 4863 
L 1159 1991 
L 2875 3500 
L 3609 3500 
L 1753 1863 
L 3688 0 
L 2938 0 
L 1159 1709 
L 1159 0 
L 581 0 
L 581 4863 
z
" transform="scale(0.015625)"/>
        <path id="DejaVuSans-65" d="M 3597 1894 
L 3597 1613 
L 953 1613 
Q 991 1019 1311 708 
Q 1631 397 2203 397 
Q 2534 397 2845 478 
Q 3156 559 3463 722 
L 3463 178 
Q 3153 47 2828 -22 
Q 2503 -91 2169 -91 
Q 1331 -91 842 396 
Q 353 884 353 1716 
Q 353 2575 817 3079 
Q 1281 3584 2069 3584 
Q 2775 3584 3186 3129 
Q 3597 2675 3597 1894 
z
M 3022 2063 
Q 3016 2534 2758 2815 
Q 2500 3097 2075 3097 
Q 1594 3097 1305 2825 
Q 1016 2553 972 2059 
L 3022 2063 
z
" transform="scale(0.015625)"/>
        <path id="DejaVuSans-72" d="M 2631 2963 
Q 2534 3019 2420 3045 
Q 2306 3072 2169 3072 
Q 1681 3072 1420 2755 
Q 1159 2438 1159 1844 
L 1159 0 
L 581 0 
L 581 3500 
L 1159 3500 
L 1159 2956 
Q 1341 3275 1631 3429 
Q 1922 3584 2338 3584 
Q 2397 3584 2469 3576 
Q 2541 3569 2628 3553 
L 2631 2963 
z
" transform="scale(0.015625)"/>
        <path id="DejaVuSans-6d" d="M 3328 2828 
Q 3544 3216 3844 3400 
Q 4144 3584 4550 3584 
Q 5097 3584 5394 3201 
Q 5691 2819 5691 2113 
L 5691 0 
L 5113 0 
L 5113 2094 
Q 5113 2597 4934 2840 
Q 4756 3084 4391 3084 
Q 3944 3084 3684 2787 
Q 3425 2491 3425 1978 
L 3425 0 
L 2847 0 
L 2847 2094 
Q 2847 2600 2669 2842 
Q 2491 3084 2119 3084 
Q 1678 3084 1418 2786 
Q 1159 2488 1159 1978 
L 1159 0 
L 581 0 
L 581 3500 
L 1159 3500 
L 1159 2956 
Q 1356 3278 1631 3431 
Q 1906 3584 2284 3584 
Q 2666 3584 2933 3390 
Q 3200 3197 3328 2828 
z
" transform="scale(0.015625)"/>
        <path id="DejaVuSans-61" d="M 2194 1759 
Q 1497 1759 1228 1600 
Q 959 1441 959 1056 
Q 959 750 1161 570 
Q 1363 391 1709 391 
Q 2188 391 2477 730 
Q 2766 1069 2766 1631 
L 2766 1759 
L 2194 1759 
z
M 3341 1997 
L 3341 0 
L 2766 0 
L 2766 531 
Q 2569 213 2275 61 
Q 1981 -91 1556 -91 
Q 1019 -91 701 211 
Q 384 513 384 1019 
Q 384 1609 779 1909 
Q 1175 2209 1959 2209 
L 2766 2209 
L 2766 2266 
Q 2766 2663 2505 2880 
Q 2244 3097 1772 3097 
Q 1472 3097 1187 3025 
Q 903 2953 641 2809 
L 641 3341 
Q 956 3463 1253 3523 
Q 1550 3584 1831 3584 
Q 2591 3584 2966 3190 
Q 3341 2797 3341 1997 
z
" transform="scale(0.015625)"/>
        <path id="DejaVuSans-6e" d="M 3513 2113 
L 3513 0 
L 2938 0 
L 2938 2094 
Q 2938 2591 2744 2837 
Q 2550 3084 2163 3084 
Q 1697 3084 1428 2787 
Q 1159 2491 1159 1978 
L 1159 0 
L 581 0 
L 581 3500 
L 1159 3500 
L 1159 2956 
Q 1366 3272 1645 3428 
Q 1925 3584 2291 3584 
Q 2894 3584 3203 3211 
Q 3513 2838 3513 2113 
z
" transform="scale(0.015625)"/>
       </defs>
       <use xlink:href="#DejaVuSans-41"/>
       <use xlink:href="#DejaVuSans-63" transform="translate(66.658203 0)"/>
       <use xlink:href="#DejaVuSans-6b" transform="translate(121.638672 0)"/>
       <use xlink:href="#DejaVuSans-65" transform="translate(175.923828 0)"/>
       <use xlink:href="#DejaVuSans-72" transform="translate(237.447266 0)"/>
       <use xlink:href="#DejaVuSans-6d" transform="translate(276.810547 0)"/>
       <use xlink:href="#DejaVuSans-61" transform="translate(374.222656 0)"/>
       <use xlink:href="#DejaVuSans-6e" transform="translate(435.501953 0)"/>
       <use xlink:href="#DejaVuSans-6e" transform="translate(498.880859 0)"/>
      </g>
     </g>
    </g>
    <g id="xtick_2">
     <g id="line2d_2">
      <g>
       <use xlink:href="#m2aa8f9588f" x="78.353766" y="98.139617" style="stroke: #000000; stroke-width: 0.8"/>
      </g>
     </g>
     <g id="text_2">
      <!-- Bellman Ford -->
      <g transform="translate(35.84237 136.702719) rotate(-30) scale(0.08 -0.08)">
       <defs>
        <path id="DejaVuSans-42" d="M 1259 2228 
L 1259 519 
L 2272 519 
Q 2781 519 3026 730 
Q 3272 941 3272 1375 
Q 3272 1813 3026 2020 
Q 2781 2228 2272 2228 
L 1259 2228 
z
M 1259 4147 
L 1259 2741 
L 2194 2741 
Q 2656 2741 2882 2914 
Q 3109 3088 3109 3444 
Q 3109 3797 2882 3972 
Q 2656 4147 2194 4147 
L 1259 4147 
z
M 628 4666 
L 2241 4666 
Q 2963 4666 3353 4366 
Q 3744 4066 3744 3513 
Q 3744 3084 3544 2831 
Q 3344 2578 2956 2516 
Q 3422 2416 3680 2098 
Q 3938 1781 3938 1306 
Q 3938 681 3513 340 
Q 3088 0 2303 0 
L 628 0 
L 628 4666 
z
" transform="scale(0.015625)"/>
        <path id="DejaVuSans-6c" d="M 603 4863 
L 1178 4863 
L 1178 0 
L 603 0 
L 603 4863 
z
" transform="scale(0.015625)"/>
        <path id="DejaVuSans-20" transform="scale(0.015625)"/>
        <path id="DejaVuSans-46" d="M 628 4666 
L 3309 4666 
L 3309 4134 
L 1259 4134 
L 1259 2759 
L 3109 2759 
L 3109 2228 
L 1259 2228 
L 1259 0 
L 628 0 
L 628 4666 
z
" transform="scale(0.015625)"/>
        <path id="DejaVuSans-6f" d="M 1959 3097 
Q 1497 3097 1228 2736 
Q 959 2375 959 1747 
Q 959 1119 1226 758 
Q 1494 397 1959 397 
Q 2419 397 2687 759 
Q 2956 1122 2956 1747 
Q 2956 2369 2687 2733 
Q 2419 3097 1959 3097 
z
M 1959 3584 
Q 2709 3584 3137 3096 
Q 3566 2609 3566 1747 
Q 3566 888 3137 398 
Q 2709 -91 1959 -91 
Q 1206 -91 779 398 
Q 353 888 353 1747 
Q 353 2609 779 3096 
Q 1206 3584 1959 3584 
z
" transform="scale(0.015625)"/>
        <path id="DejaVuSans-64" d="M 2906 2969 
L 2906 4863 
L 3481 4863 
L 3481 0 
L 2906 0 
L 2906 525 
Q 2725 213 2448 61 
Q 2172 -91 1784 -91 
Q 1150 -91 751 415 
Q 353 922 353 1747 
Q 353 2572 751 3078 
Q 1150 3584 1784 3584 
Q 2172 3584 2448 3432 
Q 2725 3281 2906 2969 
z
M 947 1747 
Q 947 1113 1208 752 
Q 1469 391 1925 391 
Q 2381 391 2643 752 
Q 2906 1113 2906 1747 
Q 2906 2381 2643 2742 
Q 2381 3103 1925 3103 
Q 1469 3103 1208 2742 
Q 947 2381 947 1747 
z
" transform="scale(0.015625)"/>
       </defs>
       <use xlink:href="#DejaVuSans-42"/>
       <use xlink:href="#DejaVuSans-65" transform="translate(68.603516 0)"/>
       <use xlink:href="#DejaVuSans-6c" transform="translate(130.126953 0)"/>
       <use xlink:href="#DejaVuSans-6c" transform="translate(157.910156 0)"/>
       <use xlink:href="#DejaVuSans-6d" transform="translate(185.693359 0)"/>
       <use xlink:href="#DejaVuSans-61" transform="translate(283.105469 0)"/>
       <use xlink:href="#DejaVuSans-6e" transform="translate(344.384766 0)"/>
       <use xlink:href="#DejaVuSans-20" transform="translate(407.763672 0)"/>
       <use xlink:href="#DejaVuSans-46" transform="translate(439.550781 0)"/>
       <use xlink:href="#DejaVuSans-6f" transform="translate(493.445312 0)"/>
       <use xlink:href="#DejaVuSans-72" transform="translate(554.626953 0)"/>
       <use xlink:href="#DejaVuSans-64" transform="translate(593.990234 0)"/>
      </g>
     </g>
    </g>
    <g id="xtick_3">
     <g id="line2d_3">
      <g>
       <use xlink:href="#m2aa8f9588f" x="103.401895" y="98.139617" style="stroke: #000000; stroke-width: 0.8"/>
      </g>
     </g>
     <g id="text_3">
      <!-- Dijkstra -->
      <g transform="translate(79.826144 125.770219) rotate(-30) scale(0.08 -0.08)">
       <defs>
        <path id="DejaVuSans-44" d="M 1259 4147 
L 1259 519 
L 2022 519 
Q 2988 519 3436 956 
Q 3884 1394 3884 2338 
Q 3884 3275 3436 3711 
Q 2988 4147 2022 4147 
L 1259 4147 
z
M 628 4666 
L 1925 4666 
Q 3281 4666 3915 4102 
Q 4550 3538 4550 2338 
Q 4550 1131 3912 565 
Q 3275 0 1925 0 
L 628 0 
L 628 4666 
z
" transform="scale(0.015625)"/>
        <path id="DejaVuSans-69" d="M 603 3500 
L 1178 3500 
L 1178 0 
L 603 0 
L 603 3500 
z
M 603 4863 
L 1178 4863 
L 1178 4134 
L 603 4134 
L 603 4863 
z
" transform="scale(0.015625)"/>
        <path id="DejaVuSans-6a" d="M 603 3500 
L 1178 3500 
L 1178 -63 
Q 1178 -731 923 -1031 
Q 669 -1331 103 -1331 
L -116 -1331 
L -116 -844 
L 38 -844 
Q 366 -844 484 -692 
Q 603 -541 603 -63 
L 603 3500 
z
M 603 4863 
L 1178 4863 
L 1178 4134 
L 603 4134 
L 603 4863 
z
" transform="scale(0.015625)"/>
        <path id="DejaVuSans-73" d="M 2834 3397 
L 2834 2853 
Q 2591 2978 2328 3040 
Q 2066 3103 1784 3103 
Q 1356 3103 1142 2972 
Q 928 2841 928 2578 
Q 928 2378 1081 2264 
Q 1234 2150 1697 2047 
L 1894 2003 
Q 2506 1872 2764 1633 
Q 3022 1394 3022 966 
Q 3022 478 2636 193 
Q 2250 -91 1575 -91 
Q 1294 -91 989 -36 
Q 684 19 347 128 
L 347 722 
Q 666 556 975 473 
Q 1284 391 1588 391 
Q 1994 391 2212 530 
Q 2431 669 2431 922 
Q 2431 1156 2273 1281 
Q 2116 1406 1581 1522 
L 1381 1569 
Q 847 1681 609 1914 
Q 372 2147 372 2553 
Q 372 3047 722 3315 
Q 1072 3584 1716 3584 
Q 2034 3584 2315 3537 
Q 2597 3491 2834 3397 
z
" transform="scale(0.015625)"/>
        <path id="DejaVuSans-74" d="M 1172 4494 
L 1172 3500 
L 2356 3500 
L 2356 3053 
L 1172 3053 
L 1172 1153 
Q 1172 725 1289 603 
Q 1406 481 1766 481 
L 2356 481 
L 2356 0 
L 1766 0 
Q 1100 0 847 248 
Q 594 497 594 1153 
L 594 3053 
L 172 3053 
L 172 3500 
L 594 3500 
L 594 4494 
L 1172 4494 
z
" transform="scale(0.015625)"/>
       </defs>
       <use xlink:href="#DejaVuSans-44"/>
       <use xlink:href="#DejaVuSans-69" transform="translate(77.001953 0)"/>
       <use xlink:href="#DejaVuSans-6a" transform="translate(104.785156 0)"/>
       <use xlink:href="#DejaVuSans-6b" transform="translate(132.568359 0)"/>
       <use xlink:href="#DejaVuSans-73" transform="translate(190.478516 0)"/>
       <use xlink:href="#DejaVuSans-74" transform="translate(242.578125 0)"/>
       <use xlink:href="#DejaVuSans-72" transform="translate(281.787109 0)"/>
       <use xlink:href="#DejaVuSans-61" transform="translate(322.900391 0)"/>
      </g>
     </g>
    </g>
    <g id="xtick_4">
     <g id="line2d_4">
      <g>
       <use xlink:href="#m2aa8f9588f" x="128.450023" y="98.139617" style="stroke: #000000; stroke-width: 0.8"/>
      </g>
     </g>
     <g id="text_4">
      <!-- Euler -->
      <g transform="translate(113.684998 120.683344) rotate(-30) scale(0.08 -0.08)">
       <defs>
        <path id="DejaVuSans-45" d="M 628 4666 
L 3578 4666 
L 3578 4134 
L 1259 4134 
L 1259 2753 
L 3481 2753 
L 3481 2222 
L 1259 2222 
L 1259 531 
L 3634 531 
L 3634 0 
L 628 0 
L 628 4666 
z
" transform="scale(0.015625)"/>
        <path id="DejaVuSans-75" d="M 544 1381 
L 544 3500 
L 1119 3500 
L 1119 1403 
Q 1119 906 1312 657 
Q 1506 409 1894 409 
Q 2359 409 2629 706 
Q 2900 1003 2900 1516 
L 2900 3500 
L 3475 3500 
L 3475 0 
L 2900 0 
L 2900 538 
Q 2691 219 2414 64 
Q 2138 -91 1772 -91 
Q 1169 -91 856 284 
Q 544 659 544 1381 
z
M 1991 3584 
L 1991 3584 
z
" transform="scale(0.015625)"/>
       </defs>
       <use xlink:href="#DejaVuSans-45"/>
       <use xlink:href="#DejaVuSans-75" transform="translate(63.183594 0)"/>
       <use xlink:href="#DejaVuSans-6c" transform="translate(126.5625 0)"/>
       <use xlink:href="#DejaVuSans-65" transform="translate(154.345703 0)"/>
       <use xlink:href="#DejaVuSans-72" transform="translate(215.869141 0)"/>
      </g>
     </g>
    </g>
    <g id="xtick_5">
     <g id="line2d_5">
      <g>
       <use xlink:href="#m2aa8f9588f" x="153.498151" y="98.139617" style="stroke: #000000; stroke-width: 0.8"/>
      </g>
     </g>
     <g id="text_5">
      <!-- Midpoint Explicit -->
      <g transform="translate(99.189324 143.513969) rotate(-30) scale(0.08 -0.08)">
       <defs>
        <path id="DejaVuSans-4d" d="M 628 4666 
L 1569 4666 
L 2759 1491 
L 3956 4666 
L 4897 4666 
L 4897 0 
L 4281 0 
L 4281 4097 
L 3078 897 
L 2444 897 
L 1241 4097 
L 1241 0 
L 628 0 
L 628 4666 
z
" transform="scale(0.015625)"/>
        <path id="DejaVuSans-70" d="M 1159 525 
L 1159 -1331 
L 581 -1331 
L 581 3500 
L 1159 3500 
L 1159 2969 
Q 1341 3281 1617 3432 
Q 1894 3584 2278 3584 
Q 2916 3584 3314 3078 
Q 3713 2572 3713 1747 
Q 3713 922 3314 415 
Q 2916 -91 2278 -91 
Q 1894 -91 1617 61 
Q 1341 213 1159 525 
z
M 3116 1747 
Q 3116 2381 2855 2742 
Q 2594 3103 2138 3103 
Q 1681 3103 1420 2742 
Q 1159 2381 1159 1747 
Q 1159 1113 1420 752 
Q 1681 391 2138 391 
Q 2594 391 2855 752 
Q 3116 1113 3116 1747 
z
" transform="scale(0.015625)"/>
        <path id="DejaVuSans-78" d="M 3513 3500 
L 2247 1797 
L 3578 0 
L 2900 0 
L 1881 1375 
L 863 0 
L 184 0 
L 1544 1831 
L 300 3500 
L 978 3500 
L 1906 2253 
L 2834 3500 
L 3513 3500 
z
" transform="scale(0.015625)"/>
       </defs>
       <use xlink:href="#DejaVuSans-4d"/>
       <use xlink:href="#DejaVuSans-69" transform="translate(86.279297 0)"/>
       <use xlink:href="#DejaVuSans-64" transform="translate(114.0625 0)"/>
       <use xlink:href="#DejaVuSans-70" transform="translate(177.539062 0)"/>
       <use xlink:href="#DejaVuSans-6f" transform="translate(241.015625 0)"/>
       <use xlink:href="#DejaVuSans-69" transform="translate(302.197266 0)"/>
       <use xlink:href="#DejaVuSans-6e" transform="translate(329.980469 0)"/>
       <use xlink:href="#DejaVuSans-74" transform="translate(393.359375 0)"/>
       <use xlink:href="#DejaVuSans-20" transform="translate(432.568359 0)"/>
       <use xlink:href="#DejaVuSans-45" transform="translate(464.355469 0)"/>
       <use xlink:href="#DejaVuSans-78" transform="translate(527.539062 0)"/>
       <use xlink:href="#DejaVuSans-70" transform="translate(586.71875 0)"/>
       <use xlink:href="#DejaVuSans-6c" transform="translate(650.195312 0)"/>
       <use xlink:href="#DejaVuSans-69" transform="translate(677.978516 0)"/>
       <use xlink:href="#DejaVuSans-63" transform="translate(705.761719 0)"/>
       <use xlink:href="#DejaVuSans-69" transform="translate(760.742188 0)"/>
       <use xlink:href="#DejaVuSans-74" transform="translate(788.525391 0)"/>
      </g>
     </g>
    </g>
    <g id="xtick_6">
     <g id="line2d_6">
      <g>
       <use xlink:href="#m2aa8f9588f" x="178.54628" y="98.139617" style="stroke: #000000; stroke-width: 0.8"/>
      </g>
     </g>
     <g id="text_6">
      <!-- Midpoint Fixed -->
      <g transform="translate(131.461187 139.343344) rotate(-30) scale(0.08 -0.08)">
       <use xlink:href="#DejaVuSans-4d"/>
       <use xlink:href="#DejaVuSans-69" transform="translate(86.279297 0)"/>
       <use xlink:href="#DejaVuSans-64" transform="translate(114.0625 0)"/>
       <use xlink:href="#DejaVuSans-70" transform="translate(177.539062 0)"/>
       <use xlink:href="#DejaVuSans-6f" transform="translate(241.015625 0)"/>
       <use xlink:href="#DejaVuSans-69" transform="translate(302.197266 0)"/>
       <use xlink:href="#DejaVuSans-6e" transform="translate(329.980469 0)"/>
       <use xlink:href="#DejaVuSans-74" transform="translate(393.359375 0)"/>
       <use xlink:href="#DejaVuSans-20" transform="translate(432.568359 0)"/>
       <use xlink:href="#DejaVuSans-46" transform="translate(464.355469 0)"/>
       <use xlink:href="#DejaVuSans-69" transform="translate(514.625 0)"/>
       <use xlink:href="#DejaVuSans-78" transform="translate(542.408203 0)"/>
       <use xlink:href="#DejaVuSans-65" transform="translate(598.462891 0)"/>
       <use xlink:href="#DejaVuSans-64" transform="translate(659.986328 0)"/>
      </g>
     </g>
    </g>
    <g id="xtick_7">
     <g id="line2d_7">
      <g>
       <use xlink:href="#m2aa8f9588f" x="203.594408" y="98.139617" style="stroke: #000000; stroke-width: 0.8"/>
      </g>
     </g>
     <g id="text_7">
      <!-- RK4 -->
      <g transform="translate(192.868309 118.351469) rotate(-30) scale(0.08 -0.08)">
       <defs>
        <path id="DejaVuSans-52" d="M 2841 2188 
Q 3044 2119 3236 1894 
Q 3428 1669 3622 1275 
L 4263 0 
L 3584 0 
L 2988 1197 
Q 2756 1666 2539 1819 
Q 2322 1972 1947 1972 
L 1259 1972 
L 1259 0 
L 628 0 
L 628 4666 
L 2053 4666 
Q 2853 4666 3247 4331 
Q 3641 3997 3641 3322 
Q 3641 2881 3436 2590 
Q 3231 2300 2841 2188 
z
M 1259 4147 
L 1259 2491 
L 2053 2491 
Q 2509 2491 2742 2702 
Q 2975 2913 2975 3322 
Q 2975 3731 2742 3939 
Q 2509 4147 2053 4147 
L 1259 4147 
z
" transform="scale(0.015625)"/>
        <path id="DejaVuSans-4b" d="M 628 4666 
L 1259 4666 
L 1259 2694 
L 3353 4666 
L 4166 4666 
L 1850 2491 
L 4331 0 
L 3500 0 
L 1259 2247 
L 1259 0 
L 628 0 
L 628 4666 
z
" transform="scale(0.015625)"/>
        <path id="DejaVuSans-34" d="M 2419 4116 
L 825 1625 
L 2419 1625 
L 2419 4116 
z
M 2253 4666 
L 3047 4666 
L 3047 1625 
L 3713 1625 
L 3713 1100 
L 3047 1100 
L 3047 0 
L 2419 0 
L 2419 1100 
L 313 1100 
L 313 1709 
L 2253 4666 
z
" transform="scale(0.015625)"/>
       </defs>
       <use xlink:href="#DejaVuSans-52"/>
       <use xlink:href="#DejaVuSans-4b" transform="translate(69.482422 0)"/>
       <use xlink:href="#DejaVuSans-34" transform="translate(135.058594 0)"/>
      </g>
     </g>
    </g>
    <g id="xtick_8">
     <g id="line2d_8">
      <g>
       <use xlink:href="#m2aa8f9588f" x="228.642536" y="98.139617" style="stroke: #000000; stroke-width: 0.8"/>
      </g>
     </g>
     <g id="text_8">
      <!-- FD - L Convection -->
      <g transform="translate(170.485309 145.735844) rotate(-30) scale(0.08 -0.08)">
       <defs>
        <path id="DejaVuSans-2d" d="M 313 2009 
L 1997 2009 
L 1997 1497 
L 313 1497 
L 313 2009 
z
" transform="scale(0.015625)"/>
        <path id="DejaVuSans-4c" d="M 628 4666 
L 1259 4666 
L 1259 531 
L 3531 531 
L 3531 0 
L 628 0 
L 628 4666 
z
" transform="scale(0.015625)"/>
        <path id="DejaVuSans-43" d="M 4122 4306 
L 4122 3641 
Q 3803 3938 3442 4084 
Q 3081 4231 2675 4231 
Q 1875 4231 1450 3742 
Q 1025 3253 1025 2328 
Q 1025 1406 1450 917 
Q 1875 428 2675 428 
Q 3081 428 3442 575 
Q 3803 722 4122 1019 
L 4122 359 
Q 3791 134 3420 21 
Q 3050 -91 2638 -91 
Q 1578 -91 968 557 
Q 359 1206 359 2328 
Q 359 3453 968 4101 
Q 1578 4750 2638 4750 
Q 3056 4750 3426 4639 
Q 3797 4528 4122 4306 
z
" transform="scale(0.015625)"/>
        <path id="DejaVuSans-76" d="M 191 3500 
L 800 3500 
L 1894 563 
L 2988 3500 
L 3597 3500 
L 2284 0 
L 1503 0 
L 191 3500 
z
" transform="scale(0.015625)"/>
       </defs>
       <use xlink:href="#DejaVuSans-46"/>
       <use xlink:href="#DejaVuSans-44" transform="translate(57.519531 0)"/>
       <use xlink:href="#DejaVuSans-20" transform="translate(134.521484 0)"/>
       <use xlink:href="#DejaVuSans-2d" transform="translate(166.308594 0)"/>
       <use xlink:href="#DejaVuSans-20" transform="translate(202.392578 0)"/>
       <use xlink:href="#DejaVuSans-4c" transform="translate(234.179688 0)"/>
       <use xlink:href="#DejaVuSans-20" transform="translate(289.892578 0)"/>
       <use xlink:href="#DejaVuSans-43" transform="translate(321.679688 0)"/>
       <use xlink:href="#DejaVuSans-6f" transform="translate(391.503906 0)"/>
       <use xlink:href="#DejaVuSans-6e" transform="translate(452.685547 0)"/>
       <use xlink:href="#DejaVuSans-76" transform="translate(516.064453 0)"/>
       <use xlink:href="#DejaVuSans-65" transform="translate(575.244141 0)"/>
       <use xlink:href="#DejaVuSans-63" transform="translate(636.767578 0)"/>
       <use xlink:href="#DejaVuSans-74" transform="translate(691.748047 0)"/>
       <use xlink:href="#DejaVuSans-69" transform="translate(730.957031 0)"/>
       <use xlink:href="#DejaVuSans-6f" transform="translate(758.740234 0)"/>
       <use xlink:href="#DejaVuSans-6e" transform="translate(819.921875 0)"/>
      </g>
     </g>
    </g>
    <g id="xtick_9">
     <g id="line2d_9">
      <g>
       <use xlink:href="#m2aa8f9588f" x="253.690665" y="98.139617" style="stroke: #000000; stroke-width: 0.8"/>
      </g>
     </g>
     <g id="text_9">
      <!-- FD - NL Convection -->
      <g transform="translate(190.350275 148.728344) rotate(-30) scale(0.08 -0.08)">
       <defs>
        <path id="DejaVuSans-4e" d="M 628 4666 
L 1478 4666 
L 3547 763 
L 3547 4666 
L 4159 4666 
L 4159 0 
L 3309 0 
L 1241 3903 
L 1241 0 
L 628 0 
L 628 4666 
z
" transform="scale(0.015625)"/>
       </defs>
       <use xlink:href="#DejaVuSans-46"/>
       <use xlink:href="#DejaVuSans-44" transform="translate(57.519531 0)"/>
       <use xlink:href="#DejaVuSans-20" transform="translate(134.521484 0)"/>
       <use xlink:href="#DejaVuSans-2d" transform="translate(166.308594 0)"/>
       <use xlink:href="#DejaVuSans-20" transform="translate(202.392578 0)"/>
       <use xlink:href="#DejaVuSans-4e" transform="translate(234.179688 0)"/>
       <use xlink:href="#DejaVuSans-4c" transform="translate(308.984375 0)"/>
       <use xlink:href="#DejaVuSans-20" transform="translate(364.697266 0)"/>
       <use xlink:href="#DejaVuSans-43" transform="translate(396.484375 0)"/>
       <use xlink:href="#DejaVuSans-6f" transform="translate(466.308594 0)"/>
       <use xlink:href="#DejaVuSans-6e" transform="translate(527.490234 0)"/>
       <use xlink:href="#DejaVuSans-76" transform="translate(590.869141 0)"/>
       <use xlink:href="#DejaVuSans-65" transform="translate(650.048828 0)"/>
       <use xlink:href="#DejaVuSans-63" transform="translate(711.572266 0)"/>
       <use xlink:href="#DejaVuSans-74" transform="translate(766.552734 0)"/>
       <use xlink:href="#DejaVuSans-69" transform="translate(805.761719 0)"/>
       <use xlink:href="#DejaVuSans-6f" transform="translate(833.544922 0)"/>
       <use xlink:href="#DejaVuSans-6e" transform="translate(894.726562 0)"/>
      </g>
     </g>
    </g>
    <g id="xtick_10">
     <g id="line2d_10">
      <g>
       <use xlink:href="#m2aa8f9588f" x="278.738793" y="98.139617" style="stroke: #000000; stroke-width: 0.8"/>
      </g>
     </g>
     <g id="text_10">
      <!-- FD - Poisson -->
      <g transform="translate(239.616804 134.745844) rotate(-30) scale(0.08 -0.08)">
       <defs>
        <path id="DejaVuSans-50" d="M 1259 4147 
L 1259 2394 
L 2053 2394 
Q 2494 2394 2734 2622 
Q 2975 2850 2975 3272 
Q 2975 3691 2734 3919 
Q 2494 4147 2053 4147 
L 1259 4147 
z
M 628 4666 
L 2053 4666 
Q 2838 4666 3239 4311 
Q 3641 3956 3641 3272 
Q 3641 2581 3239 2228 
Q 2838 1875 2053 1875 
L 1259 1875 
L 1259 0 
L 628 0 
L 628 4666 
z
" transform="scale(0.015625)"/>
       </defs>
       <use xlink:href="#DejaVuSans-46"/>
       <use xlink:href="#DejaVuSans-44" transform="translate(57.519531 0)"/>
       <use xlink:href="#DejaVuSans-20" transform="translate(134.521484 0)"/>
       <use xlink:href="#DejaVuSans-2d" transform="translate(166.308594 0)"/>
       <use xlink:href="#DejaVuSans-20" transform="translate(202.392578 0)"/>
       <use xlink:href="#DejaVuSans-50" transform="translate(234.179688 0)"/>
       <use xlink:href="#DejaVuSans-6f" transform="translate(290.857422 0)"/>
       <use xlink:href="#DejaVuSans-69" transform="translate(352.039062 0)"/>
       <use xlink:href="#DejaVuSans-73" transform="translate(379.822266 0)"/>
       <use xlink:href="#DejaVuSans-73" transform="translate(431.921875 0)"/>
       <use xlink:href="#DejaVuSans-6f" transform="translate(484.021484 0)"/>
       <use xlink:href="#DejaVuSans-6e" transform="translate(545.203125 0)"/>
      </g>
     </g>
    </g>
    <g id="xtick_11">
     <g id="line2d_11">
      <g>
       <use xlink:href="#m2aa8f9588f" x="303.786921" y="98.139617" style="stroke: #000000; stroke-width: 0.8"/>
      </g>
     </g>
     <g id="text_11">
      <!-- FD - Laplace -->
      <g transform="translate(263.856281 135.212719) rotate(-30) scale(0.08 -0.08)">
       <use xlink:href="#DejaVuSans-46"/>
       <use xlink:href="#DejaVuSans-44" transform="translate(57.519531 0)"/>
       <use xlink:href="#DejaVuSans-20" transform="translate(134.521484 0)"/>
       <use xlink:href="#DejaVuSans-2d" transform="translate(166.308594 0)"/>
       <use xlink:href="#DejaVuSans-20" transform="translate(202.392578 0)"/>
       <use xlink:href="#DejaVuSans-4c" transform="translate(234.179688 0)"/>
       <use xlink:href="#DejaVuSans-61" transform="translate(289.892578 0)"/>
       <use xlink:href="#DejaVuSans-70" transform="translate(351.171875 0)"/>
       <use xlink:href="#DejaVuSans-6c" transform="translate(414.648438 0)"/>
       <use xlink:href="#DejaVuSans-61" transform="translate(442.431641 0)"/>
       <use xlink:href="#DejaVuSans-63" transform="translate(503.710938 0)"/>
       <use xlink:href="#DejaVuSans-65" transform="translate(558.691406 0)"/>
      </g>
     </g>
    </g>
    <g id="xtick_12">
     <g id="line2d_12">
      <g>
       <use xlink:href="#m2aa8f9588f" x="328.83505" y="98.139617" style="stroke: #000000; stroke-width: 0.8"/>
      </g>
     </g>
     <g id="text_12">
      <!-- M-D -->
      <g transform="translate(318.062402 118.378344) rotate(-30) scale(0.08 -0.08)">
       <use xlink:href="#DejaVuSans-4d"/>
       <use xlink:href="#DejaVuSans-2d" transform="translate(86.279297 0)"/>
       <use xlink:href="#DejaVuSans-44" transform="translate(122.363281 0)"/>
      </g>
     </g>
    </g>
    <g id="xtick_13">
     <g id="line2d_13">
      <g>
       <use xlink:href="#m2aa8f9588f" x="353.883178" y="98.139617" style="stroke: #000000; stroke-width: 0.8"/>
      </g>
     </g>
     <g id="text_13">
      <!-- Splines -->
      <g transform="translate(332.013497 124.785219) rotate(-30) scale(0.08 -0.08)">
       <defs>
        <path id="DejaVuSans-53" d="M 3425 4513 
L 3425 3897 
Q 3066 4069 2747 4153 
Q 2428 4238 2131 4238 
Q 1616 4238 1336 4038 
Q 1056 3838 1056 3469 
Q 1056 3159 1242 3001 
Q 1428 2844 1947 2747 
L 2328 2669 
Q 3034 2534 3370 2195 
Q 3706 1856 3706 1288 
Q 3706 609 3251 259 
Q 2797 -91 1919 -91 
Q 1588 -91 1214 -16 
Q 841 59 441 206 
L 441 856 
Q 825 641 1194 531 
Q 1563 422 1919 422 
Q 2459 422 2753 634 
Q 3047 847 3047 1241 
Q 3047 1584 2836 1778 
Q 2625 1972 2144 2069 
L 1759 2144 
Q 1053 2284 737 2584 
Q 422 2884 422 3419 
Q 422 4038 858 4394 
Q 1294 4750 2059 4750 
Q 2388 4750 2728 4690 
Q 3069 4631 3425 4513 
z
" transform="scale(0.015625)"/>
       </defs>
       <use xlink:href="#DejaVuSans-53"/>
       <use xlink:href="#DejaVuSans-70" transform="translate(63.476562 0)"/>
       <use xlink:href="#DejaVuSans-6c" transform="translate(126.953125 0)"/>
       <use xlink:href="#DejaVuSans-69" transform="translate(154.736328 0)"/>
       <use xlink:href="#DejaVuSans-6e" transform="translate(182.519531 0)"/>
       <use xlink:href="#DejaVuSans-65" transform="translate(245.898438 0)"/>
       <use xlink:href="#DejaVuSans-73" transform="translate(307.421875 0)"/>
      </g>
     </g>
    </g>
   </g>
   <g id="matplotlib.axis_2">
    <g id="ytick_1">
     <g id="line2d_14">
      <path d="M 31.97 98.139617 
L 383.27 98.139617 
" clip-path="url(#p4a6e510aa3)" style="fill: none; stroke: #b0b0b0; stroke-opacity: 0.5; stroke-width: 0.5; stroke-linecap: square"/>
     </g>
     <g id="line2d_15">
      <defs>
       <path id="m6ead835744" d="M 0 0 
L -3.5 0 
" style="stroke: #000000; stroke-width: 0.8"/>
      </defs>
      <g>
       <use xlink:href="#m6ead835744" x="31.97" y="98.139617" style="stroke: #000000; stroke-width: 0.8"/>
      </g>
     </g>
     <g id="text_14">
      <!-- 0 -->
      <g transform="translate(19.88 101.178992) scale(0.08 -0.08)">
       <defs>
        <path id="DejaVuSans-30" d="M 2034 4250 
Q 1547 4250 1301 3770 
Q 1056 3291 1056 2328 
Q 1056 1369 1301 889 
Q 1547 409 2034 409 
Q 2525 409 2770 889 
Q 3016 1369 3016 2328 
Q 3016 3291 2770 3770 
Q 2525 4250 2034 4250 
z
M 2034 4750 
Q 2819 4750 3233 4129 
Q 3647 3509 3647 2328 
Q 3647 1150 3233 529 
Q 2819 -91 2034 -91 
Q 1250 -91 836 529 
Q 422 1150 422 2328 
Q 422 3509 836 4129 
Q 1250 4750 2034 4750 
z
" transform="scale(0.015625)"/>
       </defs>
       <use xlink:href="#DejaVuSans-30"/>
      </g>
     </g>
    </g>
    <g id="ytick_2">
     <g id="line2d_16">
      <path d="M 31.97 76.483609 
L 383.27 76.483609 
" clip-path="url(#p4a6e510aa3)" style="fill: none; stroke: #b0b0b0; stroke-opacity: 0.5; stroke-width: 0.5; stroke-linecap: square"/>
     </g>
     <g id="line2d_17">
      <g>
       <use xlink:href="#m6ead835744" x="31.97" y="76.483609" style="stroke: #000000; stroke-width: 0.8"/>
      </g>
     </g>
     <g id="text_15">
      <!-- 2 -->
      <g transform="translate(19.88 79.522984) scale(0.08 -0.08)">
       <defs>
        <path id="DejaVuSans-32" d="M 1228 531 
L 3431 531 
L 3431 0 
L 469 0 
L 469 531 
Q 828 903 1448 1529 
Q 2069 2156 2228 2338 
Q 2531 2678 2651 2914 
Q 2772 3150 2772 3378 
Q 2772 3750 2511 3984 
Q 2250 4219 1831 4219 
Q 1534 4219 1204 4116 
Q 875 4013 500 3803 
L 500 4441 
Q 881 4594 1212 4672 
Q 1544 4750 1819 4750 
Q 2544 4750 2975 4387 
Q 3406 4025 3406 3419 
Q 3406 3131 3298 2873 
Q 3191 2616 2906 2266 
Q 2828 2175 2409 1742 
Q 1991 1309 1228 531 
z
" transform="scale(0.015625)"/>
       </defs>
       <use xlink:href="#DejaVuSans-32"/>
      </g>
     </g>
    </g>
    <g id="ytick_3">
     <g id="line2d_18">
      <path d="M 31.97 54.827601 
L 383.27 54.827601 
" clip-path="url(#p4a6e510aa3)" style="fill: none; stroke: #b0b0b0; stroke-opacity: 0.5; stroke-width: 0.5; stroke-linecap: square"/>
     </g>
     <g id="line2d_19">
      <g>
       <use xlink:href="#m6ead835744" x="31.97" y="54.827601" style="stroke: #000000; stroke-width: 0.8"/>
      </g>
     </g>
     <g id="text_16">
      <!-- 4 -->
      <g transform="translate(19.88 57.866976) scale(0.08 -0.08)">
       <use xlink:href="#DejaVuSans-34"/>
      </g>
     </g>
    </g>
    <g id="ytick_4">
     <g id="line2d_20">
      <path d="M 31.97 33.171592 
L 383.27 33.171592 
" clip-path="url(#p4a6e510aa3)" style="fill: none; stroke: #b0b0b0; stroke-opacity: 0.5; stroke-width: 0.5; stroke-linecap: square"/>
     </g>
     <g id="line2d_21">
      <g>
       <use xlink:href="#m6ead835744" x="31.97" y="33.171592" style="stroke: #000000; stroke-width: 0.8"/>
      </g>
     </g>
     <g id="text_17">
      <!-- 6 -->
      <g transform="translate(19.88 36.210967) scale(0.08 -0.08)">
       <defs>
        <path id="DejaVuSans-36" d="M 2113 2584 
Q 1688 2584 1439 2293 
Q 1191 2003 1191 1497 
Q 1191 994 1439 701 
Q 1688 409 2113 409 
Q 2538 409 2786 701 
Q 3034 994 3034 1497 
Q 3034 2003 2786 2293 
Q 2538 2584 2113 2584 
z
M 3366 4563 
L 3366 3988 
Q 3128 4100 2886 4159 
Q 2644 4219 2406 4219 
Q 1781 4219 1451 3797 
Q 1122 3375 1075 2522 
Q 1259 2794 1537 2939 
Q 1816 3084 2150 3084 
Q 2853 3084 3261 2657 
Q 3669 2231 3669 1497 
Q 3669 778 3244 343 
Q 2819 -91 2113 -91 
Q 1303 -91 875 529 
Q 447 1150 447 2328 
Q 447 3434 972 4092 
Q 1497 4750 2381 4750 
Q 2619 4750 2861 4703 
Q 3103 4656 3366 4563 
z
" transform="scale(0.015625)"/>
       </defs>
       <use xlink:href="#DejaVuSans-36"/>
      </g>
     </g>
    </g>
    <g id="ytick_5">
     <g id="line2d_22">
      <path d="M 31.97 11.515584 
L 383.27 11.515584 
" clip-path="url(#p4a6e510aa3)" style="fill: none; stroke: #b0b0b0; stroke-opacity: 0.5; stroke-width: 0.5; stroke-linecap: square"/>
     </g>
     <g id="line2d_23">
      <g>
       <use xlink:href="#m6ead835744" x="31.97" y="11.515584" style="stroke: #000000; stroke-width: 0.8"/>
      </g>
     </g>
     <g id="text_18">
      <!-- 8 -->
      <g transform="translate(19.88 14.554959) scale(0.08 -0.08)">
       <defs>
        <path id="DejaVuSans-38" d="M 2034 2216 
Q 1584 2216 1326 1975 
Q 1069 1734 1069 1313 
Q 1069 891 1326 650 
Q 1584 409 2034 409 
Q 2484 409 2743 651 
Q 3003 894 3003 1313 
Q 3003 1734 2745 1975 
Q 2488 2216 2034 2216 
z
M 1403 2484 
Q 997 2584 770 2862 
Q 544 3141 544 3541 
Q 544 4100 942 4425 
Q 1341 4750 2034 4750 
Q 2731 4750 3128 4425 
Q 3525 4100 3525 3541 
Q 3525 3141 3298 2862 
Q 3072 2584 2669 2484 
Q 3125 2378 3379 2068 
Q 3634 1759 3634 1313 
Q 3634 634 3220 271 
Q 2806 -91 2034 -91 
Q 1263 -91 848 271 
Q 434 634 434 1313 
Q 434 1759 690 2068 
Q 947 2378 1403 2484 
z
M 1172 3481 
Q 1172 3119 1398 2916 
Q 1625 2713 2034 2713 
Q 2441 2713 2670 2916 
Q 2900 3119 2900 3481 
Q 2900 3844 2670 4047 
Q 2441 4250 2034 4250 
Q 1625 4250 1398 4047 
Q 1172 3844 1172 3481 
z
" transform="scale(0.015625)"/>
       </defs>
       <use xlink:href="#DejaVuSans-38"/>
      </g>
     </g>
    </g>
    <g id="text_19">
     <!-- Compilation time [s] -->
     <g transform="translate(14.21625 95.618436) rotate(-90) scale(0.08 -0.08)">
      <defs>
       <path id="DejaVuSans-5b" d="M 550 4863 
L 1875 4863 
L 1875 4416 
L 1125 4416 
L 1125 -397 
L 1875 -397 
L 1875 -844 
L 550 -844 
L 550 4863 
z
" transform="scale(0.015625)"/>
       <path id="DejaVuSans-5d" d="M 1947 4863 
L 1947 -844 
L 622 -844 
L 622 -397 
L 1369 -397 
L 1369 4416 
L 622 4416 
L 622 4863 
L 1947 4863 
z
" transform="scale(0.015625)"/>
      </defs>
      <use xlink:href="#DejaVuSans-43"/>
      <use xlink:href="#DejaVuSans-6f" transform="translate(69.824219 0)"/>
      <use xlink:href="#DejaVuSans-6d" transform="translate(131.005859 0)"/>
      <use xlink:href="#DejaVuSans-70" transform="translate(228.417969 0)"/>
      <use xlink:href="#DejaVuSans-69" transform="translate(291.894531 0)"/>
      <use xlink:href="#DejaVuSans-6c" transform="translate(319.677734 0)"/>
      <use xlink:href="#DejaVuSans-61" transform="translate(347.460938 0)"/>
      <use xlink:href="#DejaVuSans-74" transform="translate(408.740234 0)"/>
      <use xlink:href="#DejaVuSans-69" transform="translate(447.949219 0)"/>
      <use xlink:href="#DejaVuSans-6f" transform="translate(475.732422 0)"/>
      <use xlink:href="#DejaVuSans-6e" transform="translate(536.914062 0)"/>
      <use xlink:href="#DejaVuSans-20" transform="translate(600.292969 0)"/>
      <use xlink:href="#DejaVuSans-74" transform="translate(632.080078 0)"/>
      <use xlink:href="#DejaVuSans-69" transform="translate(671.289062 0)"/>
      <use xlink:href="#DejaVuSans-6d" transform="translate(699.072266 0)"/>
      <use xlink:href="#DejaVuSans-65" transform="translate(796.484375 0)"/>
      <use xlink:href="#DejaVuSans-20" transform="translate(858.007812 0)"/>
      <use xlink:href="#DejaVuSans-5b" transform="translate(889.794922 0)"/>
      <use xlink:href="#DejaVuSans-73" transform="translate(928.808594 0)"/>
      <use xlink:href="#DejaVuSans-5d" transform="translate(980.908203 0)"/>
     </g>
    </g>
   </g>
   <g id="patch_3">
    <path d="M 47.938182 98.139617 
L 50.62191 98.139617 
L 50.62191 74.642848 
L 47.938182 74.642848 
z
" clip-path="url(#p4a6e510aa3)" style="fill: #ff7f0e"/>
   </g>
   <g id="patch_4">
    <path d="M 72.98631 98.139617 
L 75.670038 98.139617 
L 75.670038 59.591922 
L 72.98631 59.591922 
z
" clip-path="url(#p4a6e510aa3)" style="fill: #ff7f0e"/>
   </g>
   <g id="patch_5">
    <path d="M 98.034439 98.139617 
L 100.718167 98.139617 
L 100.718167 71.935847 
L 98.034439 71.935847 
z
" clip-path="url(#p4a6e510aa3)" style="fill: #ff7f0e"/>
   </g>
   <g id="patch_6">
    <path d="M 123.082567 98.139617 
L 125.766295 98.139617 
L 125.766295 68.362606 
L 123.082567 68.362606 
z
" clip-path="url(#p4a6e510aa3)" style="fill: #ff7f0e"/>
   </g>
   <g id="patch_7">
    <path d="M 148.130695 98.139617 
L 150.814423 98.139617 
L 150.814423 65.547325 
L 148.130695 65.547325 
z
" clip-path="url(#p4a6e510aa3)" style="fill: #ff7f0e"/>
   </g>
   <g id="patch_8">
    <path d="M 173.178824 98.139617 
L 175.862552 98.139617 
L 175.862552 60.458163 
L 173.178824 60.458163 
z
" clip-path="url(#p4a6e510aa3)" style="fill: #ff7f0e"/>
   </g>
   <g id="patch_9">
    <path d="M 198.226952 98.139617 
L 200.91068 98.139617 
L 200.91068 60.783003 
L 198.226952 60.783003 
z
" clip-path="url(#p4a6e510aa3)" style="fill: #ff7f0e"/>
   </g>
   <g id="patch_10">
    <path d="M 223.27508 98.139617 
L 225.958808 98.139617 
L 225.958808 72.910367 
L 223.27508 72.910367 
z
" clip-path="url(#p4a6e510aa3)" style="fill: #ff7f0e"/>
   </g>
   <g id="patch_11">
    <path d="M 248.323209 98.139617 
L 251.006937 98.139617 
L 251.006937 61.540963 
L 248.323209 61.540963 
z
" clip-path="url(#p4a6e510aa3)" style="fill: #ff7f0e"/>
   </g>
   <g id="patch_12">
    <path d="M 273.371337 98.139617 
L 276.055065 98.139617 
L 276.055065 60.566443 
L 273.371337 60.566443 
z
" clip-path="url(#p4a6e510aa3)" style="fill: #ff7f0e"/>
   </g>
   <g id="patch_13">
    <path d="M 298.419465 98.139617 
L 301.103193 98.139617 
L 301.103193 24.617469 
L 298.419465 24.617469 
z
" clip-path="url(#p4a6e510aa3)" style="fill: #ff7f0e"/>
   </g>
   <g id="patch_14">
    <path d="M 323.467594 98.139617 
L 326.151322 98.139617 
L 326.151322 33.929552 
L 323.467594 33.929552 
z
" clip-path="url(#p4a6e510aa3)" style="fill: #ff7f0e"/>
   </g>
   <g id="patch_15">
    <path d="M 0 0 
z
" clip-path="url(#p4a6e510aa3)" style="fill: #ff7f0e"/>
   </g>
   <g id="patch_16">
    <path d="M 50.62191 98.139617 
L 53.305638 98.139617 
L 53.305638 74.101448 
L 50.62191 74.101448 
z
" clip-path="url(#p4a6e510aa3)" style="fill: #2ca02c"/>
   </g>
   <g id="patch_17">
    <path d="M 75.670038 98.139617 
L 78.353766 98.139617 
L 78.353766 56.560081 
L 75.670038 56.560081 
z
" clip-path="url(#p4a6e510aa3)" style="fill: #2ca02c"/>
   </g>
   <g id="patch_18">
    <path d="M 100.718167 98.139617 
L 103.401895 98.139617 
L 103.401895 67.712925 
L 100.718167 67.712925 
z
" clip-path="url(#p4a6e510aa3)" style="fill: #2ca02c"/>
   </g>
   <g id="patch_19">
    <path d="M 125.766295 98.139617 
L 128.450023 98.139617 
L 128.450023 64.464524 
L 125.766295 64.464524 
z
" clip-path="url(#p4a6e510aa3)" style="fill: #2ca02c"/>
   </g>
   <g id="patch_20">
    <path d="M 150.814423 98.139617 
L 153.498151 98.139617 
L 153.498151 59.808482 
L 150.814423 59.808482 
z
" clip-path="url(#p4a6e510aa3)" style="fill: #2ca02c"/>
   </g>
   <g id="patch_21">
    <path d="M 175.862552 98.139617 
L 178.54628 98.139617 
L 178.54628 55.585561 
L 175.862552 55.585561 
z
" clip-path="url(#p4a6e510aa3)" style="fill: #2ca02c"/>
   </g>
   <g id="patch_22">
    <path d="M 200.91068 98.139617 
L 203.594408 98.139617 
L 203.594408 54.39448 
L 200.91068 54.39448 
z
" clip-path="url(#p4a6e510aa3)" style="fill: #2ca02c"/>
   </g>
   <g id="patch_23">
    <path d="M 225.958808 98.139617 
L 228.642536 98.139617 
L 228.642536 68.904006 
L 225.958808 68.904006 
z
" clip-path="url(#p4a6e510aa3)" style="fill: #2ca02c"/>
   </g>
   <g id="patch_24">
    <path d="M 251.006937 98.139617 
L 253.690665 98.139617 
L 253.690665 59.483642 
L 251.006937 59.483642 
z
" clip-path="url(#p4a6e510aa3)" style="fill: #2ca02c"/>
   </g>
   <g id="patch_25">
    <path d="M 276.055065 98.139617 
L 278.738793 98.139617 
L 278.738793 56.235241 
L 276.055065 56.235241 
z
" clip-path="url(#p4a6e510aa3)" style="fill: #2ca02c"/>
   </g>
   <g id="patch_26">
    <path d="M 301.103193 98.139617 
L 303.786921 98.139617 
L 303.786921 15.630225 
L 301.103193 15.630225 
z
" clip-path="url(#p4a6e510aa3)" style="fill: #2ca02c"/>
   </g>
   <g id="patch_27">
    <path d="M 326.151322 98.139617 
L 328.83505 98.139617 
L 328.83505 28.08243 
L 326.151322 28.08243 
z
" clip-path="url(#p4a6e510aa3)" style="fill: #2ca02c"/>
   </g>
   <g id="patch_28">
    <path d="M 0 0 
z
" clip-path="url(#p4a6e510aa3)" style="fill: #2ca02c"/>
   </g>
   <g id="patch_29">
    <path d="M 53.305638 98.139617 
L 55.989366 98.139617 
L 55.989366 94.566376 
L 53.305638 94.566376 
z
" clip-path="url(#p4a6e510aa3)" style="fill: #d62728"/>
   </g>
   <g id="patch_30">
    <path d="M 78.353766 98.139617 
L 81.037494 98.139617 
L 81.037494 86.337093 
L 78.353766 86.337093 
z
" clip-path="url(#p4a6e510aa3)" style="fill: #d62728"/>
   </g>
   <g id="patch_31">
    <path d="M 103.401895 98.139617 
L 106.085623 98.139617 
L 106.085623 84.929452 
L 103.401895 84.929452 
z
" clip-path="url(#p4a6e510aa3)" style="fill: #d62728"/>
   </g>
   <g id="patch_32">
    <path d="M 128.450023 98.139617 
L 131.133751 98.139617 
L 131.133751 62.515483 
L 128.450023 62.515483 
z
" clip-path="url(#p4a6e510aa3)" style="fill: #d62728"/>
   </g>
   <g id="patch_33">
    <path d="M 153.498151 98.139617 
L 156.181879 98.139617 
L 156.181879 58.292562 
L 153.498151 58.292562 
z
" clip-path="url(#p4a6e510aa3)" style="fill: #d62728"/>
   </g>
   <g id="patch_34">
    <path d="M 178.54628 98.139617 
L 181.230008 98.139617 
L 181.230008 56.126961 
L 178.54628 56.126961 
z
" clip-path="url(#p4a6e510aa3)" style="fill: #d62728"/>
   </g>
   <g id="patch_35">
    <path d="M 203.594408 98.139617 
L 206.278136 98.139617 
L 206.278136 57.534602 
L 203.594408 57.534602 
z
" clip-path="url(#p4a6e510aa3)" style="fill: #d62728"/>
   </g>
   <g id="patch_36">
    <path d="M 228.642536 98.139617 
L 231.326264 98.139617 
L 231.326264 71.069607 
L 228.642536 71.069607 
z
" clip-path="url(#p4a6e510aa3)" style="fill: #d62728"/>
   </g>
   <g id="patch_37">
    <path d="M 253.690665 98.139617 
L 256.374393 98.139617 
L 256.374393 69.878526 
L 253.690665 69.878526 
z
" clip-path="url(#p4a6e510aa3)" style="fill: #d62728"/>
   </g>
   <g id="patch_38">
    <path d="M 278.738793 98.139617 
L 281.422521 98.139617 
L 281.422521 52.662 
L 278.738793 52.662 
z
" clip-path="url(#p4a6e510aa3)" style="fill: #d62728"/>
   </g>
   <g id="patch_39">
    <path d="M 303.786921 98.139617 
L 306.470649 98.139617 
L 306.470649 40.209795 
L 303.786921 40.209795 
z
" clip-path="url(#p4a6e510aa3)" style="fill: #d62728"/>
   </g>
   <g id="patch_40">
    <path d="M 328.83505 98.139617 
L 331.518778 98.139617 
L 331.518778 31.222551 
L 328.83505 31.222551 
z
" clip-path="url(#p4a6e510aa3)" style="fill: #d62728"/>
   </g>
   <g id="patch_41">
    <path d="M 353.883178 98.139617 
L 356.566906 98.139617 
L 356.566906 90.018614 
L 353.883178 90.018614 
z
" clip-path="url(#p4a6e510aa3)" style="fill: #d62728"/>
   </g>
   <g id="patch_42">
    <path d="M 55.989366 98.139617 
L 58.673094 98.139617 
L 58.673094 81.789331 
L 55.989366 81.789331 
z
" clip-path="url(#p4a6e510aa3)" style="fill: #9467bd"/>
   </g>
   <g id="patch_43">
    <path d="M 81.037494 98.139617 
L 83.721222 98.139617 
L 83.721222 79.62373 
L 81.037494 79.62373 
z
" clip-path="url(#p4a6e510aa3)" style="fill: #9467bd"/>
   </g>
   <g id="patch_44">
    <path d="M 106.085623 98.139617 
L 108.769351 98.139617 
L 108.769351 79.19061 
L 106.085623 79.19061 
z
" clip-path="url(#p4a6e510aa3)" style="fill: #9467bd"/>
   </g>
   <g id="patch_45">
    <path d="M 131.133751 98.139617 
L 133.817479 98.139617 
L 133.817479 80.16513 
L 131.133751 80.16513 
z
" clip-path="url(#p4a6e510aa3)" style="fill: #9467bd"/>
   </g>
   <g id="patch_46">
    <path d="M 156.181879 98.139617 
L 158.865607 98.139617 
L 158.865607 77.458129 
L 156.181879 77.458129 
z
" clip-path="url(#p4a6e510aa3)" style="fill: #9467bd"/>
   </g>
   <g id="patch_47">
    <path d="M 181.230008 98.139617 
L 183.913736 98.139617 
L 183.913736 76.591889 
L 181.230008 76.591889 
z
" clip-path="url(#p4a6e510aa3)" style="fill: #9467bd"/>
   </g>
   <g id="patch_48">
    <path d="M 206.278136 98.139617 
L 208.961864 98.139617 
L 208.961864 72.693807 
L 206.278136 72.693807 
z
" clip-path="url(#p4a6e510aa3)" style="fill: #9467bd"/>
   </g>
   <g id="patch_49">
    <path d="M 231.326264 98.139617 
L 234.009992 98.139617 
L 234.009992 81.139651 
L 231.326264 81.139651 
z
" clip-path="url(#p4a6e510aa3)" style="fill: #9467bd"/>
   </g>
   <g id="patch_50">
    <path d="M 256.374393 98.139617 
L 259.058121 98.139617 
L 259.058121 81.031371 
L 256.374393 81.031371 
z
" clip-path="url(#p4a6e510aa3)" style="fill: #9467bd"/>
   </g>
   <g id="patch_51">
    <path d="M 281.422521 98.139617 
L 284.106249 98.139617 
L 284.106249 74.209728 
L 281.422521 74.209728 
z
" clip-path="url(#p4a6e510aa3)" style="fill: #9467bd"/>
   </g>
   <g id="patch_52">
    <path d="M 306.470649 98.139617 
L 309.154377 98.139617 
L 309.154377 76.591889 
L 306.470649 76.591889 
z
" clip-path="url(#p4a6e510aa3)" style="fill: #9467bd"/>
   </g>
   <g id="patch_53">
    <path d="M 331.518778 98.139617 
L 334.202506 98.139617 
L 334.202506 66.630125 
L 331.518778 66.630125 
z
" clip-path="url(#p4a6e510aa3)" style="fill: #9467bd"/>
   </g>
   <g id="patch_54">
    <path d="M 356.566906 98.139617 
L 359.250634 98.139617 
L 359.250634 73.776608 
L 356.566906 73.776608 
z
" clip-path="url(#p4a6e510aa3)" style="fill: #9467bd"/>
   </g>
   <g id="patch_55">
    <path d="M 58.673094 98.139617 
L 61.356822 98.139617 
L 61.356822 81.789331 
L 58.673094 81.789331 
z
" clip-path="url(#p4a6e510aa3)" style="fill: #8c564b"/>
   </g>
   <g id="patch_56">
    <path d="M 83.721222 98.139617 
L 86.40495 98.139617 
L 86.40495 79.94857 
L 83.721222 79.94857 
z
" clip-path="url(#p4a6e510aa3)" style="fill: #8c564b"/>
   </g>
   <g id="patch_57">
    <path d="M 108.769351 98.139617 
L 111.453079 98.139617 
L 111.453079 79.08233 
L 108.769351 79.08233 
z
" clip-path="url(#p4a6e510aa3)" style="fill: #8c564b"/>
   </g>
   <g id="patch_58">
    <path d="M 133.817479 98.139617 
L 136.501207 98.139617 
L 136.501207 80.70653 
L 133.817479 80.70653 
z
" clip-path="url(#p4a6e510aa3)" style="fill: #8c564b"/>
   </g>
   <g id="patch_59">
    <path d="M 158.865607 98.139617 
L 161.549335 98.139617 
L 161.549335 77.458129 
L 158.865607 77.458129 
z
" clip-path="url(#p4a6e510aa3)" style="fill: #8c564b"/>
   </g>
   <g id="patch_60">
    <path d="M 183.913736 98.139617 
L 186.597464 98.139617 
L 186.597464 76.375329 
L 183.913736 76.375329 
z
" clip-path="url(#p4a6e510aa3)" style="fill: #8c564b"/>
   </g>
   <g id="patch_61">
    <path d="M 208.961864 98.139617 
L 211.645592 98.139617 
L 211.645592 72.585527 
L 208.961864 72.585527 
z
" clip-path="url(#p4a6e510aa3)" style="fill: #8c564b"/>
   </g>
   <g id="patch_62">
    <path d="M 234.009992 98.139617 
L 236.69372 98.139617 
L 236.69372 81.247931 
L 234.009992 81.247931 
z
" clip-path="url(#p4a6e510aa3)" style="fill: #8c564b"/>
   </g>
   <g id="patch_63">
    <path d="M 259.058121 98.139617 
L 261.741849 98.139617 
L 261.741849 81.139651 
L 259.058121 81.139651 
z
" clip-path="url(#p4a6e510aa3)" style="fill: #8c564b"/>
   </g>
   <g id="patch_64">
    <path d="M 284.106249 98.139617 
L 286.789977 98.139617 
L 286.789977 77.891249 
L 284.106249 77.891249 
z
" clip-path="url(#p4a6e510aa3)" style="fill: #8c564b"/>
   </g>
   <g id="patch_65">
    <path d="M 309.154377 98.139617 
L 311.838105 98.139617 
L 311.838105 75.833929 
L 309.154377 75.833929 
z
" clip-path="url(#p4a6e510aa3)" style="fill: #8c564b"/>
   </g>
   <g id="patch_66">
    <path d="M 334.202506 98.139617 
L 336.886234 98.139617 
L 336.886234 68.579166 
L 334.202506 68.579166 
z
" clip-path="url(#p4a6e510aa3)" style="fill: #8c564b"/>
   </g>
   <g id="patch_67">
    <path d="M 359.250634 98.139617 
L 361.934362 98.139617 
L 361.934362 77.782969 
L 359.250634 77.782969 
z
" clip-path="url(#p4a6e510aa3)" style="fill: #8c564b"/>
   </g>
   <g id="patch_68">
    <path d="M 61.356822 98.139617 
L 64.04055 98.139617 
L 64.04055 81.572771 
L 61.356822 81.572771 
z
" clip-path="url(#p4a6e510aa3)" style="fill: #e377c2"/>
   </g>
   <g id="patch_69">
    <path d="M 86.40495 98.139617 
L 89.088678 98.139617 
L 89.088678 79.73201 
L 86.40495 79.73201 
z
" clip-path="url(#p4a6e510aa3)" style="fill: #e377c2"/>
   </g>
   <g id="patch_70">
    <path d="M 111.453079 98.139617 
L 114.136807 98.139617 
L 114.136807 78.64921 
L 111.453079 78.64921 
z
" clip-path="url(#p4a6e510aa3)" style="fill: #e377c2"/>
   </g>
   <g id="patch_71">
    <path d="M 136.501207 98.139617 
L 139.184935 98.139617 
L 139.184935 79.94857 
L 136.501207 79.94857 
z
" clip-path="url(#p4a6e510aa3)" style="fill: #e377c2"/>
   </g>
   <g id="patch_72">
    <path d="M 161.549335 98.139617 
L 164.233063 98.139617 
L 164.233063 77.133289 
L 161.549335 77.133289 
z
" clip-path="url(#p4a6e510aa3)" style="fill: #e377c2"/>
   </g>
   <g id="patch_73">
    <path d="M 186.597464 98.139617 
L 189.281192 98.139617 
L 189.281192 75.833929 
L 186.597464 75.833929 
z
" clip-path="url(#p4a6e510aa3)" style="fill: #e377c2"/>
   </g>
   <g id="patch_74">
    <path d="M 211.645592 98.139617 
L 214.32932 98.139617 
L 214.32932 73.126928 
L 211.645592 73.126928 
z
" clip-path="url(#p4a6e510aa3)" style="fill: #e377c2"/>
   </g>
   <g id="patch_75">
    <path d="M 236.69372 98.139617 
L 239.377448 98.139617 
L 239.377448 80.70653 
L 236.69372 80.70653 
z
" clip-path="url(#p4a6e510aa3)" style="fill: #e377c2"/>
   </g>
   <g id="patch_76">
    <path d="M 261.741849 98.139617 
L 264.425577 98.139617 
L 264.425577 80.70653 
L 261.741849 80.70653 
z
" clip-path="url(#p4a6e510aa3)" style="fill: #e377c2"/>
   </g>
   <g id="patch_77">
    <path d="M 286.789977 98.139617 
L 289.473705 98.139617 
L 289.473705 69.228846 
L 286.789977 69.228846 
z
" clip-path="url(#p4a6e510aa3)" style="fill: #e377c2"/>
   </g>
   <g id="patch_78">
    <path d="M 311.838105 98.139617 
L 314.521833 98.139617 
L 314.521833 76.483609 
L 311.838105 76.483609 
z
" clip-path="url(#p4a6e510aa3)" style="fill: #e377c2"/>
   </g>
   <g id="patch_79">
    <path d="M 336.886234 98.139617 
L 339.569962 98.139617 
L 339.569962 60.566443 
L 336.886234 60.566443 
z
" clip-path="url(#p4a6e510aa3)" style="fill: #e377c2"/>
   </g>
   <g id="patch_80">
    <path d="M 361.934362 98.139617 
L 364.61809 98.139617 
L 364.61809 68.146046 
L 361.934362 68.146046 
z
" clip-path="url(#p4a6e510aa3)" style="fill: #e377c2"/>
   </g>
   <g id="patch_81">
    <path d="M 64.04055 98.139617 
L 66.724278 98.139617 
L 66.724278 80.70653 
L 64.04055 80.70653 
z
" clip-path="url(#p4a6e510aa3)" style="fill: #7f7f7f"/>
   </g>
   <g id="patch_82">
    <path d="M 89.088678 98.139617 
L 91.772406 98.139617 
L 91.772406 78.86577 
L 89.088678 78.86577 
z
" clip-path="url(#p4a6e510aa3)" style="fill: #7f7f7f"/>
   </g>
   <g id="patch_83">
    <path d="M 114.136807 98.139617 
L 116.820535 98.139617 
L 116.820535 77.241569 
L 114.136807 77.241569 
z
" clip-path="url(#p4a6e510aa3)" style="fill: #7f7f7f"/>
   </g>
   <g id="patch_84">
    <path d="M 139.184935 98.139617 
L 141.868663 98.139617 
L 141.868663 79.29889 
L 139.184935 79.29889 
z
" clip-path="url(#p4a6e510aa3)" style="fill: #7f7f7f"/>
   </g>
   <g id="patch_85">
    <path d="M 164.233063 98.139617 
L 166.916791 98.139617 
L 166.916791 76.050489 
L 164.233063 76.050489 
z
" clip-path="url(#p4a6e510aa3)" style="fill: #7f7f7f"/>
   </g>
   <g id="patch_86">
    <path d="M 189.281192 98.139617 
L 191.96492 98.139617 
L 191.96492 75.184248 
L 189.281192 75.184248 
z
" clip-path="url(#p4a6e510aa3)" style="fill: #7f7f7f"/>
   </g>
   <g id="patch_87">
    <path d="M 214.32932 98.139617 
L 217.013048 98.139617 
L 217.013048 71.611007 
L 214.32932 71.611007 
z
" clip-path="url(#p4a6e510aa3)" style="fill: #7f7f7f"/>
   </g>
   <g id="patch_88">
    <path d="M 239.377448 98.139617 
L 242.061176 98.139617 
L 242.061176 80.05685 
L 239.377448 80.05685 
z
" clip-path="url(#p4a6e510aa3)" style="fill: #7f7f7f"/>
   </g>
   <g id="patch_89">
    <path d="M 264.425577 98.139617 
L 267.109305 98.139617 
L 267.109305 79.94857 
L 264.425577 79.94857 
z
" clip-path="url(#p4a6e510aa3)" style="fill: #7f7f7f"/>
   </g>
   <g id="patch_90">
    <path d="M 289.473705 98.139617 
L 292.157433 98.139617 
L 292.157433 75.400808 
L 289.473705 75.400808 
z
" clip-path="url(#p4a6e510aa3)" style="fill: #7f7f7f"/>
   </g>
   <g id="patch_91">
    <path d="M 314.521833 98.139617 
L 317.205561 98.139617 
L 317.205561 74.318008 
L 314.521833 74.318008 
z
" clip-path="url(#p4a6e510aa3)" style="fill: #7f7f7f"/>
   </g>
   <g id="patch_92">
    <path d="M 339.569962 98.139617 
L 342.25369 98.139617 
L 342.25369 67.279805 
L 339.569962 67.279805 
z
" clip-path="url(#p4a6e510aa3)" style="fill: #7f7f7f"/>
   </g>
   <g id="patch_93">
    <path d="M 364.61809 98.139617 
L 367.301818 98.139617 
L 367.301818 75.942209 
L 364.61809 75.942209 
z
" clip-path="url(#p4a6e510aa3)" style="fill: #7f7f7f"/>
   </g>
   <g id="patch_94">
    <path d="M 31.97 98.139617 
L 31.97 11.504756 
" style="fill: none; stroke: #000000; stroke-width: 0.8; stroke-linejoin: miter; stroke-linecap: square"/>
   </g>
   <g id="patch_95">
    <path d="M 383.27 98.139617 
L 383.27 11.504756 
" style="fill: none; stroke: #000000; stroke-width: 0.8; stroke-linejoin: miter; stroke-linecap: square"/>
   </g>
   <g id="patch_96">
    <path d="M 31.97 98.139617 
L 383.27 98.139617 
" style="fill: none; stroke: #000000; stroke-width: 0.8; stroke-linejoin: miter; stroke-linecap: square"/>
   </g>
   <g id="patch_97">
    <path d="M 31.97 11.504756 
L 383.27 11.504756 
" style="fill: none; stroke: #000000; stroke-width: 0.8; stroke-linejoin: miter; stroke-linecap: square"/>
   </g>
   <g id="legend_1">
    <g id="patch_98">
     <path d="M 388.87 97.565936 
L 493.1975 97.565936 
Q 494.7975 97.565936 494.7975 95.965936 
L 494.7975 13.678436 
Q 494.7975 12.078436 493.1975 12.078436 
L 388.87 12.078436 
Q 387.27 12.078436 387.27 13.678436 
L 387.27 95.965936 
Q 387.27 97.565936 388.87 97.565936 
z
" style="fill: #ffffff; opacity: 0.8; stroke: #cccccc; stroke-linejoin: miter"/>
    </g>
    <g id="patch_99">
     <path d="M 390.47 21.357186 
L 406.47 21.357186 
L 406.47 15.757186 
L 390.47 15.757186 
z
" style="fill: #ff7f0e"/>
    </g>
    <g id="text_20">
     <!-- Pythran (g++) -->
     <g transform="translate(412.87 21.357186) scale(0.08 -0.08)">
      <defs>
       <path id="DejaVuSans-79" d="M 2059 -325 
Q 1816 -950 1584 -1140 
Q 1353 -1331 966 -1331 
L 506 -1331 
L 506 -850 
L 844 -850 
Q 1081 -850 1212 -737 
Q 1344 -625 1503 -206 
L 1606 56 
L 191 3500 
L 800 3500 
L 1894 763 
L 2988 3500 
L 3597 3500 
L 2059 -325 
z
" transform="scale(0.015625)"/>
       <path id="DejaVuSans-68" d="M 3513 2113 
L 3513 0 
L 2938 0 
L 2938 2094 
Q 2938 2591 2744 2837 
Q 2550 3084 2163 3084 
Q 1697 3084 1428 2787 
Q 1159 2491 1159 1978 
L 1159 0 
L 581 0 
L 581 4863 
L 1159 4863 
L 1159 2956 
Q 1366 3272 1645 3428 
Q 1925 3584 2291 3584 
Q 2894 3584 3203 3211 
Q 3513 2838 3513 2113 
z
" transform="scale(0.015625)"/>
       <path id="DejaVuSans-28" d="M 1984 4856 
Q 1566 4138 1362 3434 
Q 1159 2731 1159 2009 
Q 1159 1288 1364 580 
Q 1569 -128 1984 -844 
L 1484 -844 
Q 1016 -109 783 600 
Q 550 1309 550 2009 
Q 550 2706 781 3412 
Q 1013 4119 1484 4856 
L 1984 4856 
z
" transform="scale(0.015625)"/>
       <path id="DejaVuSans-67" d="M 2906 1791 
Q 2906 2416 2648 2759 
Q 2391 3103 1925 3103 
Q 1463 3103 1205 2759 
Q 947 2416 947 1791 
Q 947 1169 1205 825 
Q 1463 481 1925 481 
Q 2391 481 2648 825 
Q 2906 1169 2906 1791 
z
M 3481 434 
Q 3481 -459 3084 -895 
Q 2688 -1331 1869 -1331 
Q 1566 -1331 1297 -1286 
Q 1028 -1241 775 -1147 
L 775 -588 
Q 1028 -725 1275 -790 
Q 1522 -856 1778 -856 
Q 2344 -856 2625 -561 
Q 2906 -266 2906 331 
L 2906 616 
Q 2728 306 2450 153 
Q 2172 0 1784 0 
Q 1141 0 747 490 
Q 353 981 353 1791 
Q 353 2603 747 3093 
Q 1141 3584 1784 3584 
Q 2172 3584 2450 3431 
Q 2728 3278 2906 2969 
L 2906 3500 
L 3481 3500 
L 3481 434 
z
" transform="scale(0.015625)"/>
       <path id="DejaVuSans-2b" d="M 2944 4013 
L 2944 2272 
L 4684 2272 
L 4684 1741 
L 2944 1741 
L 2944 0 
L 2419 0 
L 2419 1741 
L 678 1741 
L 678 2272 
L 2419 2272 
L 2419 4013 
L 2944 4013 
z
" transform="scale(0.015625)"/>
       <path id="DejaVuSans-29" d="M 513 4856 
L 1013 4856 
Q 1481 4119 1714 3412 
Q 1947 2706 1947 2009 
Q 1947 1309 1714 600 
Q 1481 -109 1013 -844 
L 513 -844 
Q 928 -128 1133 580 
Q 1338 1288 1338 2009 
Q 1338 2731 1133 3434 
Q 928 4138 513 4856 
z
" transform="scale(0.015625)"/>
      </defs>
      <use xlink:href="#DejaVuSans-50"/>
      <use xlink:href="#DejaVuSans-79" transform="translate(60.302734 0)"/>
      <use xlink:href="#DejaVuSans-74" transform="translate(119.482422 0)"/>
      <use xlink:href="#DejaVuSans-68" transform="translate(158.691406 0)"/>
      <use xlink:href="#DejaVuSans-72" transform="translate(222.070312 0)"/>
      <use xlink:href="#DejaVuSans-61" transform="translate(263.183594 0)"/>
      <use xlink:href="#DejaVuSans-6e" transform="translate(324.462891 0)"/>
      <use xlink:href="#DejaVuSans-20" transform="translate(387.841797 0)"/>
      <use xlink:href="#DejaVuSans-28" transform="translate(419.628906 0)"/>
      <use xlink:href="#DejaVuSans-67" transform="translate(458.642578 0)"/>
      <use xlink:href="#DejaVuSans-2b" transform="translate(522.119141 0)"/>
      <use xlink:href="#DejaVuSans-2b" transform="translate(605.908203 0)"/>
      <use xlink:href="#DejaVuSans-29" transform="translate(689.697266 0)"/>
     </g>
    </g>
    <g id="patch_100">
     <path d="M 390.47 33.099686 
L 406.47 33.099686 
L 406.47 27.499686 
L 390.47 27.499686 
z
" style="fill: #2ca02c"/>
    </g>
    <g id="text_21">
     <!-- Pythran (icx) -->
     <g transform="translate(412.87 33.099686) scale(0.08 -0.08)">
      <use xlink:href="#DejaVuSans-50"/>
      <use xlink:href="#DejaVuSans-79" transform="translate(60.302734 0)"/>
      <use xlink:href="#DejaVuSans-74" transform="translate(119.482422 0)"/>
      <use xlink:href="#DejaVuSans-68" transform="translate(158.691406 0)"/>
      <use xlink:href="#DejaVuSans-72" transform="translate(222.070312 0)"/>
      <use xlink:href="#DejaVuSans-61" transform="translate(263.183594 0)"/>
      <use xlink:href="#DejaVuSans-6e" transform="translate(324.462891 0)"/>
      <use xlink:href="#DejaVuSans-20" transform="translate(387.841797 0)"/>
      <use xlink:href="#DejaVuSans-28" transform="translate(419.628906 0)"/>
      <use xlink:href="#DejaVuSans-69" transform="translate(458.642578 0)"/>
      <use xlink:href="#DejaVuSans-63" transform="translate(486.425781 0)"/>
      <use xlink:href="#DejaVuSans-78" transform="translate(541.40625 0)"/>
      <use xlink:href="#DejaVuSans-29" transform="translate(600.585938 0)"/>
     </g>
    </g>
    <g id="patch_101">
     <path d="M 390.47 44.842186 
L 406.47 44.842186 
L 406.47 39.242186 
L 390.47 39.242186 
z
" style="fill: #d62728"/>
    </g>
    <g id="text_22">
     <!-- Numba -->
     <g transform="translate(412.87 44.842186) scale(0.08 -0.08)">
      <defs>
       <path id="DejaVuSans-62" d="M 3116 1747 
Q 3116 2381 2855 2742 
Q 2594 3103 2138 3103 
Q 1681 3103 1420 2742 
Q 1159 2381 1159 1747 
Q 1159 1113 1420 752 
Q 1681 391 2138 391 
Q 2594 391 2855 752 
Q 3116 1113 3116 1747 
z
M 1159 2969 
Q 1341 3281 1617 3432 
Q 1894 3584 2278 3584 
Q 2916 3584 3314 3078 
Q 3713 2572 3713 1747 
Q 3713 922 3314 415 
Q 2916 -91 2278 -91 
Q 1894 -91 1617 61 
Q 1341 213 1159 525 
L 1159 0 
L 581 0 
L 581 4863 
L 1159 4863 
L 1159 2969 
z
" transform="scale(0.015625)"/>
      </defs>
      <use xlink:href="#DejaVuSans-4e"/>
      <use xlink:href="#DejaVuSans-75" transform="translate(74.804688 0)"/>
      <use xlink:href="#DejaVuSans-6d" transform="translate(138.183594 0)"/>
      <use xlink:href="#DejaVuSans-62" transform="translate(235.595703 0)"/>
      <use xlink:href="#DejaVuSans-61" transform="translate(299.072266 0)"/>
     </g>
    </g>
    <g id="patch_102">
     <path d="M 390.47 56.584686 
L 406.47 56.584686 
L 406.47 50.984686 
L 390.47 50.984686 
z
" style="fill: #9467bd"/>
    </g>
    <g id="text_23">
     <!-- pyccel_gnu_c -->
     <g transform="translate(412.87 56.584686) scale(0.08 -0.08)">
      <defs>
       <path id="DejaVuSans-5f" d="M 3263 -1063 
L 3263 -1509 
L -63 -1509 
L -63 -1063 
L 3263 -1063 
z
" transform="scale(0.015625)"/>
      </defs>
      <use xlink:href="#DejaVuSans-70"/>
      <use xlink:href="#DejaVuSans-79" transform="translate(63.476562 0)"/>
      <use xlink:href="#DejaVuSans-63" transform="translate(122.65625 0)"/>
      <use xlink:href="#DejaVuSans-63" transform="translate(177.636719 0)"/>
      <use xlink:href="#DejaVuSans-65" transform="translate(232.617188 0)"/>
      <use xlink:href="#DejaVuSans-6c" transform="translate(294.140625 0)"/>
      <use xlink:href="#DejaVuSans-5f" transform="translate(321.923828 0)"/>
      <use xlink:href="#DejaVuSans-67" transform="translate(371.923828 0)"/>
      <use xlink:href="#DejaVuSans-6e" transform="translate(435.400391 0)"/>
      <use xlink:href="#DejaVuSans-75" transform="translate(498.779297 0)"/>
      <use xlink:href="#DejaVuSans-5f" transform="translate(562.158203 0)"/>
      <use xlink:href="#DejaVuSans-63" transform="translate(612.158203 0)"/>
     </g>
    </g>
    <g id="patch_103">
     <path d="M 390.47 68.549686 
L 406.47 68.549686 
L 406.47 62.949686 
L 390.47 62.949686 
z
" style="fill: #8c564b"/>
    </g>
    <g id="text_24">
     <!-- pyccel_gnu_fortran -->
     <g transform="translate(412.87 68.549686) scale(0.08 -0.08)">
      <defs>
       <path id="DejaVuSans-66" d="M 2375 4863 
L 2375 4384 
L 1825 4384 
Q 1516 4384 1395 4259 
Q 1275 4134 1275 3809 
L 1275 3500 
L 2222 3500 
L 2222 3053 
L 1275 3053 
L 1275 0 
L 697 0 
L 697 3053 
L 147 3053 
L 147 3500 
L 697 3500 
L 697 3744 
Q 697 4328 969 4595 
Q 1241 4863 1831 4863 
L 2375 4863 
z
" transform="scale(0.015625)"/>
      </defs>
      <use xlink:href="#DejaVuSans-70"/>
      <use xlink:href="#DejaVuSans-79" transform="translate(63.476562 0)"/>
      <use xlink:href="#DejaVuSans-63" transform="translate(122.65625 0)"/>
      <use xlink:href="#DejaVuSans-63" transform="translate(177.636719 0)"/>
      <use xlink:href="#DejaVuSans-65" transform="translate(232.617188 0)"/>
      <use xlink:href="#DejaVuSans-6c" transform="translate(294.140625 0)"/>
      <use xlink:href="#DejaVuSans-5f" transform="translate(321.923828 0)"/>
      <use xlink:href="#DejaVuSans-67" transform="translate(371.923828 0)"/>
      <use xlink:href="#DejaVuSans-6e" transform="translate(435.400391 0)"/>
      <use xlink:href="#DejaVuSans-75" transform="translate(498.779297 0)"/>
      <use xlink:href="#DejaVuSans-5f" transform="translate(562.158203 0)"/>
      <use xlink:href="#DejaVuSans-66" transform="translate(612.158203 0)"/>
      <use xlink:href="#DejaVuSans-6f" transform="translate(647.363281 0)"/>
      <use xlink:href="#DejaVuSans-72" transform="translate(708.544922 0)"/>
      <use xlink:href="#DejaVuSans-74" transform="translate(749.658203 0)"/>
      <use xlink:href="#DejaVuSans-72" transform="translate(788.867188 0)"/>
      <use xlink:href="#DejaVuSans-61" transform="translate(829.980469 0)"/>
      <use xlink:href="#DejaVuSans-6e" transform="translate(891.259766 0)"/>
     </g>
    </g>
    <g id="patch_104">
     <path d="M 390.47 80.514686 
L 406.47 80.514686 
L 406.47 74.914686 
L 390.47 74.914686 
z
" style="fill: #e377c2"/>
    </g>
    <g id="text_25">
     <!-- pyccel_intel_c -->
     <g transform="translate(412.87 80.514686) scale(0.08 -0.08)">
      <use xlink:href="#DejaVuSans-70"/>
      <use xlink:href="#DejaVuSans-79" transform="translate(63.476562 0)"/>
      <use xlink:href="#DejaVuSans-63" transform="translate(122.65625 0)"/>
      <use xlink:href="#DejaVuSans-63" transform="translate(177.636719 0)"/>
      <use xlink:href="#DejaVuSans-65" transform="translate(232.617188 0)"/>
      <use xlink:href="#DejaVuSans-6c" transform="translate(294.140625 0)"/>
      <use xlink:href="#DejaVuSans-5f" transform="translate(321.923828 0)"/>
      <use xlink:href="#DejaVuSans-69" transform="translate(371.923828 0)"/>
      <use xlink:href="#DejaVuSans-6e" transform="translate(399.707031 0)"/>
      <use xlink:href="#DejaVuSans-74" transform="translate(463.085938 0)"/>
      <use xlink:href="#DejaVuSans-65" transform="translate(502.294922 0)"/>
      <use xlink:href="#DejaVuSans-6c" transform="translate(563.818359 0)"/>
      <use xlink:href="#DejaVuSans-5f" transform="translate(591.601562 0)"/>
      <use xlink:href="#DejaVuSans-63" transform="translate(641.601562 0)"/>
     </g>
    </g>
    <g id="patch_105">
     <path d="M 390.47 92.479686 
L 406.47 92.479686 
L 406.47 86.879686 
L 390.47 86.879686 
z
" style="fill: #7f7f7f"/>
    </g>
    <g id="text_26">
     <!-- pyccel_intel_fortran -->
     <g transform="translate(412.87 92.479686) scale(0.08 -0.08)">
      <use xlink:href="#DejaVuSans-70"/>
      <use xlink:href="#DejaVuSans-79" transform="translate(63.476562 0)"/>
      <use xlink:href="#DejaVuSans-63" transform="translate(122.65625 0)"/>
      <use xlink:href="#DejaVuSans-63" transform="translate(177.636719 0)"/>
      <use xlink:href="#DejaVuSans-65" transform="translate(232.617188 0)"/>
      <use xlink:href="#DejaVuSans-6c" transform="translate(294.140625 0)"/>
      <use xlink:href="#DejaVuSans-5f" transform="translate(321.923828 0)"/>
      <use xlink:href="#DejaVuSans-69" transform="translate(371.923828 0)"/>
      <use xlink:href="#DejaVuSans-6e" transform="translate(399.707031 0)"/>
      <use xlink:href="#DejaVuSans-74" transform="translate(463.085938 0)"/>
      <use xlink:href="#DejaVuSans-65" transform="translate(502.294922 0)"/>
      <use xlink:href="#DejaVuSans-6c" transform="translate(563.818359 0)"/>
      <use xlink:href="#DejaVuSans-5f" transform="translate(591.601562 0)"/>
      <use xlink:href="#DejaVuSans-66" transform="translate(641.601562 0)"/>
      <use xlink:href="#DejaVuSans-6f" transform="translate(676.806641 0)"/>
      <use xlink:href="#DejaVuSans-72" transform="translate(737.988281 0)"/>
      <use xlink:href="#DejaVuSans-74" transform="translate(779.101562 0)"/>
      <use xlink:href="#DejaVuSans-72" transform="translate(818.310547 0)"/>
      <use xlink:href="#DejaVuSans-61" transform="translate(859.423828 0)"/>
      <use xlink:href="#DejaVuSans-6e" transform="translate(920.703125 0)"/>
     </g>
    </g>
   </g>
  </g>
 </g>
 <defs>
  <clipPath id="p4a6e510aa3">
   <rect x="31.97" y="11.504756" width="351.3" height="86.634861"/>
  </clipPath>
 </defs>
</svg>
